<svg viewBox="0 0 330 200" xmlns="http://www.w3.org/2000/svg"><g><g><g><g><g><line x1="40" y1="178" x2="35" y2="178" style="visibility: inherit;" fill="rgb(0, 0, 0)" stroke="rgb(204, 204, 204)" stroke-width="1px"></line><line x1="40" y1="160.20000000000002" x2="35" y2="160.20000000000002" style="visibility: inherit;" fill="rgb(0, 0, 0)" stroke="rgb(204, 204, 204)" stroke-width="1px"></line><line x1="40" y1="142.4" x2="35" y2="142.4" style="visibility: inherit;" fill="rgb(0, 0, 0)" stroke="rgb(204, 204, 204)" stroke-width="1px"></line><line x1="40" y1="124.6" x2="35" y2="124.6" style="visibility: inherit;" fill="rgb(0, 0, 0)" stroke="rgb(204, 204, 204)" stroke-width="1px"></line><line x1="40" y1="106.8" x2="35" y2="106.8" style="visibility: inherit;" fill="rgb(0, 0, 0)" stroke="rgb(204, 204, 204)" stroke-width="1px"></line><line x1="40" y1="89" x2="35" y2="89" style="visibility: inherit;" fill="rgb(0, 0, 0)" stroke="rgb(204, 204, 204)" stroke-width="1px"></line><line x1="40" y1="71.19999999999999" x2="35" y2="71.19999999999999" style="visibility: inherit;" fill="rgb(0, 0, 0)" stroke="rgb(204, 204, 204)" stroke-width="1px"></line><line x1="40" y1="53.400000000000006" x2="35" y2="53.400000000000006" style="visibility: inherit;" fill="rgb(0, 0, 0)" stroke="rgb(204, 204, 204)" stroke-width="1px"></line><line x1="40" y1="35.599999999999994" x2="35" y2="35.599999999999994" style="visibility: inherit;" fill="rgb(0, 0, 0)" stroke="rgb(204, 204, 204)" stroke-width="1px"></line><line x1="40" y1="17.800000000000015" x2="35" y2="17.800000000000015" style="visibility: inherit;" fill="rgb(0, 0, 0)" stroke="rgb(204, 204, 204)" stroke-width="1px"></line><line x1="40" y1="0" x2="35" y2="0" style="visibility: inherit;" fill="rgb(0, 0, 0)" stroke="rgb(204, 204, 204)" stroke-width="1px"></line></g><g transform="translate(30, 0)"><text x="0" y="178" dx="0em" dy="0.3em" style="text-anchor: end; visibility: hidden; font-family: Roboto, sans-serif; font-size: 12px; font-weight: 200;" fill="rgb(50, 49, 63)" stroke="none" stroke-width="1px">1</text><text x="0" y="160.20000000000002" dx="0em" dy="0.3em" style="text-anchor: end; visibility: inherit; font-family: Roboto, sans-serif; font-size: 12px; font-weight: 200;" fill="rgb(50, 49, 63)" stroke="none" stroke-width="1px">1.2</text><text x="0" y="142.4" dx="0em" dy="0.3em" style="text-anchor: end; visibility: hidden; font-family: Roboto, sans-serif; font-size: 12px; font-weight: 200;" fill="rgb(50, 49, 63)" stroke="none" stroke-width="1px">1.4</text><text x="0" y="124.6" dx="0em" dy="0.3em" style="text-anchor: end; visibility: inherit; font-family: Roboto, sans-serif; font-size: 12px; font-weight: 200;" fill="rgb(50, 49, 63)" stroke="none" stroke-width="1px">1.6</text><text x="0" y="106.8" dx="0em" dy="0.3em" style="text-anchor: end; visibility: hidden; font-family: Roboto, sans-serif; font-size: 12px; font-weight: 200;" fill="rgb(50, 49, 63)" stroke="none" stroke-width="1px">1.8</text><text x="0" y="89" dx="0em" dy="0.3em" style="text-anchor: end; visibility: inherit; font-family: Roboto, sans-serif; font-size: 12px; font-weight: 200;" fill="rgb(50, 49, 63)" stroke="none" stroke-width="1px">2</text><text x="0" y="71.19999999999999" dx="0em" dy="0.3em" style="text-anchor: end; visibility: hidden; font-family: Roboto, sans-serif; font-size: 12px; font-weight: 200;" fill="rgb(50, 49, 63)" stroke="none" stroke-width="1px">2.2</text><text x="0" y="53.400000000000006" dx="0em" dy="0.3em" style="text-anchor: end; visibility: inherit; font-family: Roboto, sans-serif; font-size: 12px; font-weight: 200;" fill="rgb(50, 49, 63)" stroke="none" stroke-width="1px">2.4</text><text x="0" y="35.599999999999994" dx="0em" dy="0.3em" style="text-anchor: end; visibility: hidden; font-family: Roboto, sans-serif; font-size: 12px; font-weight: 200;" fill="rgb(50, 49, 63)" stroke="none" stroke-width="1px">2.6</text><text x="0" y="17.800000000000015" dx="0em" dy="0.3em" style="text-anchor: end; visibility: inherit; font-family: Roboto, sans-serif; font-size: 12px; font-weight: 200;" fill="rgb(50, 49, 63)" stroke="none" stroke-width="1px">2.8</text><text x="0" y="0" dx="0em" dy="0.3em" style="text-anchor: end; visibility: hidden; font-family: Roboto, sans-serif; font-size: 12px; font-weight: 200;" fill="rgb(50, 49, 63)" stroke="none" stroke-width="1px">3</text></g><line x1="40" y1="0" x2="40" y2="178" fill="rgb(0, 0, 0)" stroke="rgb(204, 204, 204)" stroke-width="1px"></line></g></g><g transform="translate(40, 0)" clip-path="url(#clip_0)"><clipPath id="clip_0"><rect width="290" height="178"></rect></clipPath><g><g><g><line x1="0" y1="0" x2="0" y2="178" fill="rgb(0, 0, 0)" stroke="rgb(60, 60, 60)" stroke-width="1px" opacity="0.25"></line><line x1="20.71428571428571" y1="0" x2="20.71428571428571" y2="178" fill="rgb(0, 0, 0)" stroke="rgb(60, 60, 60)" stroke-width="1px" opacity="0.25"></line><line x1="41.42857142857142" y1="0" x2="41.42857142857142" y2="178" fill="rgb(0, 0, 0)" stroke="rgb(60, 60, 60)" stroke-width="1px" opacity="0.25"></line><line x1="62.14285714285714" y1="0" x2="62.14285714285714" y2="178" fill="rgb(0, 0, 0)" stroke="rgb(60, 60, 60)" stroke-width="1px" opacity="0.25"></line><line x1="82.85714285714285" y1="0" x2="82.85714285714285" y2="178" fill="rgb(0, 0, 0)" stroke="rgb(60, 60, 60)" stroke-width="1px" opacity="0.25"></line><line x1="103.57142857142857" y1="0" x2="103.57142857142857" y2="178" fill="rgb(0, 0, 0)" stroke="rgb(60, 60, 60)" stroke-width="1px" opacity="0.25"></line><line x1="124.28571428571428" y1="0" x2="124.28571428571428" y2="178" fill="rgb(0, 0, 0)" stroke="rgb(60, 60, 60)" stroke-width="1px" opacity="0.25"></line><line x1="145" y1="0" x2="145" y2="178" fill="rgb(0, 0, 0)" stroke="rgb(60, 60, 60)" stroke-width="1px" opacity="0.25"></line><line x1="165.7142857142857" y1="0" x2="165.7142857142857" y2="178" fill="rgb(0, 0, 0)" stroke="rgb(60, 60, 60)" stroke-width="1px" opacity="0.25"></line><line x1="186.42857142857144" y1="0" x2="186.42857142857144" y2="178" fill="rgb(0, 0, 0)" stroke="rgb(60, 60, 60)" stroke-width="1px" opacity="0.25"></line><line x1="207.14285714285714" y1="0" x2="207.14285714285714" y2="178" fill="rgb(0, 0, 0)" stroke="rgb(60, 60, 60)" stroke-width="1px" opacity="0.25"></line><line x1="227.85714285714286" y1="0" x2="227.85714285714286" y2="178" fill="rgb(0, 0, 0)" stroke="rgb(60, 60, 60)" stroke-width="1px" opacity="0.25"></line><line x1="248.57142857142856" y1="0" x2="248.57142857142856" y2="178" fill="rgb(0, 0, 0)" stroke="rgb(60, 60, 60)" stroke-width="1px" opacity="0.25"></line><line x1="269.2857142857143" y1="0" x2="269.2857142857143" y2="178" fill="rgb(0, 0, 0)" stroke="rgb(60, 60, 60)" stroke-width="1px" opacity="0.25"></line><line x1="290" y1="0" x2="290" y2="178" fill="rgb(0, 0, 0)" stroke="rgb(60, 60, 60)" stroke-width="1px" opacity="0.25"></line></g><g><line x1="0" y1="178" x2="290" y2="178" fill="rgb(0, 0, 0)" stroke="rgb(60, 60, 60)" stroke-width="1px" opacity="0.25"></line><line x1="0" y1="160.20000000000002" x2="290" y2="160.20000000000002" fill="rgb(0, 0, 0)" stroke="rgb(60, 60, 60)" stroke-width="1px" opacity="0.25"></line><line x1="0" y1="142.4" x2="290" y2="142.4" fill="rgb(0, 0, 0)" stroke="rgb(60, 60, 60)" stroke-width="1px" opacity="0.25"></line><line x1="0" y1="124.6" x2="290" y2="124.6" fill="rgb(0, 0, 0)" stroke="rgb(60, 60, 60)" stroke-width="1px" opacity="0.25"></line><line x1="0" y1="106.8" x2="290" y2="106.8" fill="rgb(0, 0, 0)" stroke="rgb(60, 60, 60)" stroke-width="1px" opacity="0.25"></line><line x1="0" y1="89" x2="290" y2="89" fill="rgb(0, 0, 0)" stroke="rgb(60, 60, 60)" stroke-width="1px" opacity="0.25"></line><line x1="0" y1="71.19999999999999" x2="290" y2="71.19999999999999" fill="rgb(0, 0, 0)" stroke="rgb(60, 60, 60)" stroke-width="1px" opacity="0.25"></line><line x1="0" y1="53.400000000000006" x2="290" y2="53.400000000000006" fill="rgb(0, 0, 0)" stroke="rgb(60, 60, 60)" stroke-width="1px" opacity="0.25"></line><line x1="0" y1="35.599999999999994" x2="290" y2="35.599999999999994" fill="rgb(0, 0, 0)" stroke="rgb(60, 60, 60)" stroke-width="1px" opacity="0.25"></line><line x1="0" y1="17.800000000000015" x2="290" y2="17.800000000000015" fill="rgb(0, 0, 0)" stroke="rgb(60, 60, 60)" stroke-width="1px" opacity="0.25"></line><line x1="0" y1="0" x2="290" y2="0" fill="rgb(0, 0, 0)" stroke="rgb(60, 60, 60)" stroke-width="1px" opacity="0.25"></line></g></g></g><g><g><line x1="0" y1="267" x2="290" y2="267" fill="rgb(0, 0, 0)" stroke="rgb(153, 153, 153)" stroke-width="1.5px"></line></g></g><g><g><line x1="20.71428571428571" y1="0" x2="20.71428571428571" y2="178" fill="rgb(0, 0, 0)" stroke="rgb(153, 153, 153)" stroke-width="1.5px"></line></g></g><g><g><g><g><g><path stroke="rgb(255, 112, 67)" stroke-width="2px" d="M21.232142857142858,61.02877998352051L21.335714285714285,51.75818094611168L21.75,74.49208456156204L21.853571428571428,83.80199981261701L22.164285714285715,92.38043906058311L22.267857142857146,96.92813430139125L22.57857142857143,97.78585564056922L22.682142857142857,91.52034631083333L22.785714285714285,85.17506527596089L23.2,78.97601784850791L24.132142857142856,66.23731319260793L24.442857142857143,79.22130068239282L24.857142857142858,-103.00064370763828L25.064285714285713,-32.87579875234681L25.271428571428572,4.3519251399244L25.375,21.04342760755014L25.58214285714286,32.47946973668622L25.789285714285715,28.51192928177066L26.20357142857143,33.05353359745591L26.307142857142857,35.20978354715296L26.410714285714285,22.817171701285076L26.514285714285716,31.098229285833515L26.617857142857144,42.184039138503465L27.239285714285714,36.84403007707545L27.44642857142857,47.98003617015955L27.55,41.46038645051556L27.65357142857143,44.73993494918565L27.757142857142856,53.393818845762155L28.067857142857143,53.995443464707236L28.17142857142857,55.298688962915705L28.275000000000002,58.763318756746564L28.378571428571426,57.50268634033348L28.896428571428572,64.57842717503958L29.41428571428571,58.85193389897908L29.724999999999998,70.92648084801336L29.82857142857143,77.03890706550654L30.45,17.415049764782626L31.27857142857143,44.86062444701684L31.589285714285715,54.73560543743364L31.692857142857143,57.06692669636268L32.417857142857144,74.42729182352005L32.72857142857143,76.2207531658064L32.93571428571428,93.9705629237434L33.660714285714285,91.36230267765282L33.76428571428571,93.40993293355626L34.074999999999996,101.77884082983906L34.17857142857143,101.23162534825526L34.90357142857143,105.85864531403752L35.11071428571429,104.66465007903142L35.31785714285714,107.03503472593532L35.42142857142857,103.86503710141494L35.525,104.5681559907857L36.25,108.83535074398445L36.76785714285714,105.0672204447083L36.975,104.32138848020341L37.07857142857143,101.68042111226046L37.18214285714286,102.77930812733274L37.49285714285714,101.75931041656065L37.80357142857143,106.5315361095559L38.010714285714286,111.73597479302263L38.114285714285714,110.89430003427607L38.425000000000004,112.23611291088551L39.04642857142857,107.10926494501756L39.150000000000006,107.01092616023257L39.357142857142854,106.73036417544861L39.667857142857144,89.69991799104794L39.875,75.89725153391709L39.97857142857143,71.08149419275013L40.18571428571428,68.89942179946355L40.392857142857146,63.25927778976113L40.496428571428574,10.136862164121569L41.221428571428575,37.80057261310916L42.05,59.77414506627858L42.153571428571425,69.96128965588656L42.25714285714286,77.76398702366498L42.67142857142857,89.72664430083839L43.707142857142856,94.628244557035L43.81071428571429,8.291801165373327L44.01785714285714,32.1464706604667L44.225,42.84339272648021L44.43214285714286,45.91766321462348L44.74285714285714,56.800821183931575L44.84642857142857,44.81303837228521L44.95,52.301902308039104L45.260714285714286,44.98626471398605L46.29642857142857,63.51730022930105L46.50357142857143,64.49518934549688L47.125,64.52308406628248L47.43571428571428,75.38246053574728L47.53928571428571,75.94706188510806L47.642857142857146,78.94576646608682L47.746428571428574,76.67108775211912L47.95357142857143,60.97901507039986L48.36785714285714,74.72782051456046L48.575,-195.90446446006257L49.50714285714285,-5.522055973764134L50.128571428571426,8.224913769867488L50.85357142857143,27.304149540607007L50.957142857142856,27.789196534361785L51.474999999999994,35.3156931182184L51.57857142857143,37.899688373830195L51.88928571428572,35.09426506210942L51.99285714285715,35.669121598300805L52.09642857142857,42.67638884490578L52.510714285714286,7.610259690915626L52.614285714285714,8.437481307408287L52.82142857142857,26.35719799007242L53.13214285714286,36.162725681097875L53.54642857142857,44.535018297452666L53.65,49.444505889665415L53.753571428571426,54.417927288682066L53.85714285714286,45.17349406699585L54.06428571428571,51.93799040687233L54.375,41.73471864445297L54.47857142857143,19.933373834987194L54.58214285714286,36.3437560476659L54.89285714285714,51.2606145905136L55.20357142857143,45.96609203616853L55.825,62.69298739790963L56.03214285714286,62.967860576868354L56.34285714285714,76.38960649809854L56.44642857142857,85.06318990136157L56.65357142857143,89.1303529247342L56.75714285714285,65.91225296882978L57.275000000000006,75.2885531820547L57.37857142857143,69.74882151113104L57.792857142857144,77.43830133334488L58,81.04090028319173L58.31071428571428,84.23079560585862L58.725,85.21978553764845L59.13928571428571,88.50394211192625L59.346428571428575,89.54841934430418L59.760714285714286,96.7053988622893L59.864285714285714,97.15773886723932L59.96785714285715,94.09895926882992L60.175,88.72807158333163L60.69285714285714,86.63439477266135L60.79642857142857,90.95838554371156L61.21071428571429,87.76673941414806L61.31428571428572,85.91091950298099L61.417857142857144,87.27246675229517L62.45357142857143,91.870530279496L62.97142857142857,93.20878180981795L63.69642857142857,85.2747814722128L63.8,70.2654223959009L64.31785714285714,78.77022355320216L64.42142857142858,84.10413948012686L64.62857142857143,87.77490291186152L64.83571428571429,89.11445880644308L65.25,65.32203889317982L66.18214285714285,75.57856488482757L66.38928571428572,82.79116845283868L66.49285714285715,88.44689459892489L66.80357142857143,95.24807450349554L67.425,93.25942662462847L68.25357142857142,85.11340572300709L68.35714285714286,57.5903411976287L68.46071428571429,50.093675200449795L68.66785714285714,60.55041984576427L68.77142857142857,69.7358500710633L69.08214285714286,62.21372493216437L69.18571428571428,72.85216817920829L69.70357142857142,77.20047746697323L69.80714285714286,86.25560065865074L70.94642857142857,94.20723870253296L71.25714285714285,94.31947075638611L71.3607142857143,98.43740846701525L71.56785714285714,90.90358163111247L71.775,83.79423952813647L72.08571428571429,74.83749018142048L73.225,39.379385531123994L73.63928571428572,55.089656198129966L73.74285714285715,62.17787275559064L73.95,59.31117445138906L74.26071428571429,65.16586879436859L74.46785714285714,64.35684969153814L74.98571428571428,71.17471486405617L75.08928571428572,79.03662155911975L75.71071428571429,86.34062175062688L75.91785714285714,87.87558052603836L76.02142857142857,11.473455844309537L76.125,43.12524720310368L76.22857142857143,65.89793675112246L76.33214285714287,79.87484002690029L76.43571428571428,86.87874284136599L76.64285714285714,91.0472101136941L76.85000000000001,91.61110418825736L77.36785714285715,96.52459179037447L77.47142857142856,104.46506120368025L77.575,106.81509257319081L77.78214285714286,108.67776899911468L78.19642857142857,110.14403689728678L78.40357142857142,106.76250045792162L78.61071428571428,107.65605970201432L79.025,103.57062909589732L79.12857142857143,107.75430029384209L79.23214285714285,103.4807076558585L79.64642857142857,94.29062796265572L80.06071428571428,104.00583362955265L80.16428571428571,98.72370710598477L80.47500000000001,102.44932207242874L80.68214285714285,102.56254926190515L80.78571428571429,110.09358138362013L80.8892857142857,115.69843546461726L80.99285714285715,115.1216752047042L81.09642857142858,117.42475373236536L81.2,116.24421896152614L81.40714285714284,101.43769873149942L81.51071428571429,106.22592881302685L82.02857142857142,110.44209229338557L82.13214285714285,111.4164488040709L82.44285714285715,114.54869297285695L82.54642857142858,108.34991633379352L82.85714285714285,108.1428993909591L83.06428571428572,80.61388323122463L83.47857142857143,68.19497235664247L83.6857142857143,60.38031826048209L83.89285714285715,47.37789865511127L84.1,33.70009715662878L84.41071428571429,35.9078513580947L84.82499999999999,36.612672507666865L84.92857142857143,43.53811208003958L85.13571428571429,41.28997378107431L85.44642857142857,46.91714108321976L85.8607142857143,50.62851894100852L86.37857142857143,18.077600218059686L87.10357142857143,45.07219756674889L87.20714285714286,39.717638093424604L87.41428571428571,24.242940853949015L87.51785714285714,32.411985558817165L87.62142857142858,41.845352651208266L87.725,36.021903325038956L87.93214285714286,34.43086126382221L88.24285714285713,23.73237177690904L88.65714285714286,26.01636341190957L88.76071428571429,38.49182926998511L89.175,36.958179112589214L89.48571428571428,48.57962882299176L89.9,62.00510389673083L90.21071428571427,65.88738507668593L90.31428571428572,57.08414880419028L90.41785714285714,59.51469273557814L90.52142857142857,70.64481427187056L90.625,74.64879442402322L90.83214285714286,74.14348273961903L90.93571428571428,69.94744542532656L91.03928571428573,79.62053458269534L91.24642857142858,56.896718599653816L91.35,52.617980920229286L91.45357142857142,73.16948001560802L91.55714285714286,25.768375974757866L91.76428571428572,43.73812538496457L91.97142857142856,49.841944444845936L92.075,47.7935236386483L92.8,60.314819055320314L93.11071428571428,59.928092597437804L93.21428571428572,57.98498704344805L93.31785714285714,64.96499144024119L93.525,73.53083164087813L93.83571428571429,79.99948433990406L94.04285714285714,78.5355544802852L94.25,73.10569214327978L94.66428571428571,55.95574164094835L95.07857142857142,62.65428767026849L95.3892857142857,73.18231945885053L95.49285714285715,80.40412272007961L95.59642857142856,71.71728289718449L95.7,71.04791562911882L95.80357142857143,72.16703673098692L96.32142857142857,70.04433262285117L96.94285714285715,79.82873370609597L97.15,55.00860144115635L97.25357142857143,71.16793743024554L97.35714285714285,76.2144345238822L97.66785714285714,79.42253516882764L97.97857142857143,83.91246380072897L98.08214285714286,56.00375889338295L98.39285714285715,53.68310441134714L98.49642857142857,56.31780351137127L98.60000000000001,75.05298898777367L98.80714285714285,76.47660521364809L99.0142857142857,72.07803361235023L99.63571428571429,81.33169660936568L99.94642857142857,89.57489043456779L100.05,91.85921634425205L100.3607142857143,86.32457025760107L100.46428571428571,96.10783448167855L100.56785714285715,93.0360505005611L100.77499999999999,94.17126785641273L100.87857142857143,91.19106275394775L101.5,89.5476040754033L101.91428571428571,89.26568555315214L102.01785714285715,90.74482059168741L102.225,91.72768215947106L102.43214285714285,89.74439909823388L102.63928571428572,91.91852123002798L102.74285714285713,97.86306809461468L102.84642857142858,69.25226659224246L102.94999999999999,67.32586948064454L103.05357142857143,86.46735062591726L103.36428571428571,92.27458666796979L103.57142857142857,98.19528903386293L103.77857142857144,96.67900794637977L104.08928571428571,100.69612079794871L104.29642857142858,97.22809933385649L104.39999999999999,101.4867294237697L104.50357142857143,104.49610559974217L104.91785714285713,96.38753161927522L105.125,95.37166167557514L105.22857142857143,101.58070069110558L105.43571428571428,99.80326717827418L105.74642857142858,79.85642453273353L106.16071428571428,86.97891638422142L106.47142857142858,84.7677057608612L106.78214285714286,92.95031147150084L106.88571428571429,95.76118038265636L107.09285714285714,99.20120991569001L107.3,98.59572671235344L107.50714285714285,90.42230009067501L108.025,100.89421600716379L108.33571428571427,96.3245237029616L108.43928571428572,98.07121702176474L108.54285714285714,103.65641019429054L108.85357142857143,102.47379492333702L109.68214285714286,87.26287755138378L109.78571428571428,94.14012580374899L109.88928571428572,98.86885541236414L110.09642857142856,73.1406406972171L110.51071428571429,84.12976281722551L110.71785714285714,92.21859083700281L110.82142857142857,95.00235687570634L111.23571428571428,99.68154908941305L111.44285714285714,95.9343309028513L111.54642857142856,107.16729200026793L111.85714285714286,105.52310392940879L112.06428571428572,105.70021251252197L112.27142857142857,90.96053726321998L112.58214285714287,86.1902091911229L112.78928571428571,91.77003719871L112.89285714285714,93.06938907185051L113.10000000000001,89.15615857052119L113.20357142857142,85.89452769999092L113.5142857142857,84.10901772167911L113.825,78.2510131072201L113.92857142857143,84.6665621203898L114.65357142857142,39.43732407109249L114.75714285714287,69.61526400098984L114.86071428571428,73.03816446214788L114.96428571428571,88.32153215736074L115.17142857142856,99.77068309026912L115.275,84.37057130359386L115.48214285714285,78.94692278398738L115.58571428571429,92.10337333973446L115.6892857142857,71.3101539438736L116,81.29537085448334L116.10357142857143,83.90702082964555L116.20714285714286,92.81314798744187L116.31071428571428,103.21093643040459L116.51785714285715,99.67322037417291L117.1392857142857,103.60499971984981L117.24285714285715,108.34234248327708L117.55357142857143,113.85528456406293L118.27857142857142,106.68830110571683L118.58928571428571,113.92488762105646L119.31428571428572,113.99291265228476L119.41785714285714,118.5316152824109L119.52142857142857,115.53482634145887L119.72857142857143,110.52226098965924L119.83214285714286,97.07950878495765L119.9357142857143,101.27910375806566L120.24642857142857,99.95048174984977L120.35,98.48761387901142L120.55714285714285,97.11200883529564L120.76428571428572,103.02826153362979L120.86785714285713,102.03976652100795L121.28214285714286,97.85770862743327L121.38571428571429,88.25665560630003L121.8,99.51790527860544L121.90357142857144,89.42753536915912L122.00714285714285,95.0655295337208L122.1107142857143,98.6467260530572L122.42142857142858,101.3982702261794L122.52499999999999,108.32586914101769L122.62857142857143,99.93074773430544L122.93928571428572,101.6593023221476L123.04285714285713,81.44963469986813L123.87142857142858,84.63974704077657L124.28571428571428,91.50224622327576L124.49285714285713,99.70108242177062L124.7,66.95474922265466L124.80357142857143,78.94248826268824L125.11428571428571,84.68746084549139L125.21785714285714,86.09120852099724L125.425,91.31923917738716L125.52857142857144,99.15324489955974L125.63214285714285,88.39792600086254L125.73571428571428,99.10791939980341L126.04642857142858,90.4012180476579L126.875,77.16877934391454L127.08214285714286,86.82561128768418L127.28928571428573,84.69959860702214L127.49642857142858,82.00908268487368L127.6,82.7041833221669L127.70357142857142,89.01377099870174L127.91071428571428,89.12300783466416L128.11785714285713,92.7695705775685L128.22142857142856,88.64582428242366L128.325,91.54253879133225L128.63571428571427,87.79070948924635L128.84285714285716,91.8900931320549L129.56785714285715,92.0754309917665L129.67142857142858,95.3190581098304L129.98214285714286,94.09099531740581L130.18928571428572,93.41835012776036L130.81071428571428,96.79406484807954L130.9142857142857,98.48494244125739L131.12142857142857,103.95357280079874L131.32857142857142,101.91379826727122L131.74285714285713,109.22046814836628L132.15714285714287,112.94112650440674L132.3642857142857,89.8045883171948L132.57142857142856,103.09136900861216L132.88214285714287,107.74071026777716L132.9857142857143,110.028730064246L133.08928571428572,109.17476376868066L133.19285714285715,106.39022632227406L133.81428571428572,101.19443414083759L133.91785714285714,109.98719852847837L134.5392857142857,110.10693079044212L134.74642857142857,115.30041044837111L134.95357142857142,106.87414523295088L135.05714285714285,110.62231381137087L135.16071428571428,121.53900842308352L136.09285714285716,123.77726438307374L136.29999999999998,123.1566646257854L136.6107142857143,124.464818725575L137.025,115.32392154311478L137.23214285714286,107.3128661285361L137.3357142857143,110.6958716851783L137.75,117.39239998712016L137.85357142857143,116.70940353902502L138.06071428571428,120.20008641739085L138.1642857142857,121.86886338150141L138.26785714285714,114.88747184130928L138.57857142857142,116.41960654648173L138.68214285714285,104.6876416325094L139.71785714285713,106.85328150507937L139.92499999999998,114.97266083191114L140.02857142857144,97.19407633084225L140.33928571428572,101.75645071946482L140.44285714285715,111.46169256378948L140.54642857142858,117.23414062982643L140.85714285714286,106.2271055670133L140.9607142857143,107.04299861738389L141.06428571428572,114.77365140050233L142.61785714285713,98.58469216781604L142.92857142857144,90.8069793746337L143.13571428571427,102.35641081127315L143.23928571428573,110.71430367823118L143.44642857142858,122.55015942213342L143.55,119.35211880658511L143.86071428571427,129.08521518501308L144.17142857142858,122.14981771345536L144.275,98.04957662126779L144.37857142857143,110.60888358414984L144.48214285714286,100.88309729373941L144.68928571428572,110.80848071739966L144.89642857142857,114.68775480846104L145.10357142857143,114.78240872537815L145.3107142857143,115.06426945397689L145.4142857142857,100.42457069795987L145.62142857142857,99.32781647349393L145.82857142857145,104.74518422308562L146.03571428571428,94.03802125467656L146.1392857142857,108.39915361889481L146.24285714285716,116.46119570069482L146.3464285714286,124.42852396567446L146.45,126.81614453077185L147.4857142857143,124.07527164506834L147.9,124.14819610052061L148.31428571428572,119.5042696710393L148.41785714285714,112.15212883448393L148.52142857142857,116.94772566494815L148.72857142857143,119.98778451167031L149.0392857142857,113.90538165976098L149.35,116.09737976795131L149.55714285714285,120.65542378667409L149.76428571428573,120.89581236030706L149.86785714285713,121.86656513682634L150.075,119.43380331320542L150.4892857142857,116.65848459793914L150.59285714285713,113.79112504716986L150.69642857142858,126.36201662299797L150.90357142857144,122.09473835514645L151.00714285714284,115.96599742821849L151.31785714285715,106.79336937100886L151.42142857142858,114.46399102110384L151.52499999999998,117.65884848534297L151.62857142857143,119.68727862894077L151.8357142857143,118.6489931825372L152.35357142857143,118.65552077791527L152.66428571428574,118.95724955857656L153.18214285714288,123.54233441150703L153.3892857142857,122.69496489403555L153.80357142857142,125.31788540385908L154.01071428571427,126.89369173349587L154.42499999999998,135.1179863661626L154.5285714285714,137.4748015433609L154.63214285714287,120.09024043262359L154.7357142857143,131.68403222191546L154.94285714285712,121.42826734798082L155.25357142857143,126.54527065048772L155.35714285714286,111.13497117096281L155.56428571428572,96.66585046609697L155.66785714285714,113.99626311397824L155.77142857142857,115.98851614437265L156.39285714285714,121.40301097179511L156.60000000000002,124.62705533948574L156.70357142857142,116.50198980121037L156.91071428571428,125.24944388835563L157.01428571428573,127.8540992019709L157.325,79.81289802063321L157.42857142857142,98.65277434628496L157.94642857142856,114.2109270646649L158.05,114.64415086236461L158.15357142857144,117.82046783522883L158.4642857142857,120.9760465893514L158.67142857142858,129.6629245920996L158.775,135.1794415857804L158.8785714285714,128.3589109269626L158.98214285714286,126.37882068680807L159.0857142857143,134.91033050374438L159.18928571428572,140.35126402948052L159.81071428571428,118.09662467821686L160.32857142857142,114.7801533137813L160.43214285714288,122.58542592496009L160.5357142857143,122.54820103150803L161.05357142857144,127.79806548775552L161.46785714285716,131.9774786855061L161.675,130.90418235214227L161.7785714285714,129.59346589894102L162.19285714285715,125.95731998354795L162.60714285714286,133.36940441650512L163.33214285714286,122.06651560141064L163.5392857142857,123.60277213855635L163.85,124.71278327825101L164.05714285714285,124.33458625151175L164.16071428571428,123.17893101497565L164.4714285714286,121.61928306653543L164.575,119.02927524229553L164.78214285714284,126.20628465640942L164.8857142857143,128.47630346672773L165.19642857142856,131.0826627067151L166.95714285714286,135.34340293713942L167.06071428571428,134.82944655125462L167.1642857142857,133.77651457610799L167.26785714285714,136.0254091061537L167.68214285714285,128.7068759702077L167.99285714285713,131.32315569534484L168.09642857142856,138.86382201561082L168.40714285714287,133.41134044676275L168.51071428571427,125.6560959169224L168.6142857142857,124.26448427134486L169.02857142857144,126.517979636751L169.13214285714284,118.58238411841535L169.23571428571427,126.64856634675111L169.44285714285715,127.90026117645886L169.64999999999998,119.14288388063424L169.85714285714286,125.19940182191083L170.06428571428572,121.45621841324537L170.68571428571428,114.29665919049484L170.89285714285714,128.34827005805911L171.41071428571428,131.77915289367644L171.5142857142857,138.12976466635112L172.44642857142858,125.15050770651843L172.54999999999998,132.02662902958122L173.68928571428572,122.25715798072177L174.10357142857143,125.40323945243455L174.20714285714286,131.5485145828682L174.51785714285714,133.89093917498337L174.62142857142857,132.96312056713907L174.93214285714285,101.9598603888369L175.13928571428573,99.48726152443983L175.24285714285716,109.89405946173727L175.34642857142856,107.61502611779248L176.07142857142856,103.39273378934308L176.175,108.53385737947131L176.27857142857144,121.1148689473361L176.38214285714287,122.78621796874344L176.69285714285715,121.0801902062186L176.9,118.1122406152778L177.0035714285714,116.25290869640666L177.10714285714286,117.20021566729163L177.2107142857143,119.97093768704185L177.72857142857143,122.97057006232887L177.93571428571428,113.7500707475719L178.45357142857142,125.10454541256293L178.55714285714288,108.20940807944694L178.86785714285713,105.30411464861726L179.59285714285716,112.82246798808393L179.8,120.7768046530188L180.8357142857143,128.56992495489723L181.04285714285714,131.31474321146374L181.14642857142857,131.21110940611104L181.35357142857143,137.4448895969137L181.45714285714286,124.88726018179324L181.6642857142857,136.83361238425294L181.76785714285714,138.66621586194825L182.3892857142857,136.61205790347572L182.49285714285716,135.96868599597641L183.11428571428573,137.42476142134683L183.21785714285716,129.08027489594468L184.15,123.47576870686918L184.56428571428572,113.75388811926311L184.77142857142857,117.55781478226342L185.18571428571428,133.43111116016004L185.80714285714285,135.9372325320488L186.11785714285713,135.7248067128328L186.325,120.24588332579536L186.63571428571427,122.06587487462761L186.84285714285713,127.63604897262813L186.94642857142858,129.56501055957173L187.36071428571427,135.86390600920495L187.46428571428572,134.88212658358083L187.67142857142858,138.5864820563344L187.77499999999998,129.04130049249815L187.98214285714286,135.8274357539492L188.29285714285714,131.57640367877943L188.39642857142857,140.0099904425887L188.5,133.22813967990564L188.91428571428574,126.62168605403714L189.12142857142857,123.9153984026707L189.225,131.81163118103723L189.32857142857142,102.4588915694927L189.53571428571428,115.23643571073858L189.74285714285713,120.39556788167387L189.95000000000002,117.92210077500958L190.26071428571427,119.88985409293544L190.57142857142858,103.91656445237382L190.67499999999998,108.39302400810946L190.7785714285714,116.82433092631955L191.08928571428572,127.29928286098279L191.29642857142858,122.81077641977569L191.4,117.12764631947101L191.71071428571426,109.8106034472002L191.81428571428572,114.23153695311625L192.125,113.63876500634241L192.5392857142857,126.64806565587453L192.64285714285714,125.63927846518L192.74642857142857,137.7477001510074L193.47142857142856,123.0911338425881L193.67857142857142,124.0779373703722L193.78214285714287,127.26981940617108L193.8857142857143,112.93966635912622L194.19642857142856,118.40679917842131L194.3,129.68753529852617L194.50714285714287,138.86229549208872L194.92142857142858,124.64629565691705L195.025,129.28261024365278L195.1285714285714,125.60026320582303L195.43928571428572,127.64397850492999L195.85357142857143,128.03165249144675L195.95714285714286,130.99414780208852L196.1642857142857,131.76448585074775L196.26785714285717,132.04093109060307L196.37142857142857,138.77348243289578L196.475,138.78525516446462L196.68214285714288,126.05648463401815L196.99285714285713,128.90034528633132L197.09642857142856,133.48932273423773L197.20000000000002,139.34652156374517L197.30357142857144,138.25698854173223L197.71785714285716,133.25419174221156L197.82142857142858,136.25078498474957L198.33928571428572,137.27219264001968L198.54642857142855,135.16693148786615L198.65,138.1922071562695L198.75357142857143,130.0812646261744L199.16785714285714,144.32458909224823L199.47857142857143,136.19216985625837L199.6857142857143,145.77218820525894L199.99642857142857,149.24482895060592L200.1,116.66227698996195L200.20357142857145,129.79926591321546L200.30714285714285,134.9441161465926L200.41071428571428,147.72182542754905L200.61785714285716,124.33534659548818L200.825,125.58913053038249L201.1357142857143,133.4135531721266L201.23928571428573,115.0498253427596L201.44642857142856,127.78836783901758L201.54999999999998,137.08545776090565L201.65357142857144,136.92105176378217L201.9642857142857,37.32374960380151L202.17142857142858,73.16500176308965L202.275,89.40329135250101L202.37857142857143,104.37283037180333L202.48214285714283,105.64470351978916L203.20714285714286,111.21937378194795L203.31071428571428,108.36429200140755L203.6214285714286,119.17305971126626L204.13928571428573,122.40516687000316L204.55357142857144,121.46960001328303L205.175,129.5441693135423L205.27857142857144,141.6009871761991L205.48571428571427,138.88301032787524L205.89999999999998,135.75389028791164L206.00357142857143,127.96775160553203L206.10714285714286,130.03524815036147L206.31428571428572,140.32150537367636L206.41785714285714,129.19427174684984L206.52142857142857,121.95091916535844L206.93571428571428,134.07014017948242L207.35,145.14736712961633L207.55714285714288,123.87800558203006L207.66071428571428,136.40995955344167L208.48928571428573,129.41690249369216L208.59285714285716,121.82910267785593L208.9035714285714,122.36581831142547L209.21428571428572,136.99439466574933L209.62857142857143,114.99802096235243L209.83571428571426,129.78492917744808L210.25,121.22739251928621L210.76785714285714,135.29958820627388L210.87142857142857,140.78674531153592L211.28571428571428,146.6583289633498L211.38928571428573,146.66824500145347L211.7,146.93858227957386L211.80357142857142,125.10137129920183L211.90714285714287,130.1106494492141L212.21785714285713,134.90368806277797L212.52857142857144,129.02850434157304L212.63214285714287,126.65791247471005L212.8392857142857,125.89807337632077L213.04642857142858,121.24364777869162L213.15,135.05055983344423L213.2535714285714,135.4853232352716L213.97857142857143,142.7842851429452L214.18571428571428,138.75286793406426L214.2892857142857,117.67771887597809L214.9107142857143,122.5890027035318L215.0142857142857,118.91048546725763L215.11785714285713,118.65912401732358L215.22142857142856,124.22030103240343L215.32500000000002,131.04651348611077L215.53214285714284,143.35503845703818L215.84285714285716,144.9868159609569L216.56785714285715,150.56688291534977L216.67142857142855,152.73375758352992L216.775,142.57030373110246L217.70714285714286,146.1051401930682L218.01785714285714,150.69180845246507L218.12142857142857,156.0788545073616L218.53571428571428,148.73922564158127L218.6392857142857,147.83131185513307L218.74285714285716,136.9189551314209L218.8464285714286,130.8205702090558L219.15714285714284,126.89499572421886L219.2607142857143,117.61034252349005L219.36428571428573,121.28307334246317L219.46785714285716,120.51357188023377L219.88214285714287,132.91743544457702L219.9857142857143,126.65762431453675L220.0892857142857,135.43743605036147L220.4,133.07377611767416L220.60714285714283,145.85361186964016L220.81428571428572,140.66391034306704L221.02142857142857,134.4056591712333L221.125,139.61364477413278L221.22857142857143,143.12628589592802L221.43571428571428,140.77395268990057L221.5392857142857,140.44560893007193L222.05714285714285,140.14170856254145L222.36785714285713,121.80995513783004L222.575,124.57230197063748L222.88571428571427,130.83791233701507L223.19642857142858,125.7373956775844L223.3,135.07099279976964L223.50714285714284,137.01107598076513L223.71428571428572,142.56067877251058L224.3357142857143,143.72859318994372L224.43928571428572,119.19400081600482L224.64642857142857,123.82960973719202L224.85357142857143,126.29284755313064L225.78571428571428,112.70577802612583L225.8892857142857,124.88273128482223L225.99285714285713,133.8456940687449L226.0964285714286,119.9717947028131L227.33928571428572,129.24168349397485L227.54642857142858,136.51665135080995L227.75357142857143,143.02290937814345L227.96071428571426,132.9975058884217L228.375,141.5622335821863L228.47857142857143,148.72376159134365L228.58214285714286,155.3086656290463L228.68571428571428,135.08328602064677L228.7892857142857,145.99594462721961L228.89285714285714,142.11705215459713L228.99642857142857,138.10996660998853L229.20357142857142,121.69278336412545L229.30714285714285,132.94459667710564L229.41071428571428,122.33132442777217L229.61785714285716,130.77254124250928L230.1357142857143,134.08658954958273L230.44642857142856,146.88422935879322L230.65357142857144,152.9614853005176L230.75714285714287,151.40193266514333L230.9642857142857,140.1439551522934L231.275,142.1438973909976L231.5857142857143,143.52096286811602L231.79285714285714,139.5306480371843L232.10357142857143,140.94751346372905L232.4142857142857,129.29130175270643L232.51785714285717,128.76381122206453L232.82857142857142,138.80709969481708L233.0357142857143,114.14437086272767L233.1392857142857,126.76454695992786L233.96785714285716,132.27985339720917L234.07142857142858,132.46349213933865L234.2785714285714,143.48021892557097L234.79642857142855,145.6453094235036L235.3142857142857,124.09482220119078L235.41785714285714,134.5378516871085L235.52142857142857,145.0132000659913L235.72857142857143,150.1946641573316L235.83214285714286,142.33826417738237L236.0392857142857,145.21947829135678L236.24642857142857,151.88867282991663L236.55714285714285,-22.97543716356127L236.66071428571428,43.46758971259017L237.075,69.98892708805214L237.59285714285716,84.29163801781542L237.79999999999998,81.80559899873856L238.42142857142858,97.39534737150267L238.525,110.06382203984495L238.62857142857143,127.14810104899549L238.73214285714283,142.59372737248503L238.8357142857143,143.3023427143083L239.14642857142857,134.5061887630454L239.35357142857143,126.11631940177865L239.6642857142857,127.96961153967254L239.76785714285714,127.47470367803021L240.07857142857142,115.44882081063895L240.2857142857143,113.26733406849092L240.49285714285713,106.69100423137776L240.59642857142856,120.33659560370704L240.7,126.38810524277842L241.1142857142857,133.96124277670955L241.52857142857144,137.14542099332675L241.63214285714284,136.1066808491699L241.73571428571427,130.3740824097247L242.14999999999998,116.82903633319444L242.25357142857143,120.35187116743987L242.4607142857143,124.42135915447393L242.56428571428572,129.72001648717594L242.77142857142857,135.91723804934904L242.875,124.77587626733829L242.97857142857143,134.12851585363418L243.18571428571428,136.90550864586277L243.28928571428574,145.80311134367614L243.39285714285714,145.00448767488854L243.49642857142857,142.75809764948878L243.80714285714288,147.24260888151758L244.0142857142857,139.07287303002138L244.11785714285713,-8.501644376567274L244.73928571428573,34.19140114566608L244.84285714285716,39.86170729506565L244.94642857142858,63.17365346258015L245.3607142857143,67.17456513586717L245.56785714285712,77.24620755876943L245.775,83.59615497807174L246.18928571428572,91.18060000550454L246.9142857142857,97.81717057115856L247.22500000000002,102.21568505219831L247.43214285714285,110.8845204845203L247.63928571428573,117.05990006537039L247.74285714285716,118.34506770378827L247.95,113.28903448823978L248.15714285714287,115.65690710689957L248.36428571428573,119.76863519278966L248.46785714285713,123.6608504767883L248.57142857142856,107.35422512982298L248.88214285714287,96.59632013496166L248.98571428571427,110.93223570738081L249.29642857142858,117.73455786081458L249.4,97.02418589217847L249.7107142857143,117.95190896763435L250.02142857142857,126.69193328722734L250.43571428571428,135.21770914378416L251.05714285714288,-8.08783097277493L251.1607142857143,43.24331982606406L251.47142857142856,58.73608741565798L251.57500000000002,70.53291231038719L251.78214285714284,64.89326461340517L251.9892857142857,65.54816198459584L252.09285714285716,53.1751476294477L252.3,70.84034782449478L252.4035714285714,79.05113485932392L252.6107142857143,77.53564116644885L252.71428571428572,88.08634603791249L252.81785714285715,94.58193963034637L252.92142857142855,102.04397760190776L253.12857142857143,102.39927126382715L253.3357142857143,105.08682037243204L253.4392857142857,113.43731160669897L253.85357142857143,105.26769139593468L253.95714285714286,84.26028515234961L254.1642857142857,85.73871198496447L254.475,73.17259158612028L254.68214285714285,83.9863259668394L254.99285714285716,101.26034712047841L255.61428571428573,114.24934381992497L256.23571428571427,123.55755039901064L256.65,129.42135475188806L256.9607142857143,137.95717600649783L257.47857142857146,136.87675626078956L257.6857142857143,135.64818753599948L257.99642857142857,143.55620306610956L258.61785714285713,141.22658115553793L258.7214285714286,122.18971360878906L258.92857142857144,135.2145369837091L259.2392857142857,131.08579220708643L259.55,132.19556678734082L259.6535714285714,142.98052857757725L259.75714285714287,133.77486118341156L260.6892857142857,124.09480419555109L260.79285714285714,114.00188125848054L260.8964285714286,116.03289536046553L261,106.63342754487734L261.20714285714286,112.74412493970716L261.4142857142857,118.48167832533552L261.72499999999997,119.10586910152455L261.8285714285714,120.06684978427899L262.24285714285713,111.85545887722022L262.45,117.28638705118564L262.55357142857144,119.3260803252701L262.65714285714284,124.47487254323029L262.7607142857143,128.61274397004522L263.5892857142857,127.1209563471608L264.52142857142854,134.4379640613635L264.7285714285714,133.097234499135L265.0392857142857,133.40145183305646L265.5571428571429,140.5286195319933L265.86785714285713,144.1833403135563L265.9714285714286,127.28142485768946L266.28214285714284,127.72010203451724L266.3857142857143,131.04454639107473L266.69642857142856,132.0616844329267L267.00714285714287,136.5251290698665L267.2142857142857,141.59946493505345L267.4214285714286,132.96273157715143L267.7321428571429,143.057658658739L268.04285714285714,141.95524300713305L268.14642857142854,144.1683658932386L268.25,137.79961320011245L268.45714285714286,147.1803021207358L269.2857142857143,141.90617388337287L269.49285714285713,142.7491142383184L269.7,142.00076964086094L269.90714285714284,144.5683513795483L270.425,137.03845040292427L270.9428571428571,143.1138571756535L271.35714285714283,152.32608274563867L271.7714285714286,152.57511179414223L271.875,142.2053940818717L271.9785714285714,149.6794839695698L272.39285714285717,155.1176414963964L272.49642857142857,153.4879745291092L272.59999999999997,156.76635344305146L272.7035714285714,155.0792131392867L273.0142857142857,158.3198275547451L273.53214285714284,153.03344697840373L273.84285714285716,140.20916692666626L274.05,138.70340638311157L274.4642857142857,137.170909529635L274.5678571428571,135.4596531663589L274.6714285714286,132.8896527453811L274.775,139.08308893230864L274.98214285714283,139.04680150620524L275.18928571428575,143.87204977197877L275.5,132.31729448034423L275.8107142857143,133.66275112744603L275.9142857142857,138.87689486096164L276.12142857142857,145.15052008002914L276.3285714285714,153.13702110868644L277.05357142857144,143.00956695331305L277.3642857142857,127.59613910349113L277.46785714285716,136.7288915576452L277.675,143.19382087361302L277.88214285714287,150.0900841711252L278.0892857142857,147.1607061003619L278.1928571428571,142.70284012406907L278.4,148.81121518283987L278.7107142857143,144.30889011663143L278.91785714285714,149.94838472152915L279.22857142857146,139.26783716645934L279.43571428571425,127.88932712058484L279.5392857142857,144.20739349830305" style="fill: none;" fill="none"></path></g></g></g></g><g opacity="0.2"><g><g><g><path stroke="rgb(255, 112, 67)" stroke-width="2px" d="M21.232142857142858,61.02877998352051L21.335714285714285,46.19582152366638L21.75,96.31663203239441L21.853571428571428,94.75046014785767L22.164285714285715,103.58044934272766L22.267857142857146,103.21923398971558L22.57857142857143,99.01241087913513L22.682142857142857,82.38517355918884L22.785714285714285,75.81700825691223L23.2,69.77115488052368L24.132142857142856,47.24479532241821L24.442857142857143,98.62662363052368L24.857142857142858,-375.73857402801514L25.064285714285713,72.17408680915833L25.271428571428572,60.14975118637085L25.375,46.06890916824341L25.58214285714286,49.62869358062744L25.789285714285715,22.561625957489014L26.20357142857143,39.86524820327759L26.307142857142857,38.44396138191223L26.410714285714285,4.228933572769165L26.514285714285716,43.519543170928955L26.617857142857144,58.81253504753113L27.239285714285714,28.83407974243164L27.44642857142857,64.68396615982056L27.55,31.68093967437744L27.65357142857143,49.6592493057251L27.757142857142856,66.37463140487671L28.067857142857143,54.89787983894348L28.17142857142857,57.25355648994446L28.275000000000002,63.960262298583984L28.378571428571426,55.611737966537476L28.896428571428572,75.19203758239746L29.41428571428571,50.26219439506531L29.724999999999998,89.03830075263977L29.82857142857143,86.20754623413086L30.45,-72.02073526382446L31.27857142857143,86.02898621559143L31.589285714285715,69.54807686805725L31.692857142857143,60.56390857696533L32.417857142857144,100.46783947944641L32.72857142857143,78.91094517707825L32.93571428571428,120.5952775478363L33.660714285714285,87.4499123096466L33.76428571428571,96.48137831687927L34.074999999999996,114.33220267295837L34.17857142857143,100.41080212593079L34.90357142857143,112.79917526245117L35.11071428571429,102.8736572265625L35.31785714285714,110.59061169624329L35.42142857142857,99.11004066467285L35.525,105.62283432483673L36.25,115.23614287376404L36.76785714285714,99.41502499580383L36.975,103.20264053344727L37.07857142857143,97.71897006034851L37.18214285714286,104.42763864994049L37.49285714285714,100.22931385040283L37.80357142857143,113.68987464904785L38.010714285714286,119.54263281822205L38.114285714285714,109.63178789615631L38.425000000000004,114.24883222579956L39.04642857142857,99.41899299621582L39.150000000000006,106.86341798305511L39.357142857142854,106.3095211982727L39.667857142857144,64.15424871444702L39.875,55.193251848220825L39.97857142857143,63.857858180999756L40.18571428571428,65.62631320953369L40.392857142857146,54.79906177520752L40.496428571428574,-69.54676127433777L41.221428571428575,79.29613828659058L42.05,92.73450374603271L42.153571428571425,85.24200654029846L42.25714285714286,89.46803307533264L42.67142857142857,107.67063021659851L43.707142857142856,101.98064494132996L43.81071428571429,-121.21286392211914L44.01785714285714,67.92847490310669L44.225,58.88877582550049L44.43214285714286,50.52906894683838L44.74285714285714,73.12555813789368L44.84642857142857,26.831364154815674L44.95,63.53519821166992L45.260714285714286,34.012808322906494L46.29642857142857,91.31385350227356L46.50357142857143,65.96202301979065L47.125,64.56492614746094L47.43571428571428,91.67152523994446L47.53928571428571,76.79396390914917L47.642857142857146,83.44382333755493L47.746428571428574,73.2590696811676L47.95357142857143,37.440906047821045L48.36785714285714,95.35102868080139L48.575,-601.8528919219971L48.78214285714285,40.77351713180542L48.989285714285714,52.09589862823486L49.50714285714285,46.04726552963257L50.128571428571426,28.84536838531494L50.85357142857143,55.92300319671631L50.957142857142856,28.516767024993896L51.474999999999994,46.605437994003296L51.57857142857143,41.775681257247925L51.88928571428572,30.8861300945282L51.99285714285715,36.53140640258789L52.09642857142857,53.18728971481323L52.510714285714286,-44.98893404006958L52.614285714285714,9.678313732147217L52.82142857142857,53.2367730140686L53.13214285714286,50.87101721763611L53.54642857142857,57.09345722198486L53.65,56.80873727798462L53.753571428571426,61.87805938720703L53.85714285714286,31.306844234466553L54.06428571428571,62.08473491668701L54.375,26.429811000823975L54.47857142857143,-12.768643379211426L54.58214285714286,60.95932936668396L54.89285714285714,73.63590240478516L55.20357142857143,38.02430820465088L55.825,87.78333044052124L56.03214285714286,63.3801703453064L56.34285714285714,96.52222537994385L56.44642857142857,98.0735650062561L56.65357142857143,95.23109745979309L56.75714285714285,31.085103034973145L57.275000000000006,89.35300350189209L57.37857142857143,61.43922400474548L57.792857142857144,88.97252106666565L58,86.44479870796204L58.31071428571428,89.01563858985901L58.725,86.70327043533325L59.13928571428571,93.4301769733429L59.346428571428575,91.1151351928711L59.760714285714286,107.44086813926697L59.864285714285714,97.8362488746643L59.96785714285715,89.51078987121582L60.175,80.67174005508423L60.69285714285714,83.49387955665588L60.79642857142857,97.44437170028687L61.21071428571429,82.97927021980286L61.31428571428572,83.12718963623047L61.417857142857144,89.31478762626648L62.45357142857143,98.76762557029724L62.97142857142857,95.2161591053009L63.69642857142857,73.37378096580505L63.8,47.751383781433105L64.31785714285714,91.52742528915405L64.42142857142858,92.10501337051392L64.62857142857143,93.2810480594635L64.83571428571429,91.12379264831543L65.25,29.633409023284912L66.18214285714285,90.9633538722992L66.38928571428572,93.61007380485535L66.49285714285715,96.9304838180542L66.80357142857143,105.44984436035156L67.425,90.27645480632782L68.25357142857142,72.89437437057495L68.35714285714286,16.305744409561157L68.46071428571429,38.8486762046814L68.66785714285714,76.23553681373596L68.77142857142857,83.51399540901184L69.08214285714286,50.93053722381592L69.18571428571428,88.80983304977417L69.70357142857142,83.7229413986206L69.80714285714286,99.83828544616699L70.94642857142857,106.13469576835632L71.25714285714285,94.48781883716583L71.3607142857143,104.61431503295898L71.56785714285714,79.6028413772583L71.775,73.13022637367249L72.08571428571429,61.402366161346436L73.225,-13.807771444320679L73.63928571428572,78.65506219863892L73.74285714285715,72.81019759178162L73.95,55.01112699508667L74.26071428571429,73.94791030883789L74.46785714285714,63.14332103729248L74.98571428571428,81.40151262283325L75.08928571428572,90.82948160171509L75.71071428571429,97.29662203788757L75.91785714285714,90.17801868915558L76.02142857142857,-103.12973117828369L76.125,90.60293424129486L76.22857142857143,100.05697107315063L76.33214285714287,100.84019494056702L76.43571428571428,97.38459706306458L76.64285714285714,97.29991102218628L76.85000000000001,92.45694530010223L77.36785714285715,103.89482319355011L77.47142857142856,116.37576532363892L77.575,110.34013962745667L77.78214285714286,111.47178363800049L78.19642857142857,112.34343874454498L78.40357142857142,101.6901957988739L78.61071428571428,108.99639856815338L79.025,97.4424831867218L79.12857142857143,114.02980709075928L79.23214285714285,97.07031869888306L79.64642857142857,80.50550842285156L80.06071428571428,118.57864212989807L80.16428571428571,90.80051732063293L80.47500000000001,108.03774452209473L80.68214285714285,102.73239004611969L80.78571428571429,121.39012956619263L80.8892857142857,124.10571658611298L80.99285714285715,114.2565348148346L81.09642857142858,120.87937152385712L81.2,114.47341680526733L81.40714285714284,79.22791838645935L81.51071428571429,113.408273935318L82.02857142857142,116.76633751392365L82.13214285714285,112.87798357009888L82.44285714285715,119.24705922603607L82.54642857142858,99.05175137519836L82.85714285714285,107.83237397670746L83.06428571428572,39.320358991622925L83.47857142857143,49.56660604476929L83.6857142857143,48.658337116241455L83.89285714285715,27.874269247055054L84.1,13.18339490890503L84.41071428571429,39.21948266029358L84.82499999999999,37.66990423202515L84.92857142857143,53.92627143859863L85.13571428571429,37.91776633262634L85.44642857142857,55.35789203643799L85.8607142857143,56.19558572769165L86.37857142857143,-30.748777866363525L87.10357142857143,85.56409358978271L87.20714285714286,31.68579888343811L87.41428571428571,1.0308949947357178L87.51785714285714,44.665552616119385L87.62142857142858,55.99540328979492L87.725,27.286729335784912L87.93214285714286,32.04429817199707L88.24285714285713,7.684637546539307L88.65714285714286,29.4423508644104L88.76071428571429,57.20502805709839L89.175,34.65770387649536L89.48571428571428,66.01180338859558L89.9,82.14331650733948L90.21071428571427,71.71080684661865L90.31428571428572,43.87929439544678L90.41785714285714,63.16050863265991L90.52142857142857,87.3399965763092L90.625,80.6547646522522L90.83214285714286,73.3855152130127L90.93571428571428,63.65338945388794L91.03928571428573,94.13016831874847L91.24642857142858,22.810994625091553L91.35,46.19987440109253L91.45357142857142,103.99672865867615L91.55714285714286,-45.333280086517334L91.76428571428572,70.69274950027466L91.97142857142856,58.99767303466797L92.075,44.72089242935181L92.8,79.09676218032837L93.11071428571428,59.348002910614014L93.21428571428572,55.07032871246338L93.31785714285714,75.43499803543091L93.525,86.3795919418335L93.83571428571429,89.702463388443L94.04285714285714,76.33965969085693L94.25,64.9608986377716L94.66428571428571,30.230815887451172L95.07857142857142,72.70210671424866L95.3892857142857,88.97436714172363L95.49285714285715,91.23682761192322L95.59642857142856,58.6870231628418L95.7,70.04386472702026L95.80357142857143,73.84571838378906L96.32142857142857,66.86027646064758L96.94285714285715,94.50533533096313L97.15,17.77840304374695L97.25357142857143,95.4069414138794L97.35714285714285,83.78418016433716L97.66785714285714,84.23468613624573L97.97857142857143,90.64735674858093L98.08214285714286,14.140701532363892L98.39285714285715,50.20212268829346L98.49642857142857,60.26985216140747L98.60000000000001,103.15576720237732L98.80714285714285,78.61202955245972L99.0142857142857,65.48017621040344L99.63571428571429,95.21219110488892L99.94642857142857,101.93968117237091L100.05,95.28570520877838L100.3607142857143,78.02260112762451L100.46428571428571,110.7827308177948L100.56785714285715,88.42837452888489L100.77499999999999,95.87409389019012L100.87857142857143,86.72075510025024L101.5,87.08241605758667L101.91428571428571,88.84280776977539L102.01785714285715,92.96352314949036L102.225,93.20197451114655L102.43214285714285,86.76947450637817L102.63928571428572,95.17970442771912L102.74285714285713,106.77988839149475L102.84642857142858,26.336064338684082L102.94999999999999,64.43627381324768L103.05357142857143,115.1795723438263L103.36428571428571,100.98544073104858L103.57142857142857,107.07634258270264L103.77857142857144,94.40458631515503L104.08928571428571,106.72179007530212L104.29642857142858,92.0260671377182L104.39999999999999,107.87467455863953L104.50357142857143,109.01016986370087L104.91785714285713,84.22467064857483L105.125,93.84785676002502L105.22857142857143,110.89425921440125L105.43571428571428,97.1371169090271L105.74642857142858,49.93616056442261L106.16071428571428,97.66265416145325L106.47142857142858,81.45088982582092L106.78214285714286,105.22422003746033L106.88571428571429,99.97748374938965L107.09285714285714,104.36125421524048L107.3,97.68750190734863L107.50714285714285,78.16216015815735L108.025,116.60208988189697L108.33571428571427,89.46998524665833L108.43928571428572,100.69125699996948L108.54285714285714,112.03419995307922L108.85357142857143,100.69987201690674L109.68214285714286,64.44650149345398L109.78571428571428,104.45599818229675L109.88928571428572,105.96194982528687L110.09642857142856,34.54831862449646L110.51071428571429,100.61344599723816L110.71785714285714,104.3518328666687L110.82142857142857,99.1780059337616L111.23571428571428,106.70033740997314L111.44285714285714,90.31350362300873L111.54642857142856,124.01673364639282L111.85714285714286,103.05682182312012L112.06428571428572,105.96587538719177L112.27142857142857,68.85102438926697L112.58214285714287,79.0347170829773L112.78928571428571,100.13977921009064L112.89285714285714,95.01841688156128L113.10000000000001,83.28631281852722L113.20357142857142,81.00208139419556L113.5142857142857,81.43075275421143L113.825,69.46400618553162L113.92857142857143,94.28988564014435L114.65357142857142,-28.406533002853394L114.75714285714287,114.88217389583588L114.86071428571428,78.17251515388489L114.96428571428571,111.24658370018005L115.17142857142856,116.94440948963165L115.275,61.27040362358093L115.48214285714285,70.81145000457764L115.58571428571429,111.8380491733551L115.6892857142857,40.1203248500824L116,96.27319622039795L116.10357142857143,87.82449579238892L116.20714285714286,106.17233872413635L116.31071428571428,118.80761909484863L116.51785714285715,94.36664628982544L117.1392857142857,109.50266873836517L117.24285714285715,115.44835662841797L117.55357142857143,122.1246976852417L118.27857142857142,95.93782591819763L118.58928571428571,124.77976739406586L119.31428571428572,114.0949501991272L119.41785714285714,125.3396692276001L119.52142857142857,111.03964293003082L119.72857142857143,103.00341296195984L119.83214285714286,76.91538047790527L119.9357142857143,107.57849621772766L120.24642857142857,97.95754873752594L120.35,96.2933120727539L120.55714285714285,95.04860126972198L120.76428571428572,111.90264058113098L120.86785714285713,100.5570240020752L121.28214285714286,91.58462178707123L121.38571428571429,73.85507607460022L121.8,116.4097797870636L121.90357142857144,74.29198050498962L122.00714285714285,103.52252078056335L122.1107142857143,104.01852083206177L122.42142857142858,105.52558648586273L122.52499999999999,118.71726751327515L122.62857142857143,87.33806562423706L122.93928571428572,104.25213420391083L123.04285714285713,51.135133266448975L123.87142857142858,89.42491555213928L124.28571428571428,101.79599499702454L124.49285714285713,111.99933671951294L124.7,17.835249423980713L124.80357142857143,96.92409682273865L125.11428571428571,93.30491971969604L125.21785714285714,88.19683003425598L125.425,99.16128516197205L125.52857142857144,110.9042534828186L125.63214285714285,72.26494765281677L125.73571428571428,115.17290949821472L126.04642857142858,77.3411660194397L126.875,57.32012128829956L127.08214285714286,101.31085920333862L127.28928571428573,81.51057958602905L127.49642857142858,77.973308801651L127.6,83.74683427810669L127.70357142857142,98.47815251350403L127.91071428571428,89.28686308860779L128.11785714285713,98.23941469192505L128.22142857142856,82.46020483970642L128.325,95.88761055469513L128.63571428571427,82.16296553611755L128.84285714285716,98.0391685962677L129.56785714285715,92.35343778133392L129.67142857142858,100.18449878692627L129.98214285714286,92.24890112876892L130.18928571428572,92.40938234329224L130.81071428571428,101.85763692855835L130.9142857142857,101.02125883102417L131.12142857142857,112.15651834011078L131.32857142857142,98.85413646697998L131.74285714285713,120.18047297000885L132.15714285714287,118.52211403846741L132.3642857142857,55.09978103637695L132.57142857142856,123.02154004573822L132.88214285714287,114.71472215652466L132.9857142857143,113.46075975894928L133.08928571428572,107.89381432533264L133.19285714285715,102.21342015266418L133.81428571428572,93.40074586868286L133.91785714285714,123.17634510993958L134.5392857142857,110.28652918338776L134.74642857142857,123.09062993526459L134.95357142857142,94.23474740982056L135.05714285714285,116.24456667900085L135.16071428571428,137.91405034065247L136.09285714285716,127.13464832305908L136.29999999999998,122.2257649898529L136.6107142857143,126.4270498752594L137.025,101.61257576942444L137.23214285714286,95.29628300666809L137.3357142857143,115.7703800201416L137.75,127.43719244003296L137.85357142857143,115.68490886688232L138.06071428571428,125.43611073493958L138.1642857142857,124.37202882766724L138.26785714285714,104.41538453102112L138.57857142857142,118.71780860424042L138.68214285714285,87.0896942615509L139.71785714285713,110.10174131393433L139.92499999999998,127.15172982215881L140.02857142857144,70.52619957923889L140.33928571428572,108.60001230239868L140.44285714285715,126.01955533027649L140.54642857142858,125.89281272888184L140.85714285714286,89.71655297279358L140.9607142857143,108.26683819293976L141.06428571428572,126.36963057518005L142.61785714285713,74.30125331878662L142.92857142857144,79.14041018486023L143.13571428571427,119.6805579662323L143.23928571428573,123.25114297866821L143.44642857142858,140.30394303798676L143.55,114.55505788326263L143.86071428571427,143.68485975265503L144.17142857142858,111.74672150611877L144.275,61.89921498298645L144.37857142857143,129.4478440284729L144.48214285714286,86.29441785812378L144.68928571428572,125.69655585289001L144.89642857142857,120.5066659450531L145.10357142857143,114.92438960075378L145.3107142857143,115.487060546875L145.4142857142857,78.46502256393433L145.62142857142857,97.68268513679504L145.82857142857145,112.87123584747314L146.03571428571428,77.97727680206299L146.1392857142857,129.94085216522217L146.24285714285716,128.55425882339478L146.3464285714286,136.37951636314392L146.45,130.39757537841797L147.4857142857143,119.96396231651306L147.9,124.25758278369904L148.31428571428572,112.53838002681732L148.41785714285714,101.12391757965088L148.52142857142857,124.14112091064453L148.72857142857143,124.54787278175354L149.0392857142857,104.78177738189697L149.35,119.38537693023682L149.55714285714285,127.4924898147583L149.76428571428573,121.25639522075653L149.86785714285713,123.32269430160522L150.075,115.78466057777405L150.4892857142857,112.49550652503967L150.59285714285713,109.49008572101593L150.69642857142858,145.2183539867401L150.90357142857144,115.69382095336914L151.00714285714284,106.77288603782654L151.31785714285715,93.0344272851944L151.42142857142858,125.96992349624634L151.52499999999998,122.45113468170166L151.62857142857143,122.72992384433746L151.8357142857143,117.09156501293182L152.35357142857143,118.66531217098236L152.66428571428574,119.40984272956848L153.18214285714288,130.4199616909027L153.3892857142857,121.42391061782837L153.80357142857142,129.25226616859436L154.01071428571427,129.25740122795105L154.42499999999998,147.45442831516266L154.5285714285714,141.01002430915833L154.63214285714287,94.01339876651764L154.7357142857143,149.07471990585327L154.94285714285712,106.04462003707886L155.25357142857143,134.22077560424805L155.35714285714286,88.01952195167542L155.56428571428572,74.96216940879822L155.66785714285714,139.99188208580017L155.77142857142857,118.9768956899643L156.39285714285714,129.52475321292877L156.60000000000002,129.46312189102173L156.70357142857142,104.3143914937973L156.91071428571428,138.3706250190735L157.01428571428573,131.7610821723938L157.325,7.751096248626709L157.42857142857142,126.91258883476257L157.94642857142856,137.5481561422348L158.05,115.29398655891418L158.15357142857144,122.58494329452515L158.4642857142857,125.70941472053528L158.67142857142858,142.69324159622192L158.775,143.45421707630157L158.8785714285714,118.12811493873596L158.98214285714286,123.40868532657623L159.0857142857143,147.70759522914886L159.18928571428572,148.51266431808472L159.81071428571428,84.71466565132141L160.32857142857142,109.80544626712799L160.43214285714288,134.2933348417282L160.5357142857143,122.49236369132996L161.05357142857144,135.67286217212677L161.46785714285716,138.24659848213196L161.675,129.29423785209656L161.7785714285714,127.6273912191391L162.19285714285715,120.50310111045837L162.60714285714286,144.48753106594086L163.33214285714286,105.11218237876892L163.5392857142857,125.9071569442749L163.85,126.37779998779297L164.05714285714285,123.7672907114029L164.16071428571428,121.44544816017151L164.4714285714286,119.27981114387512L164.575,115.14426350593567L164.78214285714284,136.97179877758026L164.8857142857143,131.8813316822052L165.19642857142856,134.99220156669617L166.95714285714286,141.73451328277588L167.06071428571428,134.05851197242737L167.1642857142857,132.19711661338806L167.26785714285714,139.39875090122223L167.68214285714285,117.72907626628876L167.99285714285713,135.24757528305054L168.09642857142856,150.17482149600983L168.40714285714287,125.2326180934906L168.51071428571427,114.02322912216187L168.6142857142857,122.17706680297852L169.02857142857144,129.89822268486023L169.13214285714284,106.67899084091187L169.23571428571427,138.74783968925476L169.44285714285715,129.7778034210205L169.64999999999998,106.00681793689728L169.85714285714286,134.28417873382568L170.06428571428572,115.84144330024719L170.68571428571428,103.55732035636902L170.89285714285714,149.42568635940552L171.41071428571428,136.92547714710236L171.5142857142857,147.65568232536316L172.44642857142858,105.68162226676941L172.54999999999998,142.34081101417542L173.68928571428572,107.60295140743256L174.10357142857143,130.12236166000366L174.20714285714286,140.76642727851868L174.51785714285714,137.40457606315613L174.62142857142857,131.57139265537262L174.93214285714285,55.45497012138367L175.13928571428573,95.77836322784424L175.24285714285716,125.50425636768341L175.34642857142856,104.1964761018753L176.07142857142856,97.059295296669L176.175,116.2455427646637L176.27857142857144,139.9863862991333L176.38214285714287,125.29324150085449L176.69285714285715,118.52114856243134L176.9,113.66031622886658L177.0035714285714,113.46391081809998L177.10714285714286,118.62117612361908L177.2107142857143,124.12702071666718L177.72857142857143,127.4700186252594L177.93571428571428,99.9193217754364L178.45357142857142,142.13625741004944L178.55714285714288,82.86670207977295L178.86785714285713,100.94617450237274L179.59285714285716,124.09999799728394L179.8,132.70830965042114L180.8357142857143,140.25960540771484L181.04285714285714,135.43197059631348L181.14642857142857,131.05565869808197L181.35357142857143,146.79555988311768L181.45714285714286,106.05081605911255L181.6642857142857,154.7531406879425L181.76785714285714,141.4151210784912L182.3892857142857,133.5308209657669L182.49285714285716,135.00362813472748L183.11428571428573,139.60887455940247L183.21785714285716,116.56354510784149L184.15,115.06900942325592L184.56428571428572,99.171067237854L184.77142857142857,123.26370477676392L185.18571428571428,157.241055727005L185.80714285714285,139.6964145898819L186.11785714285713,135.4061679840088L186.325,97.02749824523926L186.63571428571427,124.79586219787598L186.84285714285713,135.9913101196289L186.94642857142858,132.45845293998718L187.36071428571427,145.31224918365479L187.46428571428572,133.40945744514465L187.67142857142858,144.14301526546478L187.77499999999998,114.72352814674377L187.98214285714286,146.0066386461258L188.29285714285714,125.19985556602478L188.39642857142857,152.6603705883026L188.5,123.05536353588104L188.91428571428574,116.71200561523438L189.12142857142857,119.85596692562103L189.225,143.65598034858704L189.32857142857142,58.4297821521759L189.53571428571428,134.40275192260742L189.74285714285713,128.13426613807678L189.95000000000002,114.21190011501312L190.26071428571427,122.84148406982422L190.57142857142858,79.95662999153137L190.67499999999998,115.10771334171295L190.7785714285714,129.47129130363464L191.08928571428572,143.0117107629776L191.29642857142858,116.07801675796509L191.4,108.60295116901398L191.71071428571426,98.83503913879395L191.81428571428572,120.86293721199036L192.125,112.74960708618164L192.5392857142857,146.16201663017273L192.64285714285714,124.12609767913818L192.74642857142857,155.91033267974854L193.47142857142856,101.1062843799591L193.67857142857142,125.55814266204834L193.78214285714287,132.05764245986938L193.8857142857143,91.44443678855896L194.19642857142856,126.60749840736389L194.3,146.60863947868347L194.50714285714287,152.62443578243256L194.92142857142858,103.32229590415955L195.025,136.2370821237564L195.1285714285714,120.07674264907837L195.43928571428572,130.7095514535904L195.85357142857143,128.61316347122192L195.95714285714286,135.43789076805115L196.1642857142857,132.91999292373657L196.26785714285717,132.45559895038605L196.37142857142857,148.87230944633484L196.475,138.80291426181793L196.68214285714288,106.96332883834839L196.99285714285713,133.16613626480103L197.09642857142856,140.3727889060974L197.20000000000002,148.1323198080063L197.30357142857144,136.62268900871277L197.71785714285716,125.7499965429306L197.82142857142858,140.74567484855652L198.33928571428572,138.8043041229248L198.54642857142855,132.00903975963593L198.65,142.7301206588745L198.75357142857143,117.9148508310318L199.16785714285714,165.68957579135895L199.47857142857143,123.99354100227356L199.6857142857143,160.14221572875977L199.99642857142857,154.4537900686264L200.1,67.78844904899597L200.20357142857145,149.5047492980957L200.30714285714285,142.66139149665833L200.41071428571428,166.88838934898376L200.61785714285716,89.25562834739685L200.825,127.469806432724L201.1357142857143,145.15018713474274L201.23928571428573,87.5042335987091L201.44642857142856,146.89618158340454L201.54999999999998,151.0310926437378L201.65357142857144,136.67444276809692L201.9642857142857,-112.07220363616943L202.17142857142858,126.92688000202179L202.275,113.76072573661804L202.37857142857143,126.82713890075684L202.48214285714283,107.55251324176788L203.20714285714286,119.58137917518616L203.31071428571428,104.08166933059692L203.6214285714286,135.38621127605438L204.13928571428573,127.25332760810852L204.55357142857144,120.06624972820282L205.175,141.65602326393127L205.27857142857144,159.68621397018433L205.48571428571427,134.8060450553894L205.89999999999998,131.0602102279663L206.00357142857143,116.28854358196259L206.10714285714286,133.1364929676056L206.31428571428572,155.75089120864868L206.41785714285714,112.50342130661011L206.52142857142857,111.08589029312134L206.93571428571428,152.24897170066833L207.35,161.7632075548172L207.55714285714288,91.97396326065063L207.66071428571428,155.20789051055908L208.48928571428573,118.927316904068L208.59285714285716,110.44740295410156L208.9035714285714,123.17089176177979L209.21428571428572,158.9372591972351L209.62857142857143,82.00346040725708L209.83571428571426,151.96529150009155L210.25,108.39108753204346L210.76785714285714,156.40788173675537L210.87142857142857,149.01748096942902L211.28571428571428,155.46570444107056L211.38928571428573,146.683119058609L211.7,147.34408819675446L211.80357142857142,92.3455548286438L211.90714285714287,137.62456667423248L212.21785714285713,142.09324598312378L212.52857142857144,120.21572875976562L212.63214285714287,123.10202467441559L212.8392857142857,124.75831472873688L213.04642857142858,114.26200938224792L213.15,155.76092791557312L213.2535714285714,136.1374683380127L213.97857142857143,153.73272800445557L214.18571428571428,132.7057421207428L214.2892857142857,86.06499528884888L214.9107142857143,129.95592844486237L215.0142857142857,113.39270961284637L215.11785714285713,118.28208184242249L215.22142857142856,132.5620665550232L215.32500000000002,141.28583216667175L215.53214285714284,161.81782591342926L215.84285714285716,147.43448221683502L216.56785714285715,158.9369833469391L216.67142857142855,155.98406958580017L216.775,127.32512295246124L217.70714285714286,151.40739488601685L218.01785714285714,157.57181084156036L218.12142857142857,164.15942358970642L218.53571428571428,137.72978234291077L218.6392857142857,146.46944117546082L218.74285714285716,120.55042004585266L218.8464285714286,121.67299282550812L219.15714285714284,121.0066339969635L219.2607142857143,103.68336272239685L219.36428571428573,126.79216957092285L219.46785714285716,119.35931968688965L219.88214285714287,151.52323079109192L219.9857142857143,117.26790761947632L220.0892857142857,148.6071536540985L220.4,129.5282862186432L220.60714285714283,165.0233654975891L220.81428571428572,132.8793580532074L221.02142857142857,125.01828241348267L221.125,147.42562317848206L221.22857142857143,148.3952475786209L221.43571428571428,137.24545288085938L221.5392857142857,139.95309329032898L222.05714285714285,139.68585801124573L222.36785714285713,94.31232500076294L222.575,128.71582221984863L222.88571428571427,140.23632788658142L223.19642857142858,118.08662068843842L223.3,149.07138848304749L223.50714285714284,139.9212007522583L223.71428571428572,150.88508296012878L224.3357142857143,145.48046481609344L224.43928571428572,82.39211225509644L224.64642857142857,130.78302311897278L224.85357142857143,129.98770427703857L225.78571428571428,92.32517373561859L225.8892857142857,143.14816117286682L225.99285714285713,147.2901382446289L226.0964285714286,99.1609456539154L227.33928571428572,143.14651668071747L227.54642857142858,147.42910313606262L227.75357142857143,152.78229641914368L227.96071428571426,117.95940065383911L228.375,154.40932512283325L228.47857142857143,159.46605360507965L228.58214285714286,165.18602168560028L228.68571428571428,104.74521660804749L228.7892857142857,162.36493253707886L228.89285714285714,136.29871344566345L228.99642857142857,132.09933829307556L229.20357142857142,97.06700849533081L229.30714285714285,149.82231664657593L229.41071428571428,106.41141605377197L229.61785714285716,143.43436646461487L230.1357142857143,139.05766201019287L230.44642857142856,166.08068907260895L230.65357142857144,162.07736921310425L230.75714285714287,149.0626037120819L230.9642857142857,123.2569888830185L231.275,145.14381074905396L231.5857142857143,145.58656108379364L231.79285714285714,133.54517579078674L232.10357142857143,143.07281160354614L232.4142857142857,111.80698418617249L232.51785714285717,127.97257542610168L232.82857142857142,153.87203240394592L233.0357142857143,77.1502776145935L233.1392857142857,145.69481110572815L233.96785714285716,140.5528130531311L234.07142857142858,132.73895025253296L234.2785714285714,160.00530910491943L234.79642857142855,148.89294517040253L235.3142857142857,91.76909136772156L235.41785714285714,150.2023959159851L235.52142857142857,160.7262226343155L235.72857142857143,157.96686029434204L235.83214285714286,130.5536642074585L236.0392857142857,149.54129946231842L236.24642857142857,161.89246463775635L236.55714285714285,-285.2716021537781L236.66071428571428,143.13213002681732L237.075,109.77093315124512L237.59285714285716,105.74570441246033L237.79999999999998,78.07654047012329L238.42142857142858,120.7799699306488L238.525,129.0665340423584L238.62857142857143,152.77451956272125L238.73214285714283,165.76216685771942L238.8357142857143,144.36526572704315L239.14642857142857,121.31195783615112L239.35357142857143,113.53151535987854L239.6642857142857,130.74954974651337L239.76785714285714,126.73234188556671L240.07857142857142,97.409996509552L240.2857142857143,109.99510395526886L240.49285714285713,96.82650947570801L240.59642857142856,140.80498266220093L240.7,135.4653697013855L241.1142857142857,145.3209490776062L241.52857142857144,141.92168831825256L241.63214285714284,134.54857063293457L241.73571428571427,121.77518475055695L242.14999999999998,96.51146721839905L242.25357142857143,125.63612341880798L242.4607142857143,130.52559113502502L242.56428571428572,137.66800248622894L242.77142857142857,145.21307039260864L242.875,108.0638335943222L242.97857142857143,148.157475233078L243.18571428571428,141.07099783420563L243.28928571428574,159.14951539039612L243.39285714285714,143.80655217170715L243.49642857142857,139.38851261138916L243.80714285714288,153.96937572956085L244.0142857142857,126.8182692527771L244.11785714285713,-229.8634204864502L244.73928571428573,98.23096942901611L244.84285714285716,48.36716651916504L244.94642857142858,98.14157271385193L245.3607142857143,73.17593264579773L245.56785714285712,92.35367119312286L245.775,93.12107610702515L246.18928571428572,102.55726754665375L246.9142857142857,107.77202641963959L247.22500000000002,108.81345677375793L247.43214285714285,123.88777363300323L247.63928571428573,126.32296943664551L247.74285714285716,120.2728191614151L247.95,105.70498466491699L248.15714285714287,119.20871603488922L248.36428571428573,125.93622732162476L248.46785714285713,129.49917340278625L248.57142857142856,82.894287109375L248.88214285714287,80.45946264266968L248.98571428571427,132.43610906600952L249.29642857142858,127.93804109096527L249.4,65.95862793922424L249.7107142857143,149.34349358081818L250.02142857142857,139.80196976661682L250.43571428571428,148.00637292861938L251.05714285714288,-223.04614114761353L251.1607142857143,120.24004602432251L251.47142857142856,81.97523880004883L251.57500000000002,88.22814965248108L251.78214285714284,56.43379306793213L251.9892857142857,66.53050804138184L252.09285714285716,34.615626096725464L252.3,97.33814811706543L252.4035714285714,91.36731541156769L252.6107142857143,75.26240062713623L252.71428571428572,103.91240334510803L252.81785714285715,104.32533001899719L252.92142857142855,113.23703455924988L253.12857142857143,102.93221175670624L253.3357142857143,109.11814403533936L253.4392857142857,125.96304845809937L253.85357142857143,93.01326107978821L253.95714285714286,52.749175786972046L254.1642857142857,87.95635223388672L254.475,54.323410987854004L254.68214285714285,100.20692753791809L254.99285714285716,127.17137885093689L255.61428571428573,133.73283886909485L256.23571428571427,137.51986026763916L256.65,138.21706128120422L256.9607142857143,150.76090788841248L257.47857142857146,135.25612664222717L257.6857142857143,133.8053344488144L257.99642857142857,155.41822636127472L258.61785714285713,137.73214828968048L258.7214285714286,93.63441228866577L258.92857142857144,154.75177204608917L259.2392857142857,124.8926750421524L259.55,133.86022865772247L259.6535714285714,159.15797126293182L259.75714285714287,119.96636009216309L260.6892857142857,109.57471871376038L260.79285714285714,98.86249685287476L260.8964285714286,119.079416513443L261,92.53422582149506L261.20714285714286,121.9101710319519L261.4142857142857,127.08800840377808L261.72499999999997,120.0421552658081L261.8285714285714,121.50832080841064L262.24285714285713,99.53837251663208L262.45,125.43277931213379L262.55357142857144,122.38562023639679L262.65714285714284,132.1980608701706L262.7607142857143,134.81955111026764L263.5892857142857,124.88327491283417L264.52142857142854,145.41347563266754L264.7285714285714,131.08614015579224L265.0392857142857,133.8577778339386L265.5571428571429,151.21937108039856L265.86785714285713,149.66542148590088L265.9714285714286,101.92855167388916L266.28214285714284,128.3781177997589L266.3857142857143,136.03121292591095L266.69642857142856,133.58739149570465L267.00714285714287,143.22029602527618L267.2142857142857,149.21096873283386L267.4214285714286,120.00763154029846L267.7321428571429,158.2000492811203L268.04285714285714,140.30161952972412L268.14642857142854,147.48805022239685L268.25,128.24648416042328L268.45714285714286,161.25133550167084L269.2857142857143,133.9949815273285L269.49285714285713,144.0135247707367L269.7,140.87825274467468L269.90714285714284,148.41972398757935L270.425,125.74359893798828L270.9428571428571,152.22696733474731L271.35714285714283,166.14442110061646L271.7714285714286,152.94865536689758L271.875,126.65081751346588L271.9785714285714,160.89061880111694L272.39285714285717,163.27487778663635L272.49642857142857,151.0434740781784L272.59999999999997,161.68392181396484L272.7035714285714,152.54850268363953L273.0142857142857,163.18074917793274L273.53214285714284,145.1038761138916L273.84285714285716,120.97274684906006L274.05,136.44476556777954L274.4642857142857,134.87216424942017L274.5678571428571,132.8927686214447L274.6714285714286,129.0346521139145L274.775,148.3732432126999L274.98214285714283,138.99237036705017L275.18928571428575,151.10992217063904L275.5,114.98516154289246L275.8107142857143,135.68093609809875L275.9142857142857,146.69811046123505L276.12142857142857,154.56095790863037L276.3285714285714,165.11677265167236L277.05357142857144,127.81838572025299L277.3642857142857,104.47599732875824L277.46785714285716,150.42802023887634L277.675,152.8912148475647L277.88214285714287,160.4344791173935L278.0892857142857,142.76663899421692L278.1928571428571,136.01604115962982L278.4,157.9737777709961L278.7107142857143,137.55540251731873L278.91785714285714,158.40762662887573L279.22857142857146,123.24701583385468L279.43571428571425,110.82156205177307L279.5392857142857,168.68449306488037" style="fill: none;" fill="none"></path></g></g></g></g></g></g><g transform="translate(40, 178)" clip-path="url(#clip_1)"><clipPath id="clip_1"><rect width="290" height="22"></rect></clipPath><g><g><line x1="0" y1="0" x2="0" y2="5" style="visibility: inherit;" fill="rgb(0, 0, 0)" stroke="rgb(204, 204, 204)" stroke-width="1px"></line><line x1="20.71428571428571" y1="0" x2="20.71428571428571" y2="5" style="visibility: inherit;" fill="rgb(0, 0, 0)" stroke="rgb(204, 204, 204)" stroke-width="1px"></line><line x1="41.42857142857142" y1="0" x2="41.42857142857142" y2="5" style="visibility: inherit;" fill="rgb(0, 0, 0)" stroke="rgb(204, 204, 204)" stroke-width="1px"></line><line x1="62.14285714285714" y1="0" x2="62.14285714285714" y2="5" style="visibility: inherit;" fill="rgb(0, 0, 0)" stroke="rgb(204, 204, 204)" stroke-width="1px"></line><line x1="82.85714285714285" y1="0" x2="82.85714285714285" y2="5" style="visibility: inherit;" fill="rgb(0, 0, 0)" stroke="rgb(204, 204, 204)" stroke-width="1px"></line><line x1="103.57142857142857" y1="0" x2="103.57142857142857" y2="5" style="visibility: inherit;" fill="rgb(0, 0, 0)" stroke="rgb(204, 204, 204)" stroke-width="1px"></line><line x1="124.28571428571428" y1="0" x2="124.28571428571428" y2="5" style="visibility: inherit;" fill="rgb(0, 0, 0)" stroke="rgb(204, 204, 204)" stroke-width="1px"></line><line x1="145" y1="0" x2="145" y2="5" style="visibility: inherit;" fill="rgb(0, 0, 0)" stroke="rgb(204, 204, 204)" stroke-width="1px"></line><line x1="165.7142857142857" y1="0" x2="165.7142857142857" y2="5" style="visibility: inherit;" fill="rgb(0, 0, 0)" stroke="rgb(204, 204, 204)" stroke-width="1px"></line><line x1="186.42857142857144" y1="0" x2="186.42857142857144" y2="5" style="visibility: inherit;" fill="rgb(0, 0, 0)" stroke="rgb(204, 204, 204)" stroke-width="1px"></line><line x1="207.14285714285714" y1="0" x2="207.14285714285714" y2="5" style="visibility: inherit;" fill="rgb(0, 0, 0)" stroke="rgb(204, 204, 204)" stroke-width="1px"></line><line x1="227.85714285714286" y1="0" x2="227.85714285714286" y2="5" style="visibility: inherit;" fill="rgb(0, 0, 0)" stroke="rgb(204, 204, 204)" stroke-width="1px"></line><line x1="248.57142857142856" y1="0" x2="248.57142857142856" y2="5" style="visibility: inherit;" fill="rgb(0, 0, 0)" stroke="rgb(204, 204, 204)" stroke-width="1px"></line><line x1="269.2857142857143" y1="0" x2="269.2857142857143" y2="5" style="visibility: inherit;" fill="rgb(0, 0, 0)" stroke="rgb(204, 204, 204)" stroke-width="1px"></line><line x1="290" y1="0" x2="290" y2="5" style="visibility: inherit;" fill="rgb(0, 0, 0)" stroke="rgb(204, 204, 204)" stroke-width="1px"></line></g><g transform="translate(0, 8)"><text x="0" y="0" dx="0em" dy="0.95em" style="text-anchor: middle; visibility: hidden; font-family: Roboto, sans-serif; font-size: 12px; font-weight: 200;" fill="rgb(50, 49, 63)" stroke="none" stroke-width="1px">-200</text><text x="20.71428571428571" y="0" dx="0em" dy="0.95em" style="text-anchor: middle; visibility: inherit; font-family: Roboto, sans-serif; font-size: 12px; font-weight: 200;" fill="rgb(50, 49, 63)" stroke="none" stroke-width="1px">0</text><text x="41.42857142857142" y="0" dx="0em" dy="0.95em" style="text-anchor: middle; visibility: hidden; font-family: Roboto, sans-serif; font-size: 12px; font-weight: 200;" fill="rgb(50, 49, 63)" stroke="none" stroke-width="1px">200</text><text x="62.14285714285714" y="0" dx="0em" dy="0.95em" style="text-anchor: middle; visibility: inherit; font-family: Roboto, sans-serif; font-size: 12px; font-weight: 200;" fill="rgb(50, 49, 63)" stroke="none" stroke-width="1px">400</text><text x="82.85714285714285" y="0" dx="0em" dy="0.95em" style="text-anchor: middle; visibility: hidden; font-family: Roboto, sans-serif; font-size: 12px; font-weight: 200;" fill="rgb(50, 49, 63)" stroke="none" stroke-width="1px">600</text><text x="103.57142857142857" y="0" dx="0em" dy="0.95em" style="text-anchor: middle; visibility: inherit; font-family: Roboto, sans-serif; font-size: 12px; font-weight: 200;" fill="rgb(50, 49, 63)" stroke="none" stroke-width="1px">800</text><text x="124.28571428571428" y="0" dx="0em" dy="0.95em" style="text-anchor: middle; visibility: hidden; font-family: Roboto, sans-serif; font-size: 12px; font-weight: 200;" fill="rgb(50, 49, 63)" stroke="none" stroke-width="1px">1k</text><text x="145" y="0" dx="0em" dy="0.95em" style="text-anchor: middle; visibility: inherit; font-family: Roboto, sans-serif; font-size: 12px; font-weight: 200;" fill="rgb(50, 49, 63)" stroke="none" stroke-width="1px">1.2k</text><text x="165.7142857142857" y="0" dx="0em" dy="0.95em" style="text-anchor: middle; visibility: hidden; font-family: Roboto, sans-serif; font-size: 12px; font-weight: 200;" fill="rgb(50, 49, 63)" stroke="none" stroke-width="1px">1.4k</text><text x="186.42857142857144" y="0" dx="0em" dy="0.95em" style="text-anchor: middle; visibility: inherit; font-family: Roboto, sans-serif; font-size: 12px; font-weight: 200;" fill="rgb(50, 49, 63)" stroke="none" stroke-width="1px">1.6k</text><text x="207.14285714285714" y="0" dx="0em" dy="0.95em" style="text-anchor: middle; visibility: hidden; font-family: Roboto, sans-serif; font-size: 12px; font-weight: 200;" fill="rgb(50, 49, 63)" stroke="none" stroke-width="1px">1.8k</text><text x="227.85714285714286" y="0" dx="0em" dy="0.95em" style="text-anchor: middle; visibility: inherit; font-family: Roboto, sans-serif; font-size: 12px; font-weight: 200;" fill="rgb(50, 49, 63)" stroke="none" stroke-width="1px">2k</text><text x="248.57142857142856" y="0" dx="0em" dy="0.95em" style="text-anchor: middle; visibility: hidden; font-family: Roboto, sans-serif; font-size: 12px; font-weight: 200;" fill="rgb(50, 49, 63)" stroke="none" stroke-width="1px">2.2k</text><text x="269.2857142857143" y="0" dx="0em" dy="0.95em" style="text-anchor: middle; visibility: inherit; font-family: Roboto, sans-serif; font-size: 12px; font-weight: 200;" fill="rgb(50, 49, 63)" stroke="none" stroke-width="1px">2.4k</text><text x="290" y="0" dx="0em" dy="0.95em" style="text-anchor: middle; visibility: hidden; font-family: Roboto, sans-serif; font-size: 12px; font-weight: 200;" fill="rgb(50, 49, 63)" stroke="none" stroke-width="1px">2.6k</text></g><line x1="0" y1="0" x2="290" y2="0" fill="rgb(0, 0, 0)" stroke="rgb(204, 204, 204)" stroke-width="1px"></line></g></g></g></g></svg>