<svg viewBox="0 0 330 200" xmlns="http://www.w3.org/2000/svg"><g><g><g><g><g><line x1="40" y1="178" x2="35" y2="178" style="visibility: inherit;" fill="rgb(0, 0, 0)" stroke="rgb(204, 204, 204)" stroke-width="1px"></line><line x1="40" y1="160.2" x2="35" y2="160.2" style="visibility: inherit;" fill="rgb(0, 0, 0)" stroke="rgb(204, 204, 204)" stroke-width="1px"></line><line x1="40" y1="142.39999999999998" x2="35" y2="142.39999999999998" style="visibility: inherit;" fill="rgb(0, 0, 0)" stroke="rgb(204, 204, 204)" stroke-width="1px"></line><line x1="40" y1="124.6" x2="35" y2="124.6" style="visibility: inherit;" fill="rgb(0, 0, 0)" stroke="rgb(204, 204, 204)" stroke-width="1px"></line><line x1="40" y1="106.79999999999998" x2="35" y2="106.79999999999998" style="visibility: inherit;" fill="rgb(0, 0, 0)" stroke="rgb(204, 204, 204)" stroke-width="1px"></line><line x1="40" y1="89" x2="35" y2="89" style="visibility: inherit;" fill="rgb(0, 0, 0)" stroke="rgb(204, 204, 204)" stroke-width="1px"></line><line x1="40" y1="71.19999999999999" x2="35" y2="71.19999999999999" style="visibility: inherit;" fill="rgb(0, 0, 0)" stroke="rgb(204, 204, 204)" stroke-width="1px"></line><line x1="40" y1="53.39999999999997" x2="35" y2="53.39999999999997" style="visibility: inherit;" fill="rgb(0, 0, 0)" stroke="rgb(204, 204, 204)" stroke-width="1px"></line><line x1="40" y1="35.59999999999995" x2="35" y2="35.59999999999995" style="visibility: inherit;" fill="rgb(0, 0, 0)" stroke="rgb(204, 204, 204)" stroke-width="1px"></line><line x1="40" y1="17.800000000000015" x2="35" y2="17.800000000000015" style="visibility: inherit;" fill="rgb(0, 0, 0)" stroke="rgb(204, 204, 204)" stroke-width="1px"></line><line x1="40" y1="0" x2="35" y2="0" style="visibility: inherit;" fill="rgb(0, 0, 0)" stroke="rgb(204, 204, 204)" stroke-width="1px"></line></g><g transform="translate(30, 0)"><text x="0" y="178" dx="0em" dy="0.3em" style="text-anchor: end; visibility: hidden; font-family: Roboto, sans-serif; font-size: 12px; font-weight: 200;" fill="rgb(50, 49, 63)" stroke="none" stroke-width="1px">1.4</text><text x="0" y="160.2" dx="0em" dy="0.3em" style="text-anchor: end; visibility: inherit; font-family: Roboto, sans-serif; font-size: 12px; font-weight: 200;" fill="rgb(50, 49, 63)" stroke="none" stroke-width="1px">1.5</text><text x="0" y="142.39999999999998" dx="0em" dy="0.3em" style="text-anchor: end; visibility: hidden; font-family: Roboto, sans-serif; font-size: 12px; font-weight: 200;" fill="rgb(50, 49, 63)" stroke="none" stroke-width="1px">1.6</text><text x="0" y="124.6" dx="0em" dy="0.3em" style="text-anchor: end; visibility: inherit; font-family: Roboto, sans-serif; font-size: 12px; font-weight: 200;" fill="rgb(50, 49, 63)" stroke="none" stroke-width="1px">1.7</text><text x="0" y="106.79999999999998" dx="0em" dy="0.3em" style="text-anchor: end; visibility: hidden; font-family: Roboto, sans-serif; font-size: 12px; font-weight: 200;" fill="rgb(50, 49, 63)" stroke="none" stroke-width="1px">1.8</text><text x="0" y="89" dx="0em" dy="0.3em" style="text-anchor: end; visibility: inherit; font-family: Roboto, sans-serif; font-size: 12px; font-weight: 200;" fill="rgb(50, 49, 63)" stroke="none" stroke-width="1px">1.9</text><text x="0" y="71.19999999999999" dx="0em" dy="0.3em" style="text-anchor: end; visibility: hidden; font-family: Roboto, sans-serif; font-size: 12px; font-weight: 200;" fill="rgb(50, 49, 63)" stroke="none" stroke-width="1px">2</text><text x="0" y="53.39999999999997" dx="0em" dy="0.3em" style="text-anchor: end; visibility: inherit; font-family: Roboto, sans-serif; font-size: 12px; font-weight: 200;" fill="rgb(50, 49, 63)" stroke="none" stroke-width="1px">2.1</text><text x="0" y="35.59999999999995" dx="0em" dy="0.3em" style="text-anchor: end; visibility: hidden; font-family: Roboto, sans-serif; font-size: 12px; font-weight: 200;" fill="rgb(50, 49, 63)" stroke="none" stroke-width="1px">2.2</text><text x="0" y="17.800000000000015" dx="0em" dy="0.3em" style="text-anchor: end; visibility: inherit; font-family: Roboto, sans-serif; font-size: 12px; font-weight: 200;" fill="rgb(50, 49, 63)" stroke="none" stroke-width="1px">2.3</text><text x="0" y="0" dx="0em" dy="0.3em" style="text-anchor: end; visibility: hidden; font-family: Roboto, sans-serif; font-size: 12px; font-weight: 200;" fill="rgb(50, 49, 63)" stroke="none" stroke-width="1px">2.4</text></g><line x1="40" y1="0" x2="40" y2="178" fill="rgb(0, 0, 0)" stroke="rgb(204, 204, 204)" stroke-width="1px"></line></g></g><g transform="translate(40, 0)" clip-path="url(#clip_0)"><clipPath id="clip_0"><rect width="290" height="178"></rect></clipPath><g><g><g><line x1="0" y1="0" x2="0" y2="178" fill="rgb(0, 0, 0)" stroke="rgb(60, 60, 60)" stroke-width="1px" opacity="0.25"></line><line x1="20.71428571428571" y1="0" x2="20.71428571428571" y2="178" fill="rgb(0, 0, 0)" stroke="rgb(60, 60, 60)" stroke-width="1px" opacity="0.25"></line><line x1="41.42857142857142" y1="0" x2="41.42857142857142" y2="178" fill="rgb(0, 0, 0)" stroke="rgb(60, 60, 60)" stroke-width="1px" opacity="0.25"></line><line x1="62.14285714285714" y1="0" x2="62.14285714285714" y2="178" fill="rgb(0, 0, 0)" stroke="rgb(60, 60, 60)" stroke-width="1px" opacity="0.25"></line><line x1="82.85714285714285" y1="0" x2="82.85714285714285" y2="178" fill="rgb(0, 0, 0)" stroke="rgb(60, 60, 60)" stroke-width="1px" opacity="0.25"></line><line x1="103.57142857142857" y1="0" x2="103.57142857142857" y2="178" fill="rgb(0, 0, 0)" stroke="rgb(60, 60, 60)" stroke-width="1px" opacity="0.25"></line><line x1="124.28571428571428" y1="0" x2="124.28571428571428" y2="178" fill="rgb(0, 0, 0)" stroke="rgb(60, 60, 60)" stroke-width="1px" opacity="0.25"></line><line x1="145" y1="0" x2="145" y2="178" fill="rgb(0, 0, 0)" stroke="rgb(60, 60, 60)" stroke-width="1px" opacity="0.25"></line><line x1="165.7142857142857" y1="0" x2="165.7142857142857" y2="178" fill="rgb(0, 0, 0)" stroke="rgb(60, 60, 60)" stroke-width="1px" opacity="0.25"></line><line x1="186.42857142857144" y1="0" x2="186.42857142857144" y2="178" fill="rgb(0, 0, 0)" stroke="rgb(60, 60, 60)" stroke-width="1px" opacity="0.25"></line><line x1="207.14285714285714" y1="0" x2="207.14285714285714" y2="178" fill="rgb(0, 0, 0)" stroke="rgb(60, 60, 60)" stroke-width="1px" opacity="0.25"></line><line x1="227.85714285714286" y1="0" x2="227.85714285714286" y2="178" fill="rgb(0, 0, 0)" stroke="rgb(60, 60, 60)" stroke-width="1px" opacity="0.25"></line><line x1="248.57142857142856" y1="0" x2="248.57142857142856" y2="178" fill="rgb(0, 0, 0)" stroke="rgb(60, 60, 60)" stroke-width="1px" opacity="0.25"></line><line x1="269.2857142857143" y1="0" x2="269.2857142857143" y2="178" fill="rgb(0, 0, 0)" stroke="rgb(60, 60, 60)" stroke-width="1px" opacity="0.25"></line><line x1="290" y1="0" x2="290" y2="178" fill="rgb(0, 0, 0)" stroke="rgb(60, 60, 60)" stroke-width="1px" opacity="0.25"></line></g><g><line x1="0" y1="178" x2="290" y2="178" fill="rgb(0, 0, 0)" stroke="rgb(60, 60, 60)" stroke-width="1px" opacity="0.25"></line><line x1="0" y1="160.2" x2="290" y2="160.2" fill="rgb(0, 0, 0)" stroke="rgb(60, 60, 60)" stroke-width="1px" opacity="0.25"></line><line x1="0" y1="142.39999999999998" x2="290" y2="142.39999999999998" fill="rgb(0, 0, 0)" stroke="rgb(60, 60, 60)" stroke-width="1px" opacity="0.25"></line><line x1="0" y1="124.6" x2="290" y2="124.6" fill="rgb(0, 0, 0)" stroke="rgb(60, 60, 60)" stroke-width="1px" opacity="0.25"></line><line x1="0" y1="106.79999999999998" x2="290" y2="106.79999999999998" fill="rgb(0, 0, 0)" stroke="rgb(60, 60, 60)" stroke-width="1px" opacity="0.25"></line><line x1="0" y1="89" x2="290" y2="89" fill="rgb(0, 0, 0)" stroke="rgb(60, 60, 60)" stroke-width="1px" opacity="0.25"></line><line x1="0" y1="71.19999999999999" x2="290" y2="71.19999999999999" fill="rgb(0, 0, 0)" stroke="rgb(60, 60, 60)" stroke-width="1px" opacity="0.25"></line><line x1="0" y1="53.39999999999997" x2="290" y2="53.39999999999997" fill="rgb(0, 0, 0)" stroke="rgb(60, 60, 60)" stroke-width="1px" opacity="0.25"></line><line x1="0" y1="35.59999999999995" x2="290" y2="35.59999999999995" fill="rgb(0, 0, 0)" stroke="rgb(60, 60, 60)" stroke-width="1px" opacity="0.25"></line><line x1="0" y1="17.800000000000015" x2="290" y2="17.800000000000015" fill="rgb(0, 0, 0)" stroke="rgb(60, 60, 60)" stroke-width="1px" opacity="0.25"></line><line x1="0" y1="0" x2="290" y2="0" fill="rgb(0, 0, 0)" stroke="rgb(60, 60, 60)" stroke-width="1px" opacity="0.25"></line></g></g></g><g><g><line x1="0" y1="427.2" x2="290" y2="427.2" fill="rgb(0, 0, 0)" stroke="rgb(153, 153, 153)" stroke-width="1.5px"></line></g></g><g><g><line x1="20.71428571428571" y1="0" x2="20.71428571428571" y2="178" fill="rgb(0, 0, 0)" stroke="rgb(153, 153, 153)" stroke-width="1.5px"></line></g></g><g><g><g><g><g><path stroke="rgb(255, 112, 67)" stroke-width="2px" d="M24.442857142857143,-11.018551356037381L24.857142857142858,5.051956315623822L25.064285714285713,11.256384844580765L25.271428571428572,29.67639293256682L25.375,36.91183573585915L25.58214285714286,36.058717252814425L25.789285714285715,38.4062093482113L26.20357142857143,45.967457997940826L26.307142857142857,-23.097776577704092L26.410714285714285,22.083243899809702L26.514285714285716,41.41138569959299L26.617857142857144,14.45196145431874L27.239285714285714,18.864411128849085L27.44642857142857,38.96762205946655L27.55,48.76909749304797L27.65357142857143,31.318530135768345L27.757142857142856,35.65858717732899L28.067857142857143,35.86385858930631L28.17142857142857,53.65327609472189L28.275000000000002,52.79702524326846L28.378571428571426,45.328740293162696L28.896428571428572,57.42231616452239L29.41428571428571,43.08887177095352L29.724999999999998,24.482416370643623L29.82857142857143,35.13882821294055L30.45,46.01392699231996L31.27857142857143,54.687766666137264L31.589285714285715,23.494820574718357L31.692857142857143,39.31569680170955L32.417857142857144,54.42292189258101L32.72857142857143,74.90123771495294L32.93571428571428,72.73648111559034L33.660714285714285,54.454907922778816L33.76428571428571,57.07718448477477L34.074999999999996,43.86838661014606L34.17857142857143,63.68098401608442L34.90357142857143,48.93734376625321L35.11071428571429,71.04926966337011L35.31785714285714,82.18326213075363L35.42142857142857,-134.61527992047516L36.975,-9.048856416378118L37.07857142857143,23.685141831032624L37.18214285714286,17.328729866379376L37.49285714285714,29.297610692046074L37.80357142857143,-169.82000795612646L38.425000000000004,-16.704272516555328L39.04642857142857,5.951606297501164L39.150000000000006,32.25600118160751L39.357142857142854,47.72653684330294L39.667857142857144,59.3583728200931L39.875,62.704975855752224L39.97857142857143,61.248936975243254L40.18571428571428,60.05743225350537L40.392857142857146,22.852339295950824L40.496428571428574,37.23959369445279L41.221428571428575,55.954554747250235L42.05,54.034588050071314L42.153571428571425,54.9443895335341L42.25714285714286,51.2140815732088L42.67142857142857,55.362976989579586L43.707142857142856,56.1809160765602L43.81071428571429,53.149605973755925L44.01785714285714,45.64061395656797L44.225,58.74210656363805L44.43214285714286,64.51088558124921L44.74285714285714,64.79476499132767L44.84642857142857,73.89301717503342L44.95,64.57263956679984L45.260714285714286,61.720786231840115L46.29642857142857,71.5216624892261L46.50357142857143,56.216257419377925L47.125,48.34013737093832L47.43571428571428,69.16879540474075L47.53928571428571,33.51731411570818L47.642857142857146,55.76327703448838L47.746428571428574,54.21667029173791L47.95357142857143,46.30147766179813L48.36785714285714,37.87550680581912L48.575,21.802344641352825L48.78214285714285,27.106596642294583L48.989285714285714,36.27426747176592L49.50714285714285,53.45046716030561L50.128571428571426,61.42387696442673L50.85357142857143,74.32696095191041L50.957142857142856,77.02426483561156L51.474999999999994,62.31680812316867L51.57857142857143,43.993306080566214L51.88928571428572,51.46969931606435L51.99285714285715,71.4057320957421L52.09642857142857,51.57220157891743L52.510714285714286,57.392502580346054L52.614285714285714,58.57806544438686L52.82142857142857,51.6347696407776L53.13214285714286,80.5064484658325L53.54642857142857,85.00288381948972L53.65,83.79656364664375L53.753571428571426,87.5695642408427L53.85714285714286,93.1617657814441L54.06428571428571,83.44957438433276L54.375,86.5554973848111L54.47857142857143,84.64027558847945L54.58214285714286,60.70913338592456L54.89285714285714,68.93545763928176L55.20357142857143,60.02270158552223L55.825,66.3672810388988L56.03214285714286,81.48253281553899L56.34285714285714,74.2884670999069L56.44642857142857,59.034928404475366L56.65357142857143,71.19480384062834L56.75714285714285,93.18719259185256L57.275000000000006,97.73303849746382L57.37857142857143,100.63038494616505L57.792857142857144,77.5895172073231L58,69.02246555052905L58.31071428571428,63.17889269091313L58.725,55.053928593978995L59.13928571428571,61.25263349305731L59.346428571428575,73.59772065216985L59.760714285714286,73.16582050165349L59.864285714285714,72.57985298061857L59.96785714285715,70.66896289005572L60.175,75.19141553768333L60.69285714285714,67.04480526285653L60.79642857142857,64.51674262426661L61.21071428571429,67.12304365958195L61.31428571428572,73.23640199378383L61.417857142857144,75.51272254392656L62.45357142857143,82.16319543126318L62.97142857142857,94.15859534027034L63.69642857142857,70.54474071551475L63.8,72.04895162993137L64.31785714285714,68.90072267778791L64.42142857142858,74.13545369105384L64.62857142857143,55.861762212496046L64.83571428571429,72.5771893350965L65.25,69.44191037229812L66.18214285714285,83.77184528954098L66.38928571428572,83.86709856776756L66.49285714285715,80.2006704603932L66.80357142857143,88.8269361660064L67.425,87.58480504066829L68.25357142857142,85.77943792170933L68.35714285714286,98.9130071820417L68.46071428571429,102.66113198409076L68.66785714285714,109.01318241005893L68.77142857142857,89.81170781639669L69.08214285714286,92.06184700123937L69.18571428571428,88.26528544302269L69.70357142857142,93.86183895990541L69.80714285714286,99.51177298501307L70.94642857142857,101.04535427257524L71.25714285714285,113.85746872046651L71.3607142857143,93.99401507627404L71.56785714285714,102.29049023778103L71.775,81.49182027334487L72.08571428571429,97.03422130676813L73.225,95.7313876767916L73.63928571428572,108.86196376681107L73.74285714285715,98.70040454029906L73.95,78.32922622179905L74.26071428571429,92.55964594731284L74.46785714285714,103.42386747866603L74.98571428571428,89.68673862379629L75.08928571428572,99.96661192275187L75.71071428571429,87.66660472689328L75.91785714285714,102.9632432087556L76.02142857142857,114.34483729030464L76.125,115.31102432623966L76.22857142857143,93.90091005930579L76.33214285714287,81.18699501019282L76.43571428571428,74.88705612934565L76.64285714285714,86.65342983315547L76.85000000000001,91.39231756633612L77.36785714285715,96.61895432535461L77.47142857142856,104.41369139709266L77.575,105.34986782287471L77.78214285714286,110.25155609258958L78.19642857142857,91.04221466904252L78.40357142857142,99.89902692154268L78.61071428571428,98.25128937909136L79.025,101.40857495039184L79.12857142857143,103.66542206984448L79.23214285714285,108.02478775728756L79.64642857142857,114.10374583094722L80.06071428571428,118.74491168313867L80.16428571428571,112.41776665481119L80.47500000000001,122.68287633199802L80.68214285714285,128.71853095972128L80.78571428571429,108.29822089364283L80.8892857142857,105.35137352281896L80.99285714285715,88.4986675127392L81.09642857142858,98.71189742231637L81.2,123.52764044847652L81.40714285714284,126.95912222532371L81.51071428571429,98.44677067558729L82.02857142857142,114.14833191371416L82.13214285714285,120.35721688351902L82.44285714285715,122.19342318583648L82.54642857142858,120.26142180090619L82.85714285714285,98.34481721476004L83.06428571428572,85.36703597399763L83.47857142857143,84.77632536705238L83.6857142857143,88.71536881337107L83.89285714285715,114.27371370440446L84.1,126.81815114286972L84.41071428571429,126.74215876738685L84.82499999999999,121.91135006237305L84.92857142857143,105.22445808582472L85.13571428571429,115.82866954525095L85.44642857142857,116.71982887101044L85.8607142857143,112.66681999869266L86.37857142857143,110.4812768441863L87.10357142857143,119.12217129602593L87.20714285714286,122.05576955160238L87.41428571428571,117.13740610886062L87.51785714285714,103.74389260177875L87.62142857142858,107.84210799911654L87.725,117.82333900677581L87.93214285714286,117.81147641508234L88.24285714285713,126.39359864812165L88.65714285714286,121.08116039050262L88.76071428571429,126.05239008195782L89.175,108.75449530558336L89.48571428571428,118.0607411210331L89.9,128.0359404459353L90.21071428571427,125.40280080167979L90.31428571428572,119.9419749565633L90.41785714285714,117.28520896838376L90.52142857142857,111.14620594743653L90.625,104.51292897083617L90.83214285714286,96.55108498107346L90.93571428571428,104.4071412764248L91.03928571428573,105.13074056877237L91.24642857142858,114.27861207350216L91.35,120.3710142518528L91.45357142857142,115.16451441201258L91.55714285714286,123.69986438603812L91.76428571428572,129.1366980353094L91.97142857142856,125.06400675529818L92.075,114.50855145308122L92.8,117.64214638622249L93.11071428571428,125.57512936920908L93.21428571428572,128.58340558249347L93.31785714285714,117.32556966327782L93.525,108.49319763292762L93.83571428571429,94.36945924824414L94.04285714285714,104.78436655083858L94.25,92.37337946343159L94.66428571428571,99.04130842833356L95.07857142857142,106.53247174828434L95.3892857142857,109.22105478053797L95.49285714285715,117.57516252759403L95.59642857142856,122.27664628364627L95.7,81.01267001353494L95.80357142857143,-349.13261169121995L97.97857142857143,-4.385459815173803L98.08214285714286,26.251822026545128L98.39285714285715,46.60169124601743L98.49642857142857,58.16960304259333L98.60000000000001,68.91803482818045L98.80714285714285,69.10580144195222L99.0142857142857,80.17805308501998L99.63571428571429,84.78445758343386L99.94642857142857,89.35098621082687L100.05,93.59172421474688L100.3607142857143,72.8999385510649L100.46428571428571,84.030667552636L100.56785714285715,89.26005061703081L100.77499999999999,93.07530458591674L100.87857142857143,91.88640063179903L101.5,90.41573461278304L101.91428571428571,92.97703312149065L102.01785714285715,102.31248204177865L102.225,84.97458398977665L102.43214285714285,79.83668146991579L102.63928571428572,85.92184576549438L102.74285714285713,88.08344610904638L102.84642857142858,94.0541336368023L102.94999999999999,85.32506734791389L103.05357142857143,68.17366177715651L103.36428571428571,90.32608949946041L103.57142857142857,82.12366452578708L103.77857142857144,86.21222712733748L104.08928571428571,88.84484562241077L104.29642857142858,80.28847159006025L104.39999999999999,74.44675589715139L104.50357142857143,92.46972864815412L104.91785714285713,106.60386714189538L105.125,93.03447326212695L105.22857142857143,87.64728277319414L105.43571428571428,97.35198239203538L105.74642857142858,90.05142379114774L106.16071428571428,100.93027823632805L106.47142857142858,82.61219610134269L106.78214285714286,93.87217861509028L106.88571428571429,96.176131074999L107.09285714285714,103.22342364393127L107.3,63.38337333919081L107.50714285714285,90.94414723349499L108.025,64.8110353066497L108.33571428571427,82.25771615469297L108.43928571428572,86.81765638806723L108.54285714285714,96.06759185682719L108.85357142857143,104.9479828828036L109.68214285714286,109.62449783286205L109.78571428571428,83.66948255897017L109.88928571428572,85.2382861006287L110.09642857142856,99.79168542075321L110.51071428571429,107.14875133423902L110.71785714285714,107.1882937692934L110.82142857142857,119.24798724790416L111.23571428571428,106.12223202311993L111.44285714285714,99.35916854813097L111.54642857142856,97.57339476748938L111.85714285714286,94.48829123976608L112.06428571428572,97.1440288210081L112.27142857142857,91.98110826397932L112.58214285714287,97.2362811349928L112.78928571428571,114.32806636471147L112.89285714285714,-477.9119678593957L113.5142857142857,-25.28403628062143L113.825,21.89027090435666L113.92857142857143,35.94393663624195L114.65357142857142,64.54142929207842L114.75714285714287,65.81034520799854L114.86071428571428,70.92226982316343L114.96428571428571,82.74608429074861L115.17142857142856,88.05258295894014L115.275,87.13429118848053L115.48214285714285,97.63066214594961L115.58571428571429,87.73871201916766L115.6892857142857,90.72792710926673L116,94.7801862887534L116.10357142857143,82.13475289416267L116.20714285714286,86.57236744923564L116.31071428571428,72.95699323870642L116.51785714285715,65.01053692375362L117.1392857142857,59.4835231201335L117.24285714285715,60.84459850647956L117.55357142857143,57.138164629095215L118.27857142857142,77.29340224120226L118.58928571428571,70.28497277172326L119.31428571428572,55.68254875702811L119.41785714285714,71.63850310065239L119.52142857142857,73.61878280292686L119.72857142857143,66.6328103616878L119.83214285714286,68.20736382931739L119.9357142857143,73.51222812730238L120.24642857142857,78.89010024308065L120.35,79.58849003934203L120.55714285714285,86.49284076585374L120.76428571428572,96.1550458711028L120.86785714285713,105.26184254417655L121.28214285714286,89.89907890754841L121.38571428571429,93.02727472184841L121.8,85.27224679111687L121.90357142857144,89.44065089296843L122.00714285714285,96.52242093128886L122.1107142857143,80.19359408404185L122.42142857142858,81.5090417348489L122.52499999999999,80.43278145570426L122.62857142857143,82.4344157491855L122.93928571428572,67.64449046818807L123.04285714285713,51.19908125143284L123.87142857142858,70.01277186716213L124.28571428571428,84.5972275200165L124.49285714285713,52.97910284654359L124.7,84.38793041977917L124.80357142857143,94.66287231131572L125.11428571428571,53.034235837961276L125.21785714285714,51.07378197366299L125.425,63.315020832147056L125.52857142857144,74.70581746144641L125.63214285714285,78.27060368563862L125.73571428571428,63.75289611641248L126.04642857142858,75.12694011583139L126.875,54.967283149088665L127.08214285714286,51.667429749682654L127.28928571428573,57.965691728898975L127.49642857142858,72.75630415171925L127.6,65.81743880206666L127.70357142857142,58.061343484487075L127.91071428571428,58.473265326837215L128.11785714285713,71.70160234261725L128.22142857142856,78.37342777901392L128.325,85.88444759758411L128.63571428571427,82.94885615773258L128.84285714285716,82.68770251910243L129.56785714285715,88.9936904850027L129.67142857142858,89.85141132011535L129.98214285714286,90.14094997963024L130.18928571428572,95.43460744810528L130.81071428571428,94.52812418337122L130.9142857142857,78.36889217970045L131.12142857142857,85.4580965726213L131.32857142857142,81.80436622909524L131.74285714285713,92.95485406286608L132.15714285714287,104.39704581479481L132.3642857142857,104.68238917100581L132.57142857142856,111.43704683725923L132.88214285714287,119.89073159661822L132.9857142857143,105.4866553733762L133.08928571428572,99.75856377303697L133.19285714285715,101.61014942181167L133.81428571428572,93.4950372734788L133.91785714285714,90.01762199635047L134.5392857142857,95.68598669192038L134.74642857142857,92.65939654243493L134.95357142857142,79.07835093815629L135.05714285714285,78.5762173919648L135.16071428571428,84.23818408660712L136.09285714285716,77.29002738006486L136.29999999999998,94.66929381375057L136.6107142857143,98.62395433237876L137.025,79.85750217706395L137.23214285714286,91.69490719002744L137.3357142857143,92.14502933598911L137.75,95.26242937908982L137.85357142857143,95.91077620426667L138.06071428571428,93.69286319875627L138.1642857142857,97.96038256921712L138.26785714285714,94.83531403325999L138.57857142857142,97.72144053329829L138.68214285714285,92.32684232443457L139.71785714285713,77.99192151099376L139.92499999999998,80.45395787638383L140.02857142857144,87.34719894458031L140.33928571428572,98.65199200468761L140.44285714285715,108.57677724932134L140.54642857142858,99.84094805583062L140.85714285714286,97.29378647723615L140.9607142857143,106.47134137105236L141.06428571428572,80.10887263269L142.61785714285713,91.65120832235084L142.92857142857144,112.74202321118392L143.13571428571427,77.24695331422254L143.23928571428573,91.10466353516438L143.44642857142858,69.12316940558348L143.55,86.49906289060351L143.86071428571427,82.38065099882745L144.17142857142858,98.4668596086959L144.275,98.0905437933242L144.37857142857143,79.94371119420742L144.48214285714286,73.41408026266701L144.68928571428572,86.27046113520029L144.89642857142857,99.15577822988722L145.10357142857143,107.04997479239401L145.3107142857143,108.09274692606506L145.4142857142857,105.08512229962093L145.62142857142857,107.1925545695003L145.82857142857145,104.51341566101169L146.03571428571428,106.62724617395075L146.1392857142857,89.991468286951L146.24285714285716,25.483836355471396L146.3464285714286,51.74334296623687L146.45,63.74278072023287L147.4857142857143,64.80743093671738L147.9,89.79426202882729L148.31428571428572,84.86087049549457L148.41785714285714,70.82754265252134L148.52142857142857,70.20068178047767L148.72857142857143,85.09967779082079L149.0392857142857,91.67693111754667L149.35,96.89217749987371L149.55714285714285,100.38941996427967L149.76428571428573,91.44485849101895L149.86785714285713,104.95763839935994L150.075,114.15672289404712L150.4892857142857,112.38893871231939L150.59285714285713,104.09150119736233L150.69642857142858,111.7471689755585L150.90357142857144,99.18179850905337L151.00714285714284,96.3475977058959L151.31785714285715,102.5339427444787L151.42142857142858,101.56472302278581L151.52499999999998,105.34242371082722L151.62857142857143,106.58252453899635L151.8357142857143,100.23823397693783L152.35357142857143,108.57823938213436L152.66428571428574,106.13325762082721L153.18214285714288,100.15205061512935L153.3892857142857,104.1374880366191L153.80357142857142,97.06981837586548L154.01071428571427,106.82476568601122L154.42499999999998,110.59163530577173L154.5285714285714,105.42354147856803L154.63214285714287,118.00670121923308L154.7357142857143,107.30742790469657L154.94285714285712,107.70750283580499L155.25357142857143,101.63267247785019L155.35714285714286,102.33458078926141L155.56428571428572,120.28298197880585L155.66785714285714,114.50002035793781L155.77142857142857,123.78214901743605L156.39285714285714,108.86595143591327L156.60000000000002,108.6432874829469L156.70357142857142,121.33840844100106L156.91071428571428,125.9374835602366L157.01428571428573,127.73953288745417L157.325,126.26692346782407L157.42857142857142,108.58484716922594L157.94642857142856,97.9699995071325L158.05,82.06453876677948L158.15357142857144,93.51352077593681L158.4642857142857,99.42785684269833L158.67142857142858,105.90794928552013L158.775,105.14135778237166L158.8785714285714,102.0001295154618L158.98214285714286,106.45236135872163L159.0857142857143,113.41678832859967L159.18928571428572,106.09401495272618L159.81071428571428,99.02465398201169L160.32857142857142,106.26723692350876L160.43214285714288,95.36650687654785L160.5357142857143,78.78925158381442L161.05357142857144,88.16195930600153L161.46785714285716,69.81239382243146L161.675,90.59183786282532L161.7785714285714,106.5979506180858L162.19285714285715,122.36753442801093L162.60714285714286,124.21251482794912L163.33214285714286,132.99191832441227L163.5392857142857,121.06326516090712L163.85,125.41222198259165L164.05714285714285,121.05494167954522L164.16071428571428,108.64013022989508L164.4714285714286,97.4032076812415L164.575,102.82570421079566L164.78214285714284,90.42630200493197L164.8857142857143,101.00367423121845L165.19642857142856,111.15723906174132L166.95714285714286,119.94293302902474L167.06071428571428,115.74252447729643L167.1642857142857,117.9354914548715L167.26785714285714,116.43113099352836L167.68214285714285,97.30319599876596L167.99285714285713,105.58116961341972L168.09642857142856,110.51570900453257L168.40714285714287,104.83373730762678L168.51071428571427,115.84003242363853L168.6142857142857,106.93954599684666L169.02857142857144,110.30605708114025L169.13214285714284,99.55231260866947L169.23571428571427,107.98875038868799L169.44285714285715,105.09404653219349L169.64999999999998,88.05716633026582L169.85714285714286,87.61124908938874L170.06428571428572,99.6453318167619L170.68571428571428,96.12859301858498L170.89285714285714,95.44142800505968L171.41071428571428,96.06104675970086L171.5142857142857,100.66242635751729L172.44642857142858,123.6012958604393L172.54999999999998,111.93767940987931L173.68928571428572,109.415210299431L174.10357142857143,114.36611501022499L174.20714285714286,107.82556031015106L174.51785714285714,106.60547706286064L174.62142857142857,108.1355353450772L174.93214285714285,116.02175249671916L175.13928571428573,106.48877169380172L175.24285714285716,82.66649002128592L175.34642857142856,76.5537883227691L176.07142857142856,96.75227657947688L176.175,107.68523023601621L176.27857142857144,111.67758309171346L176.38214285714287,106.47179136351195L176.69285714285715,115.06555418059497L176.9,105.85530777385989L177.0035714285714,107.60493641144726L177.10714285714286,115.74638334421334L177.2107142857143,122.91989228909026L177.72857142857143,132.43604895225053L177.93571428571428,119.23026376694968L178.45357142857142,117.74859305936413L178.55714285714288,123.65917311619708L178.86785714285713,117.951584001249L179.59285714285716,105.74407593480701L179.8,107.66301744503947L180.8357142857143,114.8582453615854L181.04285714285714,116.57990243240535L181.14642857142857,107.8875356138011L181.35357142857143,112.73240128161072L181.45714285714286,121.14813597084022L181.6642857142857,113.97171342301925L181.76785714285714,119.25553656058645L182.3892857142857,116.78964021943294L182.49285714285716,103.1413273331063L183.11428571428573,110.92333331087454L183.21785714285716,122.14673993098275L184.15,118.36443697159012L184.56428571428572,128.81581096377678L184.77142857142857,142.78291803197092L185.18571428571428,129.71220599648967L185.80714285714285,139.6399275293208L186.11785714285713,139.2361740774069L186.325,135.0246484390589L186.63571428571427,138.85924829195096L186.84285714285713,125.5095864889035L186.94642857142858,132.1605111859446L187.36071428571427,134.38211020125183L187.46428571428572,132.7173747366263L187.67142857142858,123.20053943548166L187.77499999999998,130.0544261774633L187.98214285714286,116.45317999847018L188.29285714285714,126.21555488781503L188.39642857142857,117.95864533350687L188.5,117.66796529153481L188.91428571428574,128.8249951401919L189.12142857142857,138.57395376441298L189.225,127.76799732731234L189.32857142857142,128.63216716698676L189.53571428571428,125.68930804402751L189.74285714285713,114.30700140280197L189.95000000000002,134.9470360391299L190.26071428571427,131.70597938257217L190.57142857142858,134.73342390273666L190.67499999999998,139.71364736684953L190.7785714285714,134.3718154724168L191.08928571428572,143.6847348675565L191.29642857142858,143.48383170041058L191.4,139.50282007737525L191.71071428571426,126.02000648429134L191.81428571428572,102.52892577320418L192.125,99.106203844965L192.5392857142857,112.01264520813255L192.64285714285714,128.89922433572545L192.74642857142857,127.30891772674043L193.47142857142856,134.57529326299738L193.67857142857142,123.19688311111874L193.78214285714287,121.16582119281261L193.8857142857143,129.03887029060826L194.19642857142856,134.42215171080295L194.3,147.1810931886522L194.50714285714287,148.7906344059281L194.92142857142858,154.96832555551364L195.025,136.42243637334724L195.1285714285714,124.423428121158L195.43928571428572,123.01912013944893L195.85357142857143,115.74958842430658L195.95714285714286,120.56297277351705L196.1642857142857,136.4205676301747L196.26785714285717,128.81861367609676L196.37142857142857,122.12519490472424L196.475,109.94082594246832L196.68214285714288,107.37314909178716L196.99285714285713,109.20536030697046L197.09642857142856,116.22941666941178L197.20000000000002,124.418097847106L197.30357142857144,103.87009506309148L197.71785714285716,126.10749984791346L197.82142857142858,124.50041841155567L198.33928571428572,126.76586725405618L198.54642857142855,131.53065699870442L198.65,126.76101398071681L198.75357142857143,117.0360388541283L199.16785714285714,130.83114649439227L199.47857142857143,142.55349639883264L199.6857142857143,145.59912958521022L199.99642857142857,147.64325144039614L200.1,139.99762362806217L200.20357142857145,139.9373152695192L200.30714285714285,148.36198507083014L200.41071428571428,145.84108056505056L200.61785714285716,111.99053975748737L200.825,99.2011759853823L201.1357142857143,110.0724299106874L201.23928571428573,112.91936248742805L201.44642857142856,117.68182138802568L201.54999999999998,113.41152029634691L201.65357142857144,130.47209898353321L201.9642857142857,130.6621311934036L202.17142857142858,138.33747025199185L202.275,135.0894109765735L202.37857142857143,121.31868419885912L202.48214285714283,126.78289837026759L203.20714285714286,116.25867590417961L203.31071428571428,121.75620487875045L203.6214285714286,131.90716614929616L204.13928571428573,128.97899996881355L204.55357142857144,129.09313764837185L205.175,123.17443811575649L205.27857142857144,127.98106646823929L205.48571428571427,139.84130547695187L205.89999999999998,139.51772395999927L206.00357142857143,136.7076824488145L206.10714285714286,135.3012424267472L206.31428571428572,134.76504061443453L206.41785714285714,152.71410686148909L206.52142857142857,138.97055565818374L206.93571428571428,135.90676927747862L207.35,130.3514953433426L207.55714285714288,114.99572260731172L207.66071428571428,102.50607412072243L208.48928571428573,114.12026528008118L208.59285714285716,123.8782290952643L208.9035714285714,116.85279317004917L209.21428571428572,129.49509968819282L209.62857142857143,144.77851473845277L209.83571428571426,141.28577900145788L210.25,127.10984676488837L210.76785714285714,138.5440199745214L210.87142857142857,138.4940920384238L211.28571428571428,144.6772685165113L211.38928571428573,146.79429596632156L211.7,142.91650084715744L211.80357142857142,124.97062831438576L211.90714285714287,119.93394986460801L212.21785714285713,129.9781564978969L212.52857142857144,131.65945266414948L212.63214285714287,132.6230333538608L212.8392857142857,141.90367295573688L213.04642857142858,148.75938639062963L213.15,137.05297821651885L213.2535714285714,146.7300353925883L213.97857142857143,152.37754119404906L214.18571428571428,135.20732952218503L214.2892857142857,132.06307634032518L214.9107142857143,140.51031788061113L215.0142857142857,132.87831147116452L215.11785714285713,147.79488246680512L215.22142857142856,129.72421063090096L215.32500000000002,140.14607135000662L215.53214285714284,136.99686014856596L215.84285714285716,133.1300894320351L216.56785714285715,130.64791190507066L216.67142857142855,145.03053064752848L216.775,128.1445860887124L217.70714285714286,134.3655607047411L218.01785714285714,136.76874226467203L218.12142857142857,140.23211612067456L218.53571428571428,140.0156261596789L218.6392857142857,138.96097165070233L218.74285714285716,130.411156621708L218.8464285714286,138.66046529718253L219.15714285714284,121.1279118687392L219.2607142857143,111.54667822781092L219.36428571428573,112.73722808994583L219.46785714285716,127.97090863131125L219.88214285714287,137.27343575801035L219.9857142857143,139.2038399544095L220.0892857142857,147.2731084732255L220.4,147.43037507462745L220.60714285714283,127.59663912253524L220.81428571428572,133.98700366852847L221.02142857142857,142.18045491718152L221.125,139.33827428545297L221.22857142857143,129.40904527500712L221.43571428571428,137.47100078103213L221.5392857142857,132.87400059603013L222.05714285714285,127.35195876063322L222.36785714285713,130.9669472557391L222.575,143.7661243356517L222.88571428571427,143.7586419437677L223.19642857142858,133.63357860650723L223.3,148.14389865163628L223.50714285714284,150.00018461563386L223.71428571428572,144.9557638455522L224.3357142857143,135.13798265272922L224.43928571428572,102.55135408290951L224.64642857142857,99.17758090525109L224.85357142857143,98.12972519415162L225.78571428571428,101.27573024283373L225.8892857142857,95.2631675234468L225.99285714285713,106.6269166654963L226.0964285714286,115.56400198141449L227.33928571428572,134.4105625581724L227.54642857142858,141.45918360423937L227.75357142857143,139.92949325962002L227.96071428571426,131.34619824840507L228.375,148.92442682715583L228.47857142857143,148.04157910425857L228.58214285714286,145.18502654122946L228.68571428571428,142.49087582998058L228.7892857142857,149.97215733392585L228.89285714285714,142.57639578737945L228.99642857142857,145.5787826094516L229.20357142857142,145.14149008950517L229.30714285714285,143.16443762517522L229.41071428571428,130.42771767459243L229.61785714285716,129.33812329579553L230.1357142857143,137.8175408018181L230.44642857142856,147.65920379475054L230.65357142857144,156.06231884667451L230.75714285714287,144.9417370874237L230.9642857142857,149.7454223870367L231.275,140.47867726797645L231.5857142857143,147.05182483383885L231.79285714285714,148.44062666528743L232.10357142857143,154.1114137723048L232.4142857142857,152.8024139066934L232.51785714285717,144.62971759679314L232.82857142857142,147.01622050787444L233.0357142857143,141.25175670734308L233.1392857142857,147.99878397435702L233.96785714285716,147.8067823627636L234.07142857142858,120.22953009957344L234.2785714285714,112.32392190190714L234.79642857142855,114.00755483563282L235.3142857142857,135.15666501197538L235.41785714285714,133.65868356986832L235.52142857142857,133.42982048966877L235.72857142857143,149.25488982187744L235.83214285714286,137.95907763473411L236.0392857142857,134.21474681277405L236.24642857142857,140.5919330524166L236.55714285714285,134.31364474813697L236.66071428571428,134.5190178806815L237.075,125.29161271662912L237.59285714285716,127.94311937100528L237.79999999999998,131.11692875150942L238.42142857142858,132.36720303490222L238.525,133.00185847636735L238.62857142857143,145.23137257788585L238.73214285714283,144.0884753411651L238.8357142857143,146.39856457863092L239.14642857142857,140.90523427101277L239.35357142857143,141.6536682496804L239.6642857142857,137.24082048716176L239.76785714285714,136.71568224896208L240.07857142857142,136.6789959124876L240.2857142857143,133.71177718234972L240.49285714285713,130.44300018544743L240.59642857142856,115.87844800708143L240.7,129.55903785560994L241.1142857142857,137.75275896748585L241.52857142857144,132.95209281182696L241.63214285714284,140.75844763121847L241.73571428571427,122.88071095467714L242.14999999999998,136.9514148731298L242.25357142857143,146.0737445461313L242.4607142857143,138.8453990332818L242.56428571428572,122.6927983875594L242.77142857142857,106.90800203058251L242.875,111.40539385064321L242.97857142857143,111.83591512432025L243.18571428571428,125.83689441913562L243.28928571428574,136.1551423277509L243.39285714285714,128.72369527137587L243.49642857142857,149.8582429654378L243.80714285714288,140.28226629775634L244.0142857142857,137.68143308569114L244.11785714285713,140.3770995212145L244.73928571428573,138.62963503316328L244.84285714285716,138.21861666748094L244.94642857142858,130.8415895408938L245.3607142857143,117.62236922899186L245.56785714285712,140.02228311729013L245.775,119.15579109687555L246.18928571428572,130.27742058097687L246.9142857142857,115.86063310420138L247.22500000000002,124.6033631427027L247.43214285714285,143.1905474151931L247.63928571428573,145.48454108034144L247.74285714285716,143.7203859030877L247.95,140.17333269236528L248.15714285714287,117.33609388421799L248.36428571428573,126.81326424450174L248.46785714285713,127.47905712229307L248.57142857142856,137.95469909728942L248.88214285714287,140.55526754034386L248.98571428571427,158.10045424445164L249.29642857142858,146.80581324186142L249.4,150.39780839494597L249.7107142857143,152.00403793461163L250.02142857142857,131.16110527877234L250.43571428571428,132.07158370711934L251.05714285714288,133.97943387447913L251.1607142857143,121.75418938886595L251.47142857142856,136.26236297185105L251.57500000000002,140.0672576802664L251.78214285714284,148.31037726746158L251.9892857142857,139.88375661102626L252.09285714285716,145.6835882790547L252.3,145.74335101888545L252.4035714285714,157.8355301883576L252.6107142857143,172.20497438590277L252.71428571428572,148.9743005876574L252.81785714285715,156.42645712642866L252.92142857142855,155.72604179828758L253.12857142857143,147.62369287758705L253.3357142857143,143.53239813774604L253.4392857142857,147.19132959920034L253.85357142857143,148.8893091730944L253.95714285714286,155.04712851838298L254.1642857142857,146.71757362363354L254.475,151.69888216780194L254.68214285714285,137.07639133528812L254.99285714285716,123.15204186675514L255.61428571428573,137.50940928600764L256.23571428571427,139.87572716797908L256.65,130.4150231118531L256.9607142857143,145.49771046135015L257.47857142857146,140.95737555201765L257.6857142857143,124.95680541620204L257.99642857142857,120.24325742498368L258.61785714285713,131.8698114572485L258.7214285714286,141.30822976222748L258.92857142857144,131.31664064282845L259.2392857142857,114.01482119294803L259.55,126.52872692902567L259.6535714285714,128.3468304643612L259.75714285714287,113.01275114116554L260.6892857142857,124.87377920566489L260.79285714285714,122.4326585985332L260.8964285714286,131.939189084596L261,121.38257270826487L261.20714285714286,110.40902158363812L261.4142857142857,119.71767044987769L261.72499999999997,139.87496994570785L261.8285714285714,131.3787461962455L262.24285714285713,142.46799219406566L262.45,137.31473971341202L262.55357142857144,150.7559903009781L262.65714285714284,144.33018880033782L262.7607142857143,144.1573857411402L263.5892857142857,144.121978975812L264.52142857142854,148.79481574623546L264.7285714285714,148.7140573592708L265.0392857142857,156.09554941724093L265.5571428571429,139.0853511576077L265.86785714285713,134.96289404417402L265.9714285714286,142.1667404471953L266.28214285714284,116.28811759824274L266.3857142857143,134.19711475297643L266.69642857142856,133.46018930390377L267.00714285714287,142.5256855542356L267.2142857142857,146.10643132536973L267.4214285714286,151.41882226949548L267.7321428571429,165.25444323352343L268.04285714285714,151.40567361909962L268.14642857142854,152.17294755219706L268.25,139.1191258158641L268.45714285714286,145.71430403032045L269.2857142857143,157.26011201642837L269.49285714285713,145.48960648598006L269.7,154.60278257978996L269.90714285714284,145.40267552168987L270.425,129.87486439962282L270.9428571428571,146.49212023508008L271.35714285714283,138.88963008935124L271.7714285714286,128.99652694353387L271.875,132.95443060093473L271.9785714285714,144.96992844875663L272.39285714285717,132.05155992112162L272.49642857142857,134.0377317214108L272.59999999999997,149.1801264061985L272.7035714285714,143.92318116751062L273.0142857142857,148.32418017343727L273.53214285714284,140.54057513210802L273.84285714285716,145.62127871116178L274.05,146.45166077375518L274.4642857142857,144.90627219057146L274.5678571428571,151.17061752424277L274.6714285714286,150.41791805711767L274.775,157.63706701926816L274.98214285714283,152.87257537086265L275.18928571428575,160.5518709518877L275.5,140.0039723025779L275.8107142857143,142.7913200728309L275.9142857142857,160.49344885064434L276.12142857142857,152.5328815013961L276.3285714285714,136.7451319998977L277.05357142857144,134.25213985362515L277.3642857142857,137.684134253972L277.46785714285716,153.54418061799598L277.675,140.53465520993944L277.88214285714287,143.75858063969656L278.0892857142857,146.32396254702593L278.1928571428571,136.71721009352314L278.4,149.28522716008726L278.7107142857143,162.96080369259778L278.91785714285714,167.82578925672686L279.22857142857146,162.48230882396408L279.43571428571425,144.03679881519142L279.5392857142857,142.24970788255968" style="fill: none;" fill="none"></path></g></g></g></g><g opacity="0.2"><g><g><g><path stroke="rgb(255, 112, 67)" stroke-width="2px" d="M23.2,-79.45449333190919L24.132142857142856,41.634789657592755L24.442857142857143,51.92010135650633L24.857142857142858,29.105244827270493L25.064285714285713,20.550872516632065L25.271428571428572,57.284753036499005L25.375,47.75989694595335L25.58214285714286,34.779400539398175L25.789285714285715,41.92685146331785L26.20357142857143,57.30817909240721L26.307142857142857,-126.68931560516359L26.410714285714285,89.8522967815399L26.514285714285716,70.40296239852904L26.617857142857144,-25.986642646789566L27.239285714285714,25.483033370971665L27.44642857142857,69.12229557037352L27.55,63.471268844604474L27.65357142857143,5.142723751068099L27.757142857142856,42.16866607666014L28.067857142857143,36.17176551818846L28.17142857142857,80.33739252090453L28.275000000000002,51.5126492500305L28.378571428571426,34.12631435394285L28.896428571428572,75.56267852783202L29.41428571428571,21.588706207275376L29.724999999999998,-3.427265930175797L29.82857142857143,51.1234457015991L30.45,62.32657499313353L31.27857142857143,67.69852609634398L31.589285714285715,-23.29459838867189L31.692857142857143,63.04701108932493L32.417857142857144,77.08375949859618L32.72857142857143,105.61871142387389L32.93571428571428,69.48934621810912L33.660714285714285,27.032548141479477L33.76428571428571,61.010599327087384L34.074999999999996,24.055189800262436L34.17857142857143,93.39988012313842L34.90357142857143,26.82188339233397L35.11071428571429,104.21715850830077L35.31785714285714,98.88425083160399L35.42142857142857,-459.81309299468995L35.525,85.58090348243712L36.25,18.829524230957016L36.76785714285714,-83.0447910308838L36.975,45.55598039627073L37.07857142857143,72.78613920211791L37.18214285714286,7.79411191940306L37.49285714285714,47.250931930541974L37.80357142857143,-468.49643592834474L38.010714285714286,11.610012722015366L38.114285714285714,1.9801637649535975L38.425000000000004,44.57442016601561L39.04642857142857,39.93542451858519L39.150000000000006,71.71259350776671L39.357142857142854,70.93234033584594L39.667857142857144,76.80612678527831L39.875,67.72488040924071L39.97857142857143,59.06487865447996L40.18571428571428,58.27017517089842L40.392857142857146,-32.95530014038088L40.496428571428574,58.82047529220579L41.221428571428575,84.02699632644652L42.05,51.15463800430296L42.153571428571425,56.30909175872801L42.25714285714286,45.61861963272093L42.67142857142857,61.586320114135724L43.707142857142856,57.40782470703123L43.81071428571429,48.60264081954954L44.01785714285714,34.377125930786114L44.225,78.39434547424315L44.43214285714286,73.164054107666L44.74285714285714,65.2205841064453L44.84642857142857,87.54039545059203L44.95,50.592073154449444L45.260714285714286,57.443006229400616L46.29642857142857,86.22297687530516L46.50357142857143,33.258149814605694L47.125,36.52595729827879L47.43571428571428,100.41178245544432L47.53928571428571,-19.95990781784059L47.642857142857146,89.13222141265868L47.746428571428574,51.896760177612286L47.95357142857143,34.42868871688841L48.36785714285714,25.23655052185057L48.575,-2.3073986053466955L48.78214285714285,35.06297464370726L48.989285714285714,50.02577371597288L49.50714285714285,79.21476669311522L50.128571428571426,73.38399167060851L50.85357142857143,93.68158693313597L50.957142857142856,81.07022066116332L51.474999999999994,40.255623054504376L51.57857142857143,16.508053016662583L51.88928571428572,62.684289169311505L51.99285714285715,101.30978126525878L52.09642857142857,21.821905803680405L52.510714285714286,66.122954082489L52.614285714285714,60.35640974044798L52.82142857142857,41.21982593536375L53.13214285714286,123.8139667034149L53.54642857142857,91.74753684997557L53.65,81.98708338737487L53.753571428571426,93.2290651321411L53.85714285714286,101.55006809234618L54.06428571428571,68.88128728866576L54.375,91.21438188552855L54.47857142857143,81.76744289398192L54.58214285714286,24.81242008209227L54.89285714285714,81.27494401931762L55.20357142857143,46.653567504882794L55.825,75.88415021896361L56.03214285714286,104.15541048049926L56.34285714285714,63.49736852645872L56.44642857142857,36.15462036132811L56.65357142857143,89.43461699485778L56.75714285714285,126.17577571868895L57.275000000000006,104.55180735588073L57.37857142857143,104.97640461921691L57.792857142857144,43.02821559906004L58,56.171888065338116L58.31071428571428,54.41353340148924L58.725,42.86648244857786L59.13928571428571,70.5506908416748L59.346428571428575,92.11535139083861L59.760714285714286,72.5179702758789L59.864285714285714,71.70090169906615L59.96785714285715,67.80262775421141L60.175,81.97509450912474L60.69285714285714,54.82488985061644L60.79642857142857,60.72464866638182L61.21071428571429,71.03249521255492L61.31428571428572,82.40643949508666L61.417857142857144,78.92720336914061L62.45357142857143,92.13890476226806L62.97142857142857,112.15169520378112L63.69642857142857,35.12395877838133L63.8,74.30526800155639L64.31785714285714,64.17837924957274L64.42142857142858,81.98755021095275L64.62857142857143,28.45122499465941L64.83571428571429,97.65033001899718L65.25,64.73899192810057L66.18214285714285,105.26674766540526L66.38928571428572,84.00997848510741L66.49285714285715,74.70102829933165L66.80357142857143,101.76633472442626L67.425,85.72160835266112L68.25357142857142,83.07138724327086L68.35714285714286,118.61336107254027L68.46071428571429,108.2833191871643L68.66785714285714,118.54125804901122L68.77142857142857,61.0094959259033L69.08214285714286,95.4370557785034L69.18571428571428,82.57044310569762L69.70357142857142,102.25666923522948L69.80714285714286,107.98667402267455L70.94642857142857,103.34572620391845L71.25714285714285,133.07564039230346L71.3607142857143,64.19883460998534L71.56785714285714,114.73520298004149L71.775,50.293815326690655L72.08571428571429,120.34782285690306L73.225,93.77713723182677L73.63928571428572,128.5578279018402L73.74285714285715,83.458065700531L73.95,47.772458744049054L74.26071428571429,113.90527553558348L74.46785714285714,119.72019977569579L74.98571428571428,69.08104534149169L75.08928571428572,115.38642187118529L75.71071428571429,69.21659393310546L75.91785714285714,125.90820093154906L76.02142857142857,131.41722841262816L76.125,116.7603048801422L76.22857142857143,61.78573865890501L76.33214285714287,62.11612243652342L76.43571428571428,65.43714780807494L76.64285714285714,104.30299038887023L76.85000000000001,98.50064916610717L77.36785714285715,104.45890946388243L77.47142857142856,116.1057970046997L77.575,106.75413246154784L77.78214285714286,117.60408849716185L78.19642857142857,62.228202533721905L78.40357142857142,113.18424530029296L78.61071428571428,95.77968306541442L79.025,106.14450330734252L79.12857142857143,107.05069274902343L79.23214285714285,114.56383628845214L79.64642857142857,123.22218294143676L80.06071428571428,125.70666046142577L80.16428571428571,102.92704911231993L80.47500000000001,138.0805408477783L80.68214285714285,137.77201290130614L80.78571428571429,77.66775579452514L80.8892857142857,100.93110246658324L80.99285714285715,63.21960849761961L81.09642857142858,114.03174228668212L81.2,160.75125498771666L81.40714285714284,132.10634489059447L81.51071428571429,55.67824335098265L82.02857142857142,137.70067377090453L82.13214285714285,129.6705443382263L82.44285714285715,124.94773263931273L82.54642857142858,117.36341972351073L82.85714285714285,65.46991033554076L83.06428571428572,65.90036411285399L83.47857142857143,83.89025945663451L83.6857142857143,94.62393398284911L83.89285714285715,152.61123104095458L84.1,145.63480730056762L84.41071428571429,126.62817020416259L84.82499999999999,114.66513700485228L84.92857142857143,80.19412012100219L85.13571428571429,131.73498673439025L85.44642857142857,118.05656785964965L85.8607142857143,106.58730669021605L86.37857142857143,107.20296211242675L87.10357142857143,132.0835129737854L87.20714285714286,126.45616693496703L87.41428571428571,109.75986094474791L87.51785714285714,83.653622341156L87.62142857142858,113.98943109512328L87.725,132.79518551826476L87.93214285714286,117.7936825275421L88.24285714285713,139.26678199768065L88.65714285714286,113.11250300407409L88.76071428571429,133.5092346191406L89.175,82.80765314102172L89.48571428571428,132.02010984420775L89.9,142.99873943328856L90.21071428571427,121.45309133529662L90.31428571428572,111.75073618888854L90.41785714285714,113.30005998611449L90.52142857142857,101.93770141601561L90.625,94.56301350593566L90.83214285714286,84.60831899642943L90.93571428571428,116.1912257194519L91.03928571428573,106.21613950729369L91.24642857142858,128.0004193305969L91.35,129.50961751937865L91.45357142857142,107.35476465225219L91.55714285714286,136.5028893470764L91.76428571428572,137.2919485092163L91.97142857142856,118.95496983528136L92.075,98.67536849975585L92.8,122.34253878593444L93.11071428571428,137.47460384368895L93.21428571428572,133.09581990242003L93.31785714285714,100.43881578445433L93.525,95.24463958740233L93.83571428571429,73.18385167121886L94.04285714285714,120.40672750473021L94.25,73.75689883232116L94.66428571428571,109.04320187568663L95.07857142857142,117.76921672821044L95.3892857142857,113.25392932891845L95.49285714285715,130.1063241481781L95.59642857142856,129.3288719177246L95.7,19.116705608367905L95.80357142857143,-994.350534248352L96.32142857142857,94.0971447944641L96.94285714285715,86.44520611763L97.15,-709.1697080612182L97.25357142857143,85.63015336990355L97.35714285714285,98.75205488204955L97.66785714285714,-30.228753376007095L97.97857142857143,58.35666484832762L98.08214285714286,72.20774478912352L98.39285714285715,77.12649507522582L98.49642857142857,75.52147073745726L98.60000000000001,85.04068250656127L98.80714285714285,69.38745136260985L99.0142857142857,96.78643054962157L99.63571428571429,91.69406433105468L99.94642857142857,96.20077915191649L100.05,99.95283122062682L100.3607142857143,41.862260055541974L100.46428571428571,100.72676105499266L100.56785714285715,97.10412521362304L100.77499999999999,98.7981855392456L100.87857142857143,90.10304470062255L101.5,88.20973558425902L101.91428571428571,96.81898088455199L102.01785714285715,116.31565542221068L102.225,58.96773691177366L102.43214285714285,72.1298276901245L102.63928571428572,95.0495922088623L102.74285714285713,91.32584662437438L102.84642857142858,103.01016492843627L102.94999999999999,72.23146791458129L103.05357142857143,42.44655342102049L103.36428571428571,123.55473108291625L103.57142857142857,69.82002706527709L103.77857142857144,92.34507102966307L104.08928571428571,92.79377336502074L104.29642857142858,67.45391054153441L104.39999999999999,65.68418235778807L104.50357142857143,119.50418777465819L104.91785714285713,127.80507488250731L105.125,72.68038244247435L105.22857142857143,79.56649703979491L105.43571428571428,111.90903182029723L105.74642857142858,79.10058588981627L106.16071428571428,117.2485599040985L106.47142857142858,55.13507289886473L106.78214285714286,110.76215238571166L106.88571428571429,99.63205976486205L107.09285714285714,113.7943624973297L107.3,3.6232978820800623L107.50714285714285,132.28530807495116L108.025,25.61136741638182L108.33571428571427,108.4277374267578L108.43928571428572,93.65756673812865L108.54285714285714,109.94249505996703L108.85357142857143,118.26856942176818L109.68214285714286,116.63927025794982L109.78571428571428,44.736959648132306L109.88928571428572,87.59149141311644L110.09642857142856,121.62178440093993L110.51071428571429,118.18435020446776L110.71785714285714,107.24760742187499L110.82142857142857,137.3375274658203L111.23571428571428,86.43359918594359L111.44285714285714,89.21457333564757L111.54642857142856,94.89473409652709L111.85714285714286,89.86063594818114L112.06428571428572,101.12763519287108L112.27142857142857,84.23672742843627L112.58214285714287,105.11904044151305L112.78928571428571,139.96574420928954L112.89285714285714,-1366.2720191955566L113.10000000000001,51.36195011138914L113.20357142857142,104.95365757942199L113.5142857142857,113.39987535476683L113.825,92.65173168182372L113.92857142857143,57.024435234069806L114.65357142857142,107.43766827583312L114.75714285714287,67.71371908187865L114.86071428571428,78.59015674591063L114.96428571428571,100.48180599212645L115.17142857142856,96.0123309612274L115.275,85.75685353279113L115.48214285714285,113.37521858215331L115.58571428571429,72.90078682899474L115.6892857142857,95.21174974441527L116,100.85857505798339L116.10357142857143,63.16660280227659L116.20714285714286,93.22878928184508L116.31071428571428,52.53393192291258L116.51785714285715,53.090852451324444L117.1392857142857,51.19300241470335L117.24285714285715,62.88621158599852L117.55357142857143,51.57851381301878L118.27857142857142,107.52625865936278L118.58928571428571,59.772328567504864L119.31428571428572,33.77891273498533L119.41785714285714,95.57243461608886L119.52142857142857,76.58920235633849L119.72857142857143,56.15385169982908L119.83214285714286,70.56919403076171L119.9357142857143,81.46952457427977L120.24642857142857,86.95690841674804L120.35,80.63607473373412L120.55714285714285,96.84936685562133L120.76428571428572,110.64835352897643L120.86785714285713,118.92203755378722L121.28214285714286,66.85493345260619L121.38571428571429,97.71956844329833L121.8,73.63970489501952L121.90357142857144,95.69325704574584L122.00714285714285,107.14507598876952L122.1107142857143,55.70035381317137L122.42142857142858,83.48221321105956L122.52499999999999,78.8183910369873L122.62857142857143,85.43686718940734L122.93928571428572,45.459602546691876L123.04285714285713,26.530967426300034L123.87142857142858,98.23330779075621L124.28571428571428,106.47391099929808L124.49285714285713,5.551915836334213L124.7,131.50117177963256L124.80357142857143,110.0752851486206L125.11428571428571,-9.408718872070327L125.21785714285714,48.13310117721556L125.425,81.67687911987304L125.52857142857144,91.7920124053955L125.63214285714285,83.61778302192687L125.73571428571428,41.976334762573224L126.04642857142858,92.1880061149597L126.875,24.727797698974594L127.08214285714286,46.71764965057371L127.28928571428573,67.41308469772338L127.49642857142858,94.9422227859497L127.6,55.40914077758787L127.70357142857142,46.42720050811766L127.91071428571428,59.09114809036253L128.11785714285713,91.54410786628722L128.22142857142856,88.381165933609L128.325,97.15097732543944L128.63571428571427,78.54546899795531L128.84285714285716,82.29597206115722L129.56785714285715,98.45267243385314L129.67142857142858,91.13799257278441L129.98214285714286,90.57525796890258L130.18928571428572,103.37509365081786L130.81071428571428,93.16839928627013L130.9142857142857,54.13004417419432L131.12142857142857,96.09190316200255L131.32857142857142,76.32377071380614L131.74285714285713,109.68058581352233L132.15714285714287,121.56033344268798L132.3642857142857,105.11040420532225L132.57142857142856,121.5690333366394L132.88214285714287,132.57125873565673L132.9857142857143,83.88054103851317L133.08928571428572,91.16642637252806L133.19285714285715,104.38752789497374L133.81428571428572,81.3223690509796L133.91785714285714,84.80149908065795L134.5392857142857,104.18853373527526L134.74642857142857,88.11951131820678L134.95357142857142,58.70678253173826L135.05714285714285,77.8230170726776L135.16071428571428,92.73113412857055L136.09285714285716,66.86779232025145L136.29999999999998,120.73819346427916L136.6107142857143,104.55594511032103L137.025,51.70782394409178L137.23214285714286,109.45101470947264L137.3357142857143,92.82021255493163L137.75,99.93852944374083L137.85357142857143,96.88329644203185L138.06071428571428,90.36599369049071L138.1642857142857,104.36166162490844L138.26785714285714,90.14771122932433L138.57857142857142,102.0506302833557L138.68214285714285,84.2349450111389L139.71785714285713,56.4895402908325L139.92499999999998,84.14701242446898L140.02857142857144,97.68706054687499L140.33928571428572,115.60918159484862L140.44285714285715,123.46395511627196L140.54642857142858,86.73720426559447L140.85714285714286,93.47304410934447L140.9607142857143,120.23767371177672L141.06428571428572,40.565169525146466L142.61785714285713,108.96471185684203L142.92857142857144,144.37824554443358L143.13571428571427,24.004348468780503L143.23928571428573,111.89122886657714L143.44642857142858,36.15092821121214L143.55,112.56290311813353L143.86071428571427,76.20303316116332L144.17142857142858,122.59617252349852L144.275,97.52607007026671L144.37857142857143,52.72346229553221L144.48214285714286,63.61963386535643L144.68928571428572,105.55503244400023L144.89642857142857,118.48375387191771L145.10357142857143,118.89126963615416L145.3107142857143,109.65690512657164L145.4142857142857,100.57368535995482L145.62142857142857,110.35370297431945L145.82857142857145,100.4947072982788L146.03571428571428,109.79799194335936L146.1392857142857,65.0378014564514L146.24285714285716,-71.27761154174806L146.3464285714286,91.13260288238524L146.45,81.7419373512268L147.4857142857143,66.40440626144408L147.9,127.27450866699218L148.31428571428572,77.4607831954956L148.41785714285714,49.777550888061505L148.52142857142857,69.2603904724121L148.72857142857143,107.44817180633544L149.0392857142857,101.54281110763549L149.35,104.71504707336425L149.55714285714285,105.63528366088866L149.76428571428573,78.02801628112792L149.86785714285713,125.22680826187133L150.075,127.95534963607787L150.4892857142857,109.73726243972777L150.59285714285713,91.64534492492675L150.69642857142858,123.23067064285277L150.90357142857144,80.33374280929564L151.00714285714284,92.09629650115966L151.31785714285715,111.8134603023529L151.42142857142858,100.11089344024657L151.52499999999998,111.0089747428894L151.62857142857143,108.44267578124999L151.8357142857143,90.72179813385009L152.35357142857143,121.08824748992919L152.66428571428574,102.46578497886657L153.18214285714288,91.18024010658263L153.3892857142857,110.11564416885375L153.80357142857142,86.4683138847351L154.01071428571427,121.45718665122985L154.42499999999998,116.24193973541259L154.5285714285714,97.67140073776244L154.63214285714287,136.8814408302307L154.7357142857143,91.25851793289183L154.94285714285712,108.30761523246764L155.25357142857143,92.52042694091796L155.35714285714286,103.38744325637816L155.56428571428572,147.20558376312255L155.66785714285714,105.82557792663573L155.77142857142857,137.70534200668334L156.39285714285714,86.49165506362914L156.60000000000002,108.3092915534973L156.70357142857142,140.38108987808226L156.91071428571428,132.83609623908995L157.01428571428573,130.44260687828063L157.325,124.0580093383789L157.42857142857142,82.06173272132872L157.94642857142856,82.0477280139923L158.05,58.20634765624998L158.15357142857144,110.68699378967284L158.4642857142857,108.29936094284056L158.67142857142858,115.6280879497528L158.775,103.99147052764891L158.8785714285714,97.28828711509703L158.98214285714286,113.13070912361144L159.0857142857143,123.86342878341674L159.18928571428572,95.109854888916L159.81071428571428,88.42061252593993L160.32857142857142,117.13111133575438L160.43214285714288,79.01541180610656L160.5357142857143,53.92336864471434L161.05357142857144,102.22102088928222L161.46785714285716,42.2880455970764L161.675,121.76100392341613L161.7785714285714,130.60711975097655L162.19285714285715,146.02191014289855L162.60714285714286,126.97998542785643L163.33214285714286,146.16102356910704L163.5392857142857,103.1702854156494L163.85,131.9356572151184L164.05714285714285,114.51902122497557L164.16071428571428,90.01791305541991L164.4714285714286,80.5478238582611L164.575,110.95944900512694L164.78214285714284,71.82719869613646L164.8857142857143,116.86973257064818L165.19642857142856,126.38758630752562L166.95714285714286,133.12147397994994L167.06071428571428,109.44191164970397L167.1642857142857,121.22494192123412L167.26785714285714,114.17459030151366L167.68214285714285,68.6112935066223L167.99285714285713,117.99813003540038L168.09642857142856,117.91751809120177L168.40714285714287,96.31077976226806L168.51071428571427,132.34947509765624L168.6142857142857,93.58881635665892L169.02857142857144,115.35582370758056L169.13214285714284,83.42169589996337L169.23571428571427,120.64340705871581L169.44285714285715,100.75199074745177L169.64999999999998,62.50184602737425L169.85714285714286,86.94237322807311L170.06428571428572,117.69645590782164L170.68571428571428,90.85348482131957L170.89285714285714,94.41068048477172L171.41071428571428,96.99047489166259L171.5142857142857,107.56449575424193L172.44642857142858,158.00960011482238L172.54999999999998,94.4422547340393L173.68928571428572,105.63150663375853L174.10357142857143,121.792472076416L174.20714285714286,98.01472826004027L174.51785714285714,104.77535219192504L174.62142857142857,110.43062276840209L174.93214285714285,127.85107822418212L175.13928571428573,92.18930048942565L175.24285714285716,46.93306751251219L175.34642857142856,67.38473577499389L176.07142857142856,127.05000896453856L176.175,124.08466072082518L176.27857142857144,117.66611237525939L176.38214285714287,98.6631037712097L176.69285714285715,127.95619840621947L176.9,92.03993816375731L177.0035714285714,110.22937936782836L177.10714285714286,127.95855374336242L177.2107142857143,133.68015570640563L177.72857142857143,146.71028394699096L177.93571428571428,99.4215859889984L178.45357142857142,115.52608699798583L178.55714285714288,132.52504320144652L178.86785714285713,109.3902003288269L179.59285714285716,87.43281383514403L179.8,110.54142971038817L180.8357142857143,125.65108723640441L181.04285714285714,119.16238803863524L181.14642857142857,94.84898538589476L181.35357142857143,119.99969978332518L181.45714285714286,133.77173800468444L181.6642857142857,103.20707960128783L181.76785714285714,127.18127126693724L182.3892857142857,113.09079570770263L182.49285714285716,82.66885800361632L183.11428571428573,122.59634227752684L183.21785714285716,138.981849861145L184.15,112.69098253250121L184.56428571428572,144.49287195205687L184.77142857142857,163.73357863426207L185.18571428571428,110.10613794326781L185.80714285714285,154.5315098285675L186.11785714285713,138.63054389953612L186.325,128.70735998153685L186.63571428571427,144.61114807128905L186.84285714285713,105.48509378433226L186.94642857142858,142.13689823150634L187.36071428571427,137.71450872421264L187.46428571428572,130.2202715396881L187.67142857142858,108.92528648376464L187.77499999999998,140.33525629043578L187.98214285714286,96.05131072998046L188.29285714285714,140.85911722183226L188.39642857142857,105.57328100204467L188.5,117.23194522857665L188.91428571428574,145.56053991317748L189.12142857142857,153.19739170074462L189.225,111.55906267166137L189.32857142857142,129.9284219264984L189.53571428571428,121.27501935958861L189.74285714285713,97.23354144096373L189.95000000000002,165.90708799362181L190.26071428571427,126.84439439773558L190.57142857142858,139.2745906829834L190.67499999999998,147.1839825630188L190.7785714285714,126.35906763076781L191.08928571428572,157.6541139602661L191.29642857142858,143.18247694969176L191.4,133.53130264282225L191.71071428571426,105.79578609466552L191.81428571428572,67.29230470657347L192.125,93.97212095260619L192.5392857142857,131.3723072528839L192.64285714285714,154.22909302711486L192.74642857142857,124.92345781326293L193.47142857142856,145.4748565673828L193.67857142857142,106.12926788330077L193.78214285714287,118.11922831535338L193.8857142857143,140.84844393730162L194.19642857142856,142.49707384109496L194.3,166.319505405426L194.50714285714287,151.20494623184203L194.92142857142858,164.23486227989196L195.025,108.60360260009764L195.1285714285714,106.42491574287413L195.43928571428572,120.91265816688536L195.85357142857143,104.845290851593L195.95714285714286,127.78304929733275L196.1642857142857,160.20695991516112L196.26785714285717,117.41568274497985L196.37142857142857,112.0850667476654L196.475,91.66427249908446L196.68214285714288,103.52163381576537L196.99285714285713,111.95367712974547L197.09642857142856,126.76550121307372L197.20000000000002,136.70111961364745L197.30357142857144,73.04809088706969L197.71785714285716,159.46360702514647L197.82142857142858,122.08979625701903L198.33928571428572,130.164040517807L198.54642857142855,138.67784161567687L198.65,119.60654945373534L198.75357142857143,102.4485761642456L199.16785714285714,151.5238079547882L199.47857142857143,160.13702125549315L199.6857142857143,150.1675793647766L199.99642857142857,150.70943422317504L200.1,128.52918190956115L200.20357142857145,139.8468527317047L200.30714285714285,160.99898977279662L200.41071428571428,142.05972380638121L200.61785714285716,61.21472854614256L200.825,80.01713032722472L201.1357142857143,126.37931079864501L201.23928571428573,117.18976135253905L201.44642857142856,124.82550973892211L201.54999999999998,107.00606865882872L201.65357142857144,156.06296701431273L201.9642857142857,130.94717950820922L202.17142857142858,149.85047883987426L202.275,130.21732206344603L202.37857142857143,100.66259403228759L202.48214285714283,134.97921962738036L203.20714285714286,100.4723422050476L203.31071428571428,130.00249834060668L203.6214285714286,147.13360805511473L204.13928571428573,124.58675069808959L204.55357142857144,129.26434416770934L205.175,114.29638881683348L205.27857142857144,135.1910089969635L205.48571428571427,157.63166399002074L205.89999999999998,139.0323516845703L206.00357142857143,132.49262018203734L206.10714285714286,133.19158239364623L206.31428571428572,133.96073789596556L206.41785714285714,179.6377062320709L206.52142857142857,118.3552288532257L206.93571428571428,131.3110897064209L207.35,122.01858444213866L207.55714285714288,91.96206350326537L207.66071428571428,83.77160139083861L208.48928571428573,131.54155201911925L208.59285714285716,138.51517481803893L208.9035714285714,106.31463928222655L209.21428571428572,148.4585594654083L209.62857142857143,167.70363731384276L209.83571428571426,136.04667539596556L210.25,105.84594841003417L210.76785714285714,155.69527978897094L210.87142857142857,138.41920013427733L211.28571428571428,153.95203323364257L211.38928571428573,149.96983714103698L211.7,137.09980816841124L211.80357142857142,98.05181951522826L211.90714285714287,112.3789321899414L212.21785714285713,145.0444664478302L212.52857142857144,134.18139691352843L212.63214285714287,134.06840438842772L212.8392857142857,155.824632358551L213.04642857142858,159.04295654296874L213.15,119.49336595535277L213.2535714285714,161.2456211566925L213.97857142857143,160.84879989624022L214.18571428571428,109.45201201438903L214.2892857142857,127.34669656753539L214.9107142857143,153.18118019104003L215.0142857142857,121.43030185699462L215.11785714285713,170.1697389602661L215.22142857142856,102.61820287704467L215.32500000000002,155.77886242866515L215.53214285714284,132.27304334640502L215.84285714285716,127.32993335723876L216.56785714285715,126.92464561462401L216.67142857142855,166.6044587612152L216.775,102.81566925048827L217.70714285714286,143.69702262878417L218.01785714285714,140.37351460456847L218.12142857142857,145.42717690467833L218.53571428571428,139.6908912181854L218.6392857142857,137.37898988723754L218.74285714285716,117.58643407821654L218.8464285714286,151.03442831039428L219.15714285714284,94.82908172607421L219.2607142857143,97.17482776641845L219.36428571428573,114.52305288314818L219.46785714285716,150.82142944335936L219.88214285714287,151.22722644805907L219.9857142857143,142.09944624900817L220.0892857142857,159.37701125144957L220.4,147.66627497673034L220.60714285714283,97.84603519439696L220.81428571428572,143.5725504875183L221.02142857142857,154.47063179016112L221.125,135.0750033378601L221.22857142857143,114.51520175933837L221.43571428571428,149.56393404006957L221.5392857142857,125.97850031852721L222.05714285714285,119.06889600753783L222.36785714285713,136.38942999839782L222.575,162.96488995552062L222.88571428571427,143.74741835594176L223.19642857142858,118.44598360061644L223.3,169.90937871932982L223.50714285714284,152.78461356163024L223.71428571428572,137.38913269042968L224.3357142857143,120.41131086349486L224.43928571428572,53.67141122817991L224.64642857142857,94.11692113876342L224.85357142857143,96.55794162750243L225.78571428571428,105.99473781585692L225.8892857142857,86.24432344436644L225.99285714285713,123.67254037857055L226.0964285714286,128.96962995529174L227.33928571428572,162.68040342330931L227.54642857142858,152.03211517333983L227.75357142857143,137.63495774269103L227.96071428571426,118.47125573158263L228.375,175.29176969528197L228.47857142857143,146.7173075199127L228.58214285714286,140.90019769668578L228.68571428571428,138.4496497631073L228.7892857142857,161.19407958984374L228.89285714285714,131.4827534675598L228.99642857142857,150.0823628425598L229.20357142857142,144.48555130958556L229.30714285714285,140.1988589286804L229.41071428571428,111.32263774871825L229.61785714285716,127.70373172760009L230.1357142857143,150.53666706085204L230.44642857142856,162.42169828414916L230.65357142857144,168.66699142456054L230.75714285714287,128.26086444854735L230.9642857142857,156.9509503364563L231.275,126.57855958938597L231.5857142857143,156.91154618263243L231.79285714285714,150.52382941246032L232.10357142857143,162.6175944328308L232.4142857142857,150.83891410827636L232.51785714285717,132.37067313194274L232.82857142857142,150.59597487449645L233.0357142857143,132.605061006546L233.1392857142857,158.11932487487792L233.96785714285716,147.51877994537352L234.07142857142858,78.8636517047882L234.2785714285714,100.4655096054077L234.79642857142855,116.5330042362213L235.3142857142857,166.88033027648925L235.41785714285714,131.41171140670775L235.52142857142857,133.0865258693695L235.72857142857143,172.99249382019042L235.83214285714286,121.01535935401915L236.0392857142857,128.59825057983397L236.24642857142857,150.15771241188048L236.55714285714285,124.89621229171752L236.66071428571428,134.82707757949828L237.075,111.45050497055053L237.59285714285716,131.92037935256957L237.79999999999998,135.8776428222656L238.42142857142858,134.24261445999144L238.525,133.95384163856505L238.62857142857143,163.57564373016356L238.73214285714283,142.37412948608397L238.8357142857143,149.8636984348297L239.14642857142857,132.66523880958556L239.35357142857143,142.77631921768187L239.6642857142857,130.62154884338378L239.76785714285714,135.9279748916626L240.07857142857142,136.62396640777587L240.2857142857143,129.26094908714293L240.49285714285713,125.53983469009398L240.59642857142856,94.03161973953246L240.7,150.0799226284027L241.1142857142857,150.04334063529967L241.52857142857144,125.75109357833861L241.63214285714284,152.46797986030577L241.73571428571427,96.0641059398651L242.14999999999998,158.0574707508087L242.25357142857143,159.75723905563353L242.4607142857143,128.00288076400756L242.56428571428572,98.46389741897582L242.77142857142857,83.23080749511718L242.875,118.15148158073424L242.97857142857143,112.4816970348358L243.18571428571428,146.83836336135863L243.28928571428574,151.63251419067382L243.39285714285714,117.57652468681334L243.49642857142857,181.56006450653075L243.80714285714288,125.91830129623412L244.0142857142857,133.78018326759337L244.11785714285713,144.4205991744995L244.73928571428573,136.00843830108641L244.84285714285716,137.6020891189575L244.94642857142858,119.77604885101317L245.3607142857143,97.7935387611389L245.56785714285712,173.62215394973754L245.775,87.85605306625365L246.18928571428572,146.9598648071289L246.9142857142857,94.23545188903807L247.22500000000002,137.7174582004547L247.43214285714285,171.07132382392882L247.63928571428573,148.92553157806395L247.74285714285716,141.07415313720702L247.95,134.85275287628173L248.15714285714287,83.08023567199706L248.36428571428573,141.02901978492736L248.46785714285713,128.4777464389801L248.57142857142856,153.66816205978392L248.88214285714287,144.45612020492553L248.98571428571427,184.4182343006134L249.29642857142858,129.86385173797606L249.4,155.78580112457274L249.7107142857143,154.4133822441101L250.02142857142857,99.89670629501342L250.43571428571428,133.43730134963988L251.05714285714288,136.8412091255188L251.1607142857143,103.41632266044616L251.47142857142856,158.02462334632872L251.57500000000002,145.7745997428894L251.78214285714284,160.67505664825438L251.9892857142857,127.24382562637328L252.09285714285716,154.3833357810974L252.3,145.83299512863158L252.4035714285714,175.9737989425659L252.6107142857143,193.75914068222045L252.71428571428572,114.1282898902893L252.81785714285715,167.60469193458556L252.92142857142855,154.67541880607604L253.12857142857143,135.47016949653624L253.3357142857143,137.3954560279846L253.4392857142857,152.67972679138182L253.85357142857143,151.43627853393554L253.95714285714286,164.2838575363159L254.1642857142857,134.2232412815094L254.475,159.17084498405455L254.68214285714285,115.14265508651732L254.99285714285716,102.26551766395568L255.61428571428573,159.04546041488646L256.23571428571427,143.42520399093627L256.65,116.22396702766417L256.9607142857143,168.1217414855957L257.47857142857146,134.1468731880188L257.6857142857143,100.95595021247863L257.99642857142857,113.17293543815612L258.61785714285713,149.30964250564574L258.7214285714286,155.46585721969603L258.92857142857144,116.32925696372985L259.2392857142857,88.06209201812743L259.55,145.29958553314208L259.6535714285714,131.0739857673645L259.75714285714287,90.01163215637206L260.6892857142857,142.66532130241393L260.79285714285714,118.77097768783568L260.8964285714286,146.19898481369017L261,105.5476481437683L261.20714285714286,93.94869489669799L261.4142857142857,133.68064374923705L261.72499999999997,170.1109191894531L261.8285714285714,118.63441057205199L262.24285714285713,159.1018611907959L262.45,129.58486099243163L262.55357142857144,170.91786618232726L262.65714285714284,134.69148654937743L262.7607142857143,143.89818115234374L263.5892857142857,144.0688688278198L264.52142857142854,155.80407090187072L264.7285714285714,148.59291977882384L265.0392857142857,167.16778750419616L265.5571428571429,113.57005376815795L265.86785714285713,128.77920837402343L265.9714285714286,152.97251005172728L266.28214285714284,77.47018332481383L266.3857142857143,161.0606104850769L266.69642857142856,132.3548011302948L267.00714285714287,156.12392992973326L267.2142857142857,151.4775499820709L267.4214285714286,159.3874086856842L267.7321428571429,186.00787467956542L268.04285714285714,130.63251919746398L268.14642857142854,153.32385845184325L268.25,119.53839321136473L268.45714285714286,155.607071352005L269.2857142857143,174.5788239955902L269.49285714285713,127.8338481903076L269.7,168.27254672050475L269.90714285714284,131.60251493453978L270.425,106.5831477165222L270.9428571428571,171.41800398826598L271.35714285714283,127.48589487075805L271.7714285714286,114.15687222480773L271.875,138.89128608703612L271.9785714285714,162.9931752204895L272.39285714285717,112.67400712966918L272.49642857142857,137.01698942184447L272.59999999999997,171.89371843338012L272.7035714285714,136.03776330947875L273.0142857142857,154.92567868232726L273.53214285714284,128.86516757011412L273.84285714285716,153.24233407974242L274.05,147.69723386764525L274.4642857142857,142.5881893157959L274.5678571428571,160.56713552474974L274.6714285714286,149.28886885643004L274.775,168.46579046249389L274.98214285714283,145.72583789825438L275.18928571428575,172.07081432342528L275.5,109.18212432861327L275.8107142857143,146.97234172821044L275.9142857142857,187.0466420173645L276.12142857142857,140.5920304775238L276.3285714285714,113.06350774765014L277.05357142857144,130.5126516342163L277.3642857142857,142.83212585449218L277.46785714285716,177.33425016403197L277.675,121.0203670978546L277.88214285714287,148.59446878433226L278.0892857142857,150.17203540802L278.1928571428571,122.30708141326903L278.4,168.13725275993346L278.7107142857143,183.4741684913635L278.91785714285714,175.12326760292052L279.22857142857146,154.46708817481993L279.43571428571425,116.36853380203246L279.5392857142857,139.56907148361205" style="fill: none;" fill="none"></path></g></g></g></g></g></g><g transform="translate(40, 178)" clip-path="url(#clip_1)"><clipPath id="clip_1"><rect width="290" height="22"></rect></clipPath><g><g><line x1="0" y1="0" x2="0" y2="5" style="visibility: inherit;" fill="rgb(0, 0, 0)" stroke="rgb(204, 204, 204)" stroke-width="1px"></line><line x1="20.71428571428571" y1="0" x2="20.71428571428571" y2="5" style="visibility: inherit;" fill="rgb(0, 0, 0)" stroke="rgb(204, 204, 204)" stroke-width="1px"></line><line x1="41.42857142857142" y1="0" x2="41.42857142857142" y2="5" style="visibility: inherit;" fill="rgb(0, 0, 0)" stroke="rgb(204, 204, 204)" stroke-width="1px"></line><line x1="62.14285714285714" y1="0" x2="62.14285714285714" y2="5" style="visibility: inherit;" fill="rgb(0, 0, 0)" stroke="rgb(204, 204, 204)" stroke-width="1px"></line><line x1="82.85714285714285" y1="0" x2="82.85714285714285" y2="5" style="visibility: inherit;" fill="rgb(0, 0, 0)" stroke="rgb(204, 204, 204)" stroke-width="1px"></line><line x1="103.57142857142857" y1="0" x2="103.57142857142857" y2="5" style="visibility: inherit;" fill="rgb(0, 0, 0)" stroke="rgb(204, 204, 204)" stroke-width="1px"></line><line x1="124.28571428571428" y1="0" x2="124.28571428571428" y2="5" style="visibility: inherit;" fill="rgb(0, 0, 0)" stroke="rgb(204, 204, 204)" stroke-width="1px"></line><line x1="145" y1="0" x2="145" y2="5" style="visibility: inherit;" fill="rgb(0, 0, 0)" stroke="rgb(204, 204, 204)" stroke-width="1px"></line><line x1="165.7142857142857" y1="0" x2="165.7142857142857" y2="5" style="visibility: inherit;" fill="rgb(0, 0, 0)" stroke="rgb(204, 204, 204)" stroke-width="1px"></line><line x1="186.42857142857144" y1="0" x2="186.42857142857144" y2="5" style="visibility: inherit;" fill="rgb(0, 0, 0)" stroke="rgb(204, 204, 204)" stroke-width="1px"></line><line x1="207.14285714285714" y1="0" x2="207.14285714285714" y2="5" style="visibility: inherit;" fill="rgb(0, 0, 0)" stroke="rgb(204, 204, 204)" stroke-width="1px"></line><line x1="227.85714285714286" y1="0" x2="227.85714285714286" y2="5" style="visibility: inherit;" fill="rgb(0, 0, 0)" stroke="rgb(204, 204, 204)" stroke-width="1px"></line><line x1="248.57142857142856" y1="0" x2="248.57142857142856" y2="5" style="visibility: inherit;" fill="rgb(0, 0, 0)" stroke="rgb(204, 204, 204)" stroke-width="1px"></line><line x1="269.2857142857143" y1="0" x2="269.2857142857143" y2="5" style="visibility: inherit;" fill="rgb(0, 0, 0)" stroke="rgb(204, 204, 204)" stroke-width="1px"></line><line x1="290" y1="0" x2="290" y2="5" style="visibility: inherit;" fill="rgb(0, 0, 0)" stroke="rgb(204, 204, 204)" stroke-width="1px"></line></g><g transform="translate(0, 8)"><text x="0" y="0" dx="0em" dy="0.95em" style="text-anchor: middle; visibility: hidden; font-family: Roboto, sans-serif; font-size: 12px; font-weight: 200;" fill="rgb(50, 49, 63)" stroke="none" stroke-width="1px">-200</text><text x="20.71428571428571" y="0" dx="0em" dy="0.95em" style="text-anchor: middle; visibility: inherit; font-family: Roboto, sans-serif; font-size: 12px; font-weight: 200;" fill="rgb(50, 49, 63)" stroke="none" stroke-width="1px">0</text><text x="41.42857142857142" y="0" dx="0em" dy="0.95em" style="text-anchor: middle; visibility: hidden; font-family: Roboto, sans-serif; font-size: 12px; font-weight: 200;" fill="rgb(50, 49, 63)" stroke="none" stroke-width="1px">200</text><text x="62.14285714285714" y="0" dx="0em" dy="0.95em" style="text-anchor: middle; visibility: inherit; font-family: Roboto, sans-serif; font-size: 12px; font-weight: 200;" fill="rgb(50, 49, 63)" stroke="none" stroke-width="1px">400</text><text x="82.85714285714285" y="0" dx="0em" dy="0.95em" style="text-anchor: middle; visibility: hidden; font-family: Roboto, sans-serif; font-size: 12px; font-weight: 200;" fill="rgb(50, 49, 63)" stroke="none" stroke-width="1px">600</text><text x="103.57142857142857" y="0" dx="0em" dy="0.95em" style="text-anchor: middle; visibility: inherit; font-family: Roboto, sans-serif; font-size: 12px; font-weight: 200;" fill="rgb(50, 49, 63)" stroke="none" stroke-width="1px">800</text><text x="124.28571428571428" y="0" dx="0em" dy="0.95em" style="text-anchor: middle; visibility: hidden; font-family: Roboto, sans-serif; font-size: 12px; font-weight: 200;" fill="rgb(50, 49, 63)" stroke="none" stroke-width="1px">1k</text><text x="145" y="0" dx="0em" dy="0.95em" style="text-anchor: middle; visibility: inherit; font-family: Roboto, sans-serif; font-size: 12px; font-weight: 200;" fill="rgb(50, 49, 63)" stroke="none" stroke-width="1px">1.2k</text><text x="165.7142857142857" y="0" dx="0em" dy="0.95em" style="text-anchor: middle; visibility: hidden; font-family: Roboto, sans-serif; font-size: 12px; font-weight: 200;" fill="rgb(50, 49, 63)" stroke="none" stroke-width="1px">1.4k</text><text x="186.42857142857144" y="0" dx="0em" dy="0.95em" style="text-anchor: middle; visibility: inherit; font-family: Roboto, sans-serif; font-size: 12px; font-weight: 200;" fill="rgb(50, 49, 63)" stroke="none" stroke-width="1px">1.6k</text><text x="207.14285714285714" y="0" dx="0em" dy="0.95em" style="text-anchor: middle; visibility: hidden; font-family: Roboto, sans-serif; font-size: 12px; font-weight: 200;" fill="rgb(50, 49, 63)" stroke="none" stroke-width="1px">1.8k</text><text x="227.85714285714286" y="0" dx="0em" dy="0.95em" style="text-anchor: middle; visibility: inherit; font-family: Roboto, sans-serif; font-size: 12px; font-weight: 200;" fill="rgb(50, 49, 63)" stroke="none" stroke-width="1px">2k</text><text x="248.57142857142856" y="0" dx="0em" dy="0.95em" style="text-anchor: middle; visibility: hidden; font-family: Roboto, sans-serif; font-size: 12px; font-weight: 200;" fill="rgb(50, 49, 63)" stroke="none" stroke-width="1px">2.2k</text><text x="269.2857142857143" y="0" dx="0em" dy="0.95em" style="text-anchor: middle; visibility: inherit; font-family: Roboto, sans-serif; font-size: 12px; font-weight: 200;" fill="rgb(50, 49, 63)" stroke="none" stroke-width="1px">2.4k</text><text x="290" y="0" dx="0em" dy="0.95em" style="text-anchor: middle; visibility: hidden; font-family: Roboto, sans-serif; font-size: 12px; font-weight: 200;" fill="rgb(50, 49, 63)" stroke="none" stroke-width="1px">2.6k</text></g><line x1="0" y1="0" x2="290" y2="0" fill="rgb(0, 0, 0)" stroke="rgb(204, 204, 204)" stroke-width="1px"></line></g></g></g></g></svg>