<svg viewBox="0 0 330 200" xmlns="http://www.w3.org/2000/svg"><g><g><g><g><g><line x1="41.171875" y1="178" x2="36.171875" y2="178" style="visibility: inherit;" fill="rgb(0, 0, 0)" stroke="rgb(204, 204, 204)" stroke-width="1px"></line><line x1="41.171875" y1="160.2" x2="36.171875" y2="160.2" style="visibility: inherit;" fill="rgb(0, 0, 0)" stroke="rgb(204, 204, 204)" stroke-width="1px"></line><line x1="41.171875" y1="142.39999999999998" x2="36.171875" y2="142.39999999999998" style="visibility: inherit;" fill="rgb(0, 0, 0)" stroke="rgb(204, 204, 204)" stroke-width="1px"></line><line x1="41.171875" y1="124.6" x2="36.171875" y2="124.6" style="visibility: inherit;" fill="rgb(0, 0, 0)" stroke="rgb(204, 204, 204)" stroke-width="1px"></line><line x1="41.171875" y1="106.79999999999998" x2="36.171875" y2="106.79999999999998" style="visibility: inherit;" fill="rgb(0, 0, 0)" stroke="rgb(204, 204, 204)" stroke-width="1px"></line><line x1="41.171875" y1="89" x2="36.171875" y2="89" style="visibility: inherit;" fill="rgb(0, 0, 0)" stroke="rgb(204, 204, 204)" stroke-width="1px"></line><line x1="41.171875" y1="71.19999999999999" x2="36.171875" y2="71.19999999999999" style="visibility: inherit;" fill="rgb(0, 0, 0)" stroke="rgb(204, 204, 204)" stroke-width="1px"></line><line x1="41.171875" y1="53.400000000000006" x2="36.171875" y2="53.400000000000006" style="visibility: inherit;" fill="rgb(0, 0, 0)" stroke="rgb(204, 204, 204)" stroke-width="1px"></line><line x1="41.171875" y1="35.599999999999994" x2="36.171875" y2="35.599999999999994" style="visibility: inherit;" fill="rgb(0, 0, 0)" stroke="rgb(204, 204, 204)" stroke-width="1px"></line><line x1="41.171875" y1="17.799999999999976" x2="36.171875" y2="17.799999999999976" style="visibility: inherit;" fill="rgb(0, 0, 0)" stroke="rgb(204, 204, 204)" stroke-width="1px"></line><line x1="41.171875" y1="0" x2="36.171875" y2="0" style="visibility: inherit;" fill="rgb(0, 0, 0)" stroke="rgb(204, 204, 204)" stroke-width="1px"></line></g><g transform="translate(31.171875, 0)"><text x="0" y="178" dx="0em" dy="0.3em" style="text-anchor: end; visibility: hidden; font-family: Roboto, sans-serif; font-size: 12px; font-weight: 200;" fill="rgb(50, 49, 63)" stroke="none" stroke-width="1px">0.7</text><text x="0" y="160.2" dx="0em" dy="0.3em" style="text-anchor: end; visibility: inherit; font-family: Roboto, sans-serif; font-size: 12px; font-weight: 200;" fill="rgb(50, 49, 63)" stroke="none" stroke-width="1px">0.8</text><text x="0" y="142.39999999999998" dx="0em" dy="0.3em" style="text-anchor: end; visibility: hidden; font-family: Roboto, sans-serif; font-size: 12px; font-weight: 200;" fill="rgb(50, 49, 63)" stroke="none" stroke-width="1px">0.9</text><text x="0" y="124.6" dx="0em" dy="0.3em" style="text-anchor: end; visibility: inherit; font-family: Roboto, sans-serif; font-size: 12px; font-weight: 200;" fill="rgb(50, 49, 63)" stroke="none" stroke-width="1px">1</text><text x="0" y="106.79999999999998" dx="0em" dy="0.3em" style="text-anchor: end; visibility: hidden; font-family: Roboto, sans-serif; font-size: 12px; font-weight: 200;" fill="rgb(50, 49, 63)" stroke="none" stroke-width="1px">1.1</text><text x="0" y="89" dx="0em" dy="0.3em" style="text-anchor: end; visibility: inherit; font-family: Roboto, sans-serif; font-size: 12px; font-weight: 200;" fill="rgb(50, 49, 63)" stroke="none" stroke-width="1px">1.2</text><text x="0" y="71.19999999999999" dx="0em" dy="0.3em" style="text-anchor: end; visibility: hidden; font-family: Roboto, sans-serif; font-size: 12px; font-weight: 200;" fill="rgb(50, 49, 63)" stroke="none" stroke-width="1px">1.3</text><text x="0" y="53.400000000000006" dx="0em" dy="0.3em" style="text-anchor: end; visibility: inherit; font-family: Roboto, sans-serif; font-size: 12px; font-weight: 200;" fill="rgb(50, 49, 63)" stroke="none" stroke-width="1px">1.4</text><text x="0" y="35.599999999999994" dx="0em" dy="0.3em" style="text-anchor: end; visibility: hidden; font-family: Roboto, sans-serif; font-size: 12px; font-weight: 200;" fill="rgb(50, 49, 63)" stroke="none" stroke-width="1px">1.5</text><text x="0" y="17.799999999999976" dx="0em" dy="0.3em" style="text-anchor: end; visibility: inherit; font-family: Roboto, sans-serif; font-size: 12px; font-weight: 200;" fill="rgb(50, 49, 63)" stroke="none" stroke-width="1px">1.6</text><text x="0" y="0" dx="0em" dy="0.3em" style="text-anchor: end; visibility: hidden; font-family: Roboto, sans-serif; font-size: 12px; font-weight: 200;" fill="rgb(50, 49, 63)" stroke="none" stroke-width="1px">1.7</text></g><line x1="41.171875" y1="0" x2="41.171875" y2="178" fill="rgb(0, 0, 0)" stroke="rgb(204, 204, 204)" stroke-width="1px"></line></g></g><g transform="translate(41, 0)" clip-path="url(#clip_0)"><clipPath id="clip_0"><rect width="288" height="178"></rect></clipPath><g><g><g><line x1="0" y1="0" x2="0" y2="178" fill="rgb(0, 0, 0)" stroke="rgb(60, 60, 60)" stroke-width="1px" opacity="0.25"></line><line x1="20.630580357142858" y1="0" x2="20.630580357142858" y2="178" fill="rgb(0, 0, 0)" stroke="rgb(60, 60, 60)" stroke-width="1px" opacity="0.25"></line><line x1="41.261160714285715" y1="0" x2="41.261160714285715" y2="178" fill="rgb(0, 0, 0)" stroke="rgb(60, 60, 60)" stroke-width="1px" opacity="0.25"></line><line x1="61.89174107142857" y1="0" x2="61.89174107142857" y2="178" fill="rgb(0, 0, 0)" stroke="rgb(60, 60, 60)" stroke-width="1px" opacity="0.25"></line><line x1="82.52232142857143" y1="0" x2="82.52232142857143" y2="178" fill="rgb(0, 0, 0)" stroke="rgb(60, 60, 60)" stroke-width="1px" opacity="0.25"></line><line x1="103.15290178571429" y1="0" x2="103.15290178571429" y2="178" fill="rgb(0, 0, 0)" stroke="rgb(60, 60, 60)" stroke-width="1px" opacity="0.25"></line><line x1="123.78348214285714" y1="0" x2="123.78348214285714" y2="178" fill="rgb(0, 0, 0)" stroke="rgb(60, 60, 60)" stroke-width="1px" opacity="0.25"></line><line x1="144.4140625" y1="0" x2="144.4140625" y2="178" fill="rgb(0, 0, 0)" stroke="rgb(60, 60, 60)" stroke-width="1px" opacity="0.25"></line><line x1="165.04464285714286" y1="0" x2="165.04464285714286" y2="178" fill="rgb(0, 0, 0)" stroke="rgb(60, 60, 60)" stroke-width="1px" opacity="0.25"></line><line x1="185.67522321428572" y1="0" x2="185.67522321428572" y2="178" fill="rgb(0, 0, 0)" stroke="rgb(60, 60, 60)" stroke-width="1px" opacity="0.25"></line><line x1="206.30580357142858" y1="0" x2="206.30580357142858" y2="178" fill="rgb(0, 0, 0)" stroke="rgb(60, 60, 60)" stroke-width="1px" opacity="0.25"></line><line x1="226.93638392857142" y1="0" x2="226.93638392857142" y2="178" fill="rgb(0, 0, 0)" stroke="rgb(60, 60, 60)" stroke-width="1px" opacity="0.25"></line><line x1="247.56696428571428" y1="0" x2="247.56696428571428" y2="178" fill="rgb(0, 0, 0)" stroke="rgb(60, 60, 60)" stroke-width="1px" opacity="0.25"></line><line x1="268.19754464285717" y1="0" x2="268.19754464285717" y2="178" fill="rgb(0, 0, 0)" stroke="rgb(60, 60, 60)" stroke-width="1px" opacity="0.25"></line><line x1="288.828125" y1="0" x2="288.828125" y2="178" fill="rgb(0, 0, 0)" stroke="rgb(60, 60, 60)" stroke-width="1px" opacity="0.25"></line></g><g><line x1="0" y1="178" x2="288.828125" y2="178" fill="rgb(0, 0, 0)" stroke="rgb(60, 60, 60)" stroke-width="1px" opacity="0.25"></line><line x1="0" y1="160.2" x2="288.828125" y2="160.2" fill="rgb(0, 0, 0)" stroke="rgb(60, 60, 60)" stroke-width="1px" opacity="0.25"></line><line x1="0" y1="142.39999999999998" x2="288.828125" y2="142.39999999999998" fill="rgb(0, 0, 0)" stroke="rgb(60, 60, 60)" stroke-width="1px" opacity="0.25"></line><line x1="0" y1="124.6" x2="288.828125" y2="124.6" fill="rgb(0, 0, 0)" stroke="rgb(60, 60, 60)" stroke-width="1px" opacity="0.25"></line><line x1="0" y1="106.79999999999998" x2="288.828125" y2="106.79999999999998" fill="rgb(0, 0, 0)" stroke="rgb(60, 60, 60)" stroke-width="1px" opacity="0.25"></line><line x1="0" y1="89" x2="288.828125" y2="89" fill="rgb(0, 0, 0)" stroke="rgb(60, 60, 60)" stroke-width="1px" opacity="0.25"></line><line x1="0" y1="71.19999999999999" x2="288.828125" y2="71.19999999999999" fill="rgb(0, 0, 0)" stroke="rgb(60, 60, 60)" stroke-width="1px" opacity="0.25"></line><line x1="0" y1="53.400000000000006" x2="288.828125" y2="53.400000000000006" fill="rgb(0, 0, 0)" stroke="rgb(60, 60, 60)" stroke-width="1px" opacity="0.25"></line><line x1="0" y1="35.599999999999994" x2="288.828125" y2="35.599999999999994" fill="rgb(0, 0, 0)" stroke="rgb(60, 60, 60)" stroke-width="1px" opacity="0.25"></line><line x1="0" y1="17.799999999999976" x2="288.828125" y2="17.799999999999976" fill="rgb(0, 0, 0)" stroke="rgb(60, 60, 60)" stroke-width="1px" opacity="0.25"></line><line x1="0" y1="0" x2="288.828125" y2="0" fill="rgb(0, 0, 0)" stroke="rgb(60, 60, 60)" stroke-width="1px" opacity="0.25"></line></g></g></g><g><g><line x1="0" y1="302.59999999999997" x2="288.828125" y2="302.59999999999997" fill="rgb(0, 0, 0)" stroke="rgb(153, 153, 153)" stroke-width="1.5px"></line></g></g><g><g><line x1="20.630580357142858" y1="0" x2="20.630580357142858" y2="178" fill="rgb(0, 0, 0)" stroke="rgb(153, 153, 153)" stroke-width="1.5px"></line></g></g><g><g><g><g><g><path stroke="rgb(255, 112, 67)" stroke-width="2px" d="M26.303989955357142,-7.734578204265686L26.40714285714286,3.5956775377870036L26.510295758928574,-2.701838691063449L27.129213169642856,-19.51219988590433L27.335518973214285,1.6762039193024343L27.438671875,13.605239770649476L27.541824776785717,13.956234698619346L27.644977678571426,19.32340178418524L27.95443638392857,27.926619122930123L28.057589285714286,31.04284973759603L28.160742187500002,32.96678164621824L28.26389508928571,32.7061218615782L28.779659598214288,8.518054476872742L29.295424107142857,11.356139488171776L29.604882812499998,18.704746403154154L29.708035714285714,20.30684934233451L30.326953125,34.567702718863686L31.152176339285717,37.07613326782978L31.461635044642858,40.7533047285644L31.564787946428574,36.2612918750182L32.28685825892857,46.70171879030608L32.59631696428571,53.53319104462203L32.802622767857144,52.24073738030625L33.524693080357146,54.19419699090011L33.62784598214286,50.52107689090507L33.937304687499996,41.243673298423666L34.040457589285715,51.81180832286398L34.76252790178572,49.270725702584684L34.96883370535714,48.10569155175362L35.175139508928574,57.19776936990739L35.278292410714286,43.74151760942797L35.3814453125,28.117166787382562L36.103515625,38.42552739025757L36.61928013392857,54.56994469192296L36.8255859375,58.29151490704453L36.928738839285714,53.95552784070943L37.03189174107143,53.4583423391912L37.34135044642857,54.78797216987232L37.650809151785715,56.69964205131319L37.85711495535714,5.34606872382742L37.96026785714285,27.492063479322763L38.269726562500004,18.87386208814286L38.888643973214286,27.94601719642831L38.991796875000006,10.14738654771524L39.19810267857142,28.267895734781565L39.507561383928575,38.57804380683572L39.7138671875,41.833490617444966L39.81702008928571,46.62028445683172L40.023325892857144,34.29507196117788L40.22963169642857,48.97026831250996L40.33278459821429,62.37324188197618L41.05485491071429,69.49663126733877L41.880078125,68.13979646365033L41.98323102678571,57.582391519547656L42.08638392857143,50.530737783432656L42.49899553571428,59.969290524673845L43.53052455357143,51.196845158310154L43.633677455357144,34.00493212245192L43.83998325892857,-4.150877892361381L45.07781808035715,-18.264079052268787L46.109347098214286,2.6876001989488065L46.31565290178572,17.228866367080453L46.9345703125,25.161392505489967L47.24402901785714,7.377641129209506L47.34718191964286,15.434196371861606L47.45033482142857,26.412699105160403L47.55348772321429,35.52254931081355L47.75979352678572,34.75403903930795L48.17240513392857,38.7500964963997L48.3787109375,45.21572499302413L48.58501674107143,46.04181277291407L48.79132254464286,39.95815578661217L49.30708705357143,46.932170235883284L49.92600446428571,53.34420160518352L50.64807477678571,49.986796346105706L50.751227678571425,50.8095371429906L51.266992187499994,56.30257355837735L51.370145089285714,66.01599737446732L51.67960379464286,65.57770053649682L51.78275669642858,71.86060751977408L51.88590959821428,72.79457671584395L52.29852120535715,35.40307558501783L52.40167410714286,43.42229373052733L52.607979910714285,57.14715030905617L52.91743861607143,57.88763609836708L53.330050223214286,64.15876005715259L53.433203125,57.693491107381135L53.53635602678572,61.51573898205563L53.63950892857143,0.973242141064429L53.845814732142856,5.778635836396466L54.1552734375,21.93595805213088L54.25842633928571,30.1312959959819L54.36157924107143,45.47121785942996L54.67103794642857,53.54922645845583L54.980496651785714,52.59857506727322L55.5994140625,47.640458497852926L55.805719866071435,54.08720024672202L56.11517857142857,51.42172679094703L56.218331473214285,60.2066446255936L56.42463727678572,43.33253726668919L56.52779017857142,67.44661159341197L57.043554687500006,54.083543738273754L57.14670758928572,68.74967919859168L57.559319196428575,60.52922745628881L57.765625,76.65683638145762L58.075083705357144,85.05439001017949L58.4876953125,75.99482467230642L58.90030691964286,50.408085542061826L59.10661272321429,62.023616851054946L59.51922433035714,66.56754949372014L59.62237723214286,77.4815193240702L59.72553013392857,71.18405371098874L59.9318359375,60.118993017608844L60.447600446428574,49.09229028078014L60.55075334821428,48.69099756629522L60.96336495535714,65.38033439487968L61.06651785714286,60.84874930483552L61.169670758928575,73.97429974617035L62.201199776785714,89.07989543760698L62.71696428571428,84.31782274535225L63.439034598214285,76.45037386113957L63.5421875,77.65542352017495L64.05795200892857,78.99253851304492L64.16110491071429,86.70716607886577L64.36741071428571,87.68791157435192L64.57371651785714,63.88485239047295L64.986328125,67.20899651347686L65.91470424107142,87.3420489090627L66.12101004464286,83.56486797916567L66.22416294642858,80.19162735335634L66.53362165178571,78.05289530392052L67.1525390625,87.61135357639532L67.97776227678571,88.25151601088848L68.08091517857143,63.86987574728017L68.18406808035714,70.07908977408222L68.39037388392858,78.61279918991929L68.4935267857143,72.99918904688002L68.80298549107142,82.18350156060482L68.90613839285714,84.95465797371642L69.42190290178571,85.56637068144667L69.52505580357143,87.43517824382891L70.65973772321428,77.60182792408054L70.96919642857144,92.45622532881964L71.07234933035714,80.6094144804339L71.27865513392857,96.95052984136701L71.4849609375,98.06658526169275L71.79441964285715,106.1393274921597L72.9291015625,110.34618303170329L73.34171316964286,108.56227862471655L73.44486607142856,105.84269920607993L73.651171875,89.7224622131621L73.96063058035713,103.49830814607351L74.16693638392857,108.04353734736091L74.68270089285714,102.32070977261331L74.78585379464286,103.74170683128038L75.40477120535714,90.65495303095818L75.61107700892858,99.83239570392035L75.71422991071428,88.53762610872306L75.8173828125,62.03767189097236L75.9205357142857,78.01787085003753L76.02368861607144,77.88252192179621L76.12684151785714,82.66999390030061L76.33314732142857,87.40363479080293L76.53945312500001,95.71397313369806L77.05521763392858,91.91565980490147L77.15837053571428,85.15563228354513L77.2615234375,97.24762898102794L77.46782924107144,93.3449032057249L77.88044084821428,90.99797990256093L78.08674665178572,94.98825865229092L78.29305245535714,84.28359396243167L78.7056640625,109.57121685376208L78.80881696428571,110.5754106618788L78.91196986607142,102.71544249164023L79.32458147321428,105.60673373762938L79.73719308035714,99.30110044612987L79.84034598214285,83.51704431613983L80.14980468750001,97.67011594438969L80.35611049107142,99.27611593046439L80.45926339285714,83.86502167009502L80.56241629464286,93.97582437290664L80.66556919642858,94.35788865145392L80.76872209821428,67.48418208155836L80.871875,76.49114233609322L81.07818080357143,76.33692653629949L81.18133370535715,82.87380112441642L81.69709821428572,97.63872678060686L81.80025111607142,105.25964907037826L82.10970982142858,93.81694537179239L82.21286272321429,104.10021460161546L82.52232142857143,102.45028707090582L82.72862723214286,113.3668611234639L83.14123883928572,122.20598106540525L83.34754464285714,106.29985000704102L83.55385044642858,90.45765185603125L83.76015625,89.03489941745177L84.06961495535715,59.693678622181245L84.48222656249999,70.3797111444086L84.58537946428572,85.65626796319546L84.79168526785715,89.76345562120952L85.10114397321429,96.41509932029649L85.51375558035716,83.84191184132341L86.02952008928573,76.75119168334629L86.75159040178572,99.24531772836106L86.85474330357142,105.20016508998904L87.06104910714286,100.81710960926078L87.16420200892857,80.67173314608013L87.26735491071429,80.07979173014685L87.3705078125,86.05525537103489L87.57681361607143,72.46645060879038L87.88627232142856,96.35474561513688L88.29888392857143,90.94305017746224L88.40203683035713,99.32061902020415L88.8146484375,84.02443722327973L89.12410714285714,88.76694041395442L89.53671875,100.27223189058455L89.84617745535714,104.03058608640762L89.94933035714286,105.43002132576427L90.05248325892858,111.22582956791948L90.1556361607143,97.8049969854416L90.2587890625,96.08771777286897L90.46509486607142,93.98177174648507L90.56824776785714,99.97147122812784L90.67140066964286,96.83352517004319L90.87770647321429,100.74867242166704L90.980859375,113.20055294030492L91.08401227678571,124.57224687572469L91.18716517857143,118.16027159116356L91.39347098214286,100.11722756041104L91.59977678571428,91.03149876006253L91.7029296875,95.46846279744987L92.425,93.78602452066353L92.73445870535714,77.40300017229804L92.83761160714286,87.98074324150139L92.94076450892857,98.59586261283907L93.1470703125,103.1542613802645L93.45652901785714,106.37138510574658L93.66283482142858,114.12465538519479L93.869140625,115.05984461508906L94.28175223214285,122.99163562418649L94.69436383928571,113.44452822662372L95.00382254464284,117.23177491937265L95.10697544642858,98.73718749114389L95.21012834821428,107.36569185870002L95.31328125,97.71318441758817L95.41643415178571,98.78217866736809L95.93219866071428,103.69089441965913L96.55111607142858,102.27181570452984L96.757421875,125.89956139995179L96.86057477678571,100.20013030692053L96.96372767857142,96.28552545740672L97.27318638392858,96.79347670098824L97.58264508928572,113.67646829140591L97.68579799107142,107.00361908824688L97.99525669642857,111.67023236603406L98.09840959821429,115.67259357840338L98.20156250000001,80.31695435566017L98.40786830357142,98.1540675909657L98.61417410714286,92.74488733955256L99.23309151785715,105.7075871774437L99.54255022321429,103.74311675959123L99.645703125,107.15465133627231L99.95516183035714,108.74435658240306L100.05831473214286,107.87536097397798L100.16146763392858,102.05008387106892L100.36777343749999,107.55831478797337L100.47092633928571,110.70650246836506L101.08984375,108.9996258348093L101.50245535714285,117.48411048471124L101.60560825892858,121.90850822579378L101.8119140625,122.94221658022113L102.01821986607142,112.33238082475012L102.22452566964286,119.7650331720504L102.32767857142856,127.41901769070581L102.43083147321428,111.59942863123865L102.53398437499999,116.58120920739923L102.63713727678572,115.95798821975202L102.94659598214285,107.80637589770203L103.15290178571429,104.98278340147522L103.35920758928572,114.27228221205824L103.66866629464286,119.39777144973253L103.87497209821429,110.15044183483585L103.97812499999999,99.70603233188905L104.08127790178573,94.62855603701186L104.49388950892856,103.2583973932642L104.7001953125,105.19978039076197L104.80334821428572,101.3267944276945L105.00965401785713,108.86194335583545L105.31911272321429,121.65927153565706L105.73172433035714,127.3206850298537L106.0411830357143,120.26558238555748L106.35064174107143,128.0806262295828L106.45379464285713,129.05926234968814L106.66010044642857,127.44759462981409L106.86640625,93.45551646416777L107.07271205357144,89.1273695174777L107.5884765625,102.31669779920124L107.89793526785714,100.13835837068287L108.00108816964286,99.89309825910404L108.10424107142858,111.32564957626623L108.4136997767857,112.62546857647871L109.23892299107143,96.8668785503672L109.34207589285714,99.96904112405576L109.44522879464286,112.88687686864735L109.65153459821428,116.51535636868597L110.06414620535713,117.19768346003605L110.27045200892857,117.13774377734607L110.37360491071428,112.30026181358782L110.78621651785714,116.32189515959433L110.99252232142857,105.9060624726487L111.09567522321429,106.01350322531894L111.40513392857143,117.05535806159516L111.61143973214287,127.91801530921661L111.81774553571428,130.64016845944047L112.12720424107144,127.41838055564476L112.33351004464285,130.67727720805115L112.43666294642857,135.26370502989354L112.64296875000001,126.60011682439364L112.74612165178571,137.9420792098553L113.05558035714284,143.6067260072059L113.3650390625,139.0032455328361L113.46819196428571,115.94755120535227L114.19026227678572,120.87901226198395L114.29341517857144,117.85279048631025L114.39656808035714,121.9162590238418L114.49972098214285,126.79969785052333L114.70602678571429,140.70094702147122L114.8091796875,120.21669862212346L115.01548549107142,133.7885492559767L115.11863839285715,128.07555497625447L115.22179129464286,120.88205387198312L115.53125,121.19175048114883L115.63440290178572,124.41177316809907L115.73755580357142,128.92037707987555L115.84070870535714,120.7526071835943L116.04701450892857,106.97501481827425L116.66593191964286,109.64059335980608L116.76908482142858,111.08214562770003L117.07854352678571,111.55778856299086L117.80061383928572,121.54892879499054L118.11007254464286,126.44676425560151L118.83214285714286,122.9884377533426L118.93529575892858,125.72997050608576L119.03844866071428,140.20031201556552L119.24475446428572,140.0731104023172L119.34790736607142,133.9269370822259L119.45106026785714,125.0040825145333L119.76051897321429,122.52678388219408L119.863671875,119.5082387939771L120.06997767857142,118.39600605104445L120.27628348214286,120.33941545923993L120.37943638392856,122.93940733218459L120.79204799107143,115.89290717091718L120.89520089285715,118.55215717105007L121.3078125,122.13393964259588L121.41096540178572,118.79429271393278L121.51411830357142,125.50484033211028L121.61727120535716,128.21879626622174L121.92672991071429,143.18835959261878L122.02988281249999,145.5330376137866L122.13303571428573,139.78443203863938L122.44249441964286,126.44432106552982L122.54564732142856,141.38686559998072L123.37087053571429,130.17024252893376L123.78348214285714,123.15918147851137L123.98978794642856,118.22686335259142L124.19609375,106.22721321113981L124.29924665178572,103.7931656189446L124.60870535714287,122.01302604601885L124.71185825892857,121.50194208101097L124.9181640625,120.52531499073304L125.02131696428572,116.47128091338513L125.12446986607144,125.63965554525399L125.22762276785714,136.03191348248686L125.53708147321429,136.34907414158562L126.3623046875,126.60367574715839L126.56861049107142,131.3795334626688L126.77491629464286,123.59419655617793L126.98122209821429,118.69587201009223L127.084375,121.6311942132117L127.18752790178571,119.75135460089454L127.39383370535714,120.49034622306114L127.60013950892856,129.16392150756408L127.70329241071428,132.96073363802844L127.8064453125,140.96684806932217L128.11590401785713,138.66690053814176L128.32220982142857,120.09934938355399L129.04428013392857,116.58881241562433L129.14743303571427,114.23554056216756L129.45689174107144,111.07388872939038L129.66319754464286,114.89509602449947L130.28211495535714,122.88622123278745L130.38526785714285,127.1846162121151L130.5915736607143,135.29305965189064L130.7978794642857,133.2543566994901L131.21049107142858,134.98677324134323L131.62310267857143,129.77229803370363L131.82940848214284,125.67116847018556L132.03571428571428,126.6265189455757L132.34517299107142,131.58819763939437L132.44832589285716,141.33644265819106L132.55147879464286,135.61065607838935L132.65463169642857,128.3826372383422L133.27354910714286,113.97162883272088L133.3767020089286,122.96632923597285L133.99561941964285,126.73516166397444L134.2019252232143,124.19246880166834L134.40823102678573,125.58326972933473L134.51138392857143,118.0407963979951L134.61453683035714,121.74577704839177L135.54291294642857,113.58823870523135L135.74921874999998,112.29189847292518L136.05867745535716,116.94276874531518L136.4712890625,130.61385359566933L136.67759486607142,133.05967858196212L136.78074776785715,129.81823077893802L137.193359375,134.89025519786207L137.2965122767857,132.6626539522286L137.50281808035714,133.86134415470815L137.60597098214285,136.8775424719051L137.70912388392858,141.7211266756174L138.01858258928573,143.9247925901483L138.12173549107143,133.2000155725521L139.15326450892857,136.78854757061256L139.35957031249998,123.6041271919647L139.46272321428572,136.8924089476251L139.77218191964286,148.3164137390127L139.87533482142857,136.6325690762323L139.9784877232143,135.39247330761683L140.28794642857142,143.3684298940702L140.39109933035715,135.52946041752122L140.49425223214286,116.27259057241213L142.04154575892858,118.73617067264038L142.35100446428572,130.21373069719385L142.55731026785713,130.6576939275021L142.66046316964287,147.82291138709513L142.86676897321428,145.1788701232727L142.969921875,147.65434521773193L143.27938058035713,146.38734879934032L143.5888392857143,143.51004660870578L143.6919921875,146.94596168485847L143.7951450892857,136.49227616481522L143.89829799107142,132.43132750804745L144.10460379464286,143.7781318605871L144.3109095982143,132.93170640593357L144.5172154017857,126.35813086107721L144.72352120535714,123.67787217661949L144.82667410714285,119.22856076935061L145.0329799107143,120.76545328366235L145.23928571428573,121.68182564298795L145.44559151785714,114.7636176521807L145.54874441964284,129.60761692614727L145.65189732142858,124.02173314625841L145.75505022321428,135.3252209218432L145.858203125,123.80475678635175L146.88973214285713,117.8237234413179L147.30234375,116.94193326828194L147.71495535714286,128.81391717074698L147.81810825892856,128.41187748598088L147.92126116071427,117.12580303959268L148.12756696428573,126.89315330393444L148.43702566964285,126.05592251901227L148.746484375,129.19669222524402L148.9527901785714,130.56237725073478L149.15909598214287,127.31836911472308L149.26224888392858,132.54840065737145L149.4685546875,119.23929128706203L149.88116629464284,126.93484554326382L149.98431919642857,125.10587072393803L150.0874720982143,130.03665508283083L150.29377790178572,128.25712101371826L150.39693080357142,126.93193463749732L150.70638950892857,129.3345473448458L150.80954241071427,130.20271132469313L150.91269531249998,134.06717417526326L151.01584821428574,130.9257687347417L151.22215401785715,126.72466570480374L151.7379185267857,124.31651685681166L152.04737723214288,129.057778384961L152.56314174107143,125.93228612582524L152.76944754464284,127.36131234550857L153.18205915178572,120.25768853416672L153.38836495535713,119.39840349907057L153.80097656249998,131.9608525738381L153.9041294642857,140.78732376964464L154.00728236607145,120.77929756684053L154.11043526785716,129.93570072676508L154.31674107142857,139.1728863097773L154.6261997767857,140.4407403002707L154.72935267857142,127.31623521867559L154.93565848214288,130.7846915592144L155.0388113839286,139.59714916404425L155.1419642857143,141.80830727491582L155.76088169642856,124.88826046510817L155.96718750000002,134.45817475631404L156.07034040178573,136.54668137737852L156.27664620535714,121.11526453321423L156.37979910714287,118.55896550551203L156.6892578125,127.98858025392978L156.7924107142857,123.77308135700873L157.30817522321428,125.45213291569144L157.411328125,128.26942613079302L157.51448102678572,139.45282078238816L157.82393973214283,127.69442562372976L158.0302455357143,136.54982673234636L158.1333984375,118.74691019956407L158.2365513392857,132.84717317166408L158.33970424107144,123.93289157237099L158.44285714285715,134.37220265201023L158.54601004464286,137.37271795351083L159.16492745535714,142.88817892121537L159.6806919642857,139.77861857442417L159.78384486607143,133.75629796045038L159.88699776785714,135.51156771097789L160.40276227678572,132.44940387197857L160.81537388392857,134.18434143894032L161.0216796875,140.53616485138605L161.12483258928572,142.78429536545198L161.53744419642857,144.40609571292353L161.95005580357142,131.2873508176467L162.6721261160714,120.40273222215542L162.87843191964285,137.48826880030376L163.187890625,142.1108187745365L163.39419642857143,138.93000553550436L163.49734933035714,135.03532755912613L163.80680803571428,134.53691021765033L163.9099609375,136.66975177863097L164.11626674107143,123.991397785776L164.21941964285716,135.20134357907364L164.52887834821428,128.86467491804353L166.28247767857144,141.9152764893698L166.38563058035714,146.60091859442755L166.48878348214285,140.73143084491946L166.59193638392856,138.16942561892066L167.0045479910714,138.6341741778099L167.31400669642858,129.18543847427628L167.41715959821428,127.78260807052769L167.72661830357143,130.19379168901156L167.82977120535713,120.18776200147458L167.93292410714284,125.52631476123327L168.34553571428572,114.36535707115645L168.44868861607142,118.25077327131935L168.55184151785713,130.04202031159227L168.75814732142857,144.69923537650004L168.96445312499998,133.13728942917763L169.17075892857144,115.01688774136888L169.37706473214286,127.70993489091508L169.99598214285712,135.0118200806672L170.20228794642858,133.03652857946722L170.71805245535714,125.89203666214567L170.82120535714284,131.06460464575542L171.74958147321428,137.11346270429286L171.85273437499998,128.258361817522L172.98741629464288,121.10577024526786L173.4000279017857,127.12007572595711L173.50318080357144,123.24625792947073L173.81263950892856,133.11283581999933L173.91579241071426,135.25931601493355L174.22525111607143,130.93932463627337L174.43155691964287,131.05173216045665L174.53470982142858,137.24341397393206L174.63786272321428,140.58481142108715L175.35993303571428,131.04621894112273L175.4630859375,135.16232097954182L175.56623883928572,123.98772208220139L175.66939174107142,142.27404894069656L175.9788504464286,136.05450236818683L176.18515625,135.03161160005027L176.2883091517857,133.40548108966885L176.39146205357144,135.83432167382082L176.49461495535715,138.41763844496634L177.01037946428573,139.06038659099713L177.21668526785714,145.87153949549185L177.7324497767857,158.29916332131856L177.83560267857143,137.40723927239318L178.14506138392858,140.81125391614282L178.86713169642857,133.5618661611786L179.0734375,144.88577572164002L180.10496651785715,140.69975613389647L180.3112723214286,144.22897303840062L180.4144252232143,143.08538400614583L180.6207310267857,143.33123112847997L180.7238839285714,147.5812231989538L180.93018973214285,136.4138834555051L181.03334263392858,143.45865849966412L181.65226004464284,131.09115907379748L181.75541294642858,139.62048480051018L182.37433035714287,120.44472553454197L182.47748325892857,131.77956838919135L183.405859375,135.45201345630534L183.81847098214286,136.9152086421731L184.02477678571427,151.77311265974538L184.43738839285714,150.42058822458566L185.0563058035714,149.93963133898723L185.36576450892858,145.63899713759034L185.5720703125,141.26385820153L185.88152901785713,148.81139532710696L186.08783482142857,151.46062168112746L186.1909877232143,141.36514744181247L186.60359933035713,142.55268473278764L186.70675223214286,141.72853847295812L186.91305803571427,146.0749475619243L187.01621093749998,138.8556941211847L187.22251674107144,133.86183822754788L187.53197544642856,120.57302815320355L187.6351283482143,141.0613900005952L187.73828125,146.60824622035835L188.15089285714288,124.1287483913947L188.3571986607143,125.45720250506692L188.4603515625,142.2496665805548L188.5635044642857,145.9777023988944L188.76981026785714,153.70568475949653L188.97611607142855,149.53873319761684L189.18242187500002,145.50104485593278L189.49188058035713,141.231817823899L189.80133928571428,143.50058579817548L189.90449218749998,135.62114600405178L190.0076450892857,141.410745730788L190.31710379464286,149.5943225948754L190.5234095982143,140.1523979526009L190.6265625,142.09580968983448L190.93602120535712,148.35794480781243L191.03917410714288,158.2688518437176L191.3486328125,151.77614764645273L191.76124441964285,145.9503454367791L191.86439732142856,126.96253432276693L191.96755022321426,116.50905425454881L192.68962053571428,113.96607178155007L192.8959263392857,124.0338500982727L192.99907924107143,129.6294644645575L193.10223214285716,141.71521600554723L193.41169084821428,141.80763878148994L193.51484375,123.91145966125845L193.72114955357142,122.67652328058077L194.1337611607143,130.89459341552254L194.2369140625,132.39861941448683L194.3400669642857,138.73576964445016L194.64952566964286,137.09976880495012L195.06213727678573,136.06021427598156L195.16529017857144,141.88182133368588L195.37159598214285,130.64011044700106L195.47474888392858,143.65342579960324L195.5779017857143,143.1415494029492L195.6810546875,137.8423862209779L195.88736049107143,152.80976793711554L196.19681919642858,144.70946600404483L196.29997209821428,145.87779784659804L196.40312500000002,140.16144961631454L196.50627790178572,145.7997693116436L196.91888950892857,141.6243696531635L197.02204241071428,138.99670325285086L197.53780691964286,141.4251611290329L197.74411272321427,141.50828918802458L197.847265625,133.1311049901707L197.9504185267857,126.20039192934411L198.3630301339286,130.36335748731835L198.6724888392857,130.49478688657132L198.87879464285714,122.46715548765569L199.1882533482143,136.92039614636843L199.29140625,133.04827749800174L199.39455915178573,130.74234243912392L199.49771205357143,121.4185834114724L199.60086495535714,118.34317221790394L199.80717075892858,138.78266566365863L200.0134765625,135.95257196289245L200.32293526785716,141.4152117244121L200.42608816964287,124.56997057865361L200.63239397321428,121.06306621712625L200.73554687499998,113.38472754765854L200.83869977678572,114.4465328062135L201.14815848214286,125.04855512646185L201.3544642857143,128.80461710373964L201.4576171875,126.15875411081555L201.5607700892857,129.2200182822242L201.66392299107142,122.69813086908425L202.38599330357144,113.15039539767126L202.48914620535714,116.57614750166427L202.7986049107143,116.28440981447515L203.31436941964287,132.74867827737222L203.72698102678572,130.69870441820555L204.3458984375,129.1242127899309L204.44905133928572,133.31999232315897L204.65535714285713,130.28688950743603L205.06796874999998,133.61526433114008L205.17112165178574,135.66341065099118L205.27427455357144,146.82647393423485L205.48058035714286,145.3181730072389L205.58373325892856,154.96259049181282L205.6868861607143,147.04002448322856L206.09949776785712,157.6925881076007L206.512109375,156.37882967043808L206.71841517857143,146.82503253012234L206.82156808035714,146.02622645014128L207.64679129464287,144.60381488390925L207.74994419642857,128.45866195433237L208.0594029017857,140.59653581662715L208.36886160714286,123.14274132182442L208.7814732142857,123.13612300354384L208.98777901785712,129.95751164316022L209.400390625,130.44954359745316L209.91615513392856,119.82573806414206L210.01930803571426,113.34124194126842L210.43191964285714,117.20402556026886L210.53507254464287,126.00534899094647L210.84453125,122.38380893146363L210.9476841517857,129.69100231215577L211.05083705357143,118.14139891079199L211.36029575892857,131.12895340210875L211.66975446428572,132.6625617080133L211.77290736607142,125.52691347439294L211.97921316964283,132.86567157172684L212.1855189732143,141.62161493339252L212.288671875,134.6924520876295L212.3918247767857,143.4773707143239L213.11389508928573,133.96842005203794L213.32020089285714,140.68326440304892L213.42335379464285,132.77725756913648L214.04227120535714,139.3175220200433L214.14542410714287,139.09273945981343L214.24857700892858,148.83000031765746L214.35172991071428,144.72847141061095L214.45488281250002,137.0447276332013L214.66118861607143,140.36409095156384L214.97064732142857,147.03864542024252L215.69271763392857,151.94529398546766L215.79587053571427,142.35904654661508L215.8990234375,126.22181453227813L216.8273995535714,133.501132323264L217.13685825892858,137.98791578884058L217.2400111607143,129.81671687290154L217.65262276785714,122.88123547270943L217.75577566964284,140.58046299001606L217.85892857142858,141.25892350781578L217.96208147321428,135.42729313438306L218.27154017857143,147.3985215047906L218.37469308035716,153.72532900928917L218.47784598214287,139.57463569140114L218.58099888392857,129.2443915909271L218.99361049107142,132.2308971730316L219.09676339285713,131.97511284872556L219.19991629464286,138.10024113490977L219.509375,130.8331559266734L219.71568080357142,144.26117479837467L219.92198660714286,145.78763777277786L220.12829241071427,146.14265249170018L220.2314453125,131.88093054531305L220.33459821428573,125.45587216996125L220.54090401785714,131.81969014157636L220.64405691964285,135.39436691850295L221.1598214285714,137.10514164119883L221.46928013392858,132.85359300702763L221.6755859375,135.25554316002103L221.98504464285713,135.57132892106753L222.2945033482143,124.55513326343764L222.39765625,128.76802453051133L222.60396205357142,121.04021396070792L222.81026785714286,143.65079338687704L223.42918526785715,141.73942707620887L223.53233816964286,140.23769829894798L223.7386439732143,117.56905105486926L223.9449497767857,126.26991778120646L224.87332589285714,119.58538410607129L224.97647879464284,110.66494452919451L225.07963169642855,114.60489746550255L225.1827845982143,126.4548092068406L226.42061941964286,131.4233388913376L226.6269252232143,128.86744951323885L226.8332310267857,132.20056017348895L227.03953683035712,133.0976152808054L227.4521484375,122.09431864205503L227.5553013392857,122.75479993691147L227.65845424107144,111.00335464400115L227.76160714285714,121.31824817611016L227.86476004464285,120.94451902361654L227.96791294642856,121.89826414854492L228.07106584821426,114.77148702306249L228.27737165178573,118.66089506723105L228.38052455357143,134.73281828270922L228.48367745535714,131.52755292717558L228.68998325892858,133.3008980206486L229.20574776785716,142.32699709485985L229.51520647321428,131.60590650886905L229.72151227678572,123.46783528715738L229.82466517857142,130.05795436138135L230.03097098214283,122.05100419184103L230.3404296875,118.29885921752769L230.64988839285715,103.26090946362207L230.85619419642856,95.40490148643129L231.16565290178573,100.19853232252282L231.47511160714285,106.52843291966724L231.57826450892858,122.91186903601054L231.8877232142857,132.16457179239487L232.09402901785714,103.48149963290152L232.19718191964287,108.00044356865081L233.02240513392857,119.17195177961823L233.12555803571428,117.00576042705438L233.33186383928572,125.06322716458834L233.84762834821427,117.1275360416424L234.36339285714286,120.90598819679327L234.4665457589286,127.15775096670572L234.5696986607143,137.08377691898218L234.7760044642857,123.61796142574232L234.8791573660714,129.2249246139293L235.08546316964285,125.65015198820619L235.2917689732143,128.03703346511L235.60122767857143,128.37781370318098L235.70438058035714,118.97167450807194L236.1169921875,114.3175551236969L236.63275669642857,126.2194505203546L236.83906249999998,135.7292930310238L237.4579799107143,129.5284982124131L237.5611328125,115.9728973054386L237.6642857142857,116.27042999169211L237.76743861607142,128.7911538881122L237.87059151785715,124.22305128825062L238.18005022321427,123.58070600183218L238.38635602678573,127.83699781031257L238.69581473214285,144.4565916820219L238.79896763392856,147.46062840246265L239.1084263392857,135.04881570114554L239.31473214285717,137.5823312984339L239.52103794642858,133.95894876876065L239.62419084821428,128.88340276574246L239.72734375,131.26056204137296L240.13995535714284,113.67534856973343L240.55256696428572,126.95940057860764L240.65571986607142,129.33827838198513L240.75887276785713,134.8179095703135L241.17148437499998,122.76874708877627L241.27463727678574,129.2665279277958L241.48094308035715,138.93850122742637L241.58409598214286,136.99684863837234L241.7904017857143,124.69875981778904L241.8935546875,115.52382402879597L241.9967075892857,130.1733679036057L242.20301339285712,131.27023209928012L242.30616629464288,135.53352725624163L242.40931919642858,134.82113358091783L242.5124720982143,141.11206528610867L242.82193080357143,136.42085086981584L243.02823660714284,134.50328923511583L243.13138950892855,131.62148184566544L243.75030691964287,132.21431423061398L243.85345982142857,137.51544503708664L243.95661272321428,117.39964086258401L244.36922433035716,110.24444411303989L244.57553013392857,131.47137005630964L244.7818359375,128.53689893426795L245.19444754464288,131.98469423498094L245.91651785714285,135.70222624328957L246.22597656250002,138.53463806263937L246.43228236607143,129.26257250280582L246.63858816964287,129.49375112039687L246.74174107142858,130.3105492447784L246.948046875,137.2423691090924L247.15435267857143,136.80431823593273L247.36065848214287,149.19220721162495L247.46381138392857,146.18042083881576L247.56696428571428,141.90097920121121L247.87642299107142,151.38435215009073L247.97957589285713,142.3116828957368L248.2890345982143,136.62232843632512L248.3921875,133.83513358828432L248.70164620535715,135.1584787487805L249.01110491071427,134.26763891934277L249.42371651785714,141.91966732835127L250.04263392857143,119.07219971952051L250.14578683035714,127.52079579911955L250.45524553571428,118.52631599952178L250.55839843750002,99.07845061808467L250.76470424107143,105.72899198645138L250.97101004464284,127.7166728407966L251.07416294642857,119.31948023264569L251.28046875,108.73201582208252L251.38362165178572,109.50131280288085L251.58992745535716,128.424481853634L251.69308035714286,136.40058367776268L251.79623325892857,132.61220645742054L251.89938616071427,136.17832402131816L252.1056919642857,140.89398223246255L252.31199776785715,132.89119437030027L252.41515066964286,133.61863103563232L252.8277622767857,136.75504783066893L252.9309151785714,138.5361998180913L253.13722098214285,134.34538497569363L253.4466796875,130.28773858810786L253.65298549107143,126.57732191720798L253.96244419642858,115.14656713866705L254.58136160714287,120.63708325423904L255.20027901785713,117.54212290405101L255.612890625,113.37738311743058L255.92234933035715,126.85636979851316L256.43811383928573,110.84429591246362L256.64441964285714,125.59420409052322L256.9538783482143,130.2027554789111L257.5727957589286,135.01647792571333L257.67594866071425,141.65381398626295L257.8822544642857,151.16767609851436L258.19171316964287,147.83011524162814L258.501171875,154.7477200429566L258.6043247767857,153.28652030473512L258.7074776785714,132.81167242911792L259.63585379464286,133.60850565664373L259.73900669642853,139.1900015797162L259.8421595982143,141.9770387629237L259.9453125,146.20836246368683L260.1516183035714,135.69247776721355L260.3579241071429,127.85402334245704L260.66738281249997,126.72533394642271L260.7705357142857,123.66577529995199L261.1831473214286,141.02838892035817L261.389453125,109.75792408402641L261.4926060267857,121.62606205234455L261.5957589285714,127.55682480388597L261.69891183035713,136.37966891797612L262.52413504464283,135.47038070602554L263.45251116071427,139.16043814804158L263.6588169642857,136.77859873286485L263.9682756696429,124.03106461233855L264.48404017857143,137.0003252069173L264.7934988839286,132.8702753472339L264.8966517857143,141.02358374166553L265.20611049107146,137.56358570795098L265.30926339285713,139.00128308141728L265.6187220982143,124.58777893545926L265.9281808035714,124.79770476438223L266.13448660714283,131.4166584802724L266.3407924107143,137.035001267973L266.65025111607144,136.2373318040272L266.9597098214286,120.08356676124932L267.06286272321427,121.40177469267489L267.166015625,132.59178030022406L267.3723214285714,138.80383797841324L268.19754464285717,140.50633141253624L268.4038504464286,136.65099794420144L268.61015625,135.0524283716234L268.81646205357146,126.00021240169717L269.3322265625,129.83505499038048L269.84799107142857,133.24752265258397L270.26060267857144,148.86372282769543L270.67321428571427,155.72818751970684L270.7763671875,132.48885728263707L270.87952008928573,112.55064177360445L271.29213169642856,108.11038769630377L271.3952845982143,111.91885449735992L271.49843749999997,114.30800228505535L271.6015904017857,117.2365740989995L271.91104910714284,117.9400878843875L272.4268136160714,135.90621556861467L272.73627232142854,133.43105628742737L272.942578125,128.50262756975866L273.35518973214283,123.08325420756566L273.45834263392857,126.57779107892172L273.5614955357143,100.90830512525828L273.6646484375,117.61126776982658L273.87095424107144,114.74902016430683L274.07726004464286,115.9621608549928L274.38671875,107.51826907006357L274.69617745535714,112.2019857836214L274.7993303571428,112.84392214491648L275.0056361607143,113.53755249425578L275.2119419642857,117.31907885220534L275.9340122767857,109.57382258979611L276.24347098214287,122.94464573626597L276.34662388392854,127.3531230435662L276.5529296875,116.22732129012898L276.7592354910714,122.99186928698632L276.9655412946429,126.40024069565064L277.06869419642857,123.0461220861526L277.275,131.6238917804391L277.5844587053571,130.36469436506215L277.79076450892853,141.4622466994511L278.10022321428573,132.8496717615835L278.30652901785714,149.24714383148623L278.4096819196429,138.7761108342616" style="fill: none;" fill="none"></path></g><g><path stroke="rgb(0, 119, 187)" stroke-width="2px" d="M278.51283482142856,65.07292780876159Z" style="fill: none;" fill="none"></path></g></g></g></g><g opacity="0.2"><g><g><g><path stroke="rgb(255, 112, 67)" stroke-width="2px" d="M24.34408482142857,-18.65716447830201L24.756696428571427,21.658101654052725L24.963002232142856,0.39396939277648135L25.169308035714288,-22.414266729354868L25.2724609375,6.842946147918694L25.47876674107143,-20.104402446746835L25.685072544642857,-32.843890571594244L26.097684151785714,3.15828642845153L26.20083705357143,-7.192804956436165L26.303989955357142,-5.852681779861458L26.40714285714286,20.5906883239746L26.510295758928574,-12.147988700866707L27.129213169642856,-44.72754254341126L27.335518973214285,33.45865902900695L27.438671875,31.49874267578124L27.541824776785717,14.482726192474358L27.644977678571426,27.374144172668448L27.95443638392857,40.831437206268305L28.057589285714286,35.71719393730163L28.160742187500002,35.85267887115478L28.26389508928571,32.31513223648071L28.779659598214288,-27.764043712615976L29.295424107142857,15.613266801834099L29.604882812499998,29.72765645980834L29.708035714285714,22.71000370979308L30.326953125,55.95898256301879L31.152176339285717,40.83877906799316L31.461635044642858,46.269061899185175L31.564787946428574,29.523272609710684L32.28685825892857,62.36235914230346L32.59631696428571,63.78039941787719L32.802622767857144,50.30205688476562L33.524693080357146,57.12438640594482L33.62784598214286,45.01139674186706L33.937304687499996,27.327567911148062L34.040457589285715,67.66401085853576L34.76252790178572,45.459101772308344L34.96883370535714,46.35814032554626L35.175139508928574,70.83588609695434L35.278292410714286,23.55713996887206L35.3814453125,4.680640554428093L36.103515625,53.88806829452514L36.61928013392857,78.78657064437866L36.8255859375,63.873870229721064L36.928738839285714,47.45154724121093L37.03189174107143,52.71256408691406L37.34135044642857,56.78241691589355L37.650809151785715,59.567146873474115L37.85711495535714,-71.68429126739503L37.96026785714285,60.71105561256408L38.269726562500004,5.9465600013732836L38.888643973214286,41.554249858856195L38.991796875000006,-16.550559425354013L39.19810267857142,55.448659515380854L39.507561383928575,54.04326591491699L39.7138671875,46.71666083335876L39.81702008928571,53.80047521591186L40.023325892857144,15.807253217697136L40.22963169642857,70.98306283950805L40.33278459821429,82.47770223617553L41.05485491071429,80.18171534538268L41.880078125,66.10454425811767L41.98323102678571,41.74628410339355L42.08638392857143,39.95325717926025L42.49899553571428,74.12711963653564L43.53052455357143,38.03817710876464L43.633677455357144,8.217062568664543L43.83998325892857,-61.384592914581305L45.07781808035715,-16.30991187095643L46.109347098214286,34.11511907577514L46.31565290178572,39.04076561927795L46.9345703125,37.06018171310424L47.24402901785714,-19.29798593521119L47.34718191964286,27.519029235839835L47.45033482142857,42.88045320510864L47.55348772321429,49.18732461929321L47.75979352678572,33.601273632049555L48.17240513392857,44.74418268203735L48.3787109375,54.91416773796081L48.58501674107143,47.28094444274902L48.79132254464286,30.832670307159415L49.30708705357143,57.39319190979003L49.92600446428571,62.962248659133905L50.64807477678571,44.95068845748901L50.751227678571425,52.043648338317865L51.266992187499994,64.54212818145751L51.370145089285714,80.58613309860229L51.67960379464286,64.92025527954101L51.78275669642858,81.28496799468994L51.88590959821428,74.19553050994872L52.29852120535715,-20.684176111221323L52.40167410714286,55.4511209487915L52.607979910714285,77.73443517684936L52.91743861607143,58.99836478233337L53.330050223214286,73.5654459953308L53.433203125,47.99558768272399L53.53635602678572,67.24911079406738L53.63950892857143,-89.84050312042237L53.845814732142856,12.986726379394524L54.1552734375,46.171941375732416L54.25842633928571,42.42430291175842L54.36157924107143,68.48110065460205L54.67103794642857,65.66623935699462L54.980496651785714,51.17259798049926L55.5994140625,40.20328364372253L55.805719866071435,63.75731287002563L56.11517857142857,47.42351660728454L56.218331473214285,73.38402137756347L56.42463727678572,18.02137622833251L56.52779017857142,103.61772308349609L57.043554687500006,34.0389419555664L57.14670758928572,90.7488823890686L57.559319196428575,48.19854984283447L57.765625,100.84824976921081L58.075083705357144,97.65072045326232L58.4876953125,62.40547666549682L58.90030691964286,12.027976846694939L59.10661272321429,79.44691381454467L59.51922433035714,73.38344845771789L59.62237723214286,93.85247406959533L59.72553013392857,61.73785529136657L59.9318359375,43.52140197753906L60.447600446428574,32.552236175537104L60.55075334821428,48.089058494567865L60.96336495535714,90.41433963775634L61.06651785714286,54.05137166976928L61.169670758928575,93.6626254081726L62.201199776785714,111.73828897476196L62.71696428571428,77.17471370697021L63.439034598214285,64.64920053482055L63.5421875,79.46299800872802L64.05795200892857,80.99821100234985L64.16110491071429,98.27910742759704L64.36741071428571,89.15902981758117L64.57371651785714,28.180263614654532L64.986328125,72.19521269798278L65.91470424107142,117.5416275024414L66.12101004464286,77.89909658432006L66.22416294642858,75.13176641464233L66.53362165178571,74.84479722976684L67.1525390625,101.94904098510742L67.97776227678571,89.21175966262817L68.08091517857143,27.297415351867667L68.18406808035714,79.39291081428527L68.39037388392858,91.41336331367492L68.4935267857143,64.57877383232116L68.80298549107142,95.95997033119201L68.90613839285714,89.11139259338378L69.42190290178571,86.48393974304199L69.52505580357143,90.23838958740234L70.65973772321428,62.851802444458L70.96919642857144,114.73782143592834L71.07234933035714,62.83919820785522L71.27865513392857,121.46220288276672L71.4849609375,99.74066839218139L71.79441964285715,118.2484408378601L72.9291015625,116.65646634101867L73.34171316964286,105.88642201423644L73.44486607142856,101.763330078125L73.651171875,65.5421067237854L73.96063058035713,124.16207704544067L74.16693638392857,114.86138114929199L74.68270089285714,93.73646841049194L74.78585379464286,105.873202419281L75.40477120535714,71.02482233047485L75.61107700892858,113.59855971336364L75.71422991071428,71.59547171592712L75.8173828125,22.287740564346304L75.9205357142857,101.98816928863525L76.02368861607144,77.6794985294342L76.12684151785714,89.85120186805725L76.33314732142857,94.50409612655639L76.53945312500001,108.17948064804077L77.05521763392858,86.21818981170654L77.15837053571428,75.01559100151061L77.2615234375,115.38562402725219L77.46782924107144,87.49081454277038L77.88044084821428,87.47759494781494L78.08674665178572,100.97367677688598L78.29305245535714,68.22659692764282L78.7056640625,147.50265119075775L78.80881696428571,112.08170137405395L78.91196986607142,90.92549023628234L79.32458147321428,109.94367060661315L79.73719308035714,89.84265050888061L79.84034598214285,59.84096012115478L80.14980468750001,118.89972338676452L80.35611049107142,101.68511590957641L80.45926339285714,60.74838027954101L80.56241629464286,109.14202842712402L80.66556919642858,94.9309850692749L80.76872209821428,27.17362222671508L80.871875,90.0015827178955L81.07818080357143,76.10560283660888L81.18133370535715,92.67911300659179L81.69709821428572,119.78611526489257L81.80025111607142,116.6910325050354L82.10970982142858,76.65288982391357L82.21286272321429,119.52511844635009L82.52232142857143,99.9753957748413L82.72862723214286,129.74172220230102L83.14123883928572,135.46466097831726L83.34754464285714,82.44065341949462L83.55385044642858,66.6943546295166L83.76015625,86.90077075958251L84.06961495535715,15.681847429275505L84.48222656249999,86.40875992774963L84.58537946428572,108.57110319137573L84.79168526785715,95.92423710823059L85.10114397321429,106.392564868927L85.51375558035716,64.98213062286376L86.02952008928573,66.11511144638061L86.75159040178572,132.98650679588317L86.85474330357142,114.13243613243102L87.06104910714286,94.24252638816833L87.16420200892857,50.4536684513092L87.26735491071429,79.19187960624694L87.3705078125,95.01845083236694L87.57681361607143,52.08324346542358L87.88627232142856,132.18718812465667L88.29888392857143,82.82550702095031L88.40203683035713,111.88697228431701L88.8146484375,61.08016452789306L89.12410714285714,95.88069519996642L89.53671875,117.53016910552978L89.84617745535714,109.6681173801422L89.94933035714286,107.52917418479919L90.05248325892858,119.91954193115234L90.1556361607143,77.67374811172485L90.2587890625,93.51179895401L90.46509486607142,90.82285270690917L90.56824776785714,108.95602045059204L90.67140066964286,92.12660608291625L90.87770647321429,106.62139329910278L90.980859375,131.8783737182617L91.08401227678571,141.62978777885436L91.18716517857143,108.5423086643219L91.39347098214286,73.05266151428222L91.59977678571428,77.40290555953979L91.7029296875,102.12390885353088L92.425,91.262367105484L92.73445870535714,52.82846364974975L92.83761160714286,103.84735784530639L92.94076450892857,114.51854166984558L93.1470703125,109.99185953140258L93.45652901785714,111.19707069396972L93.66283482142858,125.75456080436706L93.869140625,116.46262845993041L94.28175223214285,134.88932213783264L94.69436383928571,99.12386713027954L95.00382254464284,122.91264495849609L95.10697544642858,70.99530634880065L95.21012834821428,120.30844841003417L95.31328125,83.2344232559204L95.41643415178571,100.38567004203796L95.93219866071428,111.0539680480957L96.55111607142858,100.14319763183593L96.757421875,161.3411799430847L96.86057477678571,61.65098366737365L96.96372767857142,90.41361818313598L97.27318638392858,97.55540356636047L97.58264508928572,139.00095567703247L97.68579799107142,96.9943452835083L97.99525669642857,118.67015228271484L98.09840959821429,121.67613539695739L98.20156250000001,27.2834955215454L98.40786830357142,124.90973744392394L98.61417410714286,84.63111696243286L99.23309151785715,125.15163693428039L99.54255022321429,100.7964111328125L99.645703125,112.27195320129394L99.95516183035714,111.12891445159912L100.05831473214286,106.57186756134033L100.16146763392858,93.31216821670532L100.36777343749999,115.82066116333007L100.47092633928571,115.42878398895263L101.08984375,106.4393108844757L101.50245535714285,130.2108374595642L101.60560825892858,128.5451048374176L101.8119140625,124.49277911186218L102.01821986607142,96.41762719154357L102.22452566964286,130.9140116930008L102.32767857142856,138.89999446868896L102.43083147321428,87.87004504203796L102.53398437499999,124.05388007164001L102.63713727678572,115.02315673828124L102.94659598214285,95.57895741462707L103.15290178571429,100.747394657135L103.35920758928572,128.20653042793273L103.66866629464286,127.08600530624389L103.87497209821429,96.27944741249084L103.97812499999999,84.03941807746887L104.08127790178573,87.01234159469604L104.49388950892856,116.20315942764282L104.7001953125,108.11185488700866L104.80334821428572,95.51731548309326L105.00965401785713,120.16466674804687L105.31911272321429,140.8552638053894L105.73172433035714,135.81280527114868L106.0411830357143,109.68292841911315L106.35064174107143,139.80319199562072L106.45379464285713,130.52721652984619L106.66010044642857,125.03009305000305L106.86640625,42.46739921569824L107.07271205357144,82.63514909744262L107.5884765625,122.1006902217865L107.89793526785714,96.87084922790527L108.00108816964286,99.52520809173583L108.10424107142858,128.47447655200958L108.4136997767857,114.57519707679748L109.23892299107143,73.22899351119995L109.34207589285714,104.62228498458862L109.44522879464286,132.26363048553466L109.65153459821428,121.95807561874389L110.06414620535713,118.22117409706115L110.27045200892857,117.04783425331115L110.37360491071428,105.04403886795043L110.78621651785714,122.35434517860412L110.99252232142857,90.28231344223022L111.09567522321429,106.17466435432434L111.40513392857143,133.61814031600952L111.61143973214287,144.2120011806488L111.81774553571428,134.7233981847763L112.12720424107144,122.58569869995117L112.33351004464285,135.56562218666076L112.43666294642857,142.14334676265716L112.64296875000001,113.6047345161438L112.74612165178571,154.95502278804778L113.05558035714284,152.1036962032318L113.3650390625,132.09802482128143L113.46819196428571,81.36400971412658L114.19026227678572,128.27620384693145L114.29341517857144,113.31345782279968L114.39656808035714,128.01146183013915L114.49972098214285,134.12485609054565L114.70602678571429,161.55282077789306L114.8091796875,89.4903260231018L115.01548549107142,154.1463252067566L115.11863839285715,119.50606355667114L115.22179129464286,110.09180221557617L115.53125,121.65629539489746L115.63440290178572,129.24180719852447L115.73755580357142,135.68328294754028L115.84070870535714,108.50095233917236L116.04701450892857,86.30862627029418L116.66593191964286,113.63896117210388L116.76908482142858,113.24447402954101L117.07854352678571,112.27125296592712L117.80061383928572,136.5356391429901L118.11007254464286,133.79351744651794L118.83214285714286,117.80094799995422L118.93529575892858,129.8422696352005L119.03844866071428,161.90582427978515L119.24475446428572,139.88230798244476L119.34790736607142,124.70767710208892L119.45106026785714,111.61980066299438L119.76051897321429,118.8108359336853L119.863671875,114.9804211616516L120.06997767857142,116.7276569366455L120.27628348214286,123.2545295715332L120.37943638392856,126.83939514160156L120.79204799107143,105.32315692901611L120.89520089285715,122.54103217124938L121.3078125,127.50661334991455L121.41096540178572,113.7848223209381L121.51411830357142,135.57066175937652L121.61727120535716,132.2897301673889L121.92672991071429,165.64270458221435L122.02988281249999,149.05005464553832L122.13303571428573,131.16152367591857L122.44249441964286,106.43415460586547L122.54564732142856,163.8006824016571L123.37087053571429,113.34530792236328L123.78348214285714,112.6425899028778L123.98978794642856,110.82838616371154L124.19609375,88.2277379989624L124.29924665178572,100.14209423065185L124.60870535714287,149.34281668663024L124.71185825892857,120.73531613349914L124.9181640625,119.06037435531616L125.02131696428572,110.39022979736328L125.12446986607144,139.39221749305725L125.22762276785714,151.62030038833618L125.53708147321429,136.82481513023376L126.3623046875,111.98557815551757L126.56861049107142,138.54332003593444L126.77491629464286,111.91619119644164L126.98122209821429,111.34838519096374L127.084375,126.03417751789092L127.18752790178571,116.93159518241882L127.39383370535714,121.59883365631103L127.60013950892856,142.17428443431854L127.70329241071428,138.65595183372497L127.8064453125,152.9760197162628L128.11590401785713,135.21697924137115L128.32220982142857,92.24802265167236L129.04428013392857,111.32300696372985L129.14743303571427,110.70563278198242L129.45689174107144,106.3314109802246L129.66319754464286,120.62690696716308L130.28211495535714,134.87290904521942L130.38526785714285,133.63220868110656L130.5915736607143,147.45572481155395L130.7978794642857,130.19630227088928L131.21049107142858,137.58539805412292L131.62310267857143,121.95058522224426L131.82940848214284,119.51947412490844L132.03571428571428,128.05954465866088L132.34517299107142,139.03071568012237L132.44832589285716,155.9588101863861L132.55147879464286,127.02197620868682L132.65463169642857,117.54060897827148L133.27354910714286,92.35511622428893L133.3767020089286,136.45837984085082L133.99561941964285,132.38841030597686L134.2019252232143,120.37842950820922L134.40823102678573,127.66947112083434L134.51138392857143,106.72708640098571L134.61453683035714,127.30324802398681L135.54291294642857,101.35193119049072L135.74921874999998,110.34738812446594L136.05867745535716,123.91907415390014L136.4712890625,151.12048087120056L136.67759486607142,136.72841606140136L136.78074776785715,124.95605907440185L137.193359375,142.49829182624816L137.2965122767857,129.32125208377838L137.50281808035714,135.65937945842742L137.60597098214285,141.4018399477005L137.70912388392858,148.9865029811859L138.01858258928573,147.23029146194457L138.12173549107143,117.11285004615783L139.15326450892857,142.17134556770324L139.35957031249998,103.82749662399291L139.46272321428572,156.82483158111572L139.77218191964286,165.45242092609405L139.87533482142857,119.10680208206176L139.9784877232143,133.5323296546936L140.28794642857142,155.3323647737503L140.39109933035715,123.77100620269775L140.49425223214286,87.38728580474853L142.04154575892858,122.43154082298278L142.35100446428572,147.43007073402404L142.55731026785713,131.32363877296447L142.66046316964287,173.57073757648467L142.86676897321428,141.21280822753906L142.969921875,151.36755785942077L143.27938058035713,144.48685417175292L143.5888392857143,139.1940933227539L143.6919921875,152.09983429908752L143.7951450892857,120.81174788475036L143.89829799107142,126.33990452289581L144.10460379464286,160.79833838939666L144.3109095982143,116.66206822395324L144.5172154017857,116.49776754379272L144.72352120535714,119.65748414993286L144.82667410714285,112.55459365844726L145.0329799107143,123.07079205513L145.23928571428573,123.05638418197631L145.44559151785714,104.38630566596984L145.54874441964284,151.87361583709716L145.65189732142858,115.64290747642517L145.75505022321428,152.28045258522033L145.858203125,106.52406058311462L146.88973214285713,108.85217342376708L147.30234375,115.61924800872802L147.71495535714286,146.62189302444457L147.81810825892856,127.80881795883178L147.92126116071427,100.19669137001037L148.12756696428573,141.54417870044708L148.43702566964285,124.80007634162902L148.746484375,133.90784678459167L148.9527901785714,132.61090478897094L149.15909598214287,122.45235691070556L149.26224888392858,140.393447971344L149.4685546875,99.2756272315979L149.88116629464284,138.47817692756652L149.98431919642857,122.36240849494934L150.0874720982143,137.43283162117004L150.29377790178572,125.58781991004943L150.39693080357142,124.94415507316589L150.70638950892857,132.93846640586852L150.80954241071427,131.5049572944641L150.91269531249998,139.86386845111846L151.01584821428574,126.21366057395934L151.22215401785715,120.42301115989684L151.7379185267857,120.7042935848236L152.04737723214288,136.16967067718505L152.56314174107143,121.24404773712158L152.76944754464284,129.50485167503356L153.18205915178572,109.60225281715392L153.38836495535713,118.10947594642639L153.80097656249998,150.80452618598937L153.9041294642857,154.0270305633545L154.00728236607145,90.76725826263427L154.11043526785716,143.6703054666519L154.31674107142857,153.02866468429565L154.6261997767857,142.34252128601074L154.72935267857142,107.62947759628295L154.93565848214288,135.98737607002258L155.0388113839286,152.81583557128906L155.1419642857143,145.12504444122314L155.76088169642856,99.50819025039672L155.96718750000002,148.81304619312286L156.07034040178573,139.6794413089752L156.27664620535714,97.96813926696777L156.37979910714287,114.72451696395873L156.6892578125,142.1330023765564L156.7924107142857,117.44983301162719L157.30817522321428,127.97071025371551L157.411328125,132.49536595344543L157.51448102678572,156.22791275978088L157.82393973214283,110.05683288574218L158.0302455357143,149.8329283952713L158.1333984375,92.04253540039062L158.2365513392857,153.99756762981414L158.33970424107144,110.56146917343139L158.44285714285715,150.0311692714691L158.54601004464286,141.8734909057617L159.16492745535714,151.1613703727722L159.6806919642857,135.11427805423736L159.78384486607143,124.72281703948974L159.88699776785714,138.1444723367691L160.40276227678572,127.85615811347961L160.81537388392857,136.78674778938293L161.0216796875,150.06389997005462L161.12483258928572,146.1564911365509L161.53744419642857,146.83879623413085L161.95005580357142,111.60923347473144L162.6721261160714,104.07580432891845L162.87843191964285,163.11657366752624L163.187890625,149.04464373588561L163.39419642857143,134.15878567695617L163.49734933035714,129.1933105945587L163.80680803571428,133.7892842054367L163.9099609375,139.86901412010192L164.11626674107143,104.97386679649352L164.21941964285716,152.01626226902007L164.52887834821428,119.35967192649841L166.28247767857144,161.49117884635925L166.38563058035714,153.62938175201415L166.48878348214285,131.92719922065734L166.59193638392856,134.32641777992248L167.0045479910714,139.3312970161438L167.31400669642858,115.01233491897582L167.41715959821428,125.67836246490478L167.72661830357143,133.81056711673736L167.82977120535713,105.17871747016906L167.93292410714284,133.53414390087127L168.34553571428572,97.62392053604125L168.44868861607142,124.07889757156372L168.55184151785713,147.72889087200164L168.75814732142857,166.6850579738617L168.96445312499998,115.79437050819396L169.17075892857144,87.83628520965576L169.37706473214286,146.74950561523437L169.99598214285712,145.9646478652954L170.20228794642858,130.07359132766723L170.71805245535714,115.17529878616332L170.82120535714284,138.82345662117004L171.74958147321428,146.186749792099L171.85273437499998,114.97571048736572L172.98741629464288,110.37688288688659L173.4000279017857,136.14153394699096L173.50318080357144,117.4355312347412L173.81263950892856,147.91270265579223L173.91579241071426,138.4790363073349L174.22525111607143,124.45933756828308L174.43155691964287,131.22034344673156L174.53470982142858,146.5309366941452L174.63786272321428,145.59690759181976L175.35993303571428,116.73833022117614L175.4630859375,141.3364740371704L175.56623883928572,107.22582373619079L175.66939174107142,169.70353922843933L175.9788504464286,126.7251825094223L176.18515625,133.49727544784545L176.2883091517857,130.96628532409667L176.39146205357144,139.47758255004882L176.49461495535715,142.29261360168456L177.01037946428573,140.02450881004333L177.21668526785714,156.08826885223388L177.7324497767857,176.9405990600586L177.83560267857143,106.06935319900512L178.14506138392858,145.91727588176727L178.86713169642857,122.6877845287323L179.0734375,161.87164006233215L180.10496651785715,134.42072675228118L180.3112723214286,149.52279839515685L180.4144252232143,141.37000045776367L180.6207310267857,143.7000018119812L180.7238839285714,153.9562113046646L180.93018973214285,119.66287384033203L181.03334263392858,154.0258210659027L181.65226004464284,112.53990993499755L181.75541294642858,152.41447339057922L182.37433035714287,91.6810866355896L182.47748325892857,148.78183267116546L183.405859375,140.9606810569763L183.81847098214286,139.11000142097473L184.02477678571427,174.05996868610382L184.43738839285714,148.391801571846L185.0563058035714,149.2181960105896L185.36576450892858,139.188045835495L185.5720703125,134.70114979743957L185.88152901785713,160.1327010154724L186.08783482142857,155.4344612121582L186.1909877232143,126.22193608283996L186.60359933035713,144.33399066925048L186.70675223214286,140.4923190832138L186.91305803571427,152.59456119537353L187.01621093749998,128.02681396007537L187.22251674107144,126.37105438709258L187.53197544642856,100.639813041687L187.6351283482143,171.79393277168273L187.73828125,154.92853055000305L188.15089285714288,90.40950164794921L188.3571986607143,127.44988367557525L188.4603515625,167.43836269378662L188.5635044642857,151.5697561264038L188.76981026785714,165.29765830039977L188.97611607142855,143.28830585479736L189.18242187500002,139.44451234340667L189.49188058035713,134.82797727584838L189.80133928571428,146.90373775959014L189.90449218749998,123.8019863128662L190.0076450892857,150.09514532089233L190.31710379464286,161.86968789100646L190.5234095982143,125.98951098918914L190.6265625,145.0109272956848L190.93602120535712,157.75114748477935L191.03917410714288,173.13521239757537L191.3486328125,142.03709135055541L191.76124441964285,137.21164212226867L191.86439732142856,98.48081765174865L191.96755022321426,100.82883415222167L192.68962053571428,110.151598072052L192.8959263392857,139.13551757335662L192.99907924107143,138.02288601398467L193.10223214285716,159.84384331703185L193.41169084821428,141.94627294540405L193.51484375,97.06719098091125L193.72114955357142,120.8241187095642L194.1337611607143,143.22169861793517L194.2369140625,134.65465841293334L194.3400669642857,148.24149498939514L194.64952566964286,134.64576754570007L195.06213727678573,134.50088248252868L195.16529017857144,150.6142319202423L195.37159598214285,113.77754411697387L195.47474888392858,163.17339882850646L195.5779017857143,142.37373480796813L195.6810546875,129.89364144802093L195.88736049107143,175.26084051132202L196.19681919642858,132.55901310443878L196.29997209821428,147.63029561042785L196.40312500000002,131.58692727088928L196.50627790178572,154.25724885463714L196.91888950892857,135.36127016544341L197.02204241071428,135.0552036523819L197.53780691964286,145.06784794330596L197.74411272321427,141.63298127651214L197.847265625,120.56532869338989L197.9504185267857,115.80432233810424L198.3630301339286,136.60780582427978L198.6724888392857,130.69193098545074L198.87879464285714,110.42570838928222L199.1882533482143,158.60025713443756L199.29140625,127.24009952545165L199.39455915178573,127.28343985080718L199.49771205357143,107.43294486999511L199.60086495535714,113.73005542755126L199.80717075892858,169.44190583229064L200.0134765625,131.70743141174316L200.32293526785716,149.60917136669158L200.42608816964287,99.30210886001586L200.63239397321428,115.8027096748352L200.73554687499998,101.86721954345703L200.83869977678572,116.03924069404601L201.14815848214286,140.9515886068344L201.3544642857143,134.43871006965637L201.4576171875,122.18995962142944L201.5607700892857,133.81191453933715L201.66392299107142,112.91529974937438L202.38599330357144,98.82879219055175L202.48914620535714,121.7147756576538L202.7986049107143,115.8468032836914L203.31436941964287,157.44508097171783L203.72698102678572,127.62374362945556L204.3458984375,126.76247534751892L204.44905133928572,139.6136616230011L204.65535714285713,125.73723528385162L205.06796874999998,138.60782656669616L205.17112165178574,138.73563013076782L205.27427455357144,163.57106885910034L205.48058035714286,143.055721616745L205.58373325892856,169.4292167186737L205.6868861607143,135.15617547035217L206.09949776785712,173.67143354415893L206.512109375,154.4081920146942L206.71841517857143,132.49433681964874L206.82156808035714,144.82801733016967L207.64679129464287,142.47019753456115L207.74994419642857,104.24093255996704L208.0594029017857,158.80334661006927L208.36886160714286,96.96204957962036L208.7814732142857,123.12619552612304L208.98777901785712,140.18959460258483L209.400390625,131.1875915288925L209.91615513392856,103.89002976417541L210.01930803571426,103.614497756958L210.43191964285714,122.99820098876953L210.53507254464287,139.20733413696288L210.84453125,116.95149884223937L210.9476841517857,140.65179238319396L211.05083705357143,100.81699380874633L211.36029575892857,150.61028513908386L211.66975446428572,134.9629741668701L211.77290736607142,114.8234411239624L211.97921316964283,143.87380871772766L212.1855189732143,154.7555299758911L212.288671875,124.29870781898498L212.3918247767857,156.65474865436553L213.11389508928573,119.704994058609L213.32020089285714,150.75553092956542L213.42335379464285,120.91824731826782L214.04227120535714,149.1279186964035L214.14542410714287,138.75556561946868L214.24857700892858,163.43589160442352L214.35172991071428,138.5761780500412L214.45488281250002,125.51911196708679L214.66118861607143,145.34313592910766L214.97064732142857,157.0504771232605L215.69271763392857,159.30526683330535L215.79587053571427,127.97967538833618L215.8990234375,102.0159665107727L216.8273995535714,144.42010900974273L217.13685825892858,144.7180909872055L217.2400111607143,117.55991849899291L217.65262276785714,112.47801337242126L217.75577566964284,167.12930426597595L217.85892857142858,142.27661428451538L217.96208147321428,126.679847574234L218.27154017857143,165.3553640604019L218.37469308035716,163.21554026603698L218.47784598214287,118.34859571456909L218.58099888392857,113.74902544021606L218.99361049107142,136.71065554618835L219.09676339285713,131.59143636226653L219.19991629464286,147.2879335641861L219.509375,119.93252811431884L219.71568080357142,164.4032031059265L219.92198660714286,148.07733223438262L220.12829241071427,146.6751745700836L220.2314453125,110.48834762573242L220.33459821428573,115.81828460693359L220.54090401785714,141.36541709899902L220.64405691964285,140.75638208389282L221.1598214285714,139.6713037252426L221.46928013392858,126.47627005577087L221.6755859375,138.8584683895111L221.98504464285713,136.04500756263732L222.2945033482143,108.03083977699279L222.39765625,135.08736143112182L222.60396205357142,109.4484981060028L222.81026785714286,177.56666252613067L223.42918526785715,138.8723776102066L223.53233816964286,137.98510513305663L223.7386439732143,83.56608018875122L223.9449497767857,139.32121787071227L224.87332589285714,109.55858359336852L224.97647879464284,97.28428516387939L225.07963169642855,120.5148268699646L225.1827845982143,144.22967681884765L226.42061941964286,138.87613341808319L226.6269252232143,125.03361544609069L226.8332310267857,137.20022616386413L227.03953683035712,134.44319794178008L227.4521484375,105.58937368392944L227.5553013392857,123.74552187919616L227.65845424107144,93.37618670463561L227.76160714285714,136.79058847427368L227.86476004464285,120.3839252948761L227.96791294642856,123.3288818359375L228.07106584821426,104.08132133483886L228.27737165178573,124.49500713348388L228.38052455357143,158.8407031059265L228.48367745535714,126.71965489387512L228.68998325892858,135.96091566085815L229.20574776785716,155.86614570617675L229.51520647321428,115.5242706298828L229.72151227678572,111.26072845458984L229.82466517857142,139.94313297271728L230.03097098214283,110.04057893753051L230.3404296875,112.67064175605773L230.64988839285715,80.70398483276367L230.85619419642856,83.62088952064514L231.16565290178573,107.38897857666015L231.47511160714285,116.0232838153839L231.57826450892858,147.4870232105255L231.8877232142857,146.04362592697143L232.09402901785714,60.45689139366149L232.19718191964287,114.77885947227477L233.02240513392857,135.92921409606933L233.12555803571428,113.75647339820861L233.33186383928572,137.14942727088928L233.84762834821427,105.2239993572235L234.36339285714286,126.57366642951965L234.4665457589286,136.5353951215744L234.5696986607143,151.97281584739684L234.7760044642857,103.41923818588256L234.8791573660714,137.6353693962097L235.08546316964285,120.28799304962158L235.2917689732143,131.6173556804657L235.60122767857143,128.88898406028747L235.70438058035714,104.86246571540832L236.1169921875,107.3363760471344L236.63275669642857,144.07229361534118L236.83906249999998,149.99405679702758L237.4579799107143,120.22730598449706L237.5611328125,95.6394959449768L237.6642857142857,116.71672902107238L237.76743861607142,147.5722397327423L237.87059151785715,117.37089738845825L238.18005022321427,122.61718807220458L238.38635602678573,134.22143552303314L238.69581473214285,169.38598248958587L238.79896763392856,151.96668348312377L239.1084263392857,116.43109664916992L239.31473214285717,141.38260469436645L239.52103794642858,128.5238749742508L239.62419084821428,121.2700837612152L239.72734375,134.82630095481872L240.13995535714284,87.29752836227416L240.55256696428572,146.88547859191894L240.65571986607142,132.9065950870514L240.75887276785713,143.03735635280609L241.17148437499998,104.69500336647033L241.27463727678574,139.01319918632507L241.48094308035715,153.44646117687225L241.58409598214286,134.08436975479125L241.7904017857143,106.25162658691406L241.8935546875,101.76142034530639L241.9967075892857,152.1476837158203L242.20301339285712,132.91552839279174L242.30616629464288,141.92846999168395L242.40931919642858,133.75254306793212L242.5124720982143,150.54846284389495L242.82193080357143,129.38402924537658L243.02823660714284,131.6269467830658L243.13138950892855,127.29877076148986L243.75030691964287,133.1035628080368L243.85345982142857,145.46714124679565L243.95661272321428,87.22593460083007L244.36922433035716,99.51164898872375L244.57553013392857,163.3117589712143L244.7818359375,124.13519225120544L245.19444754464288,137.1563871860504L245.91651785714285,141.27852425575256L246.22597656250002,142.78325579166412L246.43228236607143,115.35447416305541L246.63858816964287,129.84051904678344L246.74174107142858,131.5357464313507L246.948046875,147.64009890556335L247.15435267857143,136.14724192619323L247.36065848214287,167.77404067516326L247.46381138392857,141.66274127960205L247.56696428571428,135.48181674480438L247.87642299107142,165.60941157341003L247.97957589285713,128.70267901420593L248.2890345982143,128.08829674720764L248.3921875,129.65434131622314L248.70164620535715,137.14349648952484L249.01110491071427,132.93137917518615L249.42371651785714,153.397709941864L250.04263392857143,84.80099830627441L250.14578683035714,140.19368991851806L250.45524553571428,105.03459630012512L250.55839843750002,69.90665254592895L250.76470424107143,115.70480403900146L250.97101004464284,160.69819412231445L251.07416294642857,106.7236913204193L251.28046875,92.85081920623779L251.38362165178572,110.65525827407836L251.58992745535716,156.8092354297638L251.69308035714286,148.36473641395568L251.79623325892857,126.92964062690734L251.89938616071427,141.5275003671646L252.1056919642857,147.96746954917907L252.31199776785715,120.88701257705688L252.41515066964286,134.70978603363037L252.8277622767857,141.45967302322387L252.9309151785714,141.20792779922485L253.13722098214285,128.05916271209716L253.4466796875,124.20126900672912L253.65298549107143,121.01169691085815L253.96244419642858,98.00043497085571L254.58136160714287,128.87285742759704L255.20027901785713,112.89968237876892L255.612890625,107.1302734375L255.92234933035715,147.07484982013702L256.43811383928573,86.82618508338928L256.64441964285714,147.7190663576126L256.9538783482143,137.11558256149291L257.5727957589286,142.23706159591674L257.67594866071425,151.6098180770874L257.8822544642857,165.43846926689147L258.19171316964287,142.82377395629882L258.501171875,165.12412724494934L258.6043247767857,151.09472069740295L258.7074776785714,102.09940061569213L259.63585379464286,134.80375549793243L259.73900669642853,147.56224546432495L259.8421595982143,146.15759453773498L259.9453125,152.55534801483154L260.1516183035714,119.91865072250366L260.3579241071429,116.09634170532226L260.66738281249997,125.03229985237121L260.7705357142857,119.07643733024597L261.1831473214286,167.0723093509674L261.389453125,62.8522268295288L261.4926060267857,139.42826900482177L261.5957589285714,136.45296893119811L261.69891183035713,149.61393508911132L262.52413504464283,134.10644838809966L263.45251116071427,144.69552431106567L263.6588169642857,133.2058396100998L263.9682756696429,104.90976343154907L264.48404017857143,156.4542160987854L264.7934988839286,126.67520055770873L264.8966517857143,153.25354633331298L265.20611049107146,132.37358865737914L265.30926339285713,141.15782914161682L265.6187220982143,102.96752271652221L265.9281808035714,125.11259350776672L266.13448660714283,141.34508905410766L266.3407924107143,145.46251544952392L266.65025111607144,135.04082760810851L266.9597098214286,95.85291919708251L267.06286272321427,123.37908658981323L267.166015625,149.37678871154785L267.3723214285714,148.12192449569702L268.19754464285717,143.0600715637207L268.4038504464286,130.8679977416992L268.61015625,132.65457401275634L268.81646205357146,112.42188844680786L269.3322265625,135.58731887340545L269.84799107142857,138.36622414588928L270.26060267857144,172.28802309036254L270.67321428571427,166.024884557724L270.7763671875,97.62986192703247L270.87952008928573,82.64331851005554L271.29213169642856,101.45000658035278L271.3952845982143,117.63155469894409L271.49843749999997,117.8917239665985L271.6015904017857,121.62943181991577L271.91104910714284,118.99535856246948L272.4268136160714,162.85540709495544L272.73627232142854,129.71831736564636L272.942578125,121.10998449325561L273.35518973214283,114.95419416427612L273.45834263392857,131.8195963859558L273.5614955357143,62.40407619476318L273.6646484375,142.66571173667907L273.87095424107144,110.45564875602722L274.07726004464286,117.78187189102172L274.38671875,94.85243139266967L274.69617745535714,119.22756085395812L274.7993303571428,113.80682668685913L275.0056361607143,114.57799801826476L275.2119419642857,122.99136838912963L275.9340122767857,97.95593819618225L276.24347098214287,143.00088045597076L276.34662388392854,133.9658390045166L276.5529296875,99.53861865997314L276.7592354910714,133.13869128227233L276.9655412946429,131.51279780864715L277.06869419642857,118.01494417190551L277.275,144.4905463218689L277.5844587053571,128.47589824199676L277.79076450892853,158.10857520103454L278.10022321428573,119.9308093547821L278.30652901785714,173.84335193634033L278.4096819196429,123.06956133842468" style="fill: none;" fill="none"></path></g><g><path stroke="rgb(0, 119, 187)" stroke-width="2px" d="M278.51283482142856,65.07292780876159Z" style="fill: none;" fill="none"></path></g></g></g></g></g></g><g transform="translate(41, 178)" clip-path="url(#clip_1)"><clipPath id="clip_1"><rect width="288" height="22"></rect></clipPath><g><g><line x1="0" y1="0" x2="0" y2="5" style="visibility: inherit;" fill="rgb(0, 0, 0)" stroke="rgb(204, 204, 204)" stroke-width="1px"></line><line x1="20.630580357142858" y1="0" x2="20.630580357142858" y2="5" style="visibility: inherit;" fill="rgb(0, 0, 0)" stroke="rgb(204, 204, 204)" stroke-width="1px"></line><line x1="41.261160714285715" y1="0" x2="41.261160714285715" y2="5" style="visibility: inherit;" fill="rgb(0, 0, 0)" stroke="rgb(204, 204, 204)" stroke-width="1px"></line><line x1="61.89174107142857" y1="0" x2="61.89174107142857" y2="5" style="visibility: inherit;" fill="rgb(0, 0, 0)" stroke="rgb(204, 204, 204)" stroke-width="1px"></line><line x1="82.52232142857143" y1="0" x2="82.52232142857143" y2="5" style="visibility: inherit;" fill="rgb(0, 0, 0)" stroke="rgb(204, 204, 204)" stroke-width="1px"></line><line x1="103.15290178571429" y1="0" x2="103.15290178571429" y2="5" style="visibility: inherit;" fill="rgb(0, 0, 0)" stroke="rgb(204, 204, 204)" stroke-width="1px"></line><line x1="123.78348214285714" y1="0" x2="123.78348214285714" y2="5" style="visibility: inherit;" fill="rgb(0, 0, 0)" stroke="rgb(204, 204, 204)" stroke-width="1px"></line><line x1="144.4140625" y1="0" x2="144.4140625" y2="5" style="visibility: inherit;" fill="rgb(0, 0, 0)" stroke="rgb(204, 204, 204)" stroke-width="1px"></line><line x1="165.04464285714286" y1="0" x2="165.04464285714286" y2="5" style="visibility: inherit;" fill="rgb(0, 0, 0)" stroke="rgb(204, 204, 204)" stroke-width="1px"></line><line x1="185.67522321428572" y1="0" x2="185.67522321428572" y2="5" style="visibility: inherit;" fill="rgb(0, 0, 0)" stroke="rgb(204, 204, 204)" stroke-width="1px"></line><line x1="206.30580357142858" y1="0" x2="206.30580357142858" y2="5" style="visibility: inherit;" fill="rgb(0, 0, 0)" stroke="rgb(204, 204, 204)" stroke-width="1px"></line><line x1="226.93638392857142" y1="0" x2="226.93638392857142" y2="5" style="visibility: inherit;" fill="rgb(0, 0, 0)" stroke="rgb(204, 204, 204)" stroke-width="1px"></line><line x1="247.56696428571428" y1="0" x2="247.56696428571428" y2="5" style="visibility: inherit;" fill="rgb(0, 0, 0)" stroke="rgb(204, 204, 204)" stroke-width="1px"></line><line x1="268.19754464285717" y1="0" x2="268.19754464285717" y2="5" style="visibility: inherit;" fill="rgb(0, 0, 0)" stroke="rgb(204, 204, 204)" stroke-width="1px"></line><line x1="288.828125" y1="0" x2="288.828125" y2="5" style="visibility: inherit;" fill="rgb(0, 0, 0)" stroke="rgb(204, 204, 204)" stroke-width="1px"></line></g><g transform="translate(0, 8)"><text x="0" y="0" dx="0em" dy="0.95em" style="text-anchor: middle; visibility: hidden; font-family: Roboto, sans-serif; font-size: 12px; font-weight: 200;" fill="rgb(50, 49, 63)" stroke="none" stroke-width="1px">-200</text><text x="20.630580357142858" y="0" dx="0em" dy="0.95em" style="text-anchor: middle; visibility: inherit; font-family: Roboto, sans-serif; font-size: 12px; font-weight: 200;" fill="rgb(50, 49, 63)" stroke="none" stroke-width="1px">0</text><text x="41.261160714285715" y="0" dx="0em" dy="0.95em" style="text-anchor: middle; visibility: hidden; font-family: Roboto, sans-serif; font-size: 12px; font-weight: 200;" fill="rgb(50, 49, 63)" stroke="none" stroke-width="1px">200</text><text x="61.89174107142857" y="0" dx="0em" dy="0.95em" style="text-anchor: middle; visibility: inherit; font-family: Roboto, sans-serif; font-size: 12px; font-weight: 200;" fill="rgb(50, 49, 63)" stroke="none" stroke-width="1px">400</text><text x="82.52232142857143" y="0" dx="0em" dy="0.95em" style="text-anchor: middle; visibility: hidden; font-family: Roboto, sans-serif; font-size: 12px; font-weight: 200;" fill="rgb(50, 49, 63)" stroke="none" stroke-width="1px">600</text><text x="103.15290178571429" y="0" dx="0em" dy="0.95em" style="text-anchor: middle; visibility: inherit; font-family: Roboto, sans-serif; font-size: 12px; font-weight: 200;" fill="rgb(50, 49, 63)" stroke="none" stroke-width="1px">800</text><text x="123.78348214285714" y="0" dx="0em" dy="0.95em" style="text-anchor: middle; visibility: hidden; font-family: Roboto, sans-serif; font-size: 12px; font-weight: 200;" fill="rgb(50, 49, 63)" stroke="none" stroke-width="1px">1k</text><text x="144.4140625" y="0" dx="0em" dy="0.95em" style="text-anchor: middle; visibility: inherit; font-family: Roboto, sans-serif; font-size: 12px; font-weight: 200;" fill="rgb(50, 49, 63)" stroke="none" stroke-width="1px">1.2k</text><text x="165.04464285714286" y="0" dx="0em" dy="0.95em" style="text-anchor: middle; visibility: hidden; font-family: Roboto, sans-serif; font-size: 12px; font-weight: 200;" fill="rgb(50, 49, 63)" stroke="none" stroke-width="1px">1.4k</text><text x="185.67522321428572" y="0" dx="0em" dy="0.95em" style="text-anchor: middle; visibility: inherit; font-family: Roboto, sans-serif; font-size: 12px; font-weight: 200;" fill="rgb(50, 49, 63)" stroke="none" stroke-width="1px">1.6k</text><text x="206.30580357142858" y="0" dx="0em" dy="0.95em" style="text-anchor: middle; visibility: hidden; font-family: Roboto, sans-serif; font-size: 12px; font-weight: 200;" fill="rgb(50, 49, 63)" stroke="none" stroke-width="1px">1.8k</text><text x="226.93638392857142" y="0" dx="0em" dy="0.95em" style="text-anchor: middle; visibility: inherit; font-family: Roboto, sans-serif; font-size: 12px; font-weight: 200;" fill="rgb(50, 49, 63)" stroke="none" stroke-width="1px">2k</text><text x="247.56696428571428" y="0" dx="0em" dy="0.95em" style="text-anchor: middle; visibility: hidden; font-family: Roboto, sans-serif; font-size: 12px; font-weight: 200;" fill="rgb(50, 49, 63)" stroke="none" stroke-width="1px">2.2k</text><text x="268.19754464285717" y="0" dx="0em" dy="0.95em" style="text-anchor: middle; visibility: inherit; font-family: Roboto, sans-serif; font-size: 12px; font-weight: 200;" fill="rgb(50, 49, 63)" stroke="none" stroke-width="1px">2.4k</text><text x="288.828125" y="0" dx="0em" dy="0.95em" style="text-anchor: middle; visibility: hidden; font-family: Roboto, sans-serif; font-size: 12px; font-weight: 200;" fill="rgb(50, 49, 63)" stroke="none" stroke-width="1px">2.6k</text></g><line x1="0" y1="0" x2="288.828125" y2="0" fill="rgb(0, 0, 0)" stroke="rgb(204, 204, 204)" stroke-width="1px"></line></g></g></g></g></svg>