<svg viewBox="0 0 603 400" xmlns="http://www.w3.org/2000/svg"><g><g><g><g><g><line x1="51.5625" y1="378" x2="46.5625" y2="378" style="visibility: inherit;" fill="rgb(0, 0, 0)" stroke="rgb(204, 204, 204)" stroke-width="1px"></line><line x1="51.5625" y1="336" x2="46.5625" y2="336" style="visibility: inherit;" fill="rgb(0, 0, 0)" stroke="rgb(204, 204, 204)" stroke-width="1px"></line><line x1="51.5625" y1="294" x2="46.5625" y2="294" style="visibility: inherit;" fill="rgb(0, 0, 0)" stroke="rgb(204, 204, 204)" stroke-width="1px"></line><line x1="51.5625" y1="251.99999999999994" x2="46.5625" y2="251.99999999999994" style="visibility: inherit;" fill="rgb(0, 0, 0)" stroke="rgb(204, 204, 204)" stroke-width="1px"></line><line x1="51.5625" y1="210" x2="46.5625" y2="210" style="visibility: inherit;" fill="rgb(0, 0, 0)" stroke="rgb(204, 204, 204)" stroke-width="1px"></line><line x1="51.5625" y1="168" x2="46.5625" y2="168" style="visibility: inherit;" fill="rgb(0, 0, 0)" stroke="rgb(204, 204, 204)" stroke-width="1px"></line><line x1="51.5625" y1="125.99999999999993" x2="46.5625" y2="125.99999999999993" style="visibility: inherit;" fill="rgb(0, 0, 0)" stroke="rgb(204, 204, 204)" stroke-width="1px"></line><line x1="51.5625" y1="84" x2="46.5625" y2="84" style="visibility: inherit;" fill="rgb(0, 0, 0)" stroke="rgb(204, 204, 204)" stroke-width="1px"></line><line x1="51.5625" y1="41.999999999999936" x2="46.5625" y2="41.999999999999936" style="visibility: inherit;" fill="rgb(0, 0, 0)" stroke="rgb(204, 204, 204)" stroke-width="1px"></line><line x1="51.5625" y1="0" x2="46.5625" y2="0" style="visibility: inherit;" fill="rgb(0, 0, 0)" stroke="rgb(204, 204, 204)" stroke-width="1px"></line></g><g transform="translate(41.5625, 0)"><text x="0" y="378" dx="0em" dy="0.3em" style="text-anchor: end; visibility: hidden; font-family: Roboto, sans-serif; font-size: 12px; font-weight: 200;" fill="rgb(50, 49, 63)" stroke="none" stroke-width="1px">0.5</text><text x="0" y="336" dx="0em" dy="0.3em" style="text-anchor: end; visibility: inherit; font-family: Roboto, sans-serif; font-size: 12px; font-weight: 200;" fill="rgb(50, 49, 63)" stroke="none" stroke-width="1px">0.55</text><text x="0" y="294" dx="0em" dy="0.3em" style="text-anchor: end; visibility: inherit; font-family: Roboto, sans-serif; font-size: 12px; font-weight: 200;" fill="rgb(50, 49, 63)" stroke="none" stroke-width="1px">0.6</text><text x="0" y="251.99999999999994" dx="0em" dy="0.3em" style="text-anchor: end; visibility: inherit; font-family: Roboto, sans-serif; font-size: 12px; font-weight: 200;" fill="rgb(50, 49, 63)" stroke="none" stroke-width="1px">0.65</text><text x="0" y="210" dx="0em" dy="0.3em" style="text-anchor: end; visibility: inherit; font-family: Roboto, sans-serif; font-size: 12px; font-weight: 200;" fill="rgb(50, 49, 63)" stroke="none" stroke-width="1px">0.7</text><text x="0" y="168" dx="0em" dy="0.3em" style="text-anchor: end; visibility: inherit; font-family: Roboto, sans-serif; font-size: 12px; font-weight: 200;" fill="rgb(50, 49, 63)" stroke="none" stroke-width="1px">0.75</text><text x="0" y="125.99999999999993" dx="0em" dy="0.3em" style="text-anchor: end; visibility: inherit; font-family: Roboto, sans-serif; font-size: 12px; font-weight: 200;" fill="rgb(50, 49, 63)" stroke="none" stroke-width="1px">0.8</text><text x="0" y="84" dx="0em" dy="0.3em" style="text-anchor: end; visibility: inherit; font-family: Roboto, sans-serif; font-size: 12px; font-weight: 200;" fill="rgb(50, 49, 63)" stroke="none" stroke-width="1px">0.85</text><text x="0" y="41.999999999999936" dx="0em" dy="0.3em" style="text-anchor: end; visibility: inherit; font-family: Roboto, sans-serif; font-size: 12px; font-weight: 200;" fill="rgb(50, 49, 63)" stroke="none" stroke-width="1px">0.9</text><text x="0" y="0" dx="0em" dy="0.3em" style="text-anchor: end; visibility: hidden; font-family: Roboto, sans-serif; font-size: 12px; font-weight: 200;" fill="rgb(50, 49, 63)" stroke="none" stroke-width="1px">0.95</text></g><line x1="51.5625" y1="0" x2="51.5625" y2="378" fill="rgb(0, 0, 0)" stroke="rgb(204, 204, 204)" stroke-width="1px"></line></g></g><g transform="translate(51, 0)" clip-path="url(#clip_0)"><clipPath id="clip_0"><rect width="551" height="378"></rect></clipPath><g><g><g><line x1="0" y1="0" x2="0" y2="378" fill="rgb(0, 0, 0)" stroke="rgb(60, 60, 60)" stroke-width="1px" opacity="0.25"></line><line x1="39.388392857142854" y1="0" x2="39.388392857142854" y2="378" fill="rgb(0, 0, 0)" stroke="rgb(60, 60, 60)" stroke-width="1px" opacity="0.25"></line><line x1="78.77678571428571" y1="0" x2="78.77678571428571" y2="378" fill="rgb(0, 0, 0)" stroke="rgb(60, 60, 60)" stroke-width="1px" opacity="0.25"></line><line x1="118.16517857142857" y1="0" x2="118.16517857142857" y2="378" fill="rgb(0, 0, 0)" stroke="rgb(60, 60, 60)" stroke-width="1px" opacity="0.25"></line><line x1="157.55357142857142" y1="0" x2="157.55357142857142" y2="378" fill="rgb(0, 0, 0)" stroke="rgb(60, 60, 60)" stroke-width="1px" opacity="0.25"></line><line x1="196.94196428571428" y1="0" x2="196.94196428571428" y2="378" fill="rgb(0, 0, 0)" stroke="rgb(60, 60, 60)" stroke-width="1px" opacity="0.25"></line><line x1="236.33035714285714" y1="0" x2="236.33035714285714" y2="378" fill="rgb(0, 0, 0)" stroke="rgb(60, 60, 60)" stroke-width="1px" opacity="0.25"></line><line x1="275.71875" y1="0" x2="275.71875" y2="378" fill="rgb(0, 0, 0)" stroke="rgb(60, 60, 60)" stroke-width="1px" opacity="0.25"></line><line x1="315.10714285714283" y1="0" x2="315.10714285714283" y2="378" fill="rgb(0, 0, 0)" stroke="rgb(60, 60, 60)" stroke-width="1px" opacity="0.25"></line><line x1="354.4955357142857" y1="0" x2="354.4955357142857" y2="378" fill="rgb(0, 0, 0)" stroke="rgb(60, 60, 60)" stroke-width="1px" opacity="0.25"></line><line x1="393.88392857142856" y1="0" x2="393.88392857142856" y2="378" fill="rgb(0, 0, 0)" stroke="rgb(60, 60, 60)" stroke-width="1px" opacity="0.25"></line><line x1="433.27232142857144" y1="0" x2="433.27232142857144" y2="378" fill="rgb(0, 0, 0)" stroke="rgb(60, 60, 60)" stroke-width="1px" opacity="0.25"></line><line x1="472.6607142857143" y1="0" x2="472.6607142857143" y2="378" fill="rgb(0, 0, 0)" stroke="rgb(60, 60, 60)" stroke-width="1px" opacity="0.25"></line><line x1="512.0491071428571" y1="0" x2="512.0491071428571" y2="378" fill="rgb(0, 0, 0)" stroke="rgb(60, 60, 60)" stroke-width="1px" opacity="0.25"></line><line x1="551.4375" y1="0" x2="551.4375" y2="378" fill="rgb(0, 0, 0)" stroke="rgb(60, 60, 60)" stroke-width="1px" opacity="0.25"></line></g><g><line x1="0" y1="378" x2="551.4375" y2="378" fill="rgb(0, 0, 0)" stroke="rgb(60, 60, 60)" stroke-width="1px" opacity="0.25"></line><line x1="0" y1="336" x2="551.4375" y2="336" fill="rgb(0, 0, 0)" stroke="rgb(60, 60, 60)" stroke-width="1px" opacity="0.25"></line><line x1="0" y1="294" x2="551.4375" y2="294" fill="rgb(0, 0, 0)" stroke="rgb(60, 60, 60)" stroke-width="1px" opacity="0.25"></line><line x1="0" y1="251.99999999999994" x2="551.4375" y2="251.99999999999994" fill="rgb(0, 0, 0)" stroke="rgb(60, 60, 60)" stroke-width="1px" opacity="0.25"></line><line x1="0" y1="210" x2="551.4375" y2="210" fill="rgb(0, 0, 0)" stroke="rgb(60, 60, 60)" stroke-width="1px" opacity="0.25"></line><line x1="0" y1="168" x2="551.4375" y2="168" fill="rgb(0, 0, 0)" stroke="rgb(60, 60, 60)" stroke-width="1px" opacity="0.25"></line><line x1="0" y1="125.99999999999993" x2="551.4375" y2="125.99999999999993" fill="rgb(0, 0, 0)" stroke="rgb(60, 60, 60)" stroke-width="1px" opacity="0.25"></line><line x1="0" y1="84" x2="551.4375" y2="84" fill="rgb(0, 0, 0)" stroke="rgb(60, 60, 60)" stroke-width="1px" opacity="0.25"></line><line x1="0" y1="41.999999999999936" x2="551.4375" y2="41.999999999999936" fill="rgb(0, 0, 0)" stroke="rgb(60, 60, 60)" stroke-width="1px" opacity="0.25"></line><line x1="0" y1="0" x2="551.4375" y2="0" fill="rgb(0, 0, 0)" stroke="rgb(60, 60, 60)" stroke-width="1px" opacity="0.25"></line></g></g></g><g><g><line x1="0" y1="798" x2="551.4375" y2="798" fill="rgb(0, 0, 0)" stroke="rgb(153, 153, 153)" stroke-width="1.5px"></line></g></g><g><g><line x1="39.388392857142854" y1="0" x2="39.388392857142854" y2="378" fill="rgb(0, 0, 0)" stroke="rgb(153, 153, 153)" stroke-width="1.5px"></line></g></g><g><g><g><g><g><path stroke="rgb(255, 112, 67)" stroke-width="2px" d="M64.99084821428572,-3.0863460656624717L66.76332589285714,3.4187578241842376L67.15720982142858,13.399557718431L67.35415178571428,13.539862871918539L67.55109374999999,17.937183847144897L68.9296875,22.479384064935722L69.91439732142857,23.581112170053316L70.30828125000001,20.827698048971676L70.50522321428572,22.63061607940264L71.29299107142857,22.635892931062283L72.27770089285714,24.84189644841889L72.47464285714285,34.81395149068744L73.06546875000001,37.455319169983746L74.24712053571429,35.124908889162334L74.4440625,39.80538298038209L74.83794642857143,40.60497877345416L75.42877232142857,45.86235022583738L75.82265625000001,47.84521665778918L76.01959821428571,42.93453384397229L76.41348214285713,43.22519530394727L76.80736607142858,47.43342752797904L77.00430803571429,51.572462216067194L78.3829017857143,47.879153652116926L79.95843749999999,49.257236372268665L80.15537946428572,58.25548785842418L80.35232142857143,55.90744767340234L81.14008928571428,55.77369063631607L83.10950892857143,61.35687189536457L83.30645089285714,69.98400569675563L83.70033482142857,68.55941172467907L84.48810267857144,67.10325829811526L85.07892857142856,64.94323706143399L85.27587053571428,67.27756997028659L85.4728125,70.85036837260166L86.06363839285714,70.18910616435755L88.42694196428572,74.85596192588876L89.60859375,84.02552237794572L90.19941964285714,84.87338383835488L90.59330357142858,87.64684414226332L90.79024553571429,86.67481391511662L91.18412946428572,83.52526748812345L91.97189732142857,89.42350960740983L92.75966517857142,90.50509885968934L93.15354910714285,89.1124244131098L94.13825892857143,88.0598387121338L96.89544642857143,91.37287776169461L97.88015625,95.00296618963998L98.07709821428571,103.0830512681885L98.86486607142858,109.93365819800508L99.06180803571428,108.0546376059635L99.84957589285715,107.13434816915415L100.04651785714286,99.10892774460095L100.44040178571429,103.16889547150258L101.03122767857143,104.32002971696015L102.01593749999999,102.487472811424L102.21287946428572,99.82199705062922L102.40982142857143,105.18128316693247L103.39453125,98.86849663446168L103.59147321428571,105.81650493470418L103.78841517857143,103.50570124981101L104.37924107142857,102.80953295278607L106.15171875,96.34911662542011L106.54560267857144,83.89132031830141L107.72725446428572,87.04237846722664L108.90890625,91.59015457155643L109.10584821428571,94.08533561401786L110.28750000000001,99.21395534356938L110.87832589285713,99.12735961344784L111.66609375,96.24701648217015L112.45386160714285,99.5445524688398L112.8477455357143,98.91285841363248L113.63551339285715,97.21413690673722L113.83245535714286,93.68799533186426L114.02939732142858,97.43885262791296L114.42328124999999,104.25117362445482L115.40799107142858,105.31729384655654L116.39270089285715,107.29862365364644L116.58964285714286,113.20200554861478L116.78658482142858,119.94976253197947L119.74071428571428,124.54815027313376L121.11930803571428,123.1328480115356L122.30095982142856,120.07872465358305L122.49790178571429,127.15427667017374L122.89178571428572,130.39024253933627L123.28566964285713,136.69713034928222L124.0734375,138.4069196091923L125.84591517857142,138.31489576559395L126.23979910714286,142.4877058529909L126.43674107142857,138.899774443964L127.02756696428571,141.07502221305617L128.20921875000002,142.21175036428298L129.7847544642857,140.21239432203842L129.98169642857144,143.35117289539684L130.57252232142858,148.6802447860999L130.7694642857143,144.4334540957127L132.5419419642857,141.9722074682465L132.73888392857143,143.57649114550088L134.90524553571427,146.72643551078673L135.49607142857144,140.4367086223563L135.69301339285715,139.17038701701017L136.08689732142855,143.16409132634578L136.48078125,151.07787985241805L139.23796875,155.43589000936615L140.22267857142856,143.6835919478076L140.61656250000001,143.59552864679972L141.20738839285713,143.8809754355815L141.60127232142858,145.3190214132052L142.58598214285715,144.41175350854567L142.78292410714286,137.30448529757865L143.96457589285714,138.063003261303L144.35845982142857,142.88717237059794L144.55540178571428,138.92863666637186L144.9492857142857,138.87394446318862L145.14622767857145,138.66227867705044L145.73705357142856,137.60676551596913L146.13093750000002,141.2416987633153L147.11564732142858,142.04824705638782L147.31258928571427,147.6990076255594L149.08506696428572,149.46784606153142L149.47895089285714,151.20896905038373L150.26671875000002,148.80866729354543L150.4636607142857,149.94527492272L150.66060267857142,143.65075828197013L151.44837053571428,146.0940350486325L152.23613839285716,148.4467820116791L152.43308035714284,149.244650411118L153.02390625,148.87451200160095L153.4177901785714,148.04040750384542L153.61473214285715,139.5166871855708L153.81167410714286,137.51336342862217L154.00861607142858,139.0102936019143L154.2055580357143,138.8199373053566L154.4025,145.56868498484113L154.79638392857143,145.34753799815473L154.99332589285714,145.1144796708453L155.9780357142857,150.46206141247148L156.17497767857142,157.55250696839627L156.96274553571428,158.238705390903L157.55357142857142,152.46874130966606L157.94745535714284,155.93073548984628L159.12910714285715,161.04026763551303L159.52299107142858,167.07184725322495L160.50770089285714,173.64144558219863L161.29546875,172.42114768976828L161.4924107142857,177.06575588790759L161.88629464285717,181.02207458372575L164.24959821428573,182.4205366817769L165.62819196428572,184.76443106345604L165.82513392857143,191.82651324058673L166.21901785714286,195.0719609975916L166.41595982142857,191.08014893296084L166.61290178571429,189.49461868240158L166.80984375,181.68461432305486L167.20372767857143,183.49937100449517L167.79455357142857,183.4775527182519L168.58232142857142,188.3157486443551L168.77926339285713,189.3753137420385L169.56703124999999,187.29076115119625L170.15785714285713,187.446524129475L170.945625,191.512772207287L171.53645089285715,187.2082858259254L171.73339285714286,188.71938906354526L171.93033482142857,189.31869833870323L172.1272767857143,189.50629468742457L172.32421875,182.5234375970564L172.71810267857143,181.41919483997077L172.91504464285714,181.25322522866986L173.11198660714285,183.9603573751588L173.7028125,181.60658904530877L173.8997544642857,180.93978163113752L174.09669642857145,183.83418256600558L174.49058035714287,187.2399010859368L174.88446428571427,191.97890449558605L175.08140625000001,189.58297823142453L176.46,188.51526463211263L177.05082589285715,189.37220009734128L177.83859375,191.64079470504933L178.42941964285714,193.54069047306527L178.82330357142857,191.84129196128694L179.2171875,193.56982855421938L180.00495535714285,195.91015747739596L180.7927232142857,196.50403042750588L181.38354910714284,194.21757969583672L181.58049107142858,196.8360258399151L181.77743303571427,187.92769261858453L181.974375,191.63246350987822L183.1560267857143,180.90089409966666L184.33767857142857,183.24422745845442L184.73156250000002,188.12983066539013L184.9285044642857,185.56902875003894L185.7162723214286,188.58639089784296L186.3070982142857,186.31614796934602L186.50404017857142,187.93553093907641L187.09486607142858,184.77217601982224L187.29180803571427,182.86763870226054L187.48875,185.760576945818L187.8826339285714,178.41161336649722L188.27651785714286,175.32641915710286L189.45816964285714,179.89866108406352L190.04899553571428,177.8119839921601L190.2459375,179.47604021033237L190.83676339285714,176.4148303050116L191.03370535714285,179.7723554431233L191.2306473214286,186.68535583786175L191.62453125,187.4218093522737L191.82147321428573,192.42309535457824L193.00312499999998,194.11765606148984L193.79089285714286,191.2198942804323L193.98783482142858,191.9005894997309L194.38171874999998,198.76294643375104L194.77560267857143,200.81736494694914L195.16948660714286,202.9010988774683L195.36642857142857,200.3056586584465L195.56337053571428,201.60906736248126L195.7603125,201.5184398807808L195.9572544642857,195.76814898722367L196.54808035714285,187.0177856264099L196.94196428571428,187.88196973142286L197.33584821428573,191.93016006412898L197.92667410714284,193.64141125502596L198.3205580357143,189.19102339812713L198.51749999999998,171.92363199727754L198.71444196428573,174.20905461106742L199.89609375,171.85542734079874L200.09303571428572,173.23315287189584L200.48691964285712,179.65363135508517L201.07774553571429,172.1829084782347L201.86551339285714,172.05951419522466L202.4563392857143,170.77005347622773L203.04716517857142,173.1589986935913L203.24410714285713,166.43477957208734L203.63799107142856,162.24905356054768L204.03187499999999,166.55094425054347L204.42575892857144,167.41315889642968L205.41046875,167.58261111534313L206.00129464285715,169.55335158758353L206.39517857142857,174.2410454326829L209.34930803571427,171.1058571083962L210.13707589285713,168.3143670861329L210.53095982142858,173.75876986723702L210.72790178571427,172.04044790071006L211.51566964285715,173.7831039205139L211.90955357142857,174.81990757665517L212.10649553571426,179.28883782756364L212.69732142857143,179.27389615535355L213.09120535714288,187.399106685661L213.48508928571428,191.65750650205445L214.07591517857145,194.82031366500598L214.46979910714285,193.0582462065164L214.66674107142856,195.20777412103683L215.06062500000002,196.11491095945485L215.84839285714284,196.15441045343587L216.63616071428572,194.39326250624708L218.01475446428572,198.17120394602148L218.21169642857143,199.0900635794232L218.40863839285714,201.3893400420666L218.60558035714286,197.0159697991288L218.99946428571428,200.33166647259148L219.59029017857142,195.26199631552115L219.78723214285714,195.43630155597424L219.98417410714285,200.32412936868226L220.57500000000002,199.15141910974904L220.7719419642857,203.05050923413205L220.96888392857142,207.8422499873685L221.16582589285716,208.29075751752993L222.74136160714286,206.8398963368156L222.93830357142858,208.8270980943988L223.52912946428572,211.02611930002172L224.9077232142857,211.90166595710636L225.49854910714285,212.71609424807772L227.07408482142858,217.70713620253045L227.2710267857143,219.94763634724865L227.66491071428572,210.66781071171138L227.8618526785714,212.27988492979L228.05879464285715,206.6577454595887L228.6496205357143,206.14060315142868L228.84656249999998,212.228869253841L229.24044642857143,209.39013979929584L229.63433035714286,209.3046985726298L230.61904017857142,200.2050027866445L230.81598214285717,200.04463144592845L231.60375,199.64086018251157L231.80069196428573,200.63926933220574L231.99763392857142,195.35296951632924L232.19457589285716,194.09293690363367L232.7854017857143,190.32057813074084L232.98234374999998,192.24103739675988L233.17928571428573,194.4655613061494L233.77011160714287,190.86097415432363L233.96705357142855,190.23848138731933L235.54258928571429,191.69299797201828L137.859375,195.45545246545512L138.25325892857143,187.19897385840804L138.64714285714285,183.322414522089L138.84408482142857,184.18589888555283L139.4349107142857,190.13753077284454L140.02573660714287,184.32947833378066L140.22267857142856,179.76994295584413L140.41962053571427,178.75650447352214L140.61656250000001,176.32226727837272L141.20738839285713,174.9526607556942L142.78292410714286,172.6568505542293L143.17680803571426,178.17346302956568L143.57069196428571,177.03684824086042L143.96457589285714,170.74117282682528L144.16151785714288,162.63261813329555L144.75234375,164.19612871910635L145.14622767857145,168.50359617956929L145.54011160714285,170.48427423470136L146.52482142857144,166.24022315983368L147.90341517857144,167.85872269446511L148.10035714285715,173.3917408992666L148.6911830357143,175.21642411278023L149.08506696428572,173.78269531836736L150.26671875000002,175.2975095727309L150.4636607142857,179.06257262887985L150.85754464285714,184.35043806664677L151.2514285714286,182.9061336089618L152.03919642857142,177.70514911973677L152.82696428571427,180.70957186826618L153.22084821428572,179.30185595906704L154.2055580357143,181.85769075908618L154.4025,186.47681536144046L154.59944196428572,186.3701628553391L155.9780357142857,191.75583442746998L156.17497767857142,185.07734121435468L157.35662946428573,184.52288020095486L158.14439732142858,184.62277457608369L158.3413392857143,188.69934916995945L158.53828124999998,184.0307337615892L160.31075892857143,184.22553329644035L160.70464285714286,188.42905017215298L161.29546875,188.68227136532752L162.47712053571428,194.23334860025943L162.6740625,189.33308432409873L163.46183035714284,185.49000973418882L164.05265624999998,187.31523059235442L164.24959821428573,191.01046778115392L164.44654017857144,185.2289839032902L165.03736607142855,185.09551699023066L167.20372767857143,185.66379607642523L167.79455357142857,191.38209416821937L168.38537946428573,187.1142669872949L168.58232142857142,184.16484978616373L168.77926339285713,186.93495522679567L169.3700892857143,192.11245813107635L169.56703124999999,191.47850301316566L169.76397321428573,190.23590472536173L172.71810267857143,188.72374151004868L173.30892857142857,175.24001316539528L173.7028125,172.9620540974049L173.8997544642857,167.3502621962235L174.29363839285713,171.48161043159843L174.49058035714287,170.22993848835833L175.08140625000001,170.978062374881L175.67223214285713,173.65785551176745L175.86917410714287,177.92385440686098L176.26305803571427,181.08515444838122L176.6569419642857,183.77471658666306L177.05082589285715,181.86212659428006L177.44470982142857,173.63449700469232L178.03553571428571,175.32455126469105L178.42941964285714,181.2099020396815L178.82330357142857,181.91769009110382L179.2171875,181.7816348214746L179.61107142857145,165.66723839858452L180.00495535714285,162.77180653519054L181.974375,163.46604821173074L182.76214285714283,163.3369407616219L183.54991071428572,158.5975399894632L183.74685267857143,162.64948062024607L183.94379464285714,168.51891134364914L184.33767857142857,166.6087253861912L184.9285044642857,164.91862517622448L185.51933035714285,170.28821716392878L185.91321428571428,173.74749541104077L186.50404017857142,165.16485317261558L187.68569196428572,167.1128851675748L188.07957589285715,164.4069084330242L188.47345982142858,160.1780191840508L188.6704017857143,164.28700539001582L189.26122767857143,162.8926498317445L189.45816964285714,168.69673996749245L189.65511160714286,171.09106237296706L190.2459375,179.72312307973345L191.82147321428573,181.52673791107762L192.8061830357143,183.57948467352492L193.20006696428572,185.83508089616868L194.38171874999998,185.73463501592423L195.16948660714286,181.43644167208527L195.36642857142857,182.1392588613762L195.56337053571428,176.80075466468907L195.7603125,171.37696801721296L196.94196428571428,170.89395354720057L197.53279017857142,177.80540034742253L198.91138392857144,180.347452737395L199.30526785714287,179.93207404269677L199.89609375,182.52200689161228L200.09303571428572,185.7318944970253L200.68386160714286,186.23157732868543L200.88080357142857,188.58723946379234L201.86551339285714,179.65822405436532L202.06245535714285,176.59991073438857L202.25939732142857,180.1417417515451L202.85022321428573,177.64473907809418L203.44104910714287,180.16827602647052L203.63799107142856,178.35680064425603L203.8349330357143,178.96671005517186L204.03187499999999,180.65716077316006L204.22881696428573,175.5407471785942L205.41046875,179.80255347569718L206.5921205357143,179.1730574108127L207.77377232142857,171.21071372454725L208.56154017857145,177.34719299057707L208.95542410714287,181.12555384708506L209.94013392857144,186.8068636309681L210.72790178571427,186.70420150448064L212.10649553571426,184.8493592326945L212.50037946428571,191.0685882777175L213.09120535714288,181.55236982835982L213.48508928571428,184.10794616513564L213.68203125,186.7370817378186L214.27285714285713,187.6790381759215L214.46979910714285,185.55366828681704L214.86368303571427,183.37928630211363L215.06062500000002,185.27908884329378L215.65145089285716,183.0119464108358L218.99946428571428,180.21812058312983L219.19640625000002,182.75483833146833L219.3933482142857,173.42545451160265L219.59029017857142,173.73625368640188L220.37805803571428,178.8175862296953L220.96888392857142,184.64097057216304L221.75665178571427,188.3792477759064L221.95359375,192.81384395143283L222.15053571428572,194.5674375758269L222.93830357142858,198.5373011135575L223.1352455357143,199.9426401852281L223.3321875,204.2622774422029L223.72607142857143,201.54376067124005L224.11995535714286,202.76045979991397L224.51383928571428,200.3936415437163L224.9077232142857,204.95231349151004L226.48325892857142,198.4484480552277L227.46796874999998,203.25765004124918L227.66491071428572,198.1273306532637L229.43738839285714,198.47976500866793L229.63433035714286,203.1052090598285L231.80069196428573,208.0303585152052L232.7854017857143,201.46170668584853L233.37622767857144,198.71009866932906L233.57316964285715,200.85155539627516L234.1639955357143,204.1064620482311L234.55787946428572,204.55088002324763L234.75482142857143,205.91882221003522L236.33035714285714,208.47690910992836L236.52729910714285,204.46974890181343L236.72424107142857,208.1717600853739L236.9211830357143,210.6564282924082L237.51200892857142,209.24132023379389L237.90589285714287,211.91339962503415L238.10283482142856,210.31572564024538L238.2997767857143,210.8603523850468L239.8753125,209.59740831314895L240.86002232142857,203.05879599414368L241.0569642857143,203.12888356679713L241.64779017857143,210.957210664024L243.02638392857145,211.80951392439135L243.42026785714287,210.21387494004688L245.3896875,212.75934583920608L246.37439732142857,218.89650180968079L246.57133928571426,216.78518964528863L246.96522321428571,218.35023826754616L247.16216517857143,220.03672277408245L248.3438169642857,215.4458591352076L248.54075892857145,206.949856261347L249.7224107142857,210.53625846400894L249.91935267857144,214.52669669858255L251.69183035714283,212.4419995704034L252.47959821428572,209.45561808056746L252.87348214285714,212.92619752906532L253.66125000000002,214.23326671145352L255.43372767857142,217.89310687206046L255.82761160714284,216.17826410283985L256.41843750000004,216.39963306131833L256.8123214285714,215.36901064401363L257.0092633928571,215.28872329693243L257.9939732142857,217.9227910555073L258.5847991071428,217.13866331684784L259.5695089285714,208.1536618469272L259.9633928571429,203.88146013598973L260.75116071428573,206.76155118597296L261.14504464285716,205.8779086413977L261.34198660714287,206.6482188796858L261.5389285714286,211.6276567192015L261.9328125,216.6593461832055L262.32669642857144,212.25628204748634L263.31140625,211.65923423196122L263.90223214285714,212.75445335799563L264.29611607142857,214.33935990343073L264.8869419642857,214.37546812781795L265.47776785714285,214.78769347592882L266.2655357142857,214.32356200266292L266.85636160714284,217.80853386686542L267.6441294642857,214.06506030328725L267.8410714285714,213.92086037535725L268.0380133928572,213.06599687051997L269.4166071428571,214.81881007936337L269.81049107142854,218.85908371724372L270.20437499999997,223.7047649283422L270.7952008928571,221.6378909206628L270.9921428571429,218.00494907333518L272.1737946428571,220.06604266695658L272.3707366071429,222.6371104648311L273.1585044642857,223.81124470771115L273.9462723214286,225.85322131548142L274.5370982142857,230.47839837017008L274.73404017857143,232.821875783854L274.93098214285715,233.5221497400611L275.12792410714286,229.06587171701506L275.5218080357143,234.4477553381595L276.1126339285714,234.85712854995043L277.4912276785714,231.72176602370462L277.68816964285713,226.00266497475292L278.6728794642857,227.8027986832989L279.0667633928572,230.254013262303L279.2637053571429,228.7700765132957L279.46064732142855,223.21406847238902L281.23312500000003,227.41869386136977L282.0208928571429,224.87718154684075L282.2178348214286,226.16442753484463L282.41477678571425,225.07767141193216L282.61171874999997,220.54253774596722L283.00560267857145,221.14579187063185L283.9903125,224.1887253653653L284.18725446428573,226.03677052905834L284.58113839285716,227.90571959930833L284.77808035714287,225.79879841121263L284.9750223214286,224.92152054376L285.5658482142857,227.08809262219378L285.95973214285715,227.61780311483295L286.15667410714286,225.77825333403766L286.3536160714285,225.94390824279054L288.12609375,228.51217754184057L288.71691964285714,226.89982280655596L290.48939732142856,225.0525754158465L291.67104910714284,225.1346366436809L291.86799107142855,224.32494598924634L293.0496428571429,222.88432179674047L293.2465848214286,220.79424284145523L293.4435267857143,220.3884378029209L293.8374107142857,221.27080500579248L295.0190625,225.1930087788262L296.2007142857143,233.39786141357774L296.39765625,236.38498404800777L297.9731919642857,236.32064724585305L298.17013392857143,241.00829001059017L298.76095982142857,240.84735540946707L299.3517857142857,245.61601709703987L300.13955357142856,239.6369706214601L300.53343750000005,243.03315563302024L301.32120535714284,240.15868748759965L302.5028571428572,236.03467821736055L303.29062500000003,236.17490287697294L303.48756696428575,239.0095549689948L304.07839285714283,244.75332198678063L304.4722767857143,244.32427362235063L305.06310267857145,246.65243037790162L305.85087053571425,249.09719030298396L306.24475446428573,253.1761217576835L306.6386383928571,251.13674814298204L306.8355803571428,253.10507762883833L307.0325223214286,255.42671576571468L308.4111160714286,257.21367680093056L308.805,256.4901137084502L309.0019419642857,250.4926497920552L310.18359375,241.65256975740067L310.3805357142857,243.29757906116427L310.5774776785714,244.6183622346472L310.97136160714285,233.4477350794118L311.3652455357143,230.29611961431294L313.7285491071429,231.8982657190924L315.5010267857143,234.9766702470111L316.28879464285717,236.50406983555163L317.27350446428574,233.04240189103038L317.47044642857145,234.1697086334465L318.45515625,236.6785926628338L318.65209821428573,236.2184510526871L318.8490401785714,237.7708947701181L319.6368080357143,241.37048789667884L319.83374999999995,237.00404449072883L321.0154017857143,238.14192958652L321.80316964285714,240.69746018429683L322.00011160714286,236.84891739816544L322.19705357142857,238.03036741181742L322.5909375,240.3299714682133L322.78787946428577,234.29164843954132L323.77258928571433,232.5097946895919L324.3634151785714,229.78562484036615L324.7572991071429,233.47357231138346L325.348125,236.76790116499157L325.9389508928571,236.61235827959368L326.5297767857143,237.81916960297968L326.9236607142857,239.30232697137203L328.10531249999997,239.76287519075075L328.3022544642857,240.89748388310986L328.69613839285716,239.22602101059437L329.09002232142853,235.14547826942902L330.8625,231.6319624621892L331.05944196428567,232.90991984578594L331.25638392857144,231.7238167825738L331.45332589285715,228.864504252695L334.21051339285714,227.05812143393533L334.99828125000005,229.4454777752635L335.78604910714284,232.29392351006595L335.9829910714286,230.70230854183797L336.5738169642857,230.75361200569924L336.77075892857147,224.71309460579266L337.36158482142855,225.85866167058518L337.75546875000003,228.59445471181937L338.1493526785714,231.68128719015667L339.13406249999997,233.3585156696991L339.72488839285717,236.3549004845876L340.11877232142854,238.08283898735115L340.31571428571425,239.71846003561078L340.70959821428573,242.56278267172402L341.3004241071428,248.62079542412414L341.89125,248.6436409936087L342.2851339285714,250.1493994460951L342.8759598214286,247.4202337168781L343.4667857142857,249.08226651231163L343.66372767857143,253.2046520766192L344.2545535714286,257.1078281098351L344.8453794642857,250.91638729066227L346.4209151785714,250.28142181273344L346.61785714285713,254.11814851834623L347.0117410714286,257.54418458054994L347.9964508928572,255.27720534438888L348.98116071428575,258.65904472125817L349.17810267857146,261.90880732894533L349.3750446428571,256.5850373278315L349.76892857142855,247.22480311013683L349.9658705357143,249.57352546569268L350.3597544642857,252.3551730983528L350.75363839285717,248.52071176761572L351.34446428571425,248.96375710422282L351.54140624999997,246.71257883629954L352.3291741071428,239.5758060336676L353.3138839285714,238.63723887746912L353.70776785714287,234.21000764229007L354.88941964285715,233.86168954357706L355.08636160714286,235.17911028967242L355.2833035714285,234.26035665373655L355.4802455357143,228.84173822557545L355.6771875,229.54213683752064L356.26801339285714,232.56380109092058L356.66189732142857,233.63433091933965L357.25272321428577,232.43289312760692L357.4496651785714,226.28944094368447L358.04049107142856,222.42840767919216L358.434375,217.74181214340763L358.8282589285714,220.11494292219317L359.02520089285713,220.33016404638533L359.2221428571429,222.56844486269702L360.0099107142857,227.11247545083054L360.79767857142855,229.62202349225385L360.9946205357143,233.85191992296495L361.19156250000003,232.24638189877103L361.9793303571429,234.79108792647503L362.1762723214286,239.91301891604607L362.57015624999997,242.58342343498833L362.7670982142857,244.4909066402226L363.16098214285716,253.77698556196134L363.3579241071429,253.10225271414586L363.55486607142853,249.3398758219612L363.94875,247.82844536151347L364.14569196428573,250.44069643232783L364.5395758928571,254.76281849585862L365.1304017857143,256.921125491865L365.52428571428567,258.5584043784808L365.72122767857144,259.9787761765399L366.9028794642857,253.41424665230457L367.09982142857143,260.1544146707559L367.29676339285714,264.13976778212776L368.08453125,267.9341244552773L368.4784151785715,270.00340105111695L368.87229910714285,264.1978293395493L369.6600669642857,262.88607200877175L371.0386607142857,263.0201744561542L371.62948660714284,268.01048181343987L372.02337053571426,266.49952023421207L372.41725446428575,260.47770670190204L372.6141964285714,259.7048991618357L373.4019642857143,263.2974223149729L373.7958482142857,269.7500943243769L373.99279017857145,259.0443226680412L374.18973214285717,259.87995598475055L374.78055803571425,257.4002806094479L374.9775,257.1956061919364L375.5683258928571,258.48201380767824L375.7652678571428,258.5749647187043L376.35609375,257.86847519363033L376.94691964285715,260.28600650539806L377.7346875,259.1903781695691L378.9163392857143,257.45027292304746L379.11328125,259.955447351007L379.70410714285714,257.56546666951476L379.90104910714285,260.414820994883L380.2949330357143,264.16493742232694L380.6888169642857,263.42041924135805L380.8857589285714,263.8377972365427L381.27964285714285,258.1259547437188L381.4765848214286,259.6163246300528L381.87046875,261.50287938548877L382.0674107142857,255.5430381219791L382.2643526785714,255.3719754740741L382.4612946428572,258.93056998440517L382.85517857142855,259.31386726796086L383.2490625,257.59658188834266L383.44600446428575,260.4516127611573L384.23377232142855,260.96377581359025L384.4307142857143,262.6194612771374L384.8245982142857,262.27206567929153L385.4154241071429,254.66485811676253L385.80930803571425,252.75492167607325L386.40013392857145,258.77202311881985L388.76343749999995,266.66032020392186L389.55120535714286,260.4370869133379L390.14203125,254.8571582363875L391.12674107142857,255.93474648202357L391.520625,257.4926172406937L392.11145089285714,253.5638541793716L393.2931026785714,251.3882554883855L393.49004464285713,253.3395961214446L393.88392857142856,253.37246022272868L394.4747544642857,252.02276583479164L395.06558035714284,253.96897201307618L395.26252232142855,252.16643083830274L395.4594642857143,255.37236193520442L397.2319419642857,251.3242885581402L397.42888392857145,249.42647050779667L397.62582589285716,251.29512522432725L397.8227678571429,249.07623793207452L398.2166517857143,244.60474958664878L398.61053571428573,247.09943741077547L399.20136160714287,249.94794235069213L400.18607142857144,254.4679320510897L400.57995535714286,258.30092456577614L400.7768973214286,258.76836804257306L400.97383928571423,253.95621340196482L401.17078125,250.0202985315034L402.7463169642857,249.3775211337292L404.51879464285713,252.73066324739952L405.5035044642857,259.3045110206984L407.0790401785714,255.7166459566478L407.2759821428571,258.5947424298344L407.8668080357143,258.3876776754386L408.65457589285717,261.3371079262645L409.24540178571425,261.5985061806165L410.0331696428571,263.258148532871L410.6239955357143,268.7241033918414L411.2148214285714,265.967579904836L411.41176339285715,267.052129900912L411.60870535714287,268.0488418148325L412.0025892857143,261.9581238146671L413.578125,263.13186069034L413.9720089285714,260.86865916964746L414.36589285714285,259.77994208297594L414.7597767857143,262.4930830689608L415.74448660714285,266.3074244198921L416.7291964285714,265.8967499256965L418.3047321428571,272.56677158125194L418.50167410714283,268.34901854868286L418.69861607142855,264.98977396489954L419.4863839285714,268.82838798882244L420.0772098214286,270.9805920129577L420.66803571428574,274.290264022875L422.2435714285714,276.09097291817443L422.63745535714287,275.2646607329515L423.4252232142857,277.51398677642777L423.62216517857144,270.7939849263912L423.81910714285715,272.40816522719075L424.01604910714286,272.9238962633167L424.4099330357143,272.036580420297L424.8038169642857,274.8992158491647L425.39464285714286,274.58671503099544L425.98546875,276.2336754658929L426.18241071428577,271.9941438541964L426.57629464285714,274.97474822211746L426.97017857142856,276.2307105418847L428.34877232142856,275.74659753828905L429.13654017857147,275.6942128632483L429.53042410714284,278.32252440445785L429.9243080357143,279.5808706592868L430.3181919642857,273.98444855767315L430.5151339285714,274.9393328898146L430.9090178571429,275.32249238782566L431.49984374999997,275.5567729846514L431.89372767857145,276.8175450560533L432.48455357142853,274.69583172174583L432.8784375,273.96442319992855L433.4692633928571,278.4700329019774L433.66620535714287,280.73447068616167L433.8631473214286,275.7890096354503L435.8325669642857,275.54670967018774L436.02950892857143,276.59299584118884L436.42339285714286,276.79525899583047L436.62033482142857,274.05561792561656L436.8172767857143,277.96242198073645L437.01421875,279.34414876587783L437.60504464285714,280.5919537825705L437.80198660714285,281.6821569233294L438.1958705357143,280.64286833680643L438.7866964285714,283.3050886570724L439.18058035714284,273.14471360349125L439.57446428571427,275.2678245791624L439.9683482142857,275.1941647335279L441.7408258928571,274.63070111812834L441.93776785714283,271.7572997597316L442.52859374999997,264.91851581117373L442.92247767857145,270.86885806651725L443.3163616071429,269.8142053414903L443.71024553571425,266.08962781062183L444.10412946428573,251.12033161410622L444.30107142857145,251.87477455183355L444.8918973214286,255.0096898750689L446.07354910714287,256.3483008784468L446.2704910714286,260.5040727089142L447.05825892857143,258.75582577474717L447.6490848214286,265.301643470957L448.2399107142857,270.31193919085706L448.63379464285714,269.78401398805863L448.83073660714285,271.5708234681754L449.6185044642857,275.4772181983158L450.4062723214286,278.6547370882428L450.9970982142857,279.6269471809285L451.1940401785714,274.5246144569681L451.3909821428572,273.3339273189433L451.5879241071429,272.48369301678554L452.17875,274.5389531796746L452.96651785714283,275.1156569965971L453.3604017857143,270.5566271956641L454.14816964285717,271.55570759525733L454.3451116071429,271.93899909499584L454.73899553571425,272.9444007103754L454.93593749999997,273.100503609961L455.92064732142853,276.02649845090156L456.51147321428573,271.705173213644L456.7084151785714,275.5400876257767L457.10229910714287,270.9674140702935L457.4961830357143,270.4329907582889L457.8900669642857,266.83739584111726L458.08700892857144,270.4664623712737L458.6778348214285,271.70186789994204L458.8747767857143,271.37397679643357L459.2686607142857,274.7977910410235L459.85948660714286,271.22325564546645L460.05642857142857,266.9605989085347L460.4503125,263.81719638162605L461.63196428571433,263.59978402844126L462.2227901785714,263.9344262414327L462.81361607142856,259.78618188763585L463.01055803571427,263.4766167030899L463.7983258928571,259.5473863070072L464.9799776785714,260.25808612064696L467.54022321428573,261.58185307163365L468.3279910714286,266.35979345619126L468.721875,268.59763595482184L469.7065848214286,271.2599437313223L470.2974107142857,271.0268248988288L470.69129464285714,271.1021470049463L471.4790625,271.10293202683033L472.46377232142856,270.6993519547628L473.2515401785714,271.3425957122341L474.03930803571427,271.3599420637836L474.63013392857147,272.83507931613946L476.40261160714283,273.85420629744544L477.58426339285717,273.4975902666309L479.5536830357143,270.88605525574843L479.750625,274.4382365818586L479.9475669642857,272.79251036067586L480.53839285714287,266.36429038215476L480.7353348214286,267.3140514556603L481.72004464285715,268.49865737267675L482.1139285714286,271.48214044146664L482.9016964285714,271.85568959786775L483.09863839285714,273.95904757689004L483.29558035714285,271.7380831798418L483.49252232142857,279.03323206230783L483.6894642857143,280.3139639862234L483.88640625,278.083664532449L484.0833482142857,276.30251044248433L485.6588839285714,272.4872871925845L486.24970982142855,272.5617866015328L487.43136160714283,273.3171970368523L488.2191294642857,269.6538104439818L490.1885491071428,266.3930908614189L490.38549107142853,262.80344506354146L490.5824330357143,260.54747436084807L491.9610267857143,260.15545458949146L492.94573660714286,262.61325662522233L493.5365625,262.8526616526571L493.93044642857143,265.0129802874009L494.12738839285714,250.5233339566704L494.32433035714286,246.9112644725819L494.52127232142857,245.79439249307816L495.3090401785714,251.13292814033588L496.88457589285713,247.86491188506767L497.0815178571429,246.17483983283708L497.67234375,247.10974925511275L498.06622767857147,253.44889828031802L498.2631696428571,259.89612628462186L498.65705357142855,261.9344908135152L499.6417633928571,267.46498633128067L501.02035714285716,266.1917524403987L501.41424107142853,267.6140896144832L502.00506696428573,268.87495989801073L502.3989508928571,262.9488802933842L503.38366071428567,260.97692787398324L503.97448660714286,260.58174275519406L504.5653125,260.88781863852194L506.3377901785715,265.17733879172454L506.53473214285714,265.63370031435755L507.1255580357143,269.93612319830544L507.7163839285714,269.96709628376686L508.11026785714284,271.50154932041625L508.3072098214286,265.751306821055L509.48886160714284,268.96855314839814L510.07968750000003,264.2169805830269L510.27662946428575,263.6343833687178L510.6705133928571,261.16294988772853L511.2613392857143,267.6996171945582L511.6552232142857,268.69384778445334L512.0491071428571,271.4167787100881L512.6399330357143,270.86821596152674L512.8368750000001,275.56288998038315L513.0338169642857,274.32940142428083L514.4124107142857,272.6513507427916L515.3971205357143,271.1657523094652L515.7910044642857,273.4709716310189L515.9879464285714,266.47385055686846L516.1848883928571,260.1909571937971L516.97265625,261.7055698622903L517.1695982142857,255.57490114471895L518.1543080357143,259.14762479361406L518.3512499999999,262.41368863564406L519.1390178571428,261.2888007889449L519.72984375,262.6501678917553L519.9267857142858,263.5694569109935L520.3206696428572,263.71076622715645L521.6992633928571,260.31916335776947L521.8962053571429,262.274314365563L522.8809151785714,259.05933622090856L525.24421875,264.70444494277626L526.2289285714286,267.51265614729004L526.6228125,264.68559721535274L526.8197544642858,271.3278304423346L527.4105803571429,271.0887512943329L527.6075223214285,271.77810652575124L529.38,279.93843029683L530.5616517857143,274.74030212171783L531.3494196428571,276.8059814793619L531.5463616071429,280.3900561751539" style="fill: none;" fill="none"></path></g></g></g></g><g opacity="0.2"><g><g><g><path stroke="rgb(255, 112, 67)" stroke-width="2px" d="M47.26607142857143,-97.22389411926274L47.659955357142856,107.44492578506465L48.05383928571429,-263.68594837188726L48.250781249999996,11.744037151336642L48.64466517857143,116.0883979797363L49.826316964285716,14.36959791183466L50.02325892857143,-93.32901191711429L50.22020089285714,-71.11909103393559L50.417142857142856,53.01345634460444L50.61408482142858,10.30914115905756L52.18962053571428,73.52657604217525L52.78044642857142,57.454829692840555L53.37127232142857,-54.09820747375497L53.765156250000004,-19.274379730224666L53.96209821428571,19.674542427062942L54.946808035714284,63.65453767776486L56.52234375,20.902607917785627L56.71928571428571,36.57946872711179L57.9009375,-47.05405426025393L59.47647321428572,56.48661661148068L60.06729910714286,120.6973485946655L60.26424107142857,15.860620021820017L61.642834821428565,-125.82798671722415L62.23366071428571,205.280158996582L62.627544642857146,-57.76397895812992L64.20308035714285,-7.929293632507343L64.79390624999999,114.8358993530273L64.99084821428572,70.592396736145L66.76332589285714,109.41604900360106L67.15720982142858,177.38167333602905L67.35415178571428,15.863073348998995L67.55109374999999,91.28606128692623L68.9296875,98.77171325683592L69.91439732142857,42.20750141143797L70.30828125000001,-26.011166095733643L70.50522321428572,53.479688644409144L71.29299107142857,22.726681709289533L72.27770089285714,62.994392395019496L72.47464285714285,208.12932300567624L73.06546875000001,83.5765056610107L74.24712053571429,-5.745932579040602L74.4440625,122.23388242721555L74.83794642857143,54.74230098724362L75.42877232142857,139.16259098052976L75.82265625000001,83.15853881835936L76.01959821428571,-44.81331539154058L76.41348214285713,48.43539762496946L76.80736607142858,123.09349822998045L77.00430803571429,126.19971084594724L78.3829017857143,-18.890709400177077L79.95843749999999,74.23453617095943L80.15537946428572,221.73968124389648L80.35232142857143,13.149593353271447L81.14008928571428,53.3326892852783L83.10950892857143,163.45673847198483L83.30645089285714,228.05629777908322L83.70033482142857,42.40877437591548L84.48810267857144,40.32645034790035L85.07892857142856,25.157177925109814L85.27587053571428,110.34210491180419L85.4728125,136.86106967926023L86.06363839285714,57.954357147216754L88.42694196428572,161.31883907318115L89.60859375,254.12690448760986L90.19941964285714,100.62082099914548L90.59330357142858,139.21786594390866L90.79024553571429,68.58071851730342L91.18412946428572,24.836593151092497L91.97189732142857,199.4393377304077L92.75966517857142,110.69803762435912L93.15354910714285,63.08862018585201L94.13825892857143,68.37448883056639L96.89544642857143,153.38237571716306L97.88015625,162.99801635742185L98.07709821428571,254.5395140647888L98.86486607142858,238.43181896209717L99.06180803571428,72.78667259216304L99.84957589285715,89.85051441192626L100.04651785714286,-51.703359603881864L100.44040178571429,179.50535345077515L101.03122767857143,125.97530651092526L102.01593749999999,67.99597549438475L102.21287946428572,49.629917621612535L102.40982142857143,206.14443111419675L103.39453125,-20.10841083526613L103.59147321428571,236.81858110427856L103.78841517857143,59.91957235336299L104.37924107142857,89.67367458343503L106.15171875,-25.59354972839363L106.54560267857144,-151.3316745758057L107.72725446428572,146.5580205917358L108.90890625,177.51189994812012L109.10584821428571,141.2404589653015L110.28750000000001,196.16309452056885L110.87832589285713,97.48997497558591L111.66609375,41.771209716796825L112.45386160714285,161.92506122589108L112.8477455357143,86.96029472351073L113.63551339285715,65.06520080566405L113.83245535714286,26.941297531127905L114.02939732142858,168.45251369476316L114.42328124999999,233.24939060211182L115.40799107142858,125.50877380371092L116.39270089285715,144.82947635650632L116.58964285714286,225.04241037368774L116.78658482142858,247.8054814338684L119.74071428571428,211.6898517608642L121.11930803571428,96.30867290496825L122.30095982142856,62.186847209930384L122.49790178571429,261.28941822051996L122.89178571428572,191.74310016632074L123.28566964285713,256.28638315200806L124.0734375,170.83068895339966L125.84591517857142,136.56962442398068L126.23979910714286,221.63403797149658L126.43674107142857,70.84103393554682L127.02756696428571,182.34024810791016L128.20921875000002,163.77757358551023L129.7847544642857,102.27811861038205L129.98169642857144,202.90819215774536L130.57252232142858,249.80394172668457L130.7694642857143,63.84184169769285L132.5419419642857,95.26215362548825L132.73888392857143,174.0246706008911L134.90524553571427,206.51343154907224L135.49607142857144,21.04940700531001L135.69301339285715,115.13275194168088L136.08689732142855,218.9771347045898L136.48078125,301.3130979537964L139.23796875,238.17176628112793L140.22267857142856,-79.44017601013188L140.61656250000001,141.92353534698486L141.20738839285713,149.30074024200437L141.60127232142858,172.62407112121582L142.58598214285715,127.18434619903562L142.78292410714286,2.3458914756774387L143.96457589285714,152.4667840003967L144.35845982142857,234.49768352508542L144.55540178571428,63.75442314147947L144.9492857142857,137.83529090881345L145.14622767857145,134.64246082305905L145.73705357142856,117.560694694519L146.13093750000002,210.2770357131958L147.11564732142858,157.36667919158933L147.31258928571427,255.02362060546875L149.08506696428572,183.0639295578003L149.47895089285714,184.27922773361206L150.26671875000002,103.21744251251219L150.4636607142857,171.53429317474362L150.66060267857142,24.08927965164183L151.44837053571428,192.50363159179685L152.23613839285716,193.13739109039307L152.43308035714284,164.40041828155515L153.02390625,141.84352684020993L153.4177901785714,132.19594287872312L153.61473214285715,-22.399818420410213L153.81167410714286,99.45784378051754L154.00861607142858,167.44654941558838L154.2055580357143,135.20382213592526L154.4025,273.77284812927246L154.79638392857143,141.1464314460754L154.99332589285714,140.6870584487915L155.9780357142857,252.0511393547058L156.17497767857142,292.2521095275879L156.96274553571428,171.2747411727905L157.55357142857142,42.85327720642088L157.94745535714284,221.70072841644287L159.12910714285715,258.11030673980713L159.52299107142858,281.65944385528564L160.50770089285714,298.4509663581848L161.29546875,149.23775482177732L161.4924107142857,265.3051142692566L161.88629464285717,256.18549633026123L164.24959821428573,208.98908901214597L165.62819196428572,229.2948775291443L165.82513392857143,325.9959225654602L166.21901785714286,256.7310361862182L166.41595982142857,115.24089860916135L166.61290178571429,159.37149810791013L166.80984375,33.30367612838741L167.20372767857143,217.97772932052612L167.79455357142857,183.0630283355713L168.58232142857142,280.2366142272949L168.77926339285713,209.50604009628296L169.56703124999999,147.68615055084226L170.15785714285713,190.40588665008542L170.945625,268.7681608200073L171.53645089285715,105.42638826370238L171.73339285714286,217.42923545837402L171.93033482142857,200.7051544189453L172.1272767857143,193.0705003738403L172.32421875,49.85357093811032L172.71810267857143,160.43924617767334L172.91504464285714,178.09989738464355L173.11198660714285,235.3943996429443L173.7028125,136.88620376586914L173.8997544642857,168.27076721191406L174.09669642857145,238.82645416259763L174.49058035714287,251.94704818725586L174.88446428571427,282.0179800987243L175.08140625000001,144.06133460998535L176.46,168.2291107177734L177.05082589285715,205.6536655426025L177.83859375,234.7433166503906L178.42941964285714,229.63809299468994L178.82330357142857,159.55324459075928L179.2171875,226.41151714324948L180.00495535714285,240.3757553100586L180.7927232142857,207.7874593734741L181.38354910714284,150.77559041976926L181.58049107142858,246.58587741851804L181.77743303571427,18.671381950378382L181.974375,262.02231216430664L183.1560267857143,-22.99672794342044L184.33767857142857,227.7671055793762L184.73156250000002,280.95538902282715L184.9285044642857,136.91424179077146L185.7162723214286,245.91576862335202L186.3070982142857,143.18189191818234L186.50404017857142,218.70356369018555L187.09486607142858,124.6688847541809L187.29180803571427,146.6816883087158L187.48875,240.72603034973142L187.8826339285714,38.782206058502155L188.27651785714286,116.70808839797971L189.45816964285714,266.770751953125L190.04899553571428,138.16533851623532L190.2459375,211.09294223785398L190.83676339285714,118.25213241577147L191.03370535714285,243.56503057479858L191.2306473214286,318.0317716598511L191.62453125,201.41436624526975L191.82147321428573,287.44714307785034L193.00312499999998,226.31418514251706L193.79089285714286,136.1626224517822L193.98783482142858,204.83375358581543L194.38171874999998,329.1472964286804L194.77560267857143,239.8511939048767L195.16948660714286,242.491925239563L195.36642857142857,150.99243450164792L195.56337053571428,226.37376594543457L195.7603125,199.79652214050293L195.9572544642857,86.5128879547119L196.54808035714285,20.761266231536833L196.94196428571428,204.30143165588376L197.33584821428573,268.84561586380005L197.92667410714284,226.15511941909787L198.3205580357143,104.63381338119505L198.51749999999998,-156.15621757507333L198.71444196428573,217.6320104598999L199.89609375,127.13658142089841L200.09303571428572,199.40989780426025L200.48691964285712,301.6425447463989L201.07774553571429,30.239370346069308L201.86551339285714,169.71502590179443L202.4563392857143,146.27033042907712L203.04716517857142,218.54890394210815L203.24410714285713,38.674760341644266L203.63799107142856,82.72034454345699L204.03187499999999,248.2867841720581L204.42575892857144,183.79522132873535L205.41046875,170.80220031738278L206.00129464285715,206.99738788604733L206.39517857142857,263.30715465545654L209.34930803571427,111.5373258590698L210.13707589285713,115.2760963439941L210.53095982142858,277.2023491859436L210.72790178571427,139.39235258102414L211.51566964285715,206.8935470581054L211.90955357142857,194.5191650390625L212.10649553571426,264.1984634399414L212.69732142857143,178.99000453948975L213.09120535714288,341.7780261039734L213.48508928571428,272.56706285476685L214.07591517857145,254.91362142562863L214.46979910714285,159.5789794921875L214.66674107142856,236.04878711700437L215.06062500000002,213.35050392150876L215.84839285714284,196.90490055084229L216.63616071428572,160.93146371841428L218.01475446428572,269.9520664215088L218.21169642857143,216.54839086532593L218.40863839285714,245.07557916641235L218.60558035714286,113.92195987701413L218.99946428571428,263.3298854827881L219.59029017857142,98.93828916549678L219.78723214285714,198.7481002807617L219.98417410714285,293.19283533096313L220.57500000000002,176.86992931365964L220.7719419642857,277.13320541381836L220.96888392857142,298.8853054046631L221.16582589285716,216.8123989105224L222.74136160714286,179.27353906631467L222.93830357142858,246.58392477035522L223.52912946428572,252.80751514434814L224.9077232142857,228.5370497703552L225.49854910714285,228.19022941589353L227.07408482142858,312.53691959381104L227.2710267857143,262.5171332359314L227.66491071428572,34.351146697998026L227.8618526785714,242.909291267395L228.05879464285715,99.83710813522336L228.6496205357143,196.31490039825437L228.84656249999998,327.90591287612915L229.24044642857143,155.45428562164304L229.63433035714286,207.6813154220581L230.61904017857142,27.310798645019506L230.81598214285717,196.99757623672483L231.60375,191.96920680999753L231.80069196428573,219.6090416908264L231.99763392857142,94.91328048706052L232.19457589285716,170.15231895446775L232.7854017857143,118.6457662582397L232.98234374999998,228.72976112365723L233.17928571428573,236.73151302337646L233.77011160714287,122.37382221221922L233.96705357142855,178.41111946105954L235.54258928571429,219.32881164550778L137.859375,266.94208431243896L138.25325892857143,30.325887680053683L138.64714285714285,109.66779041290279L138.84408482142857,200.5921010971069L139.4349107142857,303.2185320854187L140.02573660714287,73.97648620605467L140.22267857142856,93.13877391815183L140.41962053571427,159.50117397308347L140.61656250000001,130.0717620849609L141.20738839285713,148.93013763427734L142.78292410714286,129.03645801544187L143.17680803571426,282.9890971183777L143.57069196428571,155.44116783142087L143.96457589285714,51.12334299087522L144.16151785714288,8.570082664489703L144.75234375,193.90282917022705L145.14622767857145,250.3454761505127L145.54011160714285,208.1171565055847L146.52482142857144,85.60325431823728L147.90341517857144,198.6102132797241L148.10035714285715,278.5190849304199L148.6911830357143,209.88540458679196L149.08506696428572,146.54184865951538L150.26671875000002,204.07897996902466L150.4636607142857,250.5987696647644L150.85754464285714,284.8198800086975L151.2514285714286,155.46434926986691L152.03919642857142,78.88644504547116L152.82696428571427,237.79360342025757L153.22084821428572,152.55525398254395L154.2055580357143,230.41855144500732L154.4025,274.2401819229126L154.59944196428572,184.34376525878903L155.9780357142857,294.0835933685303L156.17497767857142,58.18597126007076L157.35662946428573,173.98812103271484L158.14439732142858,186.5207676887512L158.3413392857143,266.1542658805847L158.53828124999998,95.32704162597653L160.31075892857143,187.9267244338989L160.70464285714286,268.29587030410767L161.29546875,193.4934740066528L162.47712053571428,299.7038154602051L162.6740625,96.22806358337401L163.46183035714284,112.47159290313716L164.05265624999998,221.99442672729487L164.24959821428573,261.2199740409851L164.44654017857144,75.38079071044918L165.03736607142855,182.559645652771L167.20372767857143,196.46109867095947L167.79455357142857,300.0297574996948L168.38537946428573,106.02555084228511L168.58232142857142,128.12592315673828L168.77926339285713,239.5669584274292L169.3700892857143,290.4850130081177L169.56703124999999,179.43335580825806L169.76397321428573,166.62653732299805L172.71810267857143,159.9926404953003L173.30892857142857,-80.95082473754884L173.7028125,129.68083190917966L173.8997544642857,60.72621631622313L174.29363839285713,249.97722673416138L174.49058035714287,146.4481716156006L175.08140625000001,185.19241619110105L175.67223214285713,224.57392501831052L175.86917410714287,258.9778332710266L176.26305803571427,241.14985513687134L176.6569419642857,234.8763971328735L177.05082589285715,145.5229167938232L177.44470982142857,17.309535026550265L178.03553571428571,207.4355821609497L178.42941964285714,293.03156661987305L178.82330357142857,195.36566305160522L179.2171875,179.19658470153806L179.61107142857145,-140.506293296814L180.00495535714285,107.75860118865963L181.974375,176.6566400527954L182.76214285714283,160.88389921188354L183.54991071428572,68.54892539978025L183.74685267857143,239.6363525390625L183.94379464285714,280.038094997406L184.33767857142857,130.3151922225952L184.9285044642857,132.8067212104797L185.51933035714285,272.31046485900873L185.91321428571428,239.4737820625305L186.50404017857142,2.0946507453918177L187.68569196428572,204.12549304962158L188.07957589285715,112.99335050582881L188.47345982142858,79.82912349700925L188.6704017857143,242.3577432632446L189.26122767857143,136.39989423751828L189.45816964285714,278.97445249557495L189.65511160714286,216.58318805694577L190.2459375,343.73227643966675L191.82147321428573,215.79541969299316L192.8061830357143,222.5816731452942L193.20006696428572,228.69140911102295L194.38171874999998,183.82616329193112L195.16948660714286,99.77076816558836L195.36642857142857,195.49278545379636L195.56337053571428,75.36917495727535L195.7603125,68.32502174377439L196.94196428571428,161.71667861938477L197.53279017857142,309.1228895187378L198.91138392857144,228.64644813537598L199.30526785714287,172.03987884521482L199.89609375,231.730731010437L200.09303571428572,246.71975898742676L200.68386160714286,195.72555112838745L200.88080357142857,233.344820022583L201.86551339285714,10.006931304931612L202.06245535714285,118.49195766448972L202.25939732142857,247.4365310668945L202.85022321428573,130.2016882896423L203.44104910714287,228.11547803878784L203.63799107142856,143.93876838684082L203.8349330357143,190.55498886108396L204.03187499999999,212.7757244110107L204.22881696428573,78.32888889312743L205.41046875,260.77687311172485L206.5921205357143,167.21263217926023L207.77377232142857,19.9261837005615L208.56154017857145,293.94029903411865L208.95542410714287,252.91441011428833L209.94013392857144,294.75174951553345L210.72790178571427,184.7536211013794L212.10649553571426,149.60735607147217L212.50037946428571,309.2339401245117L213.09120535714288,0.7442193031310709L213.48508928571428,232.66389656066892L213.68203125,236.69065761566162L214.27285714285713,205.5762104988098L214.46979910714285,145.17164039611816L214.86368303571427,142.0660285949707L215.06062500000002,221.37533712387085L215.65145089285716,139.936240196228L218.99946428571428,127.13542985916136L219.19640625000002,230.9524755477905L219.3933482142857,-3.8328380584717356L219.59029017857142,179.64143800735474L220.37805803571428,275.36290454864496L220.96888392857142,295.28527307510376L221.75665178571427,259.4065146446228L221.95359375,277.07117128372187L222.15053571428572,227.88571643829346L222.93830357142858,273.96470832824707L223.1352455357143,226.6440825462341L223.3321875,286.3353853225708L223.72607142857143,149.89194202423093L224.11995535714286,225.87774324417114L224.51383928571428,155.4240946769714L224.9077232142857,291.5670804977417L226.48325892857142,74.87500476837157L227.46796874999998,294.63248777389526L227.66491071428572,100.65126228332518L229.43738839285714,205.17601776123044L229.63433035714286,290.988646030426L231.80069196428573,301.60819816589355L232.7854017857143,76.65732192993161L233.37622767857144,146.42954635620114L233.57316964285715,241.53923320770264L234.1639955357143,265.94968843460083L234.55787946428572,212.99482154846186L234.75482142857143,231.9097237586975L236.33035714285714,257.08056020736694L236.52729910714285,128.33370494842526L236.72424107142857,278.5099725723266L236.9211830357143,257.86512422561646L237.51200892857142,182.35426712036133L237.90589285714287,262.6829080581665L238.10283482142856,179.95991992950437L238.2997767857143,221.20826053619382L239.8753125,185.6014709472656L240.86002232142857,78.8251619338989L241.0569642857143,204.4605474472046L241.64779017857143,359.6954255104065L243.02638392857145,228.00327587127686L243.42026785714287,179.89673423767087L245.3896875,261.12329292297363L246.37439732142857,335.5024652481079L246.57133928571426,176.6702585220337L246.96522321428571,248.0861620903015L247.16216517857143,252.07992839813232L248.3438169642857,128.2194499969482L248.54075892857145,45.52580165863035L249.7224107142857,278.67790031433105L249.91935267857144,290.3450231552124L251.69183035714283,172.83275413513184L252.47959821428572,152.71436977386475L252.87348214285714,278.8672070503235L253.66125000000002,239.0675811767578L255.43372767857142,287.4300699234009L255.82761160714284,183.5962514877319L256.41843750000004,220.60564327239985L256.8123214285714,195.787184715271L257.0092633928571,213.76326370239255L257.9939732142857,267.97007846832275L258.5847991071428,202.2402362823486L259.5695089285714,37.43863391876219L259.9633928571429,122.7096276283264L260.75116071428573,261.4832811355591L261.14504464285716,189.0887002944946L261.34198660714287,221.284113407135L261.5389285714286,306.23697566986084L261.9328125,312.2614459991455L262.32669642857144,128.5980634689331L263.31140625,200.31532573699948L263.90223214285714,233.56361675262448L264.29611607142857,244.45258426666257L264.8869419642857,215.0615243911743L265.47776785714285,222.61997509002686L266.2655357142857,205.50506401062012L266.85636160714284,284.0229992866516L267.6441294642857,142.9390625953674L267.8410714285714,211.18106174468994L268.0380133928572,196.8235902786255L269.4166071428571,248.12226104736328L269.81049107142854,295.62428283691406L270.20437499999997,315.77270793914795L270.7952008928571,182.36728477478027L270.9921428571429,148.97905397415158L272.1737946428571,259.22682094573975L272.3707366071429,271.48739862442017L273.1585044642857,246.1197953224182L273.9462723214286,264.65077686309814L274.5370982142857,318.3567624092102L274.73404017857143,277.34794664382935L274.93098214285715,246.82735490798947L275.12792410714286,144.3965892791748L275.5218080357143,336.70354413986206L276.1126339285714,242.6352195739746L277.4912276785714,172.1498780250549L277.68816964285713,117.33974504470822L278.6728794642857,262.0053391456604L279.0667633928572,276.8270902633667L279.2637053571429,200.5752782821655L279.46064732142855,117.64991569519039L281.23312500000003,307.30657625198364L282.0208928571429,176.58844757080075L282.2178348214286,250.62210130691525L282.41477678571425,204.4293050765991L282.61171874999997,134.37499809265137L283.00560267857145,232.6076202392578L283.9903125,282.00446176528925L284.18725446428573,261.1496286392212L284.58113839285716,263.4157519340515L284.77808035714287,185.76729583740232L284.9750223214286,208.25324106216428L285.5658482142857,268.25296211242676L285.95973214285715,237.6823024749756L286.15667410714286,190.82680749893186L286.3536160714285,229.0913515090942L288.12609375,277.3092942237854L288.71691964285714,196.26508283615112L290.48939732142856,189.95487499237058L291.67104910714284,226.69379997253418L291.86799107142855,208.94082355499265L293.0496428571429,195.51246213912958L293.2465848214286,181.08274269104L293.4435267857143,212.67814207077026L293.8374107142857,238.03578186035156L295.0190625,299.7148804664612L296.2007142857143,389.29006147384644L296.39765625,293.14031410217285L297.9731919642857,235.09824800491333L298.17013392857143,330.0735025405884L298.76095982142857,237.78959798812863L299.3517857142857,336.2205891609192L300.13955357142856,126.0350875854492L300.53343750000005,307.56067085266113L301.32120535714284,185.54379272460935L302.5028571428572,157.67850208282468L303.29062500000003,238.83917140960693L303.48756696428575,292.8679447174072L304.07839285714283,353.88489532470703L304.4722767857143,236.17235469818112L305.06310267857145,290.8874087333679L305.85087053571425,295.5476288795471L306.24475446428573,330.67581939697266L306.6386383928571,212.38864946365354L306.8355803571428,290.5033378601074L307.0325223214286,299.5378403663635L308.4111160714286,291.16593647003174L308.805,242.74241495132446L309.0019419642857,136.54083538055417L310.18359375,73.69104909896846L310.3805357142857,274.5527558326721L310.5774776785714,269.71324253082275L310.97136160714285,21.20581912994379L311.3652455357143,170.41542577743527L313.7285491071429,262.3390417098999L315.5010267857143,293.4663562774658L316.28879464285717,265.52466201782227L317.27350446428574,167.27071094512937L317.47044642857145,255.58853673934934L318.45515625,284.3473892211914L318.65209821428573,227.4757604598999L318.8490401785714,267.26732540130615L319.6368080357143,309.76275730133057L319.83374999999995,154.04161977767941L321.0154017857143,259.7617464065552L321.80316964285714,289.2525415420532L322.00011160714286,163.7266044616699L322.19705357142857,260.4779176712036L322.5909375,284.0224485397339L322.78787946428577,119.56351089477536L323.77258928571433,198.6545734405517L324.3634151785714,178.0263977050781L324.7572991071429,303.54457426071167L325.348125,299.3601493835449L325.9389508928571,233.65704345703122L326.5297767857143,260.74858474731445L326.9236607142857,267.4823169708252L328.10531249999997,248.51329135894775L328.3022544642857,262.45504903793335L328.69613839285716,207.46822643280026L329.09002232142853,157.61516618728638L330.8625,164.87516212463376L331.05944196428567,257.1911101341247L331.25638392857144,209.18785858154294L331.45332589285715,174.53756618499753L334.21051339285714,192.7368478775024L334.99828125000005,274.80524826049805L335.78604910714284,286.4143924713135L335.9829910714286,200.4616241455078L336.5738169642857,231.72837781906128L336.77075892857147,109.94326400756835L337.36158482142855,247.62443590164182L337.75546875000003,280.5745224952698L338.1493526785714,290.33110427856445L339.13406249999997,265.22585678100586L339.72488839285717,293.28621196746826L340.11877232142854,270.91367053985596L340.31571428571425,270.79525995254517L340.70959821428573,296.60491275787354L341.3004241071428,363.72303771972656L341.89125,249.07770681381228L342.2851339285714,278.75881004333496L342.8759598214286,195.56608486175531L343.4667857142857,280.6608896255493L343.66372767857143,331.5299777984619L344.2545535714286,331.2681727409363L344.8453794642857,133.2790117263794L346.4209151785714,238.21707773208615L346.61785714285713,327.0159559249878L347.0117410714286,322.63886976242065L347.9964508928572,212.2045998573303L348.98116071428575,322.9139928817749L349.17810267857146,323.654296875L349.3750446428571,155.43340730667114L349.76892857142855,69.38035297393796L349.9658705357143,294.19925022125244L350.3597544642857,305.2064781188965L350.75363839285717,175.66594648361203L351.34446428571425,257.38161849975586L351.54140624999997,203.94019174575806L352.3291741071428,103.97712278366085L353.3138839285714,220.8044629096985L353.70776785714287,150.09261417388913L354.88941964285715,227.24364566802979L355.08636160714286,260.2101044654846L355.2833035714285,216.80403757095334L355.4802455357143,125.8879880905151L355.6771875,242.84971046447754L356.26801339285714,289.9754219055176L356.66189732142857,253.97439765930176L357.25272321428577,209.60557508468625L357.4496651785714,109.5638494491577L358.04049107142856,149.06877565383908L358.434375,128.69649696350095L358.8282589285714,265.2044277191162L359.02520089285713,224.41936540603635L359.2221428571429,265.09578037261963L360.0099107142857,313.4490566253662L360.79767857142855,277.3034362792969L360.9946205357143,314.21995210647583L361.19156250000003,201.74115943908689L361.9793303571429,283.14050245285034L362.1762723214286,337.2297077178955L362.57015624999997,293.32110929489136L362.7670982142857,280.73308753967285L363.16098214285716,430.2124850749969L363.3579241071429,240.28232860565186L363.55486607142853,177.85471487045285L363.94875,219.1112666130066L364.14569196428573,300.0734667778015L364.5395758928571,336.8831377029419L365.1304017857143,297.9289584159851L365.52428571428567,289.66670322418213L365.72122767857144,286.96584033966064L366.9028794642857,128.6881856918335L367.09982142857143,388.2176070213318L367.29676339285714,339.86147689819336L368.08453125,340.0269012451172L368.4784151785715,309.3196563720703L368.87229910714285,153.89196681976316L369.6600669642857,237.96268272399902L371.0386607142857,265.5681209564209L371.62948660714284,362.8263216018677L372.02337053571426,237.7912502288818L372.41725446428575,146.06324958801267L372.6141964285714,245.02155590057373L373.4019642857143,331.55536222457886L373.7958482142857,392.35086250305176L373.99279017857145,55.634661197662304L374.18973214285717,275.7569890022278L374.78055803571425,210.2864484786987L374.9775,253.3067922592163L375.5683258928571,282.9237585067749L375.7652678571428,260.34103202819824L376.35609375,244.44517421722412L376.94691964285715,306.2191014289856L377.7346875,238.37343978881833L378.9163392857143,224.3882732391357L379.11328125,307.55376148223877L379.70410714285714,212.1558337211609L379.90104910714285,314.5525531768799L380.2949330357143,335.4171495437622L380.6888169642857,249.27457380294797L380.8857589285714,271.76797914505005L381.27964285714285,149.6009473800659L381.4765848214286,287.93335247039795L381.87046875,297.34741973876953L382.0674107142857,142.30605411529538L382.2643526785714,252.1217851638794L382.4612946428572,326.5438656806946L382.85517857142855,266.5965156555176L383.2490625,224.96815967559812L383.44600446428575,314.697199344635L384.23377232142855,270.69487380981445L384.4307142857143,294.0774850845337L384.8245982142857,255.67154932022092L385.4154241071429,110.1279144287109L385.80930803571425,216.4661293029785L386.40013392857145,373.09695053100586L388.76343749999995,416.5379648208618L389.55120535714286,142.1956543922424L390.14203125,148.83851337432858L391.12674107142857,276.4089231491089L391.520625,287.092161655426L392.11145089285714,178.9173560142517L393.2931026785714,210.0518803596496L393.49004464285713,290.41506814956665L393.88392857142856,253.99687814712524L394.4747544642857,226.37857246398923L395.06558035714284,290.9468894004822L395.26252232142855,217.91814851760864L395.4594642857143,316.28505277633667L397.2319419642857,174.4108943939209L397.42888392857145,213.36792755126947L397.62582589285716,286.7995648384094L397.8227678571429,206.91737937927246L398.2166517857143,159.64647102355954L398.61053571428573,294.49850606918335L399.20136160714287,304.06953620910645L400.18607142857144,340.3477363586426L400.57995535714286,331.1277823448181L400.7768973214286,267.64979410171503L400.97383928571423,162.5252752304077L401.17078125,175.2379159927368L402.7463169642857,237.1647505760193L404.51879464285713,316.440363407135L405.5035044642857,384.2076187133789L407.0790401785714,187.54720973968503L407.2759821428571,313.27857542037964L407.8668080357143,254.45344734191892L408.65457589285717,317.37628269195557L409.24540178571425,266.56507301330566L410.0331696428571,294.791353225708L410.6239955357143,372.5772457122803L411.2148214285714,213.5936336517334L411.41176339285715,287.658579826355L411.60870535714287,286.9863681793213L412.0025892857143,146.2344818115234L413.578125,285.432861328125L413.9720089285714,217.86783027648926L414.36589285714285,239.09431743621826L414.7597767857143,314.04276180267334L415.74448660714285,338.77991008758545L416.7291964285714,258.0939345359802L418.3047321428571,399.29718303680414L418.50167410714283,188.2117109298706L418.69861607142855,201.16412687301636L419.4863839285714,341.7620544433594L420.0772098214286,311.8724684715271L420.66803571428574,337.1740322113037L422.2435714285714,310.3044419288635L422.63745535714287,259.5647292137146L423.4252232142857,320.251181602478L423.62216517857144,143.11394977569577L423.81910714285715,303.0775909423828L424.01604910714286,282.72278594970703L424.4099330357143,255.17757940292356L424.8038169642857,329.28928899765015L425.39464285714286,268.6491994857788L425.98546875,307.52592372894287L426.18241071428577,191.4430432319641L426.57629464285714,331.60623121261597L426.97017857142856,300.09399461746216L428.34877232142856,266.5484504699707L429.13654017857147,274.6989040374756L429.53042410714284,328.26044368743896L429.9243080357143,303.4894495010376L430.3181919642857,167.65242862701413L430.5151339285714,293.0821352005005L430.9090178571429,282.6025228500366L431.49984374999997,280.0081043243408L431.89372767857145,300.7722144126892L432.48455357142853,234.38327836990354L432.8784375,260.0676612854004L433.4692633928571,364.07661724090576L433.66620535714287,323.75878858566284L433.8631473214286,181.82524967193604L435.8325669642857,270.9430103302002L436.02950892857143,296.47243309020996L436.42339285714286,280.638258934021L436.62033482142857,222.0024375915527L436.8172767857143,352.19169902801514L437.01421875,305.59695768356323L437.60504464285714,304.30024909973145L437.80198660714285,302.3960165977478L438.1958705357143,260.8963851928711L438.7866964285714,333.88727474212646L439.18058035714284,80.0975875854492L439.57446428571427,315.60693311691284L439.9683482142857,273.7946276664734L441.7408258928571,263.9248924255371L441.93776785714283,217.16267395019528L442.52859374999997,134.9816207885742L442.92247767857145,383.9253609180451L443.3163616071429,249.775803565979L443.71024553571425,195.32265472412107L444.10412946428573,-33.29629611969001L444.30107142857145,266.2091903686523L444.8918973214286,314.5730810165405L446.07354910714287,281.78190994262695L446.2704910714286,339.46373748779297L447.05825892857143,225.5391340255737L447.6490848214286,389.6721796989441L448.2399107142857,365.5075578689575L448.63379464285714,259.7534351348877L448.83073660714285,305.52020359039307L449.6185044642857,349.6987180709839L450.4062723214286,339.0275959968567L450.9970982142857,298.09893894195557L451.1940401785714,177.58029270172116L451.3909821428572,250.71087169647214L451.5879241071429,256.32924127578735L452.17875,313.58889627456665L452.96651785714283,286.07302951812744L453.3604017857143,183.93506097793576L454.14816964285717,290.5382351875305L454.3451116071429,279.22153759002686L454.73899553571425,292.0470314025879L454.93593749999997,276.0664587020874L455.92064732142853,331.620400428772L456.51147321428573,189.59999370574945L456.7084151785714,348.4034614562988L457.10229910714287,184.08661651611325L457.4961830357143,260.2789478302002L457.8900669642857,198.52109241485593L458.08700892857144,339.4187264442444L458.6778348214285,295.1745729446411L458.8747767857143,265.14404582977295L459.2686607142857,339.8502616882324L459.85948660714286,203.3070831298828L460.05642857142857,185.9701209068298L460.4503125,204.09254837036127L461.63196428571433,259.4689493179321L462.2227901785714,270.292628288269L462.81361607142856,180.96953916549683L463.01055803571427,333.5948781967163L463.7983258928571,184.8920087814331L464.9799776785714,273.76138257980347L467.54022321428573,286.73342514038086L468.3279910714286,357.14066076278687L468.721875,311.1166434288025L469.7065848214286,321.84379148483276L470.2974107142857,266.5975670814514L470.69129464285714,272.5332670211792L471.4790625,271.11784744262695L472.46377232142856,263.03133058547974L473.2515401785714,283.564227104187L474.03930803571427,271.68952274322504L474.63013392857147,300.8626871109009L476.40261160714283,293.21761894226074L477.58426339285717,266.72188568115234L479.5536830357143,221.26689004898068L479.750625,341.9296817779541L479.9475669642857,241.5237121582031L480.53839285714287,144.22811079025266L480.7353348214286,285.3595118522644L481.72004464285715,291.00616979599L482.1139285714286,328.1683187484741L482.9016964285714,278.9531235694885L483.09863839285714,313.9228491783142L483.29558035714285,229.5397596359253L483.49252232142857,417.6410608291626L483.6894642857143,304.6478705406189L483.88640625,235.70797491073608L484.0833482142857,242.4605827331543L485.6588839285714,199.9980454444885L486.24970982142855,273.97727537155146L487.43136160714283,287.66999530792236L488.2191294642857,200.04946517944333L490.1885491071428,204.43941879272458L490.38549107142853,194.6001749038696L490.5824330357143,217.68403100967404L491.9610267857143,252.7070789337158L492.94573660714286,309.31149530410767L493.5365625,267.4013571739197L493.93044642857143,306.0590343475342L494.12738839285714,-24.77994632720953L494.32433035714286,178.28194427490234L494.52127232142857,224.57382488250732L495.3090401785714,352.5651054382324L496.88457589285713,185.77260303497314L497.0815178571429,214.06347084045407L497.67234375,264.87302827835083L498.06622767857147,373.8927297592163L498.2631696428571,382.39345836639404L498.65705357142855,300.6634168624878L499.6417633928571,372.54440116882324L501.02035714285716,242.00030851364136L501.41424107142853,294.6384959220886L502.00506696428573,292.8314952850342L502.3989508928571,150.35336780548093L503.38366071428567,223.50983190536493L503.97448660714286,253.07322549819943L504.5653125,266.70326042175293L506.3377901785715,346.6782217025757L506.53473214285714,274.30456924438477L507.1255580357143,351.68215799331665L507.7163839285714,270.55558490753174L508.11026785714284,300.65615701675415L508.3072098214286,156.4966993331909L509.48886160714284,330.0962333679199L510.07968750000003,173.93710184097287L510.27662946428575,252.56503629684445L510.6705133928571,214.20571374893188L511.2613392857143,391.8962960243225L511.6552232142857,287.58422899246216L512.0491071428571,323.15246629714966L512.6399330357143,260.4455237388611L512.8368750000001,364.76169633865356L513.0338169642857,250.8931188583374L514.4124107142857,240.7683877944946L515.3971205357143,242.93938207626343L515.7910044642857,317.27013874053955L515.9879464285714,133.52855014801023L516.1848883928571,140.81598329544067L516.97265625,290.48321056365967L517.1695982142857,139.09219551086423L518.1543080357143,327.02937412261963L518.3512499999999,324.4689016342163L519.1390178571428,239.91593170166013L519.72984375,288.5161428451538L519.9267857142858,281.0359482765198L520.3206696428572,266.39564323425293L521.6992633928571,195.87870883941648L521.8962053571429,299.42218351364136L522.8809151785714,197.97475147247312L525.24421875,371.96151065826416L526.2289285714286,320.86866903305054L526.6228125,210.9714775085449L526.8197544642858,397.5302617549896L527.4105803571429,266.54624748229975L527.6075223214285,284.875855922699L529.38,434.98458194732666L530.5616517857143,175.97586679458618L531.3494196428571,316.05388927459717L531.5463616071429,348.48747539520264" style="fill: none;" fill="none"></path></g></g></g></g></g></g><g transform="translate(51, 378)" clip-path="url(#clip_1)"><clipPath id="clip_1"><rect width="551" height="22"></rect></clipPath><g><g><line x1="0" y1="0" x2="0" y2="5" style="visibility: inherit;" fill="rgb(0, 0, 0)" stroke="rgb(204, 204, 204)" stroke-width="1px"></line><line x1="39.388392857142854" y1="0" x2="39.388392857142854" y2="5" style="visibility: inherit;" fill="rgb(0, 0, 0)" stroke="rgb(204, 204, 204)" stroke-width="1px"></line><line x1="78.77678571428571" y1="0" x2="78.77678571428571" y2="5" style="visibility: inherit;" fill="rgb(0, 0, 0)" stroke="rgb(204, 204, 204)" stroke-width="1px"></line><line x1="118.16517857142857" y1="0" x2="118.16517857142857" y2="5" style="visibility: inherit;" fill="rgb(0, 0, 0)" stroke="rgb(204, 204, 204)" stroke-width="1px"></line><line x1="157.55357142857142" y1="0" x2="157.55357142857142" y2="5" style="visibility: inherit;" fill="rgb(0, 0, 0)" stroke="rgb(204, 204, 204)" stroke-width="1px"></line><line x1="196.94196428571428" y1="0" x2="196.94196428571428" y2="5" style="visibility: inherit;" fill="rgb(0, 0, 0)" stroke="rgb(204, 204, 204)" stroke-width="1px"></line><line x1="236.33035714285714" y1="0" x2="236.33035714285714" y2="5" style="visibility: inherit;" fill="rgb(0, 0, 0)" stroke="rgb(204, 204, 204)" stroke-width="1px"></line><line x1="275.71875" y1="0" x2="275.71875" y2="5" style="visibility: inherit;" fill="rgb(0, 0, 0)" stroke="rgb(204, 204, 204)" stroke-width="1px"></line><line x1="315.10714285714283" y1="0" x2="315.10714285714283" y2="5" style="visibility: inherit;" fill="rgb(0, 0, 0)" stroke="rgb(204, 204, 204)" stroke-width="1px"></line><line x1="354.4955357142857" y1="0" x2="354.4955357142857" y2="5" style="visibility: inherit;" fill="rgb(0, 0, 0)" stroke="rgb(204, 204, 204)" stroke-width="1px"></line><line x1="393.88392857142856" y1="0" x2="393.88392857142856" y2="5" style="visibility: inherit;" fill="rgb(0, 0, 0)" stroke="rgb(204, 204, 204)" stroke-width="1px"></line><line x1="433.27232142857144" y1="0" x2="433.27232142857144" y2="5" style="visibility: inherit;" fill="rgb(0, 0, 0)" stroke="rgb(204, 204, 204)" stroke-width="1px"></line><line x1="472.6607142857143" y1="0" x2="472.6607142857143" y2="5" style="visibility: inherit;" fill="rgb(0, 0, 0)" stroke="rgb(204, 204, 204)" stroke-width="1px"></line><line x1="512.0491071428571" y1="0" x2="512.0491071428571" y2="5" style="visibility: inherit;" fill="rgb(0, 0, 0)" stroke="rgb(204, 204, 204)" stroke-width="1px"></line><line x1="551.4375" y1="0" x2="551.4375" y2="5" style="visibility: inherit;" fill="rgb(0, 0, 0)" stroke="rgb(204, 204, 204)" stroke-width="1px"></line></g><g transform="translate(0, 8)"><text x="0" y="0" dx="0em" dy="0.95em" style="text-anchor: middle; visibility: hidden; font-family: Roboto, sans-serif; font-size: 12px; font-weight: 200;" fill="rgb(50, 49, 63)" stroke="none" stroke-width="1px">-200</text><text x="39.388392857142854" y="0" dx="0em" dy="0.95em" style="text-anchor: middle; visibility: inherit; font-family: Roboto, sans-serif; font-size: 12px; font-weight: 200;" fill="rgb(50, 49, 63)" stroke="none" stroke-width="1px">0</text><text x="78.77678571428571" y="0" dx="0em" dy="0.95em" style="text-anchor: middle; visibility: inherit; font-family: Roboto, sans-serif; font-size: 12px; font-weight: 200;" fill="rgb(50, 49, 63)" stroke="none" stroke-width="1px">200</text><text x="118.16517857142857" y="0" dx="0em" dy="0.95em" style="text-anchor: middle; visibility: inherit; font-family: Roboto, sans-serif; font-size: 12px; font-weight: 200;" fill="rgb(50, 49, 63)" stroke="none" stroke-width="1px">400</text><text x="157.55357142857142" y="0" dx="0em" dy="0.95em" style="text-anchor: middle; visibility: inherit; font-family: Roboto, sans-serif; font-size: 12px; font-weight: 200;" fill="rgb(50, 49, 63)" stroke="none" stroke-width="1px">600</text><text x="196.94196428571428" y="0" dx="0em" dy="0.95em" style="text-anchor: middle; visibility: inherit; font-family: Roboto, sans-serif; font-size: 12px; font-weight: 200;" fill="rgb(50, 49, 63)" stroke="none" stroke-width="1px">800</text><text x="236.33035714285714" y="0" dx="0em" dy="0.95em" style="text-anchor: middle; visibility: inherit; font-family: Roboto, sans-serif; font-size: 12px; font-weight: 200;" fill="rgb(50, 49, 63)" stroke="none" stroke-width="1px">1k</text><text x="275.71875" y="0" dx="0em" dy="0.95em" style="text-anchor: middle; visibility: inherit; font-family: Roboto, sans-serif; font-size: 12px; font-weight: 200;" fill="rgb(50, 49, 63)" stroke="none" stroke-width="1px">1.2k</text><text x="315.10714285714283" y="0" dx="0em" dy="0.95em" style="text-anchor: middle; visibility: inherit; font-family: Roboto, sans-serif; font-size: 12px; font-weight: 200;" fill="rgb(50, 49, 63)" stroke="none" stroke-width="1px">1.4k</text><text x="354.4955357142857" y="0" dx="0em" dy="0.95em" style="text-anchor: middle; visibility: inherit; font-family: Roboto, sans-serif; font-size: 12px; font-weight: 200;" fill="rgb(50, 49, 63)" stroke="none" stroke-width="1px">1.6k</text><text x="393.88392857142856" y="0" dx="0em" dy="0.95em" style="text-anchor: middle; visibility: inherit; font-family: Roboto, sans-serif; font-size: 12px; font-weight: 200;" fill="rgb(50, 49, 63)" stroke="none" stroke-width="1px">1.8k</text><text x="433.27232142857144" y="0" dx="0em" dy="0.95em" style="text-anchor: middle; visibility: inherit; font-family: Roboto, sans-serif; font-size: 12px; font-weight: 200;" fill="rgb(50, 49, 63)" stroke="none" stroke-width="1px">2k</text><text x="472.6607142857143" y="0" dx="0em" dy="0.95em" style="text-anchor: middle; visibility: inherit; font-family: Roboto, sans-serif; font-size: 12px; font-weight: 200;" fill="rgb(50, 49, 63)" stroke="none" stroke-width="1px">2.2k</text><text x="512.0491071428571" y="0" dx="0em" dy="0.95em" style="text-anchor: middle; visibility: inherit; font-family: Roboto, sans-serif; font-size: 12px; font-weight: 200;" fill="rgb(50, 49, 63)" stroke="none" stroke-width="1px">2.4k</text><text x="551.4375" y="0" dx="0em" dy="0.95em" style="text-anchor: middle; visibility: hidden; font-family: Roboto, sans-serif; font-size: 12px; font-weight: 200;" fill="rgb(50, 49, 63)" stroke="none" stroke-width="1px">2.6k</text></g><line x1="0" y1="0" x2="551.4375" y2="0" fill="rgb(0, 0, 0)" stroke="rgb(204, 204, 204)" stroke-width="1px"></line></g></g></g></g></svg>