<svg viewBox="0 0 603 400" xmlns="http://www.w3.org/2000/svg"><g><g><g><g><g><line x1="50" y1="378" x2="45" y2="378" style="visibility: inherit;" fill="rgb(0, 0, 0)" stroke="rgb(204, 204, 204)" stroke-width="1px"></line><line x1="50" y1="343.6363636363637" x2="45" y2="343.6363636363637" style="visibility: inherit;" fill="rgb(0, 0, 0)" stroke="rgb(204, 204, 204)" stroke-width="1px"></line><line x1="50" y1="309.27272727272725" x2="45" y2="309.27272727272725" style="visibility: inherit;" fill="rgb(0, 0, 0)" stroke="rgb(204, 204, 204)" stroke-width="1px"></line><line x1="50" y1="274.90909090909093" x2="45" y2="274.90909090909093" style="visibility: inherit;" fill="rgb(0, 0, 0)" stroke="rgb(204, 204, 204)" stroke-width="1px"></line><line x1="50" y1="240.54545454545453" x2="45" y2="240.54545454545453" style="visibility: inherit;" fill="rgb(0, 0, 0)" stroke="rgb(204, 204, 204)" stroke-width="1px"></line><line x1="50" y1="206.18181818181824" x2="45" y2="206.18181818181824" style="visibility: inherit;" fill="rgb(0, 0, 0)" stroke="rgb(204, 204, 204)" stroke-width="1px"></line><line x1="50" y1="171.81818181818184" x2="45" y2="171.81818181818184" style="visibility: inherit;" fill="rgb(0, 0, 0)" stroke="rgb(204, 204, 204)" stroke-width="1px"></line><line x1="50" y1="137.45454545454547" x2="45" y2="137.45454545454547" style="visibility: inherit;" fill="rgb(0, 0, 0)" stroke="rgb(204, 204, 204)" stroke-width="1px"></line><line x1="50" y1="103.09090909090912" x2="45" y2="103.09090909090912" style="visibility: inherit;" fill="rgb(0, 0, 0)" stroke="rgb(204, 204, 204)" stroke-width="1px"></line><line x1="50" y1="68.72727272727275" x2="45" y2="68.72727272727275" style="visibility: inherit;" fill="rgb(0, 0, 0)" stroke="rgb(204, 204, 204)" stroke-width="1px"></line><line x1="50" y1="34.36363636363642" x2="45" y2="34.36363636363642" style="visibility: inherit;" fill="rgb(0, 0, 0)" stroke="rgb(204, 204, 204)" stroke-width="1px"></line><line x1="50" y1="0" x2="45" y2="0" style="visibility: inherit;" fill="rgb(0, 0, 0)" stroke="rgb(204, 204, 204)" stroke-width="1px"></line></g><g transform="translate(40, 0)"><text x="0" y="378" dx="0em" dy="0.3em" style="text-anchor: end; visibility: hidden; font-family: Roboto, sans-serif; font-size: 12px; font-weight: 200;" fill="rgb(50, 49, 63)" stroke="none" stroke-width="1px">0.45</text><text x="0" y="343.6363636363637" dx="0em" dy="0.3em" style="text-anchor: end; visibility: inherit; font-family: Roboto, sans-serif; font-size: 12px; font-weight: 200;" fill="rgb(50, 49, 63)" stroke="none" stroke-width="1px">0.5</text><text x="0" y="309.27272727272725" dx="0em" dy="0.3em" style="text-anchor: end; visibility: inherit; font-family: Roboto, sans-serif; font-size: 12px; font-weight: 200;" fill="rgb(50, 49, 63)" stroke="none" stroke-width="1px">0.55</text><text x="0" y="274.90909090909093" dx="0em" dy="0.3em" style="text-anchor: end; visibility: inherit; font-family: Roboto, sans-serif; font-size: 12px; font-weight: 200;" fill="rgb(50, 49, 63)" stroke="none" stroke-width="1px">0.6</text><text x="0" y="240.54545454545453" dx="0em" dy="0.3em" style="text-anchor: end; visibility: inherit; font-family: Roboto, sans-serif; font-size: 12px; font-weight: 200;" fill="rgb(50, 49, 63)" stroke="none" stroke-width="1px">0.65</text><text x="0" y="206.18181818181824" dx="0em" dy="0.3em" style="text-anchor: end; visibility: inherit; font-family: Roboto, sans-serif; font-size: 12px; font-weight: 200;" fill="rgb(50, 49, 63)" stroke="none" stroke-width="1px">0.7</text><text x="0" y="171.81818181818184" dx="0em" dy="0.3em" style="text-anchor: end; visibility: inherit; font-family: Roboto, sans-serif; font-size: 12px; font-weight: 200;" fill="rgb(50, 49, 63)" stroke="none" stroke-width="1px">0.75</text><text x="0" y="137.45454545454547" dx="0em" dy="0.3em" style="text-anchor: end; visibility: inherit; font-family: Roboto, sans-serif; font-size: 12px; font-weight: 200;" fill="rgb(50, 49, 63)" stroke="none" stroke-width="1px">0.8</text><text x="0" y="103.09090909090912" dx="0em" dy="0.3em" style="text-anchor: end; visibility: inherit; font-family: Roboto, sans-serif; font-size: 12px; font-weight: 200;" fill="rgb(50, 49, 63)" stroke="none" stroke-width="1px">0.85</text><text x="0" y="68.72727272727275" dx="0em" dy="0.3em" style="text-anchor: end; visibility: inherit; font-family: Roboto, sans-serif; font-size: 12px; font-weight: 200;" fill="rgb(50, 49, 63)" stroke="none" stroke-width="1px">0.9</text><text x="0" y="34.36363636363642" dx="0em" dy="0.3em" style="text-anchor: end; visibility: inherit; font-family: Roboto, sans-serif; font-size: 12px; font-weight: 200;" fill="rgb(50, 49, 63)" stroke="none" stroke-width="1px">0.95</text><text x="0" y="0" dx="0em" dy="0.3em" style="text-anchor: end; visibility: hidden; font-family: Roboto, sans-serif; font-size: 12px; font-weight: 200;" fill="rgb(50, 49, 63)" stroke="none" stroke-width="1px">1</text></g><line x1="50" y1="0" x2="50" y2="378" fill="rgb(0, 0, 0)" stroke="rgb(204, 204, 204)" stroke-width="1px"></line></g></g><g transform="translate(50, 0)" clip-path="url(#clip_0)"><clipPath id="clip_0"><rect width="553" height="378"></rect></clipPath><g><g><g><line x1="0" y1="0" x2="0" y2="378" fill="rgb(0, 0, 0)" stroke="rgb(60, 60, 60)" stroke-width="1px" opacity="0.25"></line><line x1="39.5" y1="0" x2="39.5" y2="378" fill="rgb(0, 0, 0)" stroke="rgb(60, 60, 60)" stroke-width="1px" opacity="0.25"></line><line x1="79" y1="0" x2="79" y2="378" fill="rgb(0, 0, 0)" stroke="rgb(60, 60, 60)" stroke-width="1px" opacity="0.25"></line><line x1="118.5" y1="0" x2="118.5" y2="378" fill="rgb(0, 0, 0)" stroke="rgb(60, 60, 60)" stroke-width="1px" opacity="0.25"></line><line x1="158" y1="0" x2="158" y2="378" fill="rgb(0, 0, 0)" stroke="rgb(60, 60, 60)" stroke-width="1px" opacity="0.25"></line><line x1="197.5" y1="0" x2="197.5" y2="378" fill="rgb(0, 0, 0)" stroke="rgb(60, 60, 60)" stroke-width="1px" opacity="0.25"></line><line x1="237" y1="0" x2="237" y2="378" fill="rgb(0, 0, 0)" stroke="rgb(60, 60, 60)" stroke-width="1px" opacity="0.25"></line><line x1="276.5" y1="0" x2="276.5" y2="378" fill="rgb(0, 0, 0)" stroke="rgb(60, 60, 60)" stroke-width="1px" opacity="0.25"></line><line x1="316" y1="0" x2="316" y2="378" fill="rgb(0, 0, 0)" stroke="rgb(60, 60, 60)" stroke-width="1px" opacity="0.25"></line><line x1="355.5" y1="0" x2="355.5" y2="378" fill="rgb(0, 0, 0)" stroke="rgb(60, 60, 60)" stroke-width="1px" opacity="0.25"></line><line x1="395" y1="0" x2="395" y2="378" fill="rgb(0, 0, 0)" stroke="rgb(60, 60, 60)" stroke-width="1px" opacity="0.25"></line><line x1="434.5" y1="0" x2="434.5" y2="378" fill="rgb(0, 0, 0)" stroke="rgb(60, 60, 60)" stroke-width="1px" opacity="0.25"></line><line x1="474" y1="0" x2="474" y2="378" fill="rgb(0, 0, 0)" stroke="rgb(60, 60, 60)" stroke-width="1px" opacity="0.25"></line><line x1="513.5" y1="0" x2="513.5" y2="378" fill="rgb(0, 0, 0)" stroke="rgb(60, 60, 60)" stroke-width="1px" opacity="0.25"></line><line x1="553" y1="0" x2="553" y2="378" fill="rgb(0, 0, 0)" stroke="rgb(60, 60, 60)" stroke-width="1px" opacity="0.25"></line></g><g><line x1="0" y1="378" x2="553" y2="378" fill="rgb(0, 0, 0)" stroke="rgb(60, 60, 60)" stroke-width="1px" opacity="0.25"></line><line x1="0" y1="343.6363636363637" x2="553" y2="343.6363636363637" fill="rgb(0, 0, 0)" stroke="rgb(60, 60, 60)" stroke-width="1px" opacity="0.25"></line><line x1="0" y1="309.27272727272725" x2="553" y2="309.27272727272725" fill="rgb(0, 0, 0)" stroke="rgb(60, 60, 60)" stroke-width="1px" opacity="0.25"></line><line x1="0" y1="274.90909090909093" x2="553" y2="274.90909090909093" fill="rgb(0, 0, 0)" stroke="rgb(60, 60, 60)" stroke-width="1px" opacity="0.25"></line><line x1="0" y1="240.54545454545453" x2="553" y2="240.54545454545453" fill="rgb(0, 0, 0)" stroke="rgb(60, 60, 60)" stroke-width="1px" opacity="0.25"></line><line x1="0" y1="206.18181818181824" x2="553" y2="206.18181818181824" fill="rgb(0, 0, 0)" stroke="rgb(60, 60, 60)" stroke-width="1px" opacity="0.25"></line><line x1="0" y1="171.81818181818184" x2="553" y2="171.81818181818184" fill="rgb(0, 0, 0)" stroke="rgb(60, 60, 60)" stroke-width="1px" opacity="0.25"></line><line x1="0" y1="137.45454545454547" x2="553" y2="137.45454545454547" fill="rgb(0, 0, 0)" stroke="rgb(60, 60, 60)" stroke-width="1px" opacity="0.25"></line><line x1="0" y1="103.09090909090912" x2="553" y2="103.09090909090912" fill="rgb(0, 0, 0)" stroke="rgb(60, 60, 60)" stroke-width="1px" opacity="0.25"></line><line x1="0" y1="68.72727272727275" x2="553" y2="68.72727272727275" fill="rgb(0, 0, 0)" stroke="rgb(60, 60, 60)" stroke-width="1px" opacity="0.25"></line><line x1="0" y1="34.36363636363642" x2="553" y2="34.36363636363642" fill="rgb(0, 0, 0)" stroke="rgb(60, 60, 60)" stroke-width="1px" opacity="0.25"></line><line x1="0" y1="0" x2="553" y2="0" fill="rgb(0, 0, 0)" stroke="rgb(60, 60, 60)" stroke-width="1px" opacity="0.25"></line></g></g></g><g><g><line x1="0" y1="687.2727272727273" x2="553" y2="687.2727272727273" fill="rgb(0, 0, 0)" stroke="rgb(153, 153, 153)" stroke-width="1.5px"></line></g></g><g><g><line x1="39.5" y1="0" x2="39.5" y2="378" fill="rgb(0, 0, 0)" stroke="rgb(153, 153, 153)" stroke-width="1.5px"></line></g></g><g><g><g><g><g><path stroke="rgb(255, 112, 67)" stroke-width="2px" d="M61.817499999999995,-2.7002789061079713L62.41,2.396508755344068L62.805,7.645767846179491L64.1875,12.251415704029911L64.38499999999999,15.231399691395868L64.97749999999999,21.805286581773498L65.175,25.728952360054045L66.5575,30.298470678776024L66.9525,37.33880903830104L67.3475,40.96512110807646L67.545,46.31151904298686L67.74249999999999,49.498988953253416L69.125,39.924565575147355L70.1125,40.294363404567925L70.50750000000001,37.58030288119146L70.705,41.75065086672875L70.9025,49.19815091825354L71.495,55.18912390002272L72.0875,56.38571117952425L72.48249999999999,63.639174023560315L72.67999999999999,65.77173559372656L73.27250000000001,67.12234942723815L74.4575,72.28945077440956L74.655,71.7061315540017L75.05,78.22486492106479L75.6425,84.37195014863464L76.03750000000001,84.83282856542435L76.235,89.08846422644432L76.63,89.40916328054064L77.025,89.74117336704117L77.22250000000001,92.21917138296486L78.605,91.6171273099471L80.18499999999999,94.54410309863586L80.3825,95.91658876930116L80.58,97.60256009914133L81.36999999999999,101.88746180169538L83.345,101.38036929513692L83.5425,96.91198050229188L83.9375,100.44443437898224L84.3325,98.36513359907245L84.7275,100.64563485588401L85.32,100.24473959219927L85.5175,102.50810682793067L85.715,104.37874113515214L86.3075,102.75274384634076L88.2825,85.7005305984265L88.67750000000001,88.0382137746954L89.8625,94.67924524408944L90.455,98.06094333460041L90.6525,96.4882097627264L90.85,97.13660806777952L91.0475,98.33534989984643L91.44250000000001,101.87034284794929L92.2325,102.55704030342461L92.62750000000001,107.22250072602088L93.0225,112.14032437780328L93.4175,111.92658739582413L94.405,112.05778377809769L95.58999999999999,116.012487285098L96.9725,116.55640849447L97.17,116.51832935781377L98.1575,115.22104381090864L98.355,118.04713580533824L98.9475,114.89227021727984L99.14500000000001,117.70804904169881L99.34249999999999,108.88854579431552L100.13250000000001,108.13682893565186L100.33000000000001,109.93577691894546L100.725,104.83812556685857L101.3175,110.82585145947276L102.1075,112.54602636560315L102.30499999999999,118.62830785230481L102.5025,122.52175763029186L102.7,126.97475531688222L103.095,129.64955018493748L103.6875,135.63890012839258L103.885,134.7206206663276L104.08250000000001,134.38587004406767L104.675,135.62968953851725L105.2675,132.4276774625214L106.4525,132.81181585628292L106.84750000000001,131.19077893874388L107.44,133.85359808546963L107.6375,131.49034961072599L108.03250000000001,131.49479857660614L108.22999999999999,134.43667224797665L109.2175,135.15596534372986L109.415,134.24963698575792L110.205,133.5836825865028L110.60000000000001,136.8579581510806L111.1925,130.15298218820868L111.9825,131.10074042596392L112.77250000000001,132.2631362803054L113.1675,135.92628295919303L113.9575,137.73930458506118L114.155,144.74102037680106L114.3525,145.9011169610816L114.74749999999999,150.06322995172613L115.735,154.2278802414986L115.93249999999999,156.3766628032822L116.7225,155.57460451851637L116.92,153.33102111656038L117.1175,153.52672321976044L119.0925,154.55239295309315L120.08,154.23263177198947L121.46249999999999,149.96084565441086L121.66,155.59812428258996L122.6475,154.01028391826867L122.845,152.78026272748338L123.24000000000001,150.21960505191967L123.63499999999999,151.7029607421879L124.425,152.2465937220948L126.2025,149.60516067765494L126.5975,154.09936079375194L126.795,151.64022051588645L127.38749999999999,153.05557062965198L128.57250000000002,153.08777417417775L130.1525,152.64879025515074L130.35,154.75848874718756L130.5475,154.95250346830142L130.9425,158.79240205553947L131.14000000000001,159.17684160628048L131.7325,156.8996895410697L131.93,159.9951163743084L132.9175,156.01300243949277L133.115,152.52622186104938L135.2875,156.99637094976472L135.88,159.8520120806538L136.07750000000001,162.13523464318945L136.4725,164.0434076349549L136.8675,164.88696841128794L137.46,168.26658674106415L139.6325,169.41781769852705L140.4225,171.2428244852202L140.62,169.18288676121617L141.01500000000001,171.56193196644108L141.6075,173.1989745776756L142.0025,166.69720746891156L142.99,170.1004614774185L143.1875,170.556024240034L144.3725,173.29177232742038L144.7675,176.8327160616684L144.96499999999997,173.45187786849215L145.1625,176.6666222886063L145.35999999999999,174.6471567607466L145.5575,175.77048005350414L145.755,177.17797249631872L146.15,176.7098976498431L146.54500000000002,175.33774913267777L147.5325,179.0444510877343L147.73,180.08666486996407L147.9275,182.24409930934343L148.32250000000002,177.9583653567957L149.11249999999998,176.26674419078813L149.5075,179.99470993565998L149.9025,178.96601547850105L150.69250000000002,178.37759190246757L150.89,177.90258697671928L151.08749999999998,173.78690099252105L151.8775,174.67327392256527L152.66750000000002,182.874623246447L152.86499999999998,179.54714604663315L153.4575,179.9092679980382L153.8525,180.32777093466441L154.05,180.54926034573026L154.2475,181.62157259474057L154.44500000000002,184.13780067753916L154.64249999999998,183.315510844286L154.84,180.48743417236585L155.23499999999999,180.21348418794508L155.4325,179.21667118059614L156.42000000000002,179.7173286757484L156.61749999999998,181.18634040025538L157.21,174.40584860523114L157.4075,176.79176199925007L158,180.2323732425695L158.39499999999998,182.49133770093792L159.185,183.98338403001824L159.58,185.5645823104026L159.97500000000002,183.07870076247534L160.36999999999998,183.5539642811722L160.9625,186.80282609846796L161.7525,192.18098188090696L161.95000000000002,194.5021541189207L162.345,197.83744596106013L162.9375,203.39676879988414L163.72750000000002,202.88641826575136L164.715,203.7703693307424L166.09750000000003,206.48621129607196L166.295,209.01940744703083L166.69,211.65998692142384L166.8875,209.5320434486053L167.085,205.46606684037056L167.2825,209.3983849098356L167.6775,212.88667935004196L168.26999999999998,209.6891925202704L169.06,214.04423388930977L169.2575,210.63234816776665L170.04749999999999,206.79122046689037L170.64,206.47869342378678L171.43,208.62750130506862L172.02249999999998,210.75531389299616L172.22,209.36130668168678L172.4175,210.53503163338897L172.615,207.39048350709473L172.8125,209.4004474222838L173.2075,210.93352813420088L173.405,213.7616391544571L173.60250000000002,210.91007783564936L173.9975,209.77311793197978L174.195,209.0761947066912L174.39249999999998,209.23911913570987L174.59,214.93321519406683L174.985,219.5970756318778L175.38,218.02270965659392L175.57750000000001,216.04810679723L176.96,217.86141918434947L177.5525,212.54419654525466L177.75,213.4207048934907L177.9475,215.98352208827805L178.3425,216.21693681790111L178.935,211.18563308828178L179.33,211.71237487613493L179.725,210.7428492946033L180.515,211.44529049547253L181.305,214.93929642748532L181.89749999999998,218.22343142135162L182.095,216.34979218826447L182.2925,218.0397101325643L182.49,217.9286276749864L182.6875,218.50700680506012L183.67499999999998,216.86511244132407L184.86,214.04761121117L185.25500000000002,216.2391498937455L185.4525,212.34871548696023L185.64999999999998,210.61376778144498L186.2425,211.07672918769583L186.835,210.62230621105206L187.0325,210.09203726676347L187.625,211.6235541038365L187.8225,209.2108608216055L188.02,208.28428171361807L188.415,199.7129563238669L188.81,195.29740667891406L189.995,195.99811088002474L190.5875,193.1225812503048L190.785,193.88225671848664L191.3775,194.15902913560734L191.575,193.39619755089564L191.7725,197.35574896299218L192.1675,199.4502248566547L192.365,205.04292930368499L193.54999999999998,207.32002965039592L194.34,205.4846122017743L194.53750000000002,207.2066003013751L194.93249999999998,208.0849090628454L195.3275,210.33567994822312L195.7225,215.6397837607574L195.92,219.2459925874644L196.1175,219.22575975340283L196.315,217.9794996759615L196.51250000000002,212.18685694968923L197.105,209.52583488449628L197.5,208.78013363946476L197.895,207.37157828915443L198.4875,208.30423409823064L198.8825,211.6383723405927L199.07999999999998,213.24124270235066L199.2775,215.36448060125406L200.0675,215.19919752185507L200.4625,217.12683899529657L200.66000000000003,221.16062225235694L201.05499999999998,214.21076686914571L201.6475,211.42633437170895L202.4375,208.94904787104937L203.03,206.01986960389547L203.6225,208.33414002500135L203.82,199.5943590353593L204.215,198.82903613491447L204.60999999999999,204.63728093915287L205.005,207.7049911373733L205.9925,207.877494461433L206.58499999999998,206.09301196406955L206.7825,206.7852655317275L206.98,212.24741661500002L207.5725,213.9027532226475L209.1525,213.24884516572843L209.35,216.8246369319814L209.5475,214.89244553253238L209.9425,213.71668130685111L210.7325,214.57601199303278L211.1275,216.5926833529387L211.325,216.22792494531137L212.115,216.28961308286134L212.51,216.98072531891643L212.70749999999998,215.33627717394475L213.3,213.73023155745562L213.69500000000002,219.22031504940983L214.08999999999997,217.547778924931L214.6825,218.59414179429703L215.0775,221.76242821291288L215.275,223.9546725605243L215.67000000000002,220.84549439247095L215.8675,219.08370915516917L216.45999999999998,221.00218879548493L217.0525,221.25601146393055L217.25,223.52472509643906L218.6325,222.83810110537217L218.83,224.63093077151203L219.0275,224.8403471794443L219.225,223.44290455416123L219.62,217.1226693496574L219.81750000000002,219.64168152539074L220.21249999999998,223.93247543652376L220.41,221.54782849068405L220.6075,217.88853032522928L221.20000000000002,217.10903088623846L221.3975,217.5114098359547L221.595,219.58719546174905L221.79250000000002,220.76825254146044L222.1875,214.8611903129842L223.3725,215.09373125870044L223.57000000000002,212.90043464423087L224.1625,214.29306691092233L225.54500000000002,217.32043038007006L226.1375,218.84944048654967L227.51999999999998,217.41793941362823L227.7175,217.75351146071705L227.915,217.87190994848788L228.31,222.60090555099717L228.5075,222.23241635494912L228.705,219.9792099045941L229.2975,219.66767791477338L229.49499999999998,218.67720994819896L229.89,213.79072878197417L230.285,213.13247166559074L230.4825,215.92499838483076L231.2725,217.22191365141447L231.47,216.96837565482136L232.26,222.01137436021023L232.4575,222.09080535158768L232.655,221.58233628237278L232.85250000000002,222.02003255266888L233.445,224.05460709218664L233.64249999999998,220.31425895754927L233.84,217.35683275578842L234.4325,215.47587676950684L234.63,213.9231388903235L236.21,213.46623058904228L237,221.11266140808692L237.39499999999998,219.77792467666447L237.79,220.82906657527812L237.9875,221.15567345662325L238.58,221.24233832436445L238.7775,224.41594822485467L239.17249999999999,219.34736278635202L239.37,215.63080266394735L239.5675,215.96423905651065L239.765,216.61872846722818L240.35750000000002,216.64968693321623L241.9375,219.80370253917198L242.3325,220.05820234711175L242.72750000000002,221.55605564762433L243.1225,224.07401562991942L243.32,221.51180298626716L243.51749999999998,222.2009849276212L243.9125,220.57249812088853L244.3075,218.40933965605586L244.505,214.89845147073578L244.70250000000001,211.1201098597217L245.295,212.86580417971763L245.69,209.50345558490454L247.0725,206.40699883902892L247.26999999999998,210.55352487534432L247.8625,204.9618919342246L248.25750000000002,208.00025858408642L249.4425,208.53547545512126L249.64,207.0643804697456L250.035,204.8881063946596L250.43,202.3601173677376L251.22,205.019664842069L252.01000000000002,206.20164209985214L252.405,209.19349768447012L252.79999999999998,210.4901787040772L253.3925,209.68631417760565L253.59,214.22392902389097L253.7875,215.061018794198L253.985,207.8451053390974L255.17,209.22217743129076L255.3675,212.3011009689925L256.5525,213.34610827723344L256.9475,219.61757574914665L257.3425,219.1279437268887L257.53999999999996,219.76796212541933L257.7375,220.72087530288786L259.515,224.33758869542356L259.90999999999997,225.5935491257012L260.5025,223.77651049156714L261.29249999999996,228.1133516380753L261.6875,229.29698436371893L261.885,228.1196770116589L262.675,230.68646790547558L262.8725,234.90895829702004L263.2675,236.4732518360611L263.465,232.76285260157405L263.6625,233.8202725727075L264.255,230.97240375070663L264.4525,231.50625287485482L266.4275,228.4339678649935L266.8225,228.08176909440232L267.02,233.8194108186838L267.6125,232.99498875086402L267.81,229.9405807787632L268.0075,230.44856100090874L268.6,229.72681027198436L268.7975,229.6470428805776L268.995,232.5492175313473L271.9575,237.8550566625861L272.55,233.13004988538506L272.945,230.66990781649218L273.1425,229.72616687702165L273.5375,231.6248479466158L273.735,234.13715226505659L274.3275,233.05323251527713L274.92,235.9912891373158L275.1175,237.09507225941152L275.315,238.51197117161848L275.5125,234.92031866753476L275.9075,234.98424244373695L276.3025,234.71697224910415L276.6975,234.33869075190017L277.09250000000003,232.9963274726357L277.29,238.3430707624116L277.685,241.79188321930783L278.08000000000004,245.48058265722116L278.47499999999997,245.35608810744867L278.67249999999996,247.4510029670234L278.87,247.5894451072648L279.0675,248.84025037722324L279.265,254.08486543070157L281.24,254.79468623057534L282.03000000000003,246.90152433971576L282.82,248.66352136477474L283.0175,242.07618882829576L283.215,237.97638798341032L283.61,239.04334628485336L284.2025,241.041369904907L284.795,241.0788535087166L285.19,239.1754833066091L285.58500000000004,241.2895728067984L285.7825,240.67337339552876L286.17749999999995,241.0154809082776L286.9675,241.74212502114247L287.16499999999996,240.35768817384127L287.3625,237.0912410173366L287.7575,239.30438927941952L287.955,241.7057848182745L288.5475,240.1479899103554L288.745,234.91529092638322L288.9425,233.00905019399144L289.14000000000004,237.0213197733934L289.535,234.99634938743958L290.5225,234.58140871548102L291.115,234.67442400705235L292.1025,237.38082067522518L292.4975,234.81109856193248L293.2875,236.39665251215294L293.68249999999995,235.6622670462222L294.47249999999997,235.2662255960109L294.66999999999996,234.08332063521655L294.8675,235.09491277540852L295.065,235.32865535564005L295.46,234.78519625968255L296.0525,234.87750548977152L296.25,232.75592670030983L296.64500000000004,231.69774197015488L296.84250000000003,232.23132801132488L297.04,230.50050814874245L298.22499999999997,231.28750154759163L298.62,231.77448927731368L298.8175,228.79274023881413L299.2125,231.12447938151837L299.41,229.13880945213302L300.0025,231.67595558104918L300.2,231.53987171894846L301.1875,231.37744550601633L301.38500000000005,231.6888942999134L301.5825,231.76472700574206L302.17499999999995,231.2319455489997L302.57,228.64402897366847L302.7675,231.4094346846037L302.965,234.56374210108075L303.1625,234.53383941612682L303.36,237.37787084890792L303.5575,238.71171500631968L304.7425,240.1827971604257L305.72999999999996,240.4332331678901L305.9275,242.2114344795028L306.125,240.93787571838783L307.1125,236.42256574014948L307.90250000000003,234.14320768378002L308.2975,237.281729508782L308.495,240.39800266349653L309.28499999999997,243.98924808087892L310.075,245.39240796909453L311.4575,247.32544976766746L311.8525,249.8024507672437L312.445,250.71178021077347L312.84000000000003,251.499612797716L313.03749999999997,251.4536960003435L313.63,250.88114976486932L313.8275,239.72688755829049L314.22249999999997,239.86720105647743L314.42,244.5669673353319L315.0125,246.92812875916027L318.37,249.597594203642L318.5675,250.21793202006936L318.765,253.09505268334638L318.9625,256.4396450266458L319.7525,257.41167394552775L320.345,256.11183943355303L320.5425,254.65076733714127L321.135,259.0748600390354L321.3325,257.6920567079927L321.53,242.01750744654424L322.32,242.77037351412332L322.5175,245.10970114660574L322.715,245.7818516072629L323.11,243.7012923789709L323.505,246.73632479248337L323.90000000000003,242.00259819971782L324.295,241.7913202466195L325.47999999999996,239.71029818081445L325.875,243.42673310659796L326.8625,244.07978057706444L327.06,242.23870631634315L328.8375,236.38825822441052L329.03499999999997,238.50518200391957L331.20750000000004,240.33847302745872L331.9975,237.77224085932295L332.19500000000005,240.37239629937483L332.78749999999997,240.0072640150277L332.98499999999996,239.15104416808526L333.5775,240.41966963042003L333.9725,241.97149846770105L334.17,241.45593754486174L334.3675,243.37763486737165L335.75,243.726449277037L335.94750000000005,243.76544394457443L336.145,238.02532667364528L336.3425,240.15994521881527L336.935,233.61253127623763L337.33,233.42669110498443L337.5275,235.40686195498793L337.725,239.0608697149734L337.9225,242.9619597268099L338.91,243.800553941477L339.305,249.67950963668537L340.29249999999996,251.68560226540387L340.49,248.45628744879218L341.0825,247.9575935458794L342.46500000000003,246.1188554394569L342.86,249.01910425059745L344.835,248.061137082633L345.23,250.44002554377568L345.4275,249.17320844017084L345.8225,254.30612532048826L346.02,253.55368388690843L346.415,254.48768746115238L346.6125,252.7539867303954L347.79749999999996,252.98549298793844L347.995,255.31615193636642L349.18,256.9082953195612L349.3775,255.33253753687194L351.15500000000003,255.2445507655359L351.945,256.27612547777454L352.34,254.84736950066923L353.13,256.9873302078272L354.315,257.6133457003531L354.9075,258.43906825433436L355.30249999999995,256.0225927252166L355.895,258.74853484670587L356.28999999999996,256.9996509905844L356.4875,258.831485918455L357.2775,263.39331047444705L357.475,257.93260363070414L357.87,254.7080440282642L358.0675,252.94852494227268L358.46250000000003,250.8670363009302L359.05499999999995,251.54612003613988L359.2525,251.98600441486286L359.45,250.15391544711252L360.24,249.5402126948146L360.635,253.93138671326938L360.8325,250.95283800098645L361.03,252.95857302484495L361.425,249.78373942216035L361.82,245.5381304949033L362.21500000000003,246.12109576945377L362.80749999999995,250.59084011454192L363.4,247.72976175076184L363.59749999999997,248.56301373972227L363.79499999999996,247.46555326325193L364.3875,252.2974221241286L364.7825,251.34818661454423L364.98,251.3364742914298L365.5725,254.1086003872331L365.77000000000004,253.59709629043866L366.3625,246.84712398064L367.1525,248.1142680380597L367.34999999999997,248.36862956374685L367.54749999999996,249.69187077482397L368.93,251.66780164338286L369.325,250.67808456284993L369.52250000000004,253.7361359964811L369.72,256.27431126324507L370.3125,255.65657599968566L370.51000000000005,255.49362351941315L370.905,255.6173332000987L371.695,256.03078190857275L371.8925,256.7371794208517L372.09,258.643390315296L372.6825,255.26533572647637L373.4725,255.30013123216483L373.67,256.8050979269277L374.065,259.244070482426L374.26250000000005,262.6635104053138L374.46000000000004,264.7970599266976L374.65749999999997,268.47299455134066L375.0525,267.5909417999671L375.645,267.94769693404135L375.8425,270.04453019837746L376.04,271.099856958105L376.2375,268.4969918269578L377.02750000000003,272.0477157103205L377.225,273.23727471035613L378.21250000000003,275.33601399091145L378.60749999999996,273.09371953515824L378.805,266.6023103716473L379.0025,267.0245060610963L379.7925,267.18045747155145L380.385,265.3787719579225L380.78000000000003,268.99538907168596L381.3725,267.8202520395085L381.57,269.1384786494825L381.76750000000004,270.6419707088782L381.96500000000003,269.59437876965285L382.16249999999997,268.58506844420174L382.5575,267.73802025253116L382.9525,268.93371214989094L383.545,270.0746396698447L383.7425,266.99799562188684L384.1375,271.1075785431344L384.335,269.4240983537984L384.5325,270.2366144279367L385.125,275.6142469849201L385.52000000000004,274.405091106285L385.71750000000003,274.4300485857164L385.91499999999996,277.5039878381191L386.11249999999995,279.45991210170587L387.495,278.1965361162502L387.6925,275.55400263360775L388.285,272.82463978809625L389.27250000000004,272.3003511905781L390.0625,272.18741434250063L391.2475,263.4570067923927L391.445,260.54008385292855L391.84,261.00091901228296L392.63,263.3102724237127L392.82750000000004,261.34565867444L393.02500000000003,262.1407548581635L393.42,261.9518570281207L393.61749999999995,266.42365297811597L393.815,266.19681147723986L394.60499999999996,263.32184621826383L395.395,263.2161251220439L395.79,261.89751413838735L395.9875,264.28291217674473L397.56750000000005,259.1510278809991L397.765,261.3844497037863L398.35749999999996,266.12295243138766L398.95,268.4949910530489L399.74,270.8924287181956L400.135,273.7537857777102L400.925,272.98014608170985L401.91249999999997,274.2647495528783L402.10999999999996,275.02731629578074L402.9,275.33088392059324L403.0975,275.46019105488716L403.69,275.33234558007507L403.8875,273.82162144481197L404.08500000000004,267.50491415533617L404.6775,265.1712015059092L405.27,262.8422303987174L405.4675,262.34574762368715L405.86249999999995,261.9664786035077L406.2575,262.2951779107341L406.455,267.02130101308614L406.6525,269.185677856963L408.035,272.35503374884104L408.43,273.2678908346306L408.6275,275.4909549932525L409.8125,275.8306001412131L410.01,276.2208321683953L410.2075,278.5723755583664L410.405,278.62875537507887L410.6025,276.35170226271094L410.9975,275.52694380643715L411.59000000000003,277.529953247481L412.97249999999997,276.32648148577425L413.16999999999996,277.6981852702197L413.3675,281.1303973444694L415.145,279.726615636599L415.7375,279.34806459605625L415.935,281.81212192020297L416.72499999999997,281.5147793896031L416.92249999999996,284.15027722213745L417.12,278.87579484416057L417.3175,279.6535767208129L417.90999999999997,277.3665011687412L418.1075,280.9203338747389L418.305,281.7493423666736L418.5025,285.2368608446066L419.2925,285.61501447188544L419.49,285.9903410898911L419.6875,284.5608038612833L420.28000000000003,283.8742134534517L420.67499999999995,282.48514399506314L421.07,283.8944268707855L421.465,281.94628740677535L421.66249999999997,284.1176523735046L421.86,280.0396314280111L422.255,278.98210750679516L422.4525,280.8618727313755L423.44,284.4390838797983L424.0325,283.4138394378912L424.42749999999995,279.32216289436633L425.02,283.3392192551732L425.6125,285.9639045995795L425.81,286.05226801068744L426.205,284.0284162679546L426.6,286.09838255477655L427.785,287.4001151558412L427.9825,282.94631083781996L428.3775,280.6788145482032L428.7725,279.3397789393018L430.55,279.00009348427596L430.7475,280.01090215900575L430.945,278.67487664282044L431.14250000000004,278.54192567816665L433.5125,278.65609293123174L433.9075,280.55864563640677L434.3025,281.59731585558865L434.6975,278.2669502507697L435.4875,274.83174900950326L435.685,272.82725793371327L435.88250000000005,273.54406927436554L436.08,272.46486291251773L436.2775,270.57389460265176L436.47499999999997,272.6451354474842L436.67249999999996,275.8061779057723L437.0675,277.1344822752611L437.265,278.6738454611918L437.4625,277.2655261159713L437.8575,275.4108762495274L438.845,276.036308850431L439.4375,276.2853242381367L439.8325,275.3001326040816L440.03,273.8733457682376L440.42499999999995,270.1489455230261L441.0175,269.500829312833L441.61,268.444206178771L442.005,270.7067426012439L442.5975,270.3217002302386L443.19,272.3833930162523L443.38750000000005,271.41710899752115L443.97999999999996,269.2153173910254L444.375,265.29226010738665L444.5725,242.39769022803685L446.15250000000003,245.40829053604733L446.35,247.0169379790887L446.745,246.4661030075656L447.73249999999996,248.72883384573493L448.71999999999997,247.38588476975482L448.9175,249.32361631064444L449.115,245.49987401519692L449.51,239.76225009671148L449.7075,242.06639356785936L450.1025,243.02775253676782L450.4975,247.15474057888864L451.09000000000003,248.4458626390153L451.28749999999997,246.07422101400869L452.0775,244.4155625913919L453.065,249.47125146000926L453.46,248.5635427970215L454.64500000000004,247.91665059632948L454.84250000000003,248.94964374837284L455.03999999999996,248.15154033750449L455.23749999999995,250.50428339887213L455.435,248.19868351795222L456.0275,252.59070030611525L456.4225,250.65001731922268L457.015,252.8649265230739L457.2125,254.9800995155529L457.805,251.3295248807156L458.20000000000005,254.47930742262128L458.595,256.74256325997595L458.7925,253.60847494903277L458.98999999999995,255.97880857721157L459.78,258.85676400520833L460.57,258.6598749215681L460.7675,260.555259917881L460.965,260.7901577071418L461.755,261.6311680848213L461.95250000000004,258.41567858563036L462.3475,261.64307238846965L462.545,263.8850250396629L462.94,264.8110396941871L463.1375,267.3141600370396L463.335,270.01446902350835L463.72999999999996,272.8026245767246L463.9275,272.16935858919925L464.125,273.4927030869999L464.3225,277.0934544882782L464.915,277.1599676799847L465.31,281.04148939601544L465.5075,282.7030478782979L466.69250000000005,279.4827269384867L466.89,278.8308569860041L467.0875,279.6542918952849L467.8775,282.1037916039708L468.2725,281.29097856369617L468.6675,279.84884576332314L469.45750000000004,277.25976087258334L470.84,277.3150953162651L471.4325,277.3071316274587L471.8275,279.1441263344478L472.2225,279.7098069550402L472.42,282.29115917412514L472.815,285.7656448543418L473.21000000000004,286.30128849691204L473.605,292.0159208833956L473.8025,292.66606415424144L474,294.0708769139331L474.5925,293.27061743371706L474.78999999999996,293.9415630329785L475.3825,294.52531609909533L475.58,291.1137847747383L476.1725,290.03583915080503L476.765,288.27565405732696L477.555,288.65096704882916L478.74,285.6229579238734L478.9375,286.9125787741425L479.53,289.0840654175547L479.7275,292.3283295259435L480.1225,293.309790151111L480.5175,293.2401456167728L480.71500000000003,290.817702971471L481.11,289.90490373959005L481.3075,293.75057346310047L481.70250000000004,292.4022684999189L481.90000000000003,290.7870888331384L482.09749999999997,290.61351371549284L482.29499999999996,289.5207066573532L482.69,291.1906287727513L483.085,292.6784692634558L483.28249999999997,288.501292140081L484.0725,288.7091905727352L484.27,286.33493151112145L484.665,289.4373440878565L485.2575,288.695777786784L485.65250000000003,289.5142447632354L486.245,288.1293548099456L487.43,289.4269588729748L488.615,288.373810381813L489.40500000000003,287.36596820934585L489.9975,287.75186771066126L490.985,285.59006254995535L491.38,289.20806275511586L491.9725,289.2262289515636L493.1575,290.6807478560751L493.355,286.16096078509304L493.75,281.98282469959105L494.3425,282.4245723159507L494.935,284.65637334139126L495.1325,287.48713454792687L495.33,290.2872899575968L497.1075,289.61403778079034L497.30499999999995,289.8618202947541L497.5025,291.8985643849587L497.7,291.3245382250057L498.09499999999997,290.980880280881L498.49,285.63029408226737L499.0825,287.1999429388479L499.28,286.55628799183796L500.07,285.11618496548857L500.46500000000003,284.67745612825814L500.6625,282.0805764374438L500.86,279.7635696535112L501.05749999999995,281.7241079413546L502.6375,283.9945718943908L504.415,282.5089956574662L504.81,283.809815926029L505.4025,282.0714921855511L506.39,285.0862036874116L506.9825,284.22425245634355L507.18,286.9686184641472L507.77250000000004,286.4771388426879L507.97,288.1565779182003L508.5625,290.1935538099262L509.155,287.76123099490775L509.54999999999995,289.5182994075633L509.945,290.71241666747557L510.5375,289.52297738932964L511.13,287.5204651470604L511.3275,286.6072559389947L511.52500000000003,288.0347105621375L511.92,287.9909178211143L513.5,288.86175921112965L513.895,288.80822031087456L514.2900000000001,293.7834399068372L514.685,291.60111048136673L515.6725,293.378648060187L516.66,294.33497557677777L517.45,297.04625889272097L518.24,290.70852356442964L518.4375,290.42451365759126L518.635,294.26884209611933L519.425,293.12753229697887L519.6225,291.9813842618244L519.8199999999999,293.41524898832023L520.0175,292.17928486626346L520.61,287.0210878907844L521.5975,287.71750345897215L522.19,285.5868086449103L522.5849999999999,285.9992933532711L523.375,283.45805439378876L523.5725,281.9721956768924L523.77,281.35650334273885L523.9675,283.997571799821L524.3625,282.6468568504591L524.7575,277.6390777452853L525.35,277.9107411316985L525.9425,280.40162809640094L526.14,281.88222492741517L526.535,283.67431430412324L526.93,281.9766393111572L528.3125,283.0545863123296L528.905,282.5010505480368L529.1025,282.6512127035608L529.4975000000001,280.76170689182476L529.8924999999999,281.89634501393334L530.2875,282.75498386161985L530.485,285.04953090128254L530.88,279.10238660507963L531.4725,278.6780744448265L531.8675,277.0026528320018L532.46,271.05709529988354L532.855,274.85014260935634L533.0525,275.0911941661853" style="fill: none;" fill="none"></path></g></g></g></g><g opacity="0.2"><g><g><g><path stroke="rgb(255, 112, 67)" stroke-width="2px" d="M43.055,-222.88085980848828L43.2525,41.818800622766695L43.449999999999996,-123.78574067896064L46.61,-32.80891331759366L47.4,24.74014780738135L47.794999999999995,-82.77160861275411L48.190000000000005,74.37655969099569L48.387499999999996,-53.533419695767485L50.3625,-206.70957391912285L50.56,61.47060676054526L50.7575,-0.5520395799116273L51.9425,60.75429894707422L52.3375,-27.784845178777537L52.535000000000004,30.985003384676855L52.7325,-105.01229849728672L52.93,-79.82879031788222L53.522499999999994,131.5383000807329L53.72,-69.65546607971191L53.917500000000004,-23.57892296530986L54.114999999999995,24.905767874284226L55.1025,73.47554228522563L56.089999999999996,-214.2501822384921L56.6825,63.196693116968355L56.879999999999995,68.42382300983779L58.065,67.4395654418252L59.645,66.89502239227299L60.237500000000004,80.60974034396088L60.435,72.63425133445048L61.817499999999995,68.22186730124736L62.41,87.4127392335372L62.805,95.81409671089868L64.1875,90.1168974963102L64.38499999999999,65.92448798092934L64.97749999999999,134.28866646506572L65.175,93.23602763089272L66.5575,109.32759631763808L66.9525,159.70063447952273L67.3475,104.28452058271932L67.545,140.07688912478363L67.74249999999999,105.63397797671234L69.125,-129.35685071078214L70.1125,46.85700156471948L70.50750000000001,-10.75502222234551L70.705,116.26962921836162L70.9025,182.69704016772187L71.495,162.90120233188978L72.0875,77.96031084927651L72.48249999999999,194.771656556563L72.67999999999999,104.42371845245366L73.27250000000001,91.66089599782774L74.4575,166.38245994394478L74.655,61.060837398875876L75.05,197.43321158669212L75.6425,197.00308279557666L76.03750000000001,93.29296848990703L76.235,167.34418695623228L76.63,95.3162123940208L77.025,95.86620374159384L77.22250000000001,138.0024394122037L78.605,80.47803900458598L80.18499999999999,148.7722089073875L80.3825,121.37710137800741L80.58,128.91631689938632L81.36999999999999,181.562933921814L83.345,91.94097128781411L83.5425,13.647986542094825L83.9375,166.33285175670278L84.3325,59.54522739757196L84.7275,143.25955542651093L85.32,92.74723746559839L85.5175,144.87110463055697L85.715,139.41752217032695L86.3075,72.27437691255054L88.2825,-234.15113535794345L88.67750000000001,131.91497000780976L89.8625,219.4035757671703L90.455,161.60921833731913L90.6525,66.91730716011743L90.85,109.33435548435561L91.0475,120.89748729359023L91.44250000000001,168.4358128634366L92.2325,115.49367687918925L92.62750000000001,195.1523000543768L93.0225,204.86403465270996L93.4175,107.89510358463637L94.405,114.53330170024526L95.58999999999999,190.65892891450366L96.9725,126.8265054442666L97.17,115.79910928552802L98.1575,90.71125355633828L98.355,171.45597241141581L98.9475,55.2540987188166L99.14500000000001,170.94985420053658L99.34249999999999,-57.91434288024902L100.13250000000001,93.91636848449711L100.33000000000001,143.97447044199166L100.725,8.363178426569142L101.3175,224.1681328686801L102.1075,145.1134924455123L102.30499999999999,233.80248524925926L102.5025,196.26063953746456L102.7,211.3245690952648L103.095,180.3239172155207L103.6875,249.1244101524353L103.885,117.31877478686249L104.08250000000001,128.04135300896385L104.675,159.20668276873505L105.2675,71.72536871650004L106.4525,140.0949545340105L106.84750000000001,100.45317909934306L107.44,184.350250417536L107.6375,86.67033694007182L108.03250000000001,131.57918279821226L108.22999999999999,190.24047504771846L109.2175,148.80121187730273L109.415,117.05492149699819L110.205,120.94836538488218L110.60000000000001,198.9859765226191L111.1925,2.9203287037936048L111.9825,149.08640774813568L112.77250000000001,154.32332819158384L113.1675,205.45023874803027L113.9575,172.15106053785846L114.155,277.64280926097524L114.3525,167.92236198078504L114.74749999999999,229.07319870862094L115.735,233.28952594236898L115.93249999999999,197.17083302411166L116.7225,140.3470919348977L116.92,110.73374878276479L117.1175,157.24250988526782L119.0925,174.0274052186446L120.08,148.16093444824222L121.46249999999999,68.84469379078261L121.66,262.646512334997L122.6475,123.85734688151967L122.845,129.4216567819769L123.24000000000001,101.59043962305243L123.63499999999999,179.8738796060736L124.425,162.57115017284048L126.2025,99.43856672807178L126.5975,239.455811327154L126.795,104.93389216336342L127.38749999999999,179.93774349039253L128.57250000000002,153.6994366212325L130.1525,144.31074922735044L130.35,194.83064564791593L130.5475,158.63772478970614L130.9425,231.73057534477928L131.14000000000001,166.47930036891591L131.7325,113.6444507945668L131.93,218.794472434304L132.9175,80.3696465492249L133.115,86.29137299277568L135.2875,241.9121744415977L135.88,214.098858833313L136.07750000000001,205.50861336968163L136.4725,200.29246200214735L136.8675,180.91200568459251L137.46,232.4693727493286L139.6325,191.2879820303484L140.4225,205.91309829191732L140.62,130.04927613518456L141.01500000000001,216.75807887857613L141.6075,204.29905024441805L142.0025,43.177720850164256L142.99,234.7552819685503L143.1875,179.2108258334073L144.3725,225.2659034729004L144.7675,244.1043975136497L144.96499999999997,109.22162077643657L145.1625,237.7416456829418L145.35999999999999,136.28036759116435L145.5575,197.1120077913458L145.755,203.91840674660423L146.15,167.81708283857867L146.54500000000002,149.26861849698153L147.5325,249.46744810451162L147.73,199.88756743344393L147.9275,223.23307384144178L148.32250000000002,96.5337226607583L149.11249999999998,144.12755532698202L149.5075,250.82268151369962L149.9025,159.42170619964602L150.69250000000002,167.19802509654653L150.89,168.87786236676303L151.08749999999998,95.59190446680243L151.8775,191.51373819871387L152.66750000000002,338.6947982961481L152.86499999999998,116.32718454707754L153.4575,186.78936741568828L153.8525,188.27908776023173L154.05,184.75743900645864L154.2475,201.9949527220293L154.44500000000002,231.94490237669515L154.64249999999998,167.69238645380196L154.84,126.75522695888174L155.23499999999999,175.00854947350243L155.4325,160.27762152931908L156.42000000000002,189.2296314239502L156.61749999999998,209.09703449769458L157.21,45.57882265611132L157.4075,222.12334156036377L158,245.60292525724935L158.39499999999998,225.41100025177002L159.185,212.33184879476377L159.58,215.60693133961072L159.97500000000002,135.84757609800863L160.36999999999998,192.58385766636243L160.9625,248.530463738875L161.7525,294.3647828969088L161.95000000000002,238.60395149751147L162.345,261.20734236457133L162.9375,309.02287569913L163.72750000000002,193.18984768607402L164.715,220.56529218500313L166.09750000000003,258.08677846735173L166.295,257.14975313706833L166.69,261.8306194652211L166.8875,169.10140644420278L167.085,128.2130358435891L167.2825,284.11194627935237L167.6775,279.16386756029993L168.26999999999998,148.93729643388232L169.06,296.78956226869064L169.2575,145.80686005679047L170.04749999999999,133.81015842611143L170.64,200.54070776159116L171.43,249.4546671347185L172.02249999999998,251.18358005176893L172.22,182.87527734583077L172.4175,232.8357195854187L172.615,147.64428832314232L172.8125,247.58962869644165L173.2075,240.06196520545268L173.405,267.49557950279933L173.60250000000002,156.73057469454682L173.9975,188.17094109275126L174.195,195.83468914031982L174.39249999999998,212.3346753553911L174.59,323.1207769567316L174.985,308.21021903644913L175.38,188.1098218397661L175.57750000000001,178.5307307676836L176.96,252.31428623199463L177.5525,111.51715668764984L177.75,230.074333711104L177.9475,264.6769660169428L178.3425,220.6518095189875L178.935,115.59100887992167L179.33,221.7204542593523L179.725,192.3218887502497L180.515,224.7916557572105L181.305,281.32532618262553L181.89749999999998,280.621922232888L182.095,180.75068690560082L182.2925,250.1481166752902L182.49,215.81806312907827L182.6875,229.496199651198L183.67499999999998,185.66914818503642L184.86,160.5151345513084L185.25500000000002,257.8783503445712L185.4525,138.43051997098055L185.64999999999998,177.64978603883227L186.2425,219.87298965454102L186.835,201.9882754846053L187.0325,200.01693378795284L187.625,240.7223562760787L187.8225,163.36971499703148L188.02,190.6792883439498L188.415,36.85785900462763L188.81,111.40200506557119L189.995,209.3114844235507L190.5875,138.48754275928846L190.785,208.31608447161588L191.3775,199.41770293495873L191.575,178.90240300785413L191.7725,272.5871983441439L192.1675,239.2452530427413L192.365,311.3042788072066L193.54999999999998,250.58492270382968L194.34,170.61169104142627L194.53750000000002,239.92436495694247L194.93249999999998,224.7727710550482L195.3275,253.10031587427315L195.7225,316.4177318052812L195.92,287.76394453915685L196.1175,218.8413359902122L196.315,194.30056311867455L196.51250000000002,102.12666684930976L197.105,158.96642511541197L197.5,194.61181250485507L197.895,180.60903115706012L198.4875,226.02469162507495L198.8825,274.9869892813943L199.07999999999998,243.69577516208997L199.2775,255.7059951262041L200.0675,212.05881942402235L200.4625,253.7520224397833L200.66000000000003,297.8024950894442L201.05499999999998,82.16352939605717L201.6475,158.52212255651304L202.4375,161.88060912218964L203.03,150.36548787897286L203.6225,252.3052740097046L203.82,33.53853464126587L204.215,184.2879022251476L204.60999999999999,314.9939235773954L205.005,265.99148056723857L205.9925,211.15505738691854L206.58499999999998,172.18784679066053L206.7825,219.93808247826317L206.98,316.0282809084112L207.5725,245.35414695739746L209.1525,200.8245927637274L209.35,284.76467696103185L209.5475,178.18081075494942L209.9425,191.37716206637296L210.7325,230.90329430320048L211.1275,254.90943756970492L211.325,209.29751547900113L212.115,217.46168765154752L212.51,230.11185732754794L212.70749999999998,184.09176349639895L213.3,183.2153658433394L213.69500000000002,323.53189815174454L214.08999999999997,185.76959349892357L214.6825,238.4750357541171L215.0775,281.95986856113785L215.275,265.60731410980225L215.67000000000002,161.77111062136566L215.8675,185.6097904118625L216.45999999999998,257.45330116965556L217.0525,226.07864206487486L217.25,266.63028326901525L218.6325,209.79224551807752L218.83,258.6946938254617L219.0275,228.81925886327573L219.225,196.8914950977673L219.62,97.03820228576664L219.81750000000002,267.5029121745717L220.21249999999998,305.457558631897L220.41,176.23953710902822L220.6075,148.36186604066333L221.20000000000002,202.29854171926328L221.3975,225.1566097953103L221.595,259.0271219340238L221.79250000000002,243.20833683013916L222.1875,102.62700904499404L223.3725,219.51200918717822L223.57000000000002,171.2277993288907L224.1625,240.75307976115835L225.54500000000002,274.84033584594727L226.1375,247.90063229474154L227.51999999999998,190.21941921927714L227.7175,224.12938031283292L227.915,220.12148120186546L228.31,312.451821457256L228.5075,215.2311216701161L228.705,177.16828758066353L229.2975,213.7485701387579L229.49499999999998,199.85831867564815L229.89,120.9475870565935L230.285,200.6255865097046L230.4825,268.98300582712346L231.2725,241.86330361799764L231.47,212.1511537378485L232.26,317.8283494169062L232.4575,223.59999418258667L232.655,211.921423998746L232.85250000000002,230.3362616625699L233.445,262.7115232294256L233.64249999999998,149.24764459783384L233.84,161.16573507135567L234.4325,179.73771312020043L234.63,184.42111925645312L236.21,204.78497288443828L237,366.39484665610576L237.39499999999998,194.41792683167895L237.79,240.80076261000204L237.9875,227.36120419068774L238.58,222.8889708085494L238.7775,284.7145362333818L239.17249999999999,123.04423960772431L239.37,145.01616044477987L239.5675,222.29953050613403L239.765,229.05402725393125L240.35750000000002,217.23789778622714L241.9375,279.72999897870153L242.3325,224.89369869232178L242.72750000000002,250.01526832580566L243.1225,271.915255243128L243.32,172.82976280559194L243.51749999999998,235.2954418008978L243.9125,189.63124882091182L244.3075,177.30932885950264L244.505,148.19157600402835L244.70250000000001,139.3316193060442L245.295,246.0339962352406L245.69,145.61883232810283L247.0725,147.5743207064542L247.26999999999998,289.33751951564443L247.8625,98.7208661166105L248.25750000000002,265.72922489859843L249.4425,218.70459599928427L249.64,179.11357576196846L250.035,163.5388989882036L250.43,154.32832587849012L251.22,255.55106683210897L252.01000000000002,228.65920998833397L252.405,266.0387537696145L252.79999999999998,235.12711806730795L253.3925,194.41288818012586L253.59,300.43861107392746L253.7875,230.9657244248824L253.985,70.7427497343584L255.17,235.38654717532071L255.3675,270.80064816908407L256.5525,233.20124712857333L256.9475,338.77545768564397L257.3425,209.8249353062023L257.53999999999996,231.9283116947521L257.7375,238.8262256709012L259.515,293.0551431395791L259.90999999999997,249.4567972963507L260.5025,189.2527764493769L261.29249999999996,310.5133334073153L261.6875,251.78600614721128L261.885,205.7508373260498L262.675,279.45549488067627L262.8725,315.1362757249312L263.2675,266.1948290738192L263.465,162.2652671553872L263.6625,253.91125202178955L264.255,176.86289613897154L264.4525,241.64938623254952L266.4275,170.0605526837436L266.8225,221.38999245383525L267.02,342.8346035697244L267.6125,217.3309694636952L267.81,171.9068293137984L268.0075,240.1001852208918L268.6,216.0135464234786L268.7975,228.13146244395864L268.995,287.6905358921398L271.9575,338.6660001494668L272.55,143.35492112419823L272.945,183.9272085103122L273.1425,211.79508902809837L273.5375,267.69978826696223L273.735,281.8709343129938L274.3275,212.4587572704662L274.92,291.8143649534746L275.1175,258.06695157831365L275.315,265.4330505024303L275.5125,166.67892109264028L275.9075,236.1987941915339L276.3025,229.63883855126122L276.6975,227.1513423052701L277.09250000000003,207.49142516743055L277.29,339.93119326504797L277.685,307.31931989843196L278.08000000000004,315.5658719756387L278.47499999999997,242.99069166183472L278.67249999999996,287.25438529794866L278.87,250.21984577178955L279.0675,272.60555050589824L279.265,353.73255144466054L281.24,268.28128142790365L282.03000000000003,96.93144841627645L282.82,282.14146484028214L283.0175,116.91687063737353L283.215,160.08017193187368L283.61,259.3155540119518L284.2025,279.0038186853582L284.795,241.79104198109022L285.19,203.01144946705213L285.58500000000004,281.45727330988103L285.7825,228.96558458154854L286.17749999999995,247.5155236504295L286.9675,255.54836316542196L287.16499999999996,214.0533880753951L287.3625,175.02874504436147L287.7575,281.3542062586004L287.955,287.33230005611074L288.5475,210.54988666014242L288.745,135.49401023171166L288.9425,196.79047627882528L289.14000000000004,313.2544417814775L289.535,196.52191205458212L290.5225,226.6975359483199L291.115,236.4417145468972L292.1025,288.8023573702032L292.4975,185.9863784096458L293.2875,266.52217756618154L293.68249999999995,221.7089431936091L294.47249999999997,227.74143804203382L294.66999999999996,211.60812638022685L294.8675,254.31516343897042L295.065,239.76976438002157L295.46,224.459473436529L296.0525,236.63138086145577L296.25,192.44592970067808L296.64500000000004,211.59223209727895L296.84250000000003,242.36946279352364L297.04,197.61493075977674L298.22499999999997,246.2403761256825L298.62,241.0272561420094L298.8175,172.1395085074685L299.2125,275.4275230927901L299.41,191.41108079390096L300.0025,279.88173203034836L300.2,228.9542783390392L301.1875,228.29134746031332L301.38500000000005,237.60642138394442L301.5825,233.2055484164845L302.17499999999995,221.10909787091342L302.57,179.47361404245552L302.7675,283.95214319229126L302.965,294.4955830140547L303.1625,233.96568840200254L303.36,291.4144680716775L303.5575,264.0547539971092L304.7425,268.1333580884066L305.72999999999996,245.19151730970907L305.9275,275.9972594001077L306.125,216.7402592572299L307.1125,150.6316761537032L307.90250000000003,190.8354046128013L308.2975,296.91364418376577L308.495,299.60719260302454L309.28499999999997,312.222911011089L310.075,272.0524458451705L311.4575,284.0532439405268L311.8525,296.8654697591608L312.445,267.9890396378257L312.84000000000003,266.4684319496155L313.03749999999997,250.58127685026693L313.63,240.0027712908658L313.8275,27.795905633406203L314.22249999999997,242.53315752202818L314.42,333.86252663352275L315.0125,291.79019581187856L318.37,300.3174376487732L318.5675,262.00435053218496L318.765,307.76034528558904L318.9625,319.98689954931086L319.7525,275.8802234042775L320.345,231.41498370604086L320.5425,226.89039750532675L321.135,343.1326213749972L321.3325,231.41879341819072L321.53,-55.7989285208962L322.32,257.0748287981207L322.5175,289.5569261637601L322.715,258.55271035974675L323.11,204.17066704143178L323.505,304.401940649206L323.90000000000003,152.06179293719208L324.295,237.77703913775358L325.47999999999996,200.1708789305254L325.875,314.03899669647217L326.8625,256.48768251592463L327.06,207.25829536264595L328.8375,125.22974447770557L329.03499999999997,278.72673381458634L331.20750000000004,275.1710024746981L331.9975,189.01382966475057L332.19500000000005,289.77534966035324L332.78749999999997,233.06975061243233L332.98499999999996,222.88286707618022L333.5775,264.5235534147783L333.9725,271.4562463760376L334.17,231.66028001091698L334.3675,279.88988399505615L335.75,250.3539230606773L335.94750000000005,244.50634262778544L336.145,128.963098526001L336.3425,280.71769757704305L336.935,109.21166636727075L337.33,229.89572785117412L337.5275,273.03010810505265L337.725,308.4870171546936L337.9225,317.082669951699L338.91,259.73384402014995L339.305,361.3796678456393L340.29249999999996,289.801362211054L340.49,187.09930593317208L341.0825,238.48240939053622L342.46500000000003,211.18283141743055L342.86,304.12383166226476L344.835,229.8597608913075L345.23,295.6389063054865L345.4275,225.1036834716797L345.8225,351.83154604651713L346.02,239.2572966488925L346.415,272.23375537178737L346.6125,219.81367284601387L347.79749999999996,257.3841118812561L347.995,299.5986719564958L349.18,287.1590196002614L349.3775,225.39313966577706L351.15500000000003,253.57280211015186L351.945,275.87604501030665L352.34,227.70100593566895L353.13,297.64658364382655L354.315,269.50764005834407L354.9075,274.1277967799794L355.30249999999995,210.10955767198047L355.895,310.5414351550016L356.28999999999996,223.77085772427645L356.4875,293.63634954799306L357.2775,350.06797703829676L357.475,154.17917359958997L357.87,193.4414115819064L358.0675,219.51766230843285L358.46250000000003,211.31875211542305L359.05499999999995,264.44871100512415L359.2525,260.3438076105985L359.45,215.3442250598561L360.24,237.87986040115356L360.635,337.36369306390935L360.8325,194.36041246760982L361.03,291.06753847815776L361.425,189.46190097115257L361.82,164.87156087701973L362.21500000000003,257.197435985912L362.80749999999995,335.5159826712175L363.4,193.36927283893934L363.59749999999997,264.39480152997106L363.79499999999996,226.61380421031606L364.3875,344.10293048078364L364.7825,233.31271193244243L364.98,251.11394015225497L365.5725,306.77899620749736L365.77000000000004,243.8785184513439L366.3625,118.59765009446582L367.1525,272.19000512903386L367.34999999999997,253.20149855180225L367.54749999999996,274.83345378528946L368.93,289.21048814600164L369.325,231.8734600327232L369.52250000000004,311.83911323547363L369.72,304.4996413317594L370.3125,243.91960599205711L370.51000000000005,252.3975263942372L370.905,257.9678171331232L371.695,263.886307369579L371.8925,270.15873215415263L372.09,294.8613973097368L372.6825,191.0822985389016L373.4725,255.96124584024605L373.67,285.3994651274248L374.065,305.58454903689295L374.26250000000005,327.63286894018L374.46000000000004,305.3345008329912L374.65749999999997,338.31575241955846L375.0525,250.83193952387032L375.645,274.72604448145086L375.8425,309.88436222076416L376.04,291.1510653929277L376.2375,219.04255433516073L377.02750000000003,339.5114694942128L377.225,295.83889571103185L378.21250000000003,315.2120603214611L378.60749999999996,230.49012487584898L378.805,143.26553626493978L379.0025,275.0462241606279L379.7925,270.14353427019984L380.385,231.14674719897184L380.78000000000003,337.71111423319036L381.3725,245.49264842813668L381.57,294.1847842389887L381.76750000000004,299.2083198373968L381.96500000000003,249.69013192436913L382.16249999999997,249.40817226063123L382.5575,251.64410461078992L382.9525,291.65185819972646L383.545,291.7522625489668L383.7425,208.54175871068784L384.1375,349.18965404683894L384.335,237.43797475641426L384.5325,285.6744198365645L385.125,377.78926556760615L385.52000000000004,251.43112941221762L385.71750000000003,274.90424069491297L385.91499999999996,335.9088336337697L386.11249999999995,316.6224731098522L387.495,254.19239239259204L387.6925,225.3458664634011L388.285,220.96674572337758L389.27250000000004,262.3388678377325L390.0625,270.0416142290289L391.2475,97.57926334034316L391.445,205.11854800311002L391.84,269.7567870400169L392.63,307.18798724087804L392.82750000000004,224.01799743825742L393.02500000000003,277.24758234891027L393.42,258.3627982573076L393.61749999999995,351.3877760280263L393.815,261.8868229605935L394.60499999999996,208.6975062977184L395.395,261.2074242938649L395.79,236.84390544891357L395.9875,309.6054749055342L397.56750000000005,161.6452262618325L397.765,303.8194643367421L398.35749999999996,356.15450425581497L398.95,313.56372486461294L399.74,316.443744355982L400.135,328.1195699084889L400.925,258.2809918577021L401.91249999999997,298.6722155050798L402.10999999999996,289.51608441092753L402.9,281.09866879203105L403.0975,277.91702660647303L403.69,272.9032815586437L403.8875,245.11786287481138L404.08500000000004,147.48747565529564L404.6775,220.830661166798L405.27,218.59177936207166L405.4675,252.91257489811292L405.86249999999995,254.76036722009835L406.2575,268.5404647480358L406.455,356.8176399577748L406.6525,310.308837890625L408.035,332.5727956945246L408.43,290.6121754646301L408.6275,317.729174007069L409.8125,282.28385795246476L410.01,283.6352406848561L410.2075,323.25169996781784L410.405,279.699971892617L410.6025,233.08769312771884L410.9975,259.85653313723475L411.59000000000003,315.5871326273138L412.97249999999997,253.4605180133473L413.16999999999996,303.7605571746826L413.3675,346.3424267552116L415.145,253.05476318706167L415.7375,272.15559482574463L415.935,328.62921107899064L416.72499999999997,275.86527130820537L416.92249999999996,334.22473604028875L417.12,178.66062966260043L417.3175,294.4314323772084L417.90999999999997,233.9120656793768L418.1075,348.4431552886963L418.305,297.5005037134344L418.5025,351.4997119253332L419.2925,292.79993339018387L419.49,293.12154683199793L419.6875,257.39959651773626L420.28000000000003,270.8289957046509L420.67499999999995,256.0928242856806L421.07,310.6708015095104L421.465,244.93163759058174L421.66249999999997,325.3735867413607L421.86,202.55723346363416L422.255,258.8891530036926L422.4525,316.577411998402L423.44,352.4060956998305L424.0325,263.9341950416565L424.42749999999995,201.58030856739393L425.02,359.66329011050135L425.6125,335.83292614329946L425.81,287.73117282173854L426.205,245.57523315603086L426.6,325.42774200439453L427.785,312.13303457606924L427.9825,198.32402879541573L428.3775,237.5963850454851L428.7725,253.89810237017545L430.55,272.546069838784L430.7475,299.21626697887075L430.945,253.2903918352994L431.14250000000004,276.0158573497426L433.5125,280.82527073946864L433.9075,316.7071470347318L434.3025,301.3320500200445L434.6975,214.9900037592108L435.4875,209.56292542544278L435.685,234.7419274937023L435.88250000000005,287.1634847467596L436.08,251.95994203740904L436.2775,234.64549671519887L436.47499999999997,311.9987114993009L436.67249999999996,335.8659846132452L437.0675,302.37226529554886L437.265,307.9217459938743L437.4625,250.50745855678213L437.8575,240.17252878709277L438.845,287.91952826760036L439.4375,281.01661660454494L439.8325,256.58149155703455L440.03,246.76439588720152L440.42499999999995,199.38534086400816L441.0175,257.186621319164L441.61,248.36836663159457L442.005,313.6949346282266L442.5975,263.0058951811357L443.19,311.55555595051163L443.38750000000005,253.0577126416293L443.97999999999996,227.38127686760643L444.375,190.7541717182507L444.5725,-192.5991374796087L446.15250000000003,302.60969638824463L446.35,277.58123939687556L446.745,236.00023854862562L447.73249999999996,291.7207197709517L448.71999999999997,221.86985232613304L448.9175,286.14051558754664L449.115,172.84877040169457L449.51,130.7473956454884L449.7075,285.8451195196672L450.1025,261.2935729460283L450.4975,325.5675133791837L451.09000000000003,272.977181781422L451.28749999999997,201.01303013888273L452.0775,212.90105256167325L453.065,345.5293399637396L453.46,231.31707820025358L454.64500000000004,235.62569878318095L454.84250000000003,268.57651363719594L455.03999999999996,232.98757553100586L455.23749999999995,295.2064015648582L455.435,204.39228578047323L456.0275,336.03901928121394L456.4225,213.77704056826505L457.015,294.9482013962486L457.2125,295.16838637265295L457.805,181.96860681880605L458.20000000000005,314.32517571882767L458.595,299.7444241697138L458.7925,194.06079704111275L458.98999999999995,301.0151475126093L459.78,313.537917137146L460.57,254.91898233240303L460.7675,296.56757484782827L460.965,265.2532157030973L461.755,277.6103652607311L461.95250000000004,197.32137810100215L462.3475,322.96355464241725L462.545,306.48212541233414L462.94,282.4053181301464L463.1375,314.8734465512362L463.335,321.32033976641566L463.72999999999996,325.77758008783513L463.9275,260.1373048262163L464.125,298.63624854521316L464.3225,345.5077311125669L464.915,278.4237183224071L465.31,354.79040200060064L465.5075,314.27265904166484L466.69250000000005,218.29662908207288L466.89,266.4453278888356L467.0875,295.2995551716198L467.8775,328.64428606900304L468.2725,265.8475307984786L468.6675,252.44832255623558L469.45750000000004,228.0671479485252L470.84,278.3664497462186L471.4325,277.15582154013896L471.8275,314.04702576723963L472.2225,290.4577387462963L472.42,331.3368513367393L472.815,351.780872778459L473.21000000000004,296.47851770574397L473.605,400.5939362265847L473.8025,305.0187863003124L474,320.7623193480752L474.5925,278.065687309612L474.78999999999996,306.6895294189453L475.3825,305.61662435531616L475.58,226.29468961195516L476.1725,269.55487229607326L476.765,254.83213728124448L477.555,295.78191388737076L478.74,228.09078454971313L478.9375,311.4153749292547L479.53,330.34231164238673L479.7275,353.9693475853313L480.1225,311.9575420292941L480.5175,291.9168994643472L480.71500000000003,244.7912927107378L481.11,272.5617183338512L481.3075,366.81829820979726L481.70250000000004,266.78447419946843L481.90000000000003,260.09867516430944L482.09749999999997,287.3155864802274L482.29499999999996,268.7573725526983L482.69,322.9191489653154L483.085,320.94743858684194L483.28249999999997,209.13492679595947L484.0725,292.65926079316574L484.27,241.22400934045967L484.665,348.3831830458208L485.2575,274.60601806640625L485.65250000000003,305.06511731581253L486.245,261.81644569743764L487.43,314.0814360705289L488.615,268.3639890497381L489.40500000000003,268.21696693247014L489.9975,295.08395823565394L490.985,244.5157644965432L491.38,357.9500666531649L491.9725,289.57138668407094L493.1575,318.31660704179245L493.355,200.28500643643466L493.75,202.59823907505384L494.3425,290.81777702678335L494.935,327.0605928247625L495.1325,341.27159747210413L495.33,343.4902427413247L497.1075,276.8222464214672L497.30499999999995,294.56968806006694L497.5025,330.59670209884644L497.7,280.41804118589926L498.09499999999997,284.45137934251267L498.49,183.96915630860767L499.0825,317.02327121387833L499.28,274.32684399864894L500.07,257.7542274648493L500.46500000000003,276.3416082208807L500.6625,232.7398623119701L500.86,235.74044075879183L501.05749999999995,318.9743354103782L502.6375,327.133387002078L504.415,254.28304715590048L504.81,308.52540102871984L505.4025,249.04334111647177L506.39,342.3657222227617L506.9825,267.8471790660512L507.18,339.11157261241567L507.77250000000004,277.13902603496206L507.97,320.0659203529358L508.5625,328.89609575271606L509.155,241.54709750955757L509.54999999999995,322.90259924801916L509.945,313.40064460581L510.5375,266.923631104556L511.13,249.4727325439453L511.3275,269.2562809857455L511.52500000000003,315.1563484018499L511.92,287.15885574167424L513.5,305.40774562142116L513.895,287.79098120602697L514.2900000000001,388.3126122301275L514.685,250.13685139742765L515.6725,327.1518620577726L516.66,312.5051983920011L517.45,348.560641895641L518.24,170.29155232689598L518.4375,285.02832542766225L518.635,367.3110824281519L519.425,271.44264611330897L519.6225,270.2045715938915L519.8199999999999,320.65867879173976L520.0175,268.6959665471857L520.61,189.01534535668114L521.5975,300.94939925453883L522.19,245.10360717773438L522.5849999999999,293.8365028121255L523.375,235.17451416362417L523.5725,253.74088005586108L523.77,269.6583489938216L523.9675,334.17787248438054L524.3625,256.98327281258327L524.7575,182.49127474698153L525.35,283.0723454735496L525.9425,327.72848042574793L526.14,310.01356471668595L526.535,317.72401246157557L526.93,249.72081444480204L528.3125,303.53557933460587L528.905,271.9838710264726L529.1025,285.50429365851664L529.4975000000001,244.86109646883878L529.8924999999999,303.4544693339955L530.2875,299.0691219676625L530.485,328.6459246548739L530.88,166.1066449772228L531.4725,270.61614340001887L531.8675,245.16964218833232L532.46,158.09150218963626L532.855,346.9180414893411L533.0525,279.6711737459356" style="fill: none;" fill="none"></path></g></g></g></g></g></g><g transform="translate(50, 378)" clip-path="url(#clip_1)"><clipPath id="clip_1"><rect width="553" height="22"></rect></clipPath><g><g><line x1="0" y1="0" x2="0" y2="5" style="visibility: inherit;" fill="rgb(0, 0, 0)" stroke="rgb(204, 204, 204)" stroke-width="1px"></line><line x1="39.5" y1="0" x2="39.5" y2="5" style="visibility: inherit;" fill="rgb(0, 0, 0)" stroke="rgb(204, 204, 204)" stroke-width="1px"></line><line x1="79" y1="0" x2="79" y2="5" style="visibility: inherit;" fill="rgb(0, 0, 0)" stroke="rgb(204, 204, 204)" stroke-width="1px"></line><line x1="118.5" y1="0" x2="118.5" y2="5" style="visibility: inherit;" fill="rgb(0, 0, 0)" stroke="rgb(204, 204, 204)" stroke-width="1px"></line><line x1="158" y1="0" x2="158" y2="5" style="visibility: inherit;" fill="rgb(0, 0, 0)" stroke="rgb(204, 204, 204)" stroke-width="1px"></line><line x1="197.5" y1="0" x2="197.5" y2="5" style="visibility: inherit;" fill="rgb(0, 0, 0)" stroke="rgb(204, 204, 204)" stroke-width="1px"></line><line x1="237" y1="0" x2="237" y2="5" style="visibility: inherit;" fill="rgb(0, 0, 0)" stroke="rgb(204, 204, 204)" stroke-width="1px"></line><line x1="276.5" y1="0" x2="276.5" y2="5" style="visibility: inherit;" fill="rgb(0, 0, 0)" stroke="rgb(204, 204, 204)" stroke-width="1px"></line><line x1="316" y1="0" x2="316" y2="5" style="visibility: inherit;" fill="rgb(0, 0, 0)" stroke="rgb(204, 204, 204)" stroke-width="1px"></line><line x1="355.5" y1="0" x2="355.5" y2="5" style="visibility: inherit;" fill="rgb(0, 0, 0)" stroke="rgb(204, 204, 204)" stroke-width="1px"></line><line x1="395" y1="0" x2="395" y2="5" style="visibility: inherit;" fill="rgb(0, 0, 0)" stroke="rgb(204, 204, 204)" stroke-width="1px"></line><line x1="434.5" y1="0" x2="434.5" y2="5" style="visibility: inherit;" fill="rgb(0, 0, 0)" stroke="rgb(204, 204, 204)" stroke-width="1px"></line><line x1="474" y1="0" x2="474" y2="5" style="visibility: inherit;" fill="rgb(0, 0, 0)" stroke="rgb(204, 204, 204)" stroke-width="1px"></line><line x1="513.5" y1="0" x2="513.5" y2="5" style="visibility: inherit;" fill="rgb(0, 0, 0)" stroke="rgb(204, 204, 204)" stroke-width="1px"></line><line x1="553" y1="0" x2="553" y2="5" style="visibility: inherit;" fill="rgb(0, 0, 0)" stroke="rgb(204, 204, 204)" stroke-width="1px"></line></g><g transform="translate(0, 8)"><text x="0" y="0" dx="0em" dy="0.95em" style="text-anchor: middle; visibility: hidden; font-family: Roboto, sans-serif; font-size: 12px; font-weight: 200;" fill="rgb(50, 49, 63)" stroke="none" stroke-width="1px">-200</text><text x="39.5" y="0" dx="0em" dy="0.95em" style="text-anchor: middle; visibility: inherit; font-family: Roboto, sans-serif; font-size: 12px; font-weight: 200;" fill="rgb(50, 49, 63)" stroke="none" stroke-width="1px">0</text><text x="79" y="0" dx="0em" dy="0.95em" style="text-anchor: middle; visibility: inherit; font-family: Roboto, sans-serif; font-size: 12px; font-weight: 200;" fill="rgb(50, 49, 63)" stroke="none" stroke-width="1px">200</text><text x="118.5" y="0" dx="0em" dy="0.95em" style="text-anchor: middle; visibility: inherit; font-family: Roboto, sans-serif; font-size: 12px; font-weight: 200;" fill="rgb(50, 49, 63)" stroke="none" stroke-width="1px">400</text><text x="158" y="0" dx="0em" dy="0.95em" style="text-anchor: middle; visibility: inherit; font-family: Roboto, sans-serif; font-size: 12px; font-weight: 200;" fill="rgb(50, 49, 63)" stroke="none" stroke-width="1px">600</text><text x="197.5" y="0" dx="0em" dy="0.95em" style="text-anchor: middle; visibility: inherit; font-family: Roboto, sans-serif; font-size: 12px; font-weight: 200;" fill="rgb(50, 49, 63)" stroke="none" stroke-width="1px">800</text><text x="237" y="0" dx="0em" dy="0.95em" style="text-anchor: middle; visibility: inherit; font-family: Roboto, sans-serif; font-size: 12px; font-weight: 200;" fill="rgb(50, 49, 63)" stroke="none" stroke-width="1px">1k</text><text x="276.5" y="0" dx="0em" dy="0.95em" style="text-anchor: middle; visibility: inherit; font-family: Roboto, sans-serif; font-size: 12px; font-weight: 200;" fill="rgb(50, 49, 63)" stroke="none" stroke-width="1px">1.2k</text><text x="316" y="0" dx="0em" dy="0.95em" style="text-anchor: middle; visibility: inherit; font-family: Roboto, sans-serif; font-size: 12px; font-weight: 200;" fill="rgb(50, 49, 63)" stroke="none" stroke-width="1px">1.4k</text><text x="355.5" y="0" dx="0em" dy="0.95em" style="text-anchor: middle; visibility: inherit; font-family: Roboto, sans-serif; font-size: 12px; font-weight: 200;" fill="rgb(50, 49, 63)" stroke="none" stroke-width="1px">1.6k</text><text x="395" y="0" dx="0em" dy="0.95em" style="text-anchor: middle; visibility: inherit; font-family: Roboto, sans-serif; font-size: 12px; font-weight: 200;" fill="rgb(50, 49, 63)" stroke="none" stroke-width="1px">1.8k</text><text x="434.5" y="0" dx="0em" dy="0.95em" style="text-anchor: middle; visibility: inherit; font-family: Roboto, sans-serif; font-size: 12px; font-weight: 200;" fill="rgb(50, 49, 63)" stroke="none" stroke-width="1px">2k</text><text x="474" y="0" dx="0em" dy="0.95em" style="text-anchor: middle; visibility: inherit; font-family: Roboto, sans-serif; font-size: 12px; font-weight: 200;" fill="rgb(50, 49, 63)" stroke="none" stroke-width="1px">2.2k</text><text x="513.5" y="0" dx="0em" dy="0.95em" style="text-anchor: middle; visibility: inherit; font-family: Roboto, sans-serif; font-size: 12px; font-weight: 200;" fill="rgb(50, 49, 63)" stroke="none" stroke-width="1px">2.4k</text><text x="553" y="0" dx="0em" dy="0.95em" style="text-anchor: middle; visibility: hidden; font-family: Roboto, sans-serif; font-size: 12px; font-weight: 200;" fill="rgb(50, 49, 63)" stroke="none" stroke-width="1px">2.6k</text></g><line x1="0" y1="0" x2="553" y2="0" fill="rgb(0, 0, 0)" stroke="rgb(204, 204, 204)" stroke-width="1px"></line></g></g></g></g></svg>