<svg viewBox="0 0 330 200" xmlns="http://www.w3.org/2000/svg"><g><g><g><g><g><line x1="50" y1="178" x2="45" y2="178" style="visibility: inherit;" fill="rgb(0, 0, 0)" stroke="rgb(204, 204, 204)" stroke-width="1px"></line><line x1="50" y1="152.57142857142858" x2="45" y2="152.57142857142858" style="visibility: inherit;" fill="rgb(0, 0, 0)" stroke="rgb(204, 204, 204)" stroke-width="1px"></line><line x1="50" y1="127.14285714285714" x2="45" y2="127.14285714285714" style="visibility: inherit;" fill="rgb(0, 0, 0)" stroke="rgb(204, 204, 204)" stroke-width="1px"></line><line x1="50" y1="101.71428571428571" x2="45" y2="101.71428571428571" style="visibility: inherit;" fill="rgb(0, 0, 0)" stroke="rgb(204, 204, 204)" stroke-width="1px"></line><line x1="50" y1="76.28571428571429" x2="45" y2="76.28571428571429" style="visibility: inherit;" fill="rgb(0, 0, 0)" stroke="rgb(204, 204, 204)" stroke-width="1px"></line><line x1="50" y1="50.857142857142854" x2="45" y2="50.857142857142854" style="visibility: inherit;" fill="rgb(0, 0, 0)" stroke="rgb(204, 204, 204)" stroke-width="1px"></line><line x1="50" y1="25.428571428571438" x2="45" y2="25.428571428571438" style="visibility: inherit;" fill="rgb(0, 0, 0)" stroke="rgb(204, 204, 204)" stroke-width="1px"></line><line x1="50" y1="0" x2="45" y2="0" style="visibility: inherit;" fill="rgb(0, 0, 0)" stroke="rgb(204, 204, 204)" stroke-width="1px"></line></g><g transform="translate(40, 0)"><text x="0" y="178" dx="0em" dy="0.3em" style="text-anchor: end; visibility: hidden; font-family: Roboto, sans-serif; font-size: 12px; font-weight: 200;" fill="rgb(50, 49, 63)" stroke="none" stroke-width="1px">8.5</text><text x="0" y="152.57142857142858" dx="0em" dy="0.3em" style="text-anchor: end; visibility: inherit; font-family: Roboto, sans-serif; font-size: 12px; font-weight: 200;" fill="rgb(50, 49, 63)" stroke="none" stroke-width="1px">9</text><text x="0" y="127.14285714285714" dx="0em" dy="0.3em" style="text-anchor: end; visibility: inherit; font-family: Roboto, sans-serif; font-size: 12px; font-weight: 200;" fill="rgb(50, 49, 63)" stroke="none" stroke-width="1px">9.5</text><text x="0" y="101.71428571428571" dx="0em" dy="0.3em" style="text-anchor: end; visibility: inherit; font-family: Roboto, sans-serif; font-size: 12px; font-weight: 200;" fill="rgb(50, 49, 63)" stroke="none" stroke-width="1px">10</text><text x="0" y="76.28571428571429" dx="0em" dy="0.3em" style="text-anchor: end; visibility: inherit; font-family: Roboto, sans-serif; font-size: 12px; font-weight: 200;" fill="rgb(50, 49, 63)" stroke="none" stroke-width="1px">10.5</text><text x="0" y="50.857142857142854" dx="0em" dy="0.3em" style="text-anchor: end; visibility: inherit; font-family: Roboto, sans-serif; font-size: 12px; font-weight: 200;" fill="rgb(50, 49, 63)" stroke="none" stroke-width="1px">11</text><text x="0" y="25.428571428571438" dx="0em" dy="0.3em" style="text-anchor: end; visibility: inherit; font-family: Roboto, sans-serif; font-size: 12px; font-weight: 200;" fill="rgb(50, 49, 63)" stroke="none" stroke-width="1px">11.5</text><text x="0" y="0" dx="0em" dy="0.3em" style="text-anchor: end; visibility: hidden; font-family: Roboto, sans-serif; font-size: 12px; font-weight: 200;" fill="rgb(50, 49, 63)" stroke="none" stroke-width="1px">12</text></g><line x1="50" y1="0" x2="50" y2="178" fill="rgb(0, 0, 0)" stroke="rgb(204, 204, 204)" stroke-width="1px"></line></g></g><g transform="translate(50, 0)" clip-path="url(#clip_0)"><clipPath id="clip_0"><rect width="280" height="178"></rect></clipPath><g><g><g><line x1="0" y1="0" x2="0" y2="178" fill="rgb(0, 0, 0)" stroke="rgb(60, 60, 60)" stroke-width="1px" opacity="0.25"></line><line x1="20" y1="0" x2="20" y2="178" fill="rgb(0, 0, 0)" stroke="rgb(60, 60, 60)" stroke-width="1px" opacity="0.25"></line><line x1="40" y1="0" x2="40" y2="178" fill="rgb(0, 0, 0)" stroke="rgb(60, 60, 60)" stroke-width="1px" opacity="0.25"></line><line x1="60" y1="0" x2="60" y2="178" fill="rgb(0, 0, 0)" stroke="rgb(60, 60, 60)" stroke-width="1px" opacity="0.25"></line><line x1="80" y1="0" x2="80" y2="178" fill="rgb(0, 0, 0)" stroke="rgb(60, 60, 60)" stroke-width="1px" opacity="0.25"></line><line x1="100" y1="0" x2="100" y2="178" fill="rgb(0, 0, 0)" stroke="rgb(60, 60, 60)" stroke-width="1px" opacity="0.25"></line><line x1="120" y1="0" x2="120" y2="178" fill="rgb(0, 0, 0)" stroke="rgb(60, 60, 60)" stroke-width="1px" opacity="0.25"></line><line x1="140" y1="0" x2="140" y2="178" fill="rgb(0, 0, 0)" stroke="rgb(60, 60, 60)" stroke-width="1px" opacity="0.25"></line><line x1="160" y1="0" x2="160" y2="178" fill="rgb(0, 0, 0)" stroke="rgb(60, 60, 60)" stroke-width="1px" opacity="0.25"></line><line x1="180" y1="0" x2="180" y2="178" fill="rgb(0, 0, 0)" stroke="rgb(60, 60, 60)" stroke-width="1px" opacity="0.25"></line><line x1="200" y1="0" x2="200" y2="178" fill="rgb(0, 0, 0)" stroke="rgb(60, 60, 60)" stroke-width="1px" opacity="0.25"></line><line x1="220" y1="0" x2="220" y2="178" fill="rgb(0, 0, 0)" stroke="rgb(60, 60, 60)" stroke-width="1px" opacity="0.25"></line><line x1="240" y1="0" x2="240" y2="178" fill="rgb(0, 0, 0)" stroke="rgb(60, 60, 60)" stroke-width="1px" opacity="0.25"></line><line x1="260" y1="0" x2="260" y2="178" fill="rgb(0, 0, 0)" stroke="rgb(60, 60, 60)" stroke-width="1px" opacity="0.25"></line><line x1="280" y1="0" x2="280" y2="178" fill="rgb(0, 0, 0)" stroke="rgb(60, 60, 60)" stroke-width="1px" opacity="0.25"></line></g><g><line x1="0" y1="178" x2="280" y2="178" fill="rgb(0, 0, 0)" stroke="rgb(60, 60, 60)" stroke-width="1px" opacity="0.25"></line><line x1="0" y1="152.57142857142858" x2="280" y2="152.57142857142858" fill="rgb(0, 0, 0)" stroke="rgb(60, 60, 60)" stroke-width="1px" opacity="0.25"></line><line x1="0" y1="127.14285714285714" x2="280" y2="127.14285714285714" fill="rgb(0, 0, 0)" stroke="rgb(60, 60, 60)" stroke-width="1px" opacity="0.25"></line><line x1="0" y1="101.71428571428571" x2="280" y2="101.71428571428571" fill="rgb(0, 0, 0)" stroke="rgb(60, 60, 60)" stroke-width="1px" opacity="0.25"></line><line x1="0" y1="76.28571428571429" x2="280" y2="76.28571428571429" fill="rgb(0, 0, 0)" stroke="rgb(60, 60, 60)" stroke-width="1px" opacity="0.25"></line><line x1="0" y1="50.857142857142854" x2="280" y2="50.857142857142854" fill="rgb(0, 0, 0)" stroke="rgb(60, 60, 60)" stroke-width="1px" opacity="0.25"></line><line x1="0" y1="25.428571428571438" x2="280" y2="25.428571428571438" fill="rgb(0, 0, 0)" stroke="rgb(60, 60, 60)" stroke-width="1px" opacity="0.25"></line><line x1="0" y1="0" x2="280" y2="0" fill="rgb(0, 0, 0)" stroke="rgb(60, 60, 60)" stroke-width="1px" opacity="0.25"></line></g></g></g><g><g><line x1="0" y1="610.2857142857142" x2="280" y2="610.2857142857142" fill="rgb(0, 0, 0)" stroke="rgb(153, 153, 153)" stroke-width="1.5px"></line></g></g><g><g><line x1="20" y1="0" x2="20" y2="178" fill="rgb(0, 0, 0)" stroke="rgb(153, 153, 153)" stroke-width="1.5px"></line></g></g><g><g><g><g><g><path stroke="rgb(255, 112, 67)" stroke-width="2px" d="M23.3,325.8183630540921L23.599999999999998,44.42107798812615L24,-14.052322857132992L24.2,78.71142932822691L24.400000000000002,10.685049224040334L24.5,29.925993705550717L24.7,15.279287374350979L24.9,47.06013201243319L25.3,56.40984230053802L25.400000000000002,71.48536734944442L25.5,-6.104947540430961L25.6,31.85156762591992L25.700000000000003,49.389183585031674L26.3,47.00133418106498L26.5,41.727426706523126L26.6,41.88796778981563L26.700000000000003,41.1727895767467L26.799999999999997,41.07630421483815L27.099999999999998,-16.14712098429233L27.9,-3.4933903789788814L28.4,10.779178714672106L28.7,22.36672792186311L28.8,23.09097225514715L29.4,19.118432641422068L30.2,22.19264642313776L30.5,25.67249769527107L30.6,34.81480386619999L31.299999999999997,39.8390968187275L31.599999999999998,35.68652170530957L31.8,38.91196250619016L32.5,39.994324546312356L32.6,44.69824398539139L32.9,48.59371271402249L33,50.56605189083375L33.7,52.25737885007951L33.9,53.80479526486767L34.1,54.40448491213411L34.199999999999996,53.16028803676942L34.3,51.49294646010095L35,55.67124220642487L35.5,48.31989511284002L35.7,52.300038176802566L35.800000000000004,17.12357519575857L35.900000000000006,34.08731781207398L36.199999999999996,42.33065846591454L36.5,46.090344106474284L36.699999999999996,47.28099261413586L36.8,39.67925797431276L37.1,43.45438161041086L37.7,47.85806554199986L37.800000000000004,51.055536477474014L38,37.263836630834255L38.3,36.810791340944654L38.5,-15.175892443968316L38.599999999999994,12.073636722514138L38.8,-6.895688310381026L39,11.145804089664175L39.1,24.416787176175767L39.800000000000004,28.26845827459492L40.599999999999994,41.538295990496394L40.699999999999996,39.29227778263493L40.8,26.775414407792482L41.199999999999996,40.40611386161189L42.2,49.306618669227205L42.300000000000004,38.872193814189735L42.5,44.902021558463574L42.699999999999996,40.882694171127284L42.9,45.72875176530192L43.199999999999996,49.47225515725594L43.3,53.03908233368119L43.4,54.247432728891674L43.7,57.50300021699459L44.7,60.91455691381843L44.900000000000006,59.96823270088592L45.5,60.51611984862868L45.8,59.76182143659074L45.9,60.2153796923116L46,63.517866557016454L46.1,46.318511507870625L46.300000000000004,47.34062102128202L46.7,50.88502468622067L46.900000000000006,56.16682195807734L47.099999999999994,60.807561044196255L47.3,61.42819354790443L47.8,65.26859934756246L48.4,58.79879061614075L49.1,60.82581999782333L49.2,60.249279884087365L49.699999999999996,60.65248519293851L49.8,53.037377128249176L50.1,54.71588134635521L50.2,57.87080884582932L50.3,49.302590898317895L50.7,53.54795206968267L50.800000000000004,57.89945038871249L51,60.66597987329451L51.300000000000004,52.19255209633992L51.699999999999996,45.42026736794618L51.8,38.646826820042286L51.9,35.3923243024746L52,33.36980053502831L52.199999999999996,35.40743482541148L52.5,38.52342273083566L52.6,43.74291236827264L52.7,42.18786233272419L53,43.004870240385095L53.300000000000004,46.657660434200416L53.9,38.72085859834118L54.1,47.23369771515709L54.4,51.43720392834095L54.5,50.55021995745097L54.7,49.49836884319273L54.8,53.445844426032785L55.300000000000004,48.82286946602698L55.400000000000006,51.44609856298675L55.8,56.5212371058445L56,60.775143517343245L56.3,53.662197403653686L56.7,54.589756622298296L57.1,58.65333277674113L57.300000000000004,62.93586083722207L57.7,62.322305338131315L57.800000000000004,64.83742965935204L57.900000000000006,63.12292375543268L58.099999999999994,58.16060226700126L58.6,59.33737175361592L58.699999999999996,60.59675397606747L59.1,59.10792464777773L59.2,60.89159957626433L59.300000000000004,64.05135051898687L60.3,65.15729193981005L60.8,65.0281733816595L61.5,65.36719133019551L61.6,65.1765399480894L62.1,64.52807384503944L62.2,67.37737723113081L62.400000000000006,-46.365180455406325L62.599999999999994,2.4402941925765296L63,28.128615471670358L63.9,43.146246257053576L64.1,48.56283124160658L64.2,55.578644397517L64.5,62.31502285502801L65.10000000000001,63.95361790002856L65.89999999999999,-46.66272436670716L66,2.3549482569985614L66.1,28.627003552413385L66.3,43.05829812231026L66.4,53.74975810050674L66.7,58.9923806694558L66.8,67.76323410061327L67.3,66.66666325612685L67.4,-31.28125117439312L68.5,7.371914622163757L68.8,25.614232844866365L68.9,29.508293648047037L69.1,45.18553431173557L69.3,49.60190569620701L69.60000000000001,54.72206674884872L70.7,55.60650926666415L71.10000000000001,56.68785684522446L71.2,56.02996678396221L71.4,60.8718244132903L71.7,65.82004027436923L71.9,66.09552627469405L72.39999999999999,72.77714150944536L72.5,74.33243742380331L73.1,75.94247763459728L73.3,80.54835793608761L73.39999999999999,76.94643986279657L73.5,79.0271996807918L73.6,72.32858678496784L73.7,75.51313979419504L73.8,81.4329379362268L74,68.19197232158545L74.2,74.28735092573588L74.7,79.60318164744761L74.8,79.76564564792724L74.9,80.54924072999522L75.10000000000001,80.08726385938387L75.5,73.74147792709797L75.7,78.05150819878111L75.9,78.22063640817774L76.30000000000001,77.47117034065165L76.4,75.54175938561309L76.49999999999999,77.4293448769733L76.89999999999999,80.44474965253718L77.3,84.44537152003792L77.39999999999999,83.1355035952677L77.7,86.3367848580535L77.89999999999999,84.21059818010833L78,81.77303140213594L78.1,82.98571781937869L78.2,81.32327055281586L78.3,78.48093481355338L78.4,57.91896489726988L78.6,64.22931145963709L78.7,72.0416969396076L79.2,75.5176664791943L79.3,74.52410413381956L79.60000000000001,67.36657582257686L79.7,71.31620687224314L80,79.8177144100367L80.2,80.69702055276028L80.60000000000001,81.38624887427615L80.80000000000001,84.89398469356682L81.00000000000001,85.3319714348622L81.19999999999999,87.52794175461159L81.5,84.28067322101471L81.89999999999999,89.58486380635324L82,70.10273211786613L82.2,71.54092982422131L82.5,80.36385734172869L82.9,83.5203039331483L83.4,81.77598415257874L84.10000000000001,85.13804990316838L84.2,89.9232500381622L84.4,88.3009712892896L84.5,76.97340373130257L84.60000000000001,85.49515630476918L84.7,87.97795163198259L84.9,92.02030260411979L85.19999999999999,91.79679372765044L85.6,90.92341445854899L85.69999999999999,91.76461669445136L86.1,89.15197505991866L86.39999999999999,85.88343531496902L86.8,85.15707316931065L87.1,88.15358533225049L87.2,85.54073976136209L87.3,81.64658741150478L87.4,85.60669002188892L87.5,74.7277362421373L87.7,70.18425505269032L87.8,66.74863330156398L87.9,70.7486236890857L88.10000000000001,63.02850356787384L88.2,72.54557525909766L88.3,74.8239544345462L88.4,80.5989799430938L88.60000000000001,86.14333659169336L88.8,86.17868187793735L88.9,86.01760232395831L89.60000000000001,89.18343301128344L89.89999999999999,82.71657988733647L90,80.82546141245207L90.1,86.13791251990428L90.3,89.21225909990295L90.6,80.34496105076201L90.8,88.28105260178819L91,88.45149158130171L91.39999999999999,92.24333452397639L91.8,91.26395485954482L92.1,72.11852567800375L92.2,77.64457950069176L92.3,84.30116507625215L92.4,86.59359904400735L92.5,81.74244286495069L93,80.59480479542131L93.60000000000001,87.60940755289457L93.80000000000001,88.79076616608387L93.9,88.64588347545951L93.99999999999999,93.73552050275615L94.3,91.08467494639422L94.6,95.52648856158659L94.69999999999999,92.48211824332755L95,93.60343480795248L95.1,88.83878011433345L95.2,91.93136952646843L95.39999999999999,89.57948712987377L95.6,93.59162058777366L96.2,97.78193877460897L96.5,96.73814345449757L96.6,73.07826226724374L96.9,79.4936154675589L97,86.10295028639473L97.10000000000001,93.85709248105842L97.3,91.1965742578175L97.4,90.79987139097675L98,96.13323508172618L98.4,86.63743682017135L98.50000000000001,89.4047085346251L98.69999999999999,89.79560243836717L98.89999999999999,92.89812823896902L99.1,92.98834288576425L99.19999999999999,93.6680201183168L99.3,91.01303697682157L99.39999999999999,94.93877965330834L99.5,87.3472018129811L99.8,92.46549925812904L100,94.27026787763128L100.2,97.51490294895595L100.5,99.19822573979762L100.7,97.63430213437802L100.8,99.6184527231491L100.9,98.42538311373042L101.3,95.2143899372952L101.5,101.7149854115261L101.60000000000001,102.60113196782801L101.8,105.61631163570517L102.10000000000001,92.69732713383658L102.5,92.62213599151846L102.80000000000001,84.08115229629216L103.1,73.96408640602593L103.19999999999999,63.964419425228286L103.39999999999999,57.75658810010065L103.6,42.96243282309052L103.8,40.876139590617726L104.3,32.32071113299786L104.6,41.97386414492152L104.7,51.42607961278996L104.8,54.732803180620415L105.1,58.59819696661723L105.9,67.4569792238459L106,71.90054709241296L106.10000000000001,78.8572936310756L106.3,82.50491006187646L106.7,81.38174373174076L106.9,84.48909066391893L107,89.14134497975486L107.39999999999999,90.04353893888526L107.6,93.62946656401476L107.69999999999999,93.10331339613758L108,95.0350290271496L108.2,97.5686780259438L108.39999999999999,102.32426280224315L108.7,100.45265094306464L108.89999999999999,86.40858920562668L109,90.48506986161539L109.2,87.23907658493803L109.3,90.64866554673571L109.6,93.52706728284053L109.9,78.38756147566137L110,85.04164725439792L110.7,87.22723684419844L110.80000000000001,42.251555991145175L110.9,67.40302230492712L111,71.9819566411873L111.2,77.75159856269785L111.30000000000001,81.021241556006L111.49999999999999,80.67122969225312L111.6,63.13601004086802L111.69999999999999,72.1232051892111L112,70.0730012646845L112.1,74.4331215683112L112.19999999999999,80.20875272788679L112.3,82.9517940823236L112.5,55.24456713717324L113.1,70.28255832778382L113.2,83.48700587418149L113.5,81.87578375958145L114.2,91.40956907166691L114.5,91.38014521671661L115.2,90.52229576563262L115.30000000000001,97.78247579573564L115.4,100.42523215538503L115.60000000000001,100.02484144166847L115.7,84.85938663292801L115.80000000000001,96.08215419655362L116.1,96.64169582080606L116.19999999999999,99.1863184132426L116.39999999999999,103.09486708903088L116.6,103.60403372649333L116.69999999999999,108.41090612805564L117.1,108.23388912709845L117.2,106.7331932349086L117.6,103.61336303218405L117.7,103.3829766641766L117.8,102.16439140622087L117.9,102.71213800012202L118.2,101.4149885757429L118.3,98.43523167955571L118.4,100.40173523401693L118.7,100.36959360448654L118.8,96.02136749953625L119.60000000000001,100.66938744656888L120,106.33695612865563L120.19999999999999,103.41541111267055L120.39999999999999,107.3788103534282L120.5,105.25733992299438L120.8,101.35761592889423L120.89999999999999,104.14534261118696L121.1,60.23855640550954L121.2,80.04810232300716L121.3,90.9283816138796L121.39999999999999,94.25857729945218L121.7,98.0808035975145L122.5,96.71040123461086L122.7,105.1263292417431L122.9,107.81721687400797L123.10000000000001,98.30215154425689L123.2,107.80559534375558L123.3,67.56242432748668L123.5,83.65199011895294L123.7,72.36366983169542L123.8,90.98019596116853L123.9,100.64993223908951L124.2,102.04117634087275L124.4,106.52978610935067L125.1,107.5885989866902L125.19999999999999,111.95506085511397L125.5,106.22798690020564L125.7,88.3952040925509L126.3,83.55978916870015L126.39999999999999,92.45074144729996L126.6,97.16781556104179L126.8,103.73066980537506L127.2,103.22146702517534L127.60000000000001,108.00643215602318L127.8,112.73634394763174L128,111.89305366559353L128.3,113.81145802769039L128.4,114.13218034116784L128.5,117.00220706944677L128.6,117.84124995316364L129.2,117.3976422099702L129.3,112.08780407598209L129.9,111.31242779819816L130.1,69.07195789090278L130.3,78.48175767259971L130.4,91.10953342436062L130.5,102.65240959493441L131.4,110.20973668539258L131.6,115.68621929569423L131.9,119.06393124085123L132.29999999999998,120.57380774527806L132.5,111.04830010650002L132.6,111.98859506285366L133,108.04393044033499L133.1,104.96591078931263L133.3,102.6192073361015L133.4,108.5319683888261L133.5,113.89931060221309L133.8,115.5781747489534L133.9,109.69161724299651L134.9,111.74241741959814L135.1,113.11778016367288L135.20000000000002,112.53320515526288L135.5,110.76915601203333L135.6,111.8638284199293L135.7,112.44493126826615L136,105.96899602728227L136.1,110.23407270007476L136.2,111.21993537157947L137.7,107.5953837257378L138,105.697148099561L138.2,104.35370647099498L138.3,103.58262052391952L138.5,102.89317757383839L138.6,103.86000976347154L138.9,88.94385554593168L139.20000000000002,99.86954666496136L139.3,104.1447476261392L139.4,104.41229108056633L139.5,110.50289767603235L139.70000000000002,110.56619761615232L139.9,113.1468213180173L140.1,108.5822656772501L140.3,107.98904860661517L140.4,102.06435201553154L140.6,108.557595104757L140.8,112.3585951051952L141,105.43195001442857L141.1,109.34083134201377L141.20000000000002,114.48252309720044L141.3,114.22235556800223L141.4,117.09916782252569L142.4,104.61961727066378L142.8,109.06187024207178L143.20000000000002,111.10437024443395L143.3,118.30519264226588L143.4,122.54651280215639L143.60000000000002,123.6242226837352L143.9,119.18453291269648L144.20000000000002,117.42012439326523L144.39999999999998,124.11753113533133L144.60000000000002,124.32182526950794L144.7,123.40535189301056L144.89999999999998,124.69637755251951L145.29999999999998,123.02432328792909L145.39999999999998,119.71354177026025L145.5,109.12572354674042L145.7,111.17424677627245L145.79999999999998,114.32243485426794L146.1,111.18558083792345L146.2,113.02663018000013L146.29999999999998,99.3046131439237L146.4,110.23257802342172L146.6,114.97250383658373L147.1,121.97093211152053L147.4,125.50201182515728L147.9,126.6878661178343L148.1,128.1918292985605L148.5,119.61737331853368L148.7,116.964805269022L149.1,115.86060400404712L149.2,118.72537794895457L149.3,122.59755761479686L149.4,111.75247312391441L149.6,118.51087522305124L149.9,124.19602076545742L150,127.03386328760877L150.20000000000002,129.60246954901615L150.3,117.27589321971384L150.4,119.21255828813408L151,117.43160449192338L151.20000000000002,117.92092798358874L151.3,121.41113593531232L151.5,125.09538064042843L151.60000000000002,129.7494930501331L151.9,108.1294687792986L152,113.31149321826275L152.5,-641.8792086309844L152.99999999999997,-51.67157709407774L153.2,15.81213008109524L153.29999999999998,53.38365212441048L153.39999999999998,76.4488257438148L153.5,94.46228817438598L153.6,102.22014765002777L153.7,107.52322672129456L154.29999999999998,110.80706238426949L154.79999999999998,69.8775525550734L154.9,86.7201186999665L155,103.64263095595925L155.5,113.60886566551194L155.9,120.07088253581668L156.1,122.56092093994701L156.2,126.36804147300839L156.6,122.11728811448303L157,125.45503102821827L157.7,126.79604347567822L157.9,122.58278006838682L158.2,124.96476813868833L158.4,122.57738601225873L158.5,120.70068619371133L158.8,113.91685184073849L158.9,121.71350243570708L159.1,127.76050567982551L159.20000000000002,121.16968972555718L159.5,122.07200840669314L161.20000000000002,125.06330915255383L161.3,124.95195556686711L161.4,126.28607005991657L161.5,126.60855021291701L161.89999999999998,91.98213081657558L162.2,105.64972073324898L162.29999999999998,114.49473857659837L162.6,124.62117284915375L162.7,124.55636089245816L162.79999999999998,125.868075568678L163.2,129.86031263508238L163.29999999999998,130.20283396079276L163.39999999999998,123.15707548110736L163.6,129.1339521455282L163.79999999999998,128.89853665771312L164,128.46115873779195L164.2,103.79225441189952L164.79999999999998,115.8954896710655L165,118.02575685021188L165.5,124.79145377879345L165.6,125.47016711067735L166.5,130.71798457862735L166.6,128.47084441451736L167.70000000000002,133.35082591489348L168.1,121.79774857453602L168.20000000000002,116.0608153260135L168.5,125.15162438847922L168.6,130.44058509800104L168.9,128.80328756479952L169.10000000000002,130.25815008143L169.20000000000002,129.81769522463924L169.3,130.40582033825729L170,127.19388021216197L170.10000000000002,130.68078321414148L170.20000000000002,131.5947932578655L170.3,132.83302145381245L170.60000000000002,119.80939168611285L170.79999999999998,121.38373681830832L170.89999999999998,124.40603620196435L171,127.93591036515187L171.1,134.25609098401856L171.6,125.99773919385697L171.79999999999998,130.95743039898716L172.29999999999998,131.50871138706248L172.4,126.54008902357394L172.7,120.6253137901209L173.4,116.79421075244866L173.6,120.52470760381294L174.6,118.39524426618004L174.8,126.17862888567063L174.9,123.35032351932091L175.1,112.70251109331687L175.2,117.90856698488241L175.4,124.84281954709574L175.5,130.9205827805036L176.1,131.75669602537525L176.20000000000002,129.37795821929885L176.8,132.5627287802819L176.9,133.9096197336407L177.8,140.03920358544107L178.20000000000002,134.9628259581145L178.4,103.36714608407625L178.8,111.84757646880512L179.39999999999998,112.77969347301023L179.7,121.34632909301371L179.89999999999998,123.64158215865426L180.2,127.95726353033488L180.39999999999998,134.06837972464623L180.5,136.17416600094293L180.89999999999998,130.77165898079735L181,134.9964995475884L181.2,131.42437176573216L181.29999999999998,77.04058301165753L181.5,102.2710188133422L181.79999999999998,118.49147677524027L181.9,129.86669894007443L182,128.1991643051021L182.4,134.4289623020205L182.6,130.41977165960236L182.7,130.15591289636131L182.79999999999998,132.40079086700197L183,135.83441176734127L183.2,138.64185124044107L183.4,134.92198687777466L183.7,139.55726862115426L184,129.33234962832876L184.1,131.40010688567463L184.2,133.70621512366202L184.5,134.9432513869064L184.70000000000002,136.58000897248982L184.8,136.9548097135023L185.1,134.5774676064915L185.20000000000002,138.2186371975445L185.5,139.4198908146204L185.9,141.7873928627957L186,139.2317697369296L186.1,131.5436386069457L186.8,134.44213317637445L187,136.13608504672865L187.10000000000002,137.3617483355149L187.20000000000002,135.54790641446465L187.5,115.90775582028868L187.60000000000002,123.5636639815008L187.8,123.71448405087031L188.2,130.54857612039388L188.29999999999998,135.12700050447685L188.39999999999998,135.04378017154767L188.7,136.02998775973668L189.1,139.926541937371L189.2,133.2896274678076L189.39999999999998,140.8238636737649L189.5,133.40590529270756L189.6,137.24461717639178L189.7,141.69497085863924L189.9,139.22854257377728L190.2,141.58949174648453L190.29999999999998,137.76512388089856L190.4,136.14321412520485L190.5,140.65102813681372L190.9,131.85394020274947L191,131.01746164711005L191.5,132.94501656520524L191.7,131.00490623167332L191.8,124.29816730206204L191.9,132.69715054690403L192.3,133.8213723855503L192.6,139.60592855130787L192.8,138.0766591990046L193.1,136.6066112769362L193.2,139.6869131511366L193.3,133.36117590581873L193.4,138.8106543437144L193.5,136.97167637610866L193.70000000000002,139.75534643671423L193.9,141.545152311317L194.20000000000002,133.37776233754357L194.3,132.63178173985872L194.5,131.278812696259L194.6,133.79921554395517L194.70000000000002,133.20774893086534L195,139.0015150724562L195.20000000000002,137.74617707500278L195.3,136.3275966868962L195.4,139.5303880553855L195.5,138.84359337661851L196.20000000000002,140.0714762861553L196.3,139.05731448263066L196.60000000000002,140.96509591265317L197.10000000000002,141.2228727244195L197.5,142.2858101650646L198.1,139.7087029395103L198.2,137.17192869904375L198.39999999999998,96.02494764213832L198.79999999999998,111.86750241619819L198.9,120.52331451647402L199,125.1500755280345L199.2,124.25767968135753L199.29999999999998,130.47847190096016L199.4,132.69185238408895L199.79999999999998,131.92164328208565L200.2,135.0110631002503L200.4,133.90963686614904L200.5,136.1936934094495L201.3,138.52697218406257L201.4,141.8425409066987L201.7,143.33573476653595L202,136.9783039580661L202.4,139.02565577571852L202.6,94.26927203162818L203,116.20928747957957L203.5,128.9591939215508L203.6,134.0663776461782L204,138.10922770203456L204.10000000000002,129.5151270317257L204.4,136.98679489928094L204.5,138.7397434347555L204.60000000000002,140.88620293341188L204.9,142.2817705881721L205.20000000000002,145.61333136971405L205.3,148.44961110907732L205.49999999999997,137.5175469476032L205.7,138.78670462119862L205.79999999999998,141.25611875486203L205.89999999999998,143.95074221936534L206.6,145.0055819631761L206.79999999999998,139.939037959644L206.89999999999998,142.88200013348728L207.5,145.01384472469334L207.6,149.50366947083725L207.7,140.85923685619096L207.79999999999998,140.87799241365875L207.9,142.75646245782133L208.1,146.16350598857397L208.4,149.77212703064436L209.1,141.03978945429617L209.2,144.6196227919275L209.3,138.70870735609958L210.2,139.78812027024458L210.5,141.18899089296428L210.6,139.2282613919449L211,133.87901746923498L211.1,140.01909618536357L211.20000000000002,145.2991028876969L211.3,144.4729595266332L211.6,147.08439304298884L211.70000000000002,148.27814349878437L211.8,146.3040931305206L211.9,145.24031437266223L212.3,148.51723462666658L212.4,147.3664312126629L212.5,146.7473428584571L212.8,131.7806130950966L213,138.896943209318L213.20000000000002,143.985479506785L213.4,146.9241773699471L213.5,142.12747961881539L213.60000000000002,139.86618220313912L213.8,130.99366540272885L213.9,133.4209496514448L214.39999999999998,140.0392588952196L214.7,145.2456851589091L214.89999999999998,143.91197473757478L215.2,101.60492911395949L215.5,116.87611250639189L215.6,131.60593985142157L215.79999999999998,134.53179816378258L216,135.43208265629124L216.6,127.50071251927699L216.7,133.53199968999814L216.9,139.23055954649055L217.1,145.85245926305058L218,143.05637105692352L218.1,142.3576265630743L218.2,141.48497170723635L218.3,135.42326517243052L219.5,137.47288479751523L219.70000000000002,139.41539068598678L219.9,144.91635390098938L220.1,137.29674249021687L220.5,146.93280580035224L220.6,144.16625173495464L220.70000000000002,147.55208803350908L220.8,147.92603387828066L220.9,148.65974107194603L221,137.4410841189629L221.1,129.46626223546818L221.3,131.35068477048011L221.4,132.5883900318612L221.5,137.3720902848115L221.70000000000002,130.89208395255542L222.20000000000002,137.04059792315158L222.5,140.53222901930664L222.70000000000002,146.46064164567997L222.8,142.2680783206251L222.99999999999997,144.27568006122274L223.29999999999998,138.84858173406906L223.6,141.21215109819815L223.79999999999998,144.94220677917556L224.1,145.4238777086883L224.39999999999998,136.96732733147695L224.5,142.39754357208648L224.79999999999998,142.28175865231995L225,145.4267111798128L225.1,138.1251396490847L225.9,135.8765401318755L226,119.288435196243L226.2,128.5942346494143L226.7,128.3970949452708L227.2,132.31983001752516L227.3,133.1380216241451L227.4,136.52076921228002L227.6,139.84737734244894L227.7,145.7204272250843L227.9,115.33267922149037L228.1,122.35262027180323L228.4,135.2919596055345L228.5,130.83866649469627L228.9,138.7835149690136L229.4,133.06645406546224L229.6,138.0740209552511L230.20000000000002,136.39560036088778L230.3,142.96014028070675L230.4,138.0281395273107L230.5,138.87333055476535L230.60000000000002,139.52445478863496L230.9,136.717526048753L231.10000000000002,141.76678359102632L231.4,142.6162113812481L231.5,137.23860434862885L231.8,138.70305204835137L232.00000000000003,135.8215816388183L232.2,139.82396399793942L232.29999999999998,144.40806160886405L232.39999999999998,139.01837800710132L232.79999999999998,143.41005460141483L233.2,141.0916186111559L233.29999999999998,145.5333636314675L233.39999999999998,145.3772538966539L233.79999999999998,147.21897798322112L233.9,145.70555169820557L234.1,91.09814682354114L234.2,108.31093887537466L234.4,118.49466269045922L234.5,126.08012738722479L234.6,134.34515873388335L234.79999999999998,135.642767455383L234.9,140.77423338408357L235,144.7908341937454L235.1,148.4109953980134L235.4,138.80712907300165L235.6,146.36762923300304L235.7,148.61927291333697L236.3,145.98965326041846L236.4,146.64113016949045L236.5,152.15007116810057L236.9,147.03014563229175L237.1,149.52076791264793L237.3,131.15139790753574L237.70000000000002,139.6598701601883L238.4,142.51601334367157L238.70000000000002,145.90875089822305L238.9,141.70768863184682L239.10000000000002,138.37739245854445L239.20000000000002,144.18289473851956L239.4,141.0822036661447L239.60000000000002,143.33451201902272L239.8,147.83496035908377L239.9,139.606426218938L240,145.17469383125118L240.3,144.83831653417207L240.39999999999998,141.39385840718018L240.7,137.80488760638954L240.79999999999998,144.77641466309433L241.1,145.75922495752457L241.39999999999998,149.74404990197013L241.79999999999998,148.63795368385786L242.4,147.9668267757444L242.5,149.6928273450923L242.79999999999998,151.46651820183777L242.9,148.01143427140957L243.1,148.44859008119113L243.29999999999998,145.66986140257904L243.4,144.58960452465286L243.6,145.42527520956014L243.7,143.09007810704188L243.9,139.03874055493384L244,125.99412075420756L244.1,136.20465530513331L244.2,138.7248960621955L244.4,143.11344977459413L244.6,143.54319411489598L244.7,147.127695861725L245.1,147.30090798334362L245.2,141.0410574417221L245.4,140.31249195666274L245.7,145.75877508122414L245.9,144.87670887895212L246.20000000000002,146.860565994224L246.8,147.8568174582113L247.4,149.05377095588378L247.8,148.45742606055597L248.10000000000002,149.46803059622476L248.60000000000002,152.1208314802934L248.8,142.58510635364757L249.10000000000002,141.65729223190118L249.7,138.2834435066909L249.79999999999998,144.9921157081579L250,146.79524849855548L250.29999999999998,147.96150077498427L250.6,137.40518263051788L250.7,144.3706013385646L250.79999999999998,138.11310329581454L251.7,143.2566450236662L251.79999999999998,141.72245341870584L251.9,131.2609666452525L252,125.80213379400136L252.2,122.51263294625295L252.4,134.1688810808796L252.7,137.75887738945966L252.79999999999998,143.71003028237837L253.2,144.35860527531432L253.4,146.58276221652784L253.5,136.40091029448146L253.6,129.66008135037748L253.7,137.51516676502564L254.5,144.233760006002L255.4,145.16371355800965L255.6,149.01477803540567L255.9,145.23970570586945L256.4,147.69888781561156L256.7,143.4146720012391L256.8,144.46925433774123L257.1,144.25428122290145L257.2,146.0206447312297L257.5,143.16058041609548L257.8,141.87414562165787L258,128.4992994719066L258.2,138.90098785139173L258.5,145.3766882482931L258.8,146.54098051314995L258.9,152.74336947941623L259,151.38289106369606L259.2,147.3691365372829L260,151.19844224079887L260.2,150.33089875337998L260.40000000000003,148.90198490458098L260.6,149.4644980890934L261.1,149.36669846980647L261.6,149.56480319181694L262,150.86476605292498L262.40000000000003,151.82485764375278L262.5,146.8680371012489L262.59999999999997,150.2407083865864L263,129.43027969852545L263.09999999999997,138.5040645127537L263.2,143.4750417698732L263.3,147.47809234010467L263.59999999999997,124.85563744751985L264.09999999999997,127.87446645288694L264.4,135.71009181544034L264.59999999999997,142.15485060405214L265,145.05024722417792L265.09999999999997,125.41714087077911L265.2,133.7595897680032L265.3,138.7800750626714L265.5,145.45810262863247L265.7,140.53112356622808L266,143.890193391969L266.3,140.82620675086216L266.4,143.32275063568744L266.6,148.33497336202075L266.8,150.19261631527328L267.5,149.27296681413603L267.8,152.1883885915508L267.9,152.2494523966994L268.1,147.5557540273054L268.3,147.92285954703334L268.5,146.27243346678034L268.6,148.42301535176182L268.8,145.6415182564672L269.1,147.95340046455277L269.3,144.5896674498394L269.6,149.27252126022174L269.8,145.5824973055192L269.90000000000003,145.58946703739915" style="fill: none;" fill="none"></path></g></g></g></g><g opacity="0.2"><g><g><g><path stroke="rgb(255, 112, 67)" stroke-width="2px" d="M22.400000000000002,484.97181129455566L23.3,99.6455661228725L23.599999999999998,-376.1434980119978L24.400000000000002,-91.27455847603936L24.5,58.77384022303989L24.7,-6.684574127197266L24.9,94.72332981654577L25.3,70.4329833984375L25.400000000000002,94.09727696010046L25.5,-122.48616463797431L25.6,88.78509140014648L25.700000000000003,75.69526127406529L26.3,43.419588361467625L26.5,33.81660297938755L26.6,42.12877873011997L26.700000000000003,40.10002408708844L26.799999999999997,40.93157632010324L27.099999999999998,-101.9822060721261L27.2,-72.38821029663086L27.3,41.26924133300781L27.4,-66.59431130545478L27.9,37.233703068324495L28.4,32.18803133283343L28.7,39.74805123465402L28.8,24.177338736397886L29.4,13.159623282296323L30.2,26.803967067173552L30.5,30.892274584089016L30.6,48.528263092041016L31.299999999999997,47.37553623744419L31.599999999999998,29.457659040178562L31.8,43.750123705182766L32.5,41.61786760602679L32.6,51.754123142787385L32.9,54.436915806361604L33,53.52456065586636L33.7,54.79436928885324L33.9,56.12591988699777L34.1,55.30401938302176L34.199999999999996,51.29399272373745L34.3,48.9919340951102L35,61.938685825892854L35.5,37.29287447248187L35.7,58.27025277273996L35.800000000000004,-35.64111927577429L35.900000000000006,59.532931736537385L36.199999999999996,54.6956694466727L36.5,51.72987256731305L36.699999999999996,49.06696537562778L36.8,28.276656014578677L37.1,49.117067064557766L37.7,54.463591439383364L37.800000000000004,55.851742880684995L38,16.576286860874724L38.3,36.1312234061105L38.5,-93.15591812133789L38.599999999999994,52.94793047223773L38.8,-35.34967585972376L39,38.208042689732146L39.1,44.32326180594308L39.800000000000004,34.04596492222378L40.599999999999994,61.443052564348484L40.699999999999996,35.923250470842625L40.8,8.000119345528745L41.199999999999996,60.85216304234097L42.2,62.657375880650115L42.300000000000004,23.22055653163364L42.5,53.94676317487445L42.699999999999996,34.85370309012277L42.9,52.9978381565639L43.199999999999996,55.08751024518695L43.3,58.38932309831891L43.4,56.05995832170758L43.7,62.38635144914899L44.7,66.03189195905414L44.900000000000006,58.548746381487156L45.5,61.33795057024274L45.8,58.630373818533755L45.9,60.895717075892854L46,68.47159685407367L46.1,20.519478934151792L46.300000000000004,48.873785291399265L46.7,56.20163018362863L46.900000000000006,64.08951786586216L47.099999999999994,67.76866967337472L47.3,62.3591423034668L47.8,71.02920804704938L48.4,49.09407751900809L49.1,63.86636407034738L49.2,59.38446971348355L49.699999999999996,61.25729315621512L49.8,41.61471503121512L50.1,57.233637673514224L50.2,62.603200095040464L50.3,36.45026397705078L50.7,59.91599382672992L50.800000000000004,64.42669786725726L51,64.81577410016742L51.300000000000004,39.4824104309082L51.699999999999996,35.261840275355745L51.8,28.486665998186375L51.9,30.510570526123047L52,30.336014883858823L52.199999999999996,38.46388626098633L52.5,43.19740458897183L52.6,51.57214682442801L52.7,39.855287279401516L53,44.2303821018764L53.300000000000004,52.136845724923276L53.9,26.815655844552182L54.1,60.00295639038086L54.4,57.742463248116636L54.5,49.21974400111606L54.7,47.92059217180524L54.8,59.36705780029297L55.300000000000004,41.888407026018406L55.400000000000006,55.38094220842633L55.8,64.13394492013114L56,67.15600313459124L56.3,42.99277823311942L56.7,55.98109545026507L57.1,64.74869700840541L57.300000000000004,69.35965292794364L57.7,61.40197208949497L57.800000000000004,68.61011614118304L57.900000000000006,60.55116489955356L58.099999999999994,50.71712003435407L58.6,61.10252598353794L58.699999999999996,62.48582730974469L59.1,56.8746806553432L59.2,63.56711196899414L59.300000000000004,68.7909769330706L60.3,66.81620407104492L60.8,64.8344955444336L61.5,65.87571825299945L61.6,64.89056287493024L62.1,63.55537469046457L62.2,71.65133231026786L62.400000000000006,-216.97901698521204L62.599999999999994,75.64850616455078L63,66.6610973903111L63.9,65.67269243512835L64.1,56.6877087184361L64.2,66.10236413138253L64.5,72.41959054129464L65.10000000000001,66.4115104675293L65.89999999999999,-212.5872377668108L66,75.88145719255719L66.1,68.03508649553571L66.3,64.70523997715541L66.4,69.78694806780133L66.7,66.85631452287946L66.8,80.91951424734933L67.3,65.02180698939732L67.4,-178.20312282017298L68.5,65.35166331699916L68.8,52.9777101789202L68.9,35.34938485281808L69.1,68.70139530726841L69.3,56.22646277291434L69.60000000000001,62.4023083278111L70.7,56.93317304338727L71.10000000000001,58.309878213065005L71.2,55.04313169206891L71.4,68.13461085728237L71.7,73.24236406598773L71.9,66.50875527518136L72.39999999999999,82.79956436157227L72.5,76.6653812953404L73.1,78.35753795078823L73.3,87.4571783883231L73.39999999999999,71.54356275285993L73.5,82.1483394077846L73.6,62.28066744123187L73.7,80.28996930803571L73.8,90.31263514927454L74,48.33052389962332L74.2,83.43041883196149L74.7,87.57692773001534L74.8,80.00934164864677L74.9,81.7246333530971L75.10000000000001,79.3942985534668L75.5,64.22279902866909L75.7,84.5165536063058L75.9,78.4743287222726L76.30000000000001,76.34697123936245L76.4,72.64764295305524L76.49999999999999,80.26072311401367L76.89999999999999,84.9678568158831L77.3,90.44630432128906L77.39999999999999,81.17070170811245L77.7,91.13870675223214L77.89999999999999,81.02131816319057L78,78.11668123517718L78.1,84.80474744524274L78.2,78.82959965297154L78.3,74.2174312046596L78.4,27.076010022844578L78.6,73.69483130318778L78.7,83.76027515956334L79.2,80.73162078857422L79.3,73.03376061575753L79.60000000000001,56.63028335571289L79.7,77.24065344674247L80,92.56997571672711L80.2,82.0159797668457L80.60000000000001,82.42009135654995L80.80000000000001,90.1555884225028L81.00000000000001,85.98895154680524L81.19999999999999,90.82189723423548L81.5,79.40977042061942L81.89999999999999,97.54114968436105L82,40.87953458513532L82.2,73.69822638375419L82.5,93.59824861798968L82.9,88.25497382027763L83.4,79.15950448172433L84.10000000000001,90.18114852905273L84.2,97.1010502406529L84.4,85.86755316598075L84.5,59.98205239432199L84.60000000000001,98.2777851649693L84.7,91.70214462280273L84.9,98.08382906232562L85.19999999999999,91.46153041294642L85.6,89.61334555489677L85.69999999999999,93.02642004830497L86.1,85.23301260811942L86.39999999999999,80.98062569754464L86.8,84.0675299508231L87.1,92.64835357666016L87.2,81.6214714050293L87.3,75.80535888671875L87.4,91.54684393746513L87.5,58.409305572509766L87.7,63.36903326851981L87.8,61.59520067487445L87.9,76.7486092703683L88.10000000000001,51.44832338605609L88.2,86.82118279593331L88.3,78.24152319771903L88.4,89.26151820591517L88.60000000000001,94.45987156459265L88.8,86.23169980730329L88.9,85.77598299298968L89.60000000000001,93.9321790422712L89.89999999999999,73.01630020141602L90,77.98878370012555L90.1,94.10658918108258L90.3,93.82377896990094L90.6,67.04401397705078L90.8,100.18518992832728L91,88.70715005057198L91.39999999999999,97.93109893798828L91.8,89.79488536289759L92.1,43.40038190569196L92.2,85.93366023472377L92.3,94.28604343959265L92.4,90.03224999564034L92.5,74.46570859636579L93,78.87334769112724L93.60000000000001,98.13131168910436L93.80000000000001,90.56280408586774L93.9,88.42855943952289L93.99999999999999,101.36997604370117L94.3,87.10840661185128L94.6,102.189208984375L94.69999999999999,87.9155627659389L95,95.28540965488978L95.1,81.69179807390485L95.2,96.57025364467077L95.39999999999999,86.05166353498187L95.6,99.60982077462333L96.2,104.06741605486188L96.5,95.17245047433036L96.6,37.588440486363005L96.9,89.11664526803153L97,96.01695251464844L97.10000000000001,105.48830577305384L97.3,87.2057969229562L97.4,90.2048170907157L98,104.13328061785016L98.4,72.39373942783901L98.50000000000001,93.55561610630579L98.69999999999999,90.38194329398019L98.89999999999999,97.55191693987165L99.1,93.12366485595703L99.19999999999999,94.68753596714564L99.3,87.03056226457868L99.39999999999999,100.82739366803851L99.5,75.95983505249023L99.8,100.14294542585101L100,96.97742080688477L100.2,102.38185555594308L100.5,101.72320992606026L100.7,95.2884167262486L100.8,102.59467860630579L100.9,96.63577869960241L101.3,90.3979001726423L101.5,111.4658786228725L101.60000000000001,103.93035180228097L101.8,110.13908113752093L102.10000000000001,73.31885038103376L102.5,92.5093492780413L102.80000000000001,71.26967675345284L103.1,58.7884875706264L103.19999999999999,48.9649189540318L103.39999999999999,48.44484111240933L103.6,20.771199907575344L103.8,37.74669974190848L104.3,19.487568446568083L104.6,56.45359366280692L104.7,65.60440281459263L104.8,59.69288853236606L105.1,64.39628764561245L105.9,80.7451526096889L106,78.56589889526367L106.10000000000001,89.29241343906946L106.3,87.97633470807757L106.7,79.69699423653739L106.9,89.1501110621861L107,96.11972645350866L107.39999999999999,91.39682987758093L107.6,99.00835800170898L107.69999999999999,92.31408364432198L108,97.93260247366769L108.2,101.36915152413505L108.39999999999999,109.45763996669226L108.7,97.64523315429688L108.89999999999999,65.34249659946987L109,96.5997908455985L109.2,82.37008666992188L109.3,95.76304898943219L109.6,97.84466988699776L109.9,55.67830276489258L110,95.0227759225028L110.7,90.50562122889929L110.80000000000001,-25.211965288434698L110.9,105.13022177559989L111,78.85035814557757L111.2,86.40606144496373L111.30000000000001,85.9257060459682L111.49999999999999,80.14621189662388L111.6,36.833180563790464L111.69999999999999,85.60399791172573L112,66.99769537789481L112.1,80.9733020237514L112.19999999999999,88.87219946725028L112.3,87.0663561139788L112.5,13.683726719447542L113.1,92.83954511369977L113.2,103.2936771937779L113.5,79.45895058768136L114.2,105.71024703979492L114.5,91.3360094342913L115.2,89.23552158900671L115.30000000000001,108.67274584089007L115.4,104.38936669485909L115.60000000000001,99.42425537109375L115.7,62.111204419817234L115.80000000000001,112.91630554199219L116.1,97.4810082571847L116.19999999999999,103.00325230189733L116.39999999999999,108.95769010271344L116.6,104.36778368268695L116.69999999999999,115.62121473039899L117.1,107.96836362566266L117.2,104.4821493966239L117.6,98.9336177280971L117.7,103.03739711216517L117.8,100.33651351928711L117.9,103.53375789097376L118.2,99.46926443917411L118.3,93.96559633527484L118.4,103.3514905657087L118.7,100.32138116019112L118.8,89.49902834211078L119.60000000000001,107.64141736711774L120,114.83830915178571L120.19999999999999,99.03309358869281L120.39999999999999,113.32390921456474L120.5,102.07513427734375L120.8,95.50802993774414L120.89999999999999,108.3269326346261L121.1,-5.621622903006411L121.2,109.76242119925362L121.3,107.24880055018835L121.39999999999999,99.2538708278111L121.7,103.81414304460797L122.5,94.65479769025531L122.7,117.7502212524414L122.9,111.85354832240515L123.10000000000001,84.02955354963031L123.2,122.06076104300362L123.3,7.197667803083156L123.5,107.78633880615234L123.7,55.431189400809146L123.8,118.90498515537806L123.9,115.15453665597099L124.2,104.12804249354772L124.4,113.26270076206751L125.1,109.1768183026995L125.19999999999999,118.50475365774972L125.5,97.6373759678432L125.7,61.646029881068635L126.3,76.30666678292411L126.39999999999999,105.7871698651995L126.6,104.24342673165458L126.8,113.574951171875L127.2,102.45766285487585L127.60000000000001,115.18387985229492L127.8,119.83121163504464L128,110.62811824253626L128.3,116.68906457083565L128.4,114.61326381138392L128.5,121.30724716186523L128.6,119.09981427873883L129.2,116.73223059517997L129.3,104.123046875L129.9,110.14936338152204L130.1,5.711253029959536L130.3,92.59645734514508L130.4,110.05119705200195L130.5,119.9667238507952L131.4,121.5457273210798L131.6,123.90094321114677L131.9,124.13049915858679L132.29999999999998,122.83862250191825L132.5,96.76003864833288L132.6,113.39903749738421L133,102.12693350655692L133.1,100.34888131277901L133.3,99.09915215628487L133.4,117.40110996791296L133.5,121.95032392229352L133.8,118.0964709690639L133.9,100.8617809840611L134.9,114.81861768450055L135.1,115.18082427978516L135.20000000000002,111.65634264264789L135.5,108.1230822971889L135.6,113.50583703177315L135.7,113.31658554077148L136,96.25509316580636L136.1,116.63168770926339L136.2,112.69872937883649L137.7,102.15855625697546L138,102.84979466029577L138.2,102.33854402814593L138.3,102.42599160330636L138.5,101.85901314871651L138.6,105.31025804792132L138.9,66.56962421962193L139.20000000000002,116.25808334350586L139.3,110.55754906790597L139.4,104.81360626220703L139.5,119.63880756923132L139.70000000000002,110.66114752633231L139.9,117.01775687081474L140.1,101.73543221609933L140.3,107.09922300066266L140.4,93.17730712890625L140.6,118.29745973859515L140.8,118.06009510585241L141,95.04198237827845L141.1,115.20415333339147L141.20000000000002,122.19506072998047L141.3,113.8321042742048L141.4,121.41438620431083L142.4,85.9002914428711L142.8,115.72524969918388L143.20000000000002,114.16812024797711L143.3,129.10642623901367L143.4,128.9084930419922L143.60000000000002,125.24078750610352L143.9,112.52499825613839L144.20000000000002,114.77351161411829L144.39999999999998,134.16364124843054L144.60000000000002,124.62826647077289L144.7,122.03064182826452L144.89999999999998,126.63291604178292L145.29999999999998,120.51624189104352L145.39999999999998,114.74736949375696L145.5,93.24399621146065L145.7,114.2470316205706L145.79999999999998,119.04471697126117L146.1,106.4802998134068L146.2,115.78820419311523L146.29999999999998,78.72158758980888L146.4,126.62452534266882L146.6,122.08239255632672L147.1,132.46857452392578L147.4,130.79863139561243L147.9,128.4666475568499L148.1,130.44777406964982L148.5,106.75568934849329L148.7,112.98595319475446L149.1,114.20430210658483L149.2,123.02253886631556L149.3,128.40582711356026L149.4,95.4848463875907L149.6,128.64847837175643L149.9,132.7237390790667L150,131.29062707083565L150.20000000000002,133.45537894112724L150.3,98.78602872576032L150.4,122.11755589076452L151,114.76017379760742L151.20000000000002,118.65491322108679L151.3,126.64644786289759L151.5,130.62174769810267L151.60000000000002,136.7306616646903L151.9,75.69943237304688L152,121.08452987670898L152.5,-1774.6652614048548L152.60000000000002,134.0033449445452L152.70000000000002,107.5647370474679L152.99999999999997,104.65578351702008L153.2,117.03769084385462L153.29999999999998,109.74093518938336L153.39999999999998,111.04658617292132L153.5,121.48248182024274L153.6,113.85693686349052L153.7,115.47784532819476L154.29999999999998,115.73281587873187L154.79999999999998,8.483287811279297L154.9,111.98396791730609L155,129.02639933994837L155.5,128.55821772984095L155.9,129.76390784127372L156.1,126.29597854614258L156.2,132.07872227260046L156.6,115.74115807669503L157,130.46164539882116L157.7,128.80756214686804L157.9,116.26288495744977L158.2,128.53775024414062L158.4,118.99631282261439L158.5,117.88563646589007L158.8,103.7411003112793L158.9,133.40847832815987L159.1,136.83101054600306L159.20000000000002,111.28346579415458L159.5,123.42548642839704L161.20000000000002,129.55026027134485L161.3,124.78492518833704L161.4,128.2872417994908L161.5,127.09227044241769L161.89999999999998,40.04250172206333L162.2,126.15110560825892L162.29999999999998,127.7622653416225L162.6,139.8108242579869L162.7,124.45914295741491L162.79999999999998,127.83564758300781L163.2,135.8486682346889L163.29999999999998,130.71661594935827L163.39999999999998,112.58843776157923L163.6,138.0992671421596L163.79999999999998,128.54541342599052L164,127.80509185791016L164.2,66.78889792306083L164.79999999999998,134.05034255981445L165,121.22115761893136L165.5,134.93999917166573L165.6,126.48823710850306L166.5,138.58971078055245L166.6,125.10013416835241L167.70000000000002,140.6707981654576L168.1,104.46813256399972L168.20000000000002,107.45541545322962L168.5,138.78783798217773L168.6,138.37402616228377L168.9,126.3473412649972L169.10000000000002,132.44044385637557L169.20000000000002,129.15701293945312L169.3,131.28800800868444L170,122.37597002301898L170.10000000000002,135.91113771711076L170.20000000000002,132.96580832345145L170.3,134.690363747733L170.60000000000002,100.27394703456335L170.79999999999998,123.74525451660156L170.89999999999998,128.93948527744837L171,133.23072160993303L171.1,143.73636191231864L171.6,113.61021150861468L171.79999999999998,138.3969672066825L172.29999999999998,132.3356328691755L172.4,119.08715547834124L172.7,111.7531509399414L173.4,111.0475561959403L173.6,126.12045288085938L174.6,115.20104925973075L174.8,137.85370581490653L174.9,119.10786546979632L175.1,96.73079245431083L175.2,125.71765082223075L175.4,135.24419839041573L175.5,140.03722763061523L176.1,133.01086589268274L176.20000000000002,125.80985151018415L176.8,137.33988462175643L176.9,135.92995616367884L177.8,149.23357936314173L178.20000000000002,127.34825951712472L178.4,55.97362627301898L178.8,124.56822204589844L179.39999999999998,114.17786897931781L179.7,134.19628252301897L179.89999999999998,127.08446175711495L180.2,134.43078558785575L180.39999999999998,143.23505401611328L180.5,139.33284541538782L180.89999999999998,122.66789845057897L181,141.33376039777482L181.2,126.06618009294782L181.29999999999998,-4.535100119454526L181.5,140.11667251586914L181.79999999999998,142.82216371808732L181.9,146.9295321873256L182,125.69786235264368L182.4,143.77365929739815L182.6,124.40598569597516L182.7,129.76012475149972L182.79999999999998,135.76810782296317L183,140.98484311785018L183.2,142.8530104500907L183.4,129.3421903337751L183.7,146.5101912362235L184,113.9949711390904L184.1,134.50174277169364L184.2,137.16537748064314L184.5,136.79880578177315L184.70000000000002,139.03514535086495L184.8,137.51701082502092L185.1,131.01145444597518L185.20000000000002,143.6803915841239L185.5,141.22177124023438L185.9,145.3386459350586L186,135.39833504813058L186.1,120.01144191196985L186.8,138.78987503051758L187,138.67701285226005L187.10000000000002,139.2002432686942L187.20000000000002,132.82714353288924L187.5,86.44752992902484L187.60000000000002,135.04752622331893L187.8,123.94071415492468L188.2,140.79971422467912L188.29999999999998,141.99463708060128L188.39999999999998,134.918949672154L188.7,137.5092991420201L189.1,145.77137320382255L189.2,123.33425576346261L189.39999999999998,152.1252179827009L189.5,122.27896772112165L189.6,143.00268500191825L189.7,148.37050138201033L189.9,135.52890014648438L190.2,145.1309155055455L190.29999999999998,132.02857208251953L190.4,133.71034949166435L190.5,147.41274915422713L190.9,118.6583083016532L191,129.76274381365096L191.5,135.83634894234794L191.7,128.09474073137557L191.8,114.23805890764508L191.9,145.29562541416712L192.3,135.50770514351981L192.6,148.2827627999442L192.8,135.78275517054968L193.1,134.4015393938337L193.2,144.30736596243722L193.3,123.8725700378418L193.4,146.98487200055803L193.5,134.21320942470007L193.70000000000002,143.93085152762276L193.9,144.22986112322127L194.20000000000002,121.12667737688336L194.3,131.51281084333147L194.5,129.24935913085938L194.6,137.57981981549943L194.70000000000002,132.32054901123047L195,147.69216428484236L195.20000000000002,135.86317007882255L195.3,134.19972610473633L195.4,144.33457510811942L195.5,137.81340135846818L196.20000000000002,141.91330065046037L196.3,137.53607177734375L196.60000000000002,143.82676805768693L197.10000000000002,141.60953794206893L197.5,143.88021632603235L198.1,135.84304210117884L198.2,133.36676733834403L198.39999999999998,34.304476056780125L198.79999999999998,135.63133457728796L198.9,133.50703266688757L199,132.09021704537528L199.2,122.91908591134208L199.29999999999998,139.80966023036413L199.4,136.0119231087821L199.79999999999998,130.76632962908064L200.2,139.6451928274972L200.4,132.2574975149972L200.5,139.6197782244001L201.3,142.02689034598214L201.4,146.8158939906529L201.7,145.57552555629186L202,127.44215774536133L202.4,142.09668350219727L202.6,27.134696415492463L203,149.1193106515067L203.5,148.08405358450753L203.6,141.72715323311942L204,144.17350278581893L204.10000000000002,116.62397602626257L204.4,148.19429670061385L204.5,141.36916623796736L204.60000000000002,144.10589218139648L204.9,144.3751220703125L205.20000000000002,150.61067254202706L205.3,152.7040307181222L205.49999999999997,121.11945070539203L205.7,140.6904411315918L205.79999999999998,144.96023995535714L205.89999999999998,147.99267741612024L206.6,146.5878415788923L206.79999999999998,132.3392219543457L206.89999999999998,147.29644339425224L207.5,148.21161161150252L207.6,156.23840659005302L207.7,127.89258793422155L207.79999999999998,140.90612574986048L207.9,145.5741675240653L208.1,151.27407128470284L208.4,155.18505859375L209.1,127.94128308977399L209.2,149.98937279837472L209.3,129.8423342023577L210.2,141.40723964146204L210.5,143.29029682704382L210.6,136.28716714041573L211,125.8551515851702L211.1,149.22921425955636L211.20000000000002,153.21911294119698L211.3,143.23374448503768L211.6,151.00154331752233L211.70000000000002,150.06876918247767L211.8,143.343017578125L211.9,143.64464623587472L212.3,153.43261500767298L212.4,145.64022609165735L212.5,145.81871032714844L212.8,109.33051845005579L213,149.5714383806501L213.20000000000002,151.61828395298548L213.4,151.3322241646903L213.5,134.93243299211775L213.60000000000002,136.47423607962472L213.8,117.68489020211356L213.9,137.06187602451868L214.39999999999998,149.9667227608817L214.7,153.05532455444336L214.89999999999998,141.91140910557337L215.2,38.14436067853656L215.5,139.78288759504045L215.6,153.70068086896623L215.79999999999998,138.92058563232422L216,136.7825093950544L216.6,115.60365731375558L216.7,142.5789304460798L216.9,147.77839933122908L217.1,155.78530883789062L218,138.862238747733L218.1,141.3095098223005L218.2,140.17598942347936L218.3,126.3307053702218L219.5,140.5473142351423L219.70000000000002,142.3291495186942L219.9,153.1677987234933L220.1,125.86732537405831L220.5,161.38690076555525L220.6,140.01642063685827L220.70000000000002,152.6308424813407L220.8,148.48695264543807L220.9,149.7603018624442L221,120.613098689488L221.1,117.50402941022601L221.3,134.17731857299805L221.4,134.44494792393274L221.5,144.5476406642369L221.70000000000002,121.17207445417132L222.20000000000002,146.26336887904577L222.5,145.76967566353935L222.70000000000002,155.35326058523995L222.8,135.97923333304269L222.99999999999997,147.28708267211914L223.29999999999998,130.70793424333846L223.6,144.75750514439173L223.79999999999998,150.53729030064173L224.1,146.1463841029576L224.39999999999998,124.28250176565987L224.5,150.54286793300085L224.79999999999998,142.1080812726702L225,150.14413997105189L225.1,127.17278235299247L225.9,132.50364085606165L226,94.40627779279437L226.2,142.5529338291713L226.7,128.10138538905554L227.2,138.20393262590682L227.3,134.36530903407507L227.4,141.59489059448242L227.6,144.83728953770228L227.7,154.5300020490374L227.9,69.75105721609933L228.1,132.8825318472726L228.4,154.70096860613143L228.5,124.1587268284389L228.9,150.70078768048967L229.4,124.49086271013532L229.6,145.58537128993444L230.20000000000002,133.8779694693429L230.3,152.80695016043526L230.4,130.6301383972168L230.5,140.14111709594727L230.60000000000002,140.50114113943917L230.9,132.50713293892997L231.10000000000002,149.3406699044364L231.4,143.89035306658064L231.5,129.17219379970007L231.8,140.89972359793526L232.00000000000003,131.49937602451868L232.2,145.8275375366211L232.29999999999998,151.2842080252511L232.39999999999998,130.93385260445731L232.79999999999998,149.99756949288505L233.2,137.6139646257673L233.29999999999998,152.19598116193498L233.39999999999998,145.1430892944336L233.79999999999998,149.98156411307198L233.9,143.4354122706822L234.1,9.18703951154437L234.2,134.130126953125L234.4,133.77024841308594L234.5,137.45832443237305L234.6,146.74270575387138L234.79999999999998,137.58918053763253L234.9,148.47143227713448L235,150.815735408238L235.1,153.84123720441545L235.4,124.40132958548409L235.6,157.70837947300504L235.7,151.9967384338379L236.3,142.04522378104073L236.4,147.6183455330985L236.5,160.41348266601562L236.9,139.3502573285784L237.1,153.2567013331822L237.3,103.59734289986747L237.70000000000002,152.42257853916712L238.4,146.80022811889648L238.70000000000002,150.99785723005022L238.9,135.40609523228235L239.10000000000002,133.38194819859095L239.20000000000002,152.89114815848214L239.4,136.43116705758231L239.60000000000002,146.71297454833984L239.8,154.5856328691755L239.9,127.2636250087193L240,153.527095249721L240.3,144.3337505885533L240.39999999999998,136.22717121669226L240.7,132.4214314052037L240.79999999999998,155.2337052481515L241.1,147.23344039916992L241.39999999999998,155.7212873186384L241.79999999999998,146.97880935668945L242.4,146.96013641357422L242.5,152.28182819911413L242.79999999999998,154.12705448695593L242.9,142.8288083757673L243.1,149.10432379586356L243.29999999999998,141.501768384661L243.4,142.96921920776367L243.6,146.67878123692103L243.7,139.58728245326452L243.9,132.96173422677177L244,106.42719105311804L244.1,151.52045713152205L244.2,142.50525719778878L244.4,149.69628034319197L244.6,144.18781062534876L244.7,152.50444848196847L245.1,147.56072616577148L245.2,131.6512816292899L245.4,139.21964372907365L245.7,153.9281997680664L245.9,143.55360957554407L246.20000000000002,149.8363516671317L246.8,149.35119465419226L247.4,150.84920120239258L247.8,147.56290871756417L248.10000000000002,150.98393739972795L248.60000000000002,156.10003280639648L248.8,128.28151866367884L249.10000000000002,140.26557104928153L249.7,133.22267041887557L249.79999999999998,155.05512401035853L250,149.49994768415178L250.29999999999998,149.71087918962752L250.6,121.57070541381836L250.7,154.81872940063477L250.79999999999998,128.72685623168945L251.7,150.97195761544364L251.79999999999998,139.42116601126534L251.9,115.56873648507255L252,117.61388451712472L252.2,117.57838167463031L252.4,151.65325328281946L252.7,143.1438718523298L252.79999999999998,152.63675962175643L253.2,145.33146776471818L253.4,149.91899762834822L253.5,121.12813241141183L253.6,119.54883793422155L253.7,149.29779488699776L254.5,154.3116498674665L255.4,146.5586438860212L255.6,154.79137475149972L255.9,139.5770972115653L256.4,151.3876609802246L256.7,136.98834827968054L256.8,146.05112784249442L257.1,143.93182155064173L257.2,148.6701899937221L257.5,138.87048394339425L257.8,139.9444934300014L258,108.43703024727958L258.2,154.50352042061942L258.5,155.09023884364538L258.8,148.28741891043526L258.9,162.04695292881559L259,149.3421734401158L259.2,141.3485047476632L260,156.94240079607283L260.2,149.02958352225167L260.40000000000003,146.75861413138253L260.6,150.30826786586218L261.1,149.2199990408761L261.6,149.8619602748326L262,152.81471034458704L262.40000000000003,153.26499502999442L262.5,139.43280628749304L262.59999999999997,155.29971531459265L263,98.21463666643415L263.09999999999997,152.114741734096L263.2,150.93150765555245L263.3,153.48266819545202L263.59999999999997,90.92195510864258L264.09999999999997,132.4027099609375L264.4,147.46352985927038L264.59999999999997,151.82198878696985L265,149.39334215436662L265.09999999999997,95.96748134068079L265.2,146.27326311383928L265.3,146.31080300467355L265.5,155.47514397757394L265.7,133.14065497262138L266,148.92879813058036L266.3,136.23022678920202L266.4,147.0675664629255L266.6,155.85330745152066L266.8,152.97908074515206L267.5,147.89349256243025L267.8,156.561521257673L267.9,152.34104810442244L268.1,140.51520647321428L268.3,148.47351782662528L268.5,143.79679434640067L268.6,151.6488881792341L268.8,141.4692726135254L269.1,151.42122377668107L269.3,139.54406792776925L269.6,156.2968019757952L269.8,140.0474613734654L269.90000000000003,145.59992163521903" style="fill: none;" fill="none"></path></g></g></g></g></g></g><g transform="translate(50, 178)" clip-path="url(#clip_1)"><clipPath id="clip_1"><rect width="280" height="22"></rect></clipPath><g><g><line x1="0" y1="0" x2="0" y2="5" style="visibility: inherit;" fill="rgb(0, 0, 0)" stroke="rgb(204, 204, 204)" stroke-width="1px"></line><line x1="20" y1="0" x2="20" y2="5" style="visibility: inherit;" fill="rgb(0, 0, 0)" stroke="rgb(204, 204, 204)" stroke-width="1px"></line><line x1="40" y1="0" x2="40" y2="5" style="visibility: inherit;" fill="rgb(0, 0, 0)" stroke="rgb(204, 204, 204)" stroke-width="1px"></line><line x1="60" y1="0" x2="60" y2="5" style="visibility: inherit;" fill="rgb(0, 0, 0)" stroke="rgb(204, 204, 204)" stroke-width="1px"></line><line x1="80" y1="0" x2="80" y2="5" style="visibility: inherit;" fill="rgb(0, 0, 0)" stroke="rgb(204, 204, 204)" stroke-width="1px"></line><line x1="100" y1="0" x2="100" y2="5" style="visibility: inherit;" fill="rgb(0, 0, 0)" stroke="rgb(204, 204, 204)" stroke-width="1px"></line><line x1="120" y1="0" x2="120" y2="5" style="visibility: inherit;" fill="rgb(0, 0, 0)" stroke="rgb(204, 204, 204)" stroke-width="1px"></line><line x1="140" y1="0" x2="140" y2="5" style="visibility: inherit;" fill="rgb(0, 0, 0)" stroke="rgb(204, 204, 204)" stroke-width="1px"></line><line x1="160" y1="0" x2="160" y2="5" style="visibility: inherit;" fill="rgb(0, 0, 0)" stroke="rgb(204, 204, 204)" stroke-width="1px"></line><line x1="180" y1="0" x2="180" y2="5" style="visibility: inherit;" fill="rgb(0, 0, 0)" stroke="rgb(204, 204, 204)" stroke-width="1px"></line><line x1="200" y1="0" x2="200" y2="5" style="visibility: inherit;" fill="rgb(0, 0, 0)" stroke="rgb(204, 204, 204)" stroke-width="1px"></line><line x1="220" y1="0" x2="220" y2="5" style="visibility: inherit;" fill="rgb(0, 0, 0)" stroke="rgb(204, 204, 204)" stroke-width="1px"></line><line x1="240" y1="0" x2="240" y2="5" style="visibility: inherit;" fill="rgb(0, 0, 0)" stroke="rgb(204, 204, 204)" stroke-width="1px"></line><line x1="260" y1="0" x2="260" y2="5" style="visibility: inherit;" fill="rgb(0, 0, 0)" stroke="rgb(204, 204, 204)" stroke-width="1px"></line><line x1="280" y1="0" x2="280" y2="5" style="visibility: inherit;" fill="rgb(0, 0, 0)" stroke="rgb(204, 204, 204)" stroke-width="1px"></line></g><g transform="translate(0, 8)"><text x="0" y="0" dx="0em" dy="0.95em" style="text-anchor: middle; visibility: hidden; font-family: Roboto, sans-serif; font-size: 12px; font-weight: 200;" fill="rgb(50, 49, 63)" stroke="none" stroke-width="1px">-200</text><text x="20" y="0" dx="0em" dy="0.95em" style="text-anchor: middle; visibility: inherit; font-family: Roboto, sans-serif; font-size: 12px; font-weight: 200;" fill="rgb(50, 49, 63)" stroke="none" stroke-width="1px">0</text><text x="40" y="0" dx="0em" dy="0.95em" style="text-anchor: middle; visibility: hidden; font-family: Roboto, sans-serif; font-size: 12px; font-weight: 200;" fill="rgb(50, 49, 63)" stroke="none" stroke-width="1px">200</text><text x="60" y="0" dx="0em" dy="0.95em" style="text-anchor: middle; visibility: inherit; font-family: Roboto, sans-serif; font-size: 12px; font-weight: 200;" fill="rgb(50, 49, 63)" stroke="none" stroke-width="1px">400</text><text x="80" y="0" dx="0em" dy="0.95em" style="text-anchor: middle; visibility: hidden; font-family: Roboto, sans-serif; font-size: 12px; font-weight: 200;" fill="rgb(50, 49, 63)" stroke="none" stroke-width="1px">600</text><text x="100" y="0" dx="0em" dy="0.95em" style="text-anchor: middle; visibility: inherit; font-family: Roboto, sans-serif; font-size: 12px; font-weight: 200;" fill="rgb(50, 49, 63)" stroke="none" stroke-width="1px">800</text><text x="120" y="0" dx="0em" dy="0.95em" style="text-anchor: middle; visibility: hidden; font-family: Roboto, sans-serif; font-size: 12px; font-weight: 200;" fill="rgb(50, 49, 63)" stroke="none" stroke-width="1px">1k</text><text x="140" y="0" dx="0em" dy="0.95em" style="text-anchor: middle; visibility: inherit; font-family: Roboto, sans-serif; font-size: 12px; font-weight: 200;" fill="rgb(50, 49, 63)" stroke="none" stroke-width="1px">1.2k</text><text x="160" y="0" dx="0em" dy="0.95em" style="text-anchor: middle; visibility: hidden; font-family: Roboto, sans-serif; font-size: 12px; font-weight: 200;" fill="rgb(50, 49, 63)" stroke="none" stroke-width="1px">1.4k</text><text x="180" y="0" dx="0em" dy="0.95em" style="text-anchor: middle; visibility: inherit; font-family: Roboto, sans-serif; font-size: 12px; font-weight: 200;" fill="rgb(50, 49, 63)" stroke="none" stroke-width="1px">1.6k</text><text x="200" y="0" dx="0em" dy="0.95em" style="text-anchor: middle; visibility: hidden; font-family: Roboto, sans-serif; font-size: 12px; font-weight: 200;" fill="rgb(50, 49, 63)" stroke="none" stroke-width="1px">1.8k</text><text x="220" y="0" dx="0em" dy="0.95em" style="text-anchor: middle; visibility: inherit; font-family: Roboto, sans-serif; font-size: 12px; font-weight: 200;" fill="rgb(50, 49, 63)" stroke="none" stroke-width="1px">2k</text><text x="240" y="0" dx="0em" dy="0.95em" style="text-anchor: middle; visibility: hidden; font-family: Roboto, sans-serif; font-size: 12px; font-weight: 200;" fill="rgb(50, 49, 63)" stroke="none" stroke-width="1px">2.2k</text><text x="260" y="0" dx="0em" dy="0.95em" style="text-anchor: middle; visibility: inherit; font-family: Roboto, sans-serif; font-size: 12px; font-weight: 200;" fill="rgb(50, 49, 63)" stroke="none" stroke-width="1px">2.4k</text><text x="280" y="0" dx="0em" dy="0.95em" style="text-anchor: middle; visibility: hidden; font-family: Roboto, sans-serif; font-size: 12px; font-weight: 200;" fill="rgb(50, 49, 63)" stroke="none" stroke-width="1px">2.6k</text></g><line x1="0" y1="0" x2="280" y2="0" fill="rgb(0, 0, 0)" stroke="rgb(204, 204, 204)" stroke-width="1px"></line></g></g></g></g></svg>