<svg viewBox="0 0 330 200" xmlns="http://www.w3.org/2000/svg"><g><g><g><g><g><line x1="30.78125" y1="178" x2="25.78125" y2="178" style="visibility: inherit;" fill="rgb(0, 0, 0)" stroke="rgb(204, 204, 204)" stroke-width="1px"></line><line x1="30.78125" y1="158.2222222222222" x2="25.78125" y2="158.2222222222222" style="visibility: inherit;" fill="rgb(0, 0, 0)" stroke="rgb(204, 204, 204)" stroke-width="1px"></line><line x1="30.78125" y1="138.44444444444446" x2="25.78125" y2="138.44444444444446" style="visibility: inherit;" fill="rgb(0, 0, 0)" stroke="rgb(204, 204, 204)" stroke-width="1px"></line><line x1="30.78125" y1="118.66666666666669" x2="25.78125" y2="118.66666666666669" style="visibility: inherit;" fill="rgb(0, 0, 0)" stroke="rgb(204, 204, 204)" stroke-width="1px"></line><line x1="30.78125" y1="98.8888888888889" x2="25.78125" y2="98.8888888888889" style="visibility: inherit;" fill="rgb(0, 0, 0)" stroke="rgb(204, 204, 204)" stroke-width="1px"></line><line x1="30.78125" y1="79.1111111111111" x2="25.78125" y2="79.1111111111111" style="visibility: inherit;" fill="rgb(0, 0, 0)" stroke="rgb(204, 204, 204)" stroke-width="1px"></line><line x1="30.78125" y1="59.33333333333334" x2="25.78125" y2="59.33333333333334" style="visibility: inherit;" fill="rgb(0, 0, 0)" stroke="rgb(204, 204, 204)" stroke-width="1px"></line><line x1="30.78125" y1="39.55555555555555" x2="25.78125" y2="39.55555555555555" style="visibility: inherit;" fill="rgb(0, 0, 0)" stroke="rgb(204, 204, 204)" stroke-width="1px"></line><line x1="30.78125" y1="19.777777777777786" x2="25.78125" y2="19.777777777777786" style="visibility: inherit;" fill="rgb(0, 0, 0)" stroke="rgb(204, 204, 204)" stroke-width="1px"></line><line x1="30.78125" y1="0" x2="25.78125" y2="0" style="visibility: inherit;" fill="rgb(0, 0, 0)" stroke="rgb(204, 204, 204)" stroke-width="1px"></line></g><g transform="translate(20.78125, 0)"><text x="0" y="178" dx="0em" dy="0.3em" style="text-anchor: end; visibility: hidden; font-family: Roboto, sans-serif; font-size: 12px; font-weight: 200;" fill="rgb(50, 49, 63)" stroke="none" stroke-width="1px">-5</text><text x="0" y="158.2222222222222" dx="0em" dy="0.3em" style="text-anchor: end; visibility: inherit; font-family: Roboto, sans-serif; font-size: 12px; font-weight: 200;" fill="rgb(50, 49, 63)" stroke="none" stroke-width="1px">0</text><text x="0" y="138.44444444444446" dx="0em" dy="0.3em" style="text-anchor: end; visibility: hidden; font-family: Roboto, sans-serif; font-size: 12px; font-weight: 200;" fill="rgb(50, 49, 63)" stroke="none" stroke-width="1px">5</text><text x="0" y="118.66666666666669" dx="0em" dy="0.3em" style="text-anchor: end; visibility: inherit; font-family: Roboto, sans-serif; font-size: 12px; font-weight: 200;" fill="rgb(50, 49, 63)" stroke="none" stroke-width="1px">10</text><text x="0" y="98.8888888888889" dx="0em" dy="0.3em" style="text-anchor: end; visibility: hidden; font-family: Roboto, sans-serif; font-size: 12px; font-weight: 200;" fill="rgb(50, 49, 63)" stroke="none" stroke-width="1px">15</text><text x="0" y="79.1111111111111" dx="0em" dy="0.3em" style="text-anchor: end; visibility: inherit; font-family: Roboto, sans-serif; font-size: 12px; font-weight: 200;" fill="rgb(50, 49, 63)" stroke="none" stroke-width="1px">20</text><text x="0" y="59.33333333333334" dx="0em" dy="0.3em" style="text-anchor: end; visibility: hidden; font-family: Roboto, sans-serif; font-size: 12px; font-weight: 200;" fill="rgb(50, 49, 63)" stroke="none" stroke-width="1px">25</text><text x="0" y="39.55555555555555" dx="0em" dy="0.3em" style="text-anchor: end; visibility: inherit; font-family: Roboto, sans-serif; font-size: 12px; font-weight: 200;" fill="rgb(50, 49, 63)" stroke="none" stroke-width="1px">30</text><text x="0" y="19.777777777777786" dx="0em" dy="0.3em" style="text-anchor: end; visibility: hidden; font-family: Roboto, sans-serif; font-size: 12px; font-weight: 200;" fill="rgb(50, 49, 63)" stroke="none" stroke-width="1px">35</text><text x="0" y="0" dx="0em" dy="0.3em" style="text-anchor: end; visibility: hidden; font-family: Roboto, sans-serif; font-size: 12px; font-weight: 200;" fill="rgb(50, 49, 63)" stroke="none" stroke-width="1px">40</text></g><line x1="30.78125" y1="0" x2="30.78125" y2="178" fill="rgb(0, 0, 0)" stroke="rgb(204, 204, 204)" stroke-width="1px"></line></g></g><g transform="translate(30, 0)" clip-path="url(#clip_0)"><clipPath id="clip_0"><rect width="299" height="178"></rect></clipPath><g><g><g><line x1="0" y1="0" x2="0" y2="178" fill="rgb(0, 0, 0)" stroke="rgb(60, 60, 60)" stroke-width="1px" opacity="0.25"></line><line x1="21.372767857142858" y1="0" x2="21.372767857142858" y2="178" fill="rgb(0, 0, 0)" stroke="rgb(60, 60, 60)" stroke-width="1px" opacity="0.25"></line><line x1="42.745535714285715" y1="0" x2="42.745535714285715" y2="178" fill="rgb(0, 0, 0)" stroke="rgb(60, 60, 60)" stroke-width="1px" opacity="0.25"></line><line x1="64.11830357142857" y1="0" x2="64.11830357142857" y2="178" fill="rgb(0, 0, 0)" stroke="rgb(60, 60, 60)" stroke-width="1px" opacity="0.25"></line><line x1="85.49107142857143" y1="0" x2="85.49107142857143" y2="178" fill="rgb(0, 0, 0)" stroke="rgb(60, 60, 60)" stroke-width="1px" opacity="0.25"></line><line x1="106.86383928571429" y1="0" x2="106.86383928571429" y2="178" fill="rgb(0, 0, 0)" stroke="rgb(60, 60, 60)" stroke-width="1px" opacity="0.25"></line><line x1="128.23660714285714" y1="0" x2="128.23660714285714" y2="178" fill="rgb(0, 0, 0)" stroke="rgb(60, 60, 60)" stroke-width="1px" opacity="0.25"></line><line x1="149.609375" y1="0" x2="149.609375" y2="178" fill="rgb(0, 0, 0)" stroke="rgb(60, 60, 60)" stroke-width="1px" opacity="0.25"></line><line x1="170.98214285714286" y1="0" x2="170.98214285714286" y2="178" fill="rgb(0, 0, 0)" stroke="rgb(60, 60, 60)" stroke-width="1px" opacity="0.25"></line><line x1="192.35491071428572" y1="0" x2="192.35491071428572" y2="178" fill="rgb(0, 0, 0)" stroke="rgb(60, 60, 60)" stroke-width="1px" opacity="0.25"></line><line x1="213.72767857142858" y1="0" x2="213.72767857142858" y2="178" fill="rgb(0, 0, 0)" stroke="rgb(60, 60, 60)" stroke-width="1px" opacity="0.25"></line><line x1="235.10044642857142" y1="0" x2="235.10044642857142" y2="178" fill="rgb(0, 0, 0)" stroke="rgb(60, 60, 60)" stroke-width="1px" opacity="0.25"></line><line x1="256.4732142857143" y1="0" x2="256.4732142857143" y2="178" fill="rgb(0, 0, 0)" stroke="rgb(60, 60, 60)" stroke-width="1px" opacity="0.25"></line><line x1="277.84598214285717" y1="0" x2="277.84598214285717" y2="178" fill="rgb(0, 0, 0)" stroke="rgb(60, 60, 60)" stroke-width="1px" opacity="0.25"></line><line x1="299.21875" y1="0" x2="299.21875" y2="178" fill="rgb(0, 0, 0)" stroke="rgb(60, 60, 60)" stroke-width="1px" opacity="0.25"></line></g><g><line x1="0" y1="178" x2="299.21875" y2="178" fill="rgb(0, 0, 0)" stroke="rgb(60, 60, 60)" stroke-width="1px" opacity="0.25"></line><line x1="0" y1="158.2222222222222" x2="299.21875" y2="158.2222222222222" fill="rgb(0, 0, 0)" stroke="rgb(60, 60, 60)" stroke-width="1px" opacity="0.25"></line><line x1="0" y1="138.44444444444446" x2="299.21875" y2="138.44444444444446" fill="rgb(0, 0, 0)" stroke="rgb(60, 60, 60)" stroke-width="1px" opacity="0.25"></line><line x1="0" y1="118.66666666666669" x2="299.21875" y2="118.66666666666669" fill="rgb(0, 0, 0)" stroke="rgb(60, 60, 60)" stroke-width="1px" opacity="0.25"></line><line x1="0" y1="98.8888888888889" x2="299.21875" y2="98.8888888888889" fill="rgb(0, 0, 0)" stroke="rgb(60, 60, 60)" stroke-width="1px" opacity="0.25"></line><line x1="0" y1="79.1111111111111" x2="299.21875" y2="79.1111111111111" fill="rgb(0, 0, 0)" stroke="rgb(60, 60, 60)" stroke-width="1px" opacity="0.25"></line><line x1="0" y1="59.33333333333334" x2="299.21875" y2="59.33333333333334" fill="rgb(0, 0, 0)" stroke="rgb(60, 60, 60)" stroke-width="1px" opacity="0.25"></line><line x1="0" y1="39.55555555555555" x2="299.21875" y2="39.55555555555555" fill="rgb(0, 0, 0)" stroke="rgb(60, 60, 60)" stroke-width="1px" opacity="0.25"></line><line x1="0" y1="19.777777777777786" x2="299.21875" y2="19.777777777777786" fill="rgb(0, 0, 0)" stroke="rgb(60, 60, 60)" stroke-width="1px" opacity="0.25"></line><line x1="0" y1="0" x2="299.21875" y2="0" fill="rgb(0, 0, 0)" stroke="rgb(60, 60, 60)" stroke-width="1px" opacity="0.25"></line></g></g></g><g><g><line x1="0" y1="158.2222222222222" x2="299.21875" y2="158.2222222222222" fill="rgb(0, 0, 0)" stroke="rgb(153, 153, 153)" stroke-width="1.5px"></line></g></g><g><g><line x1="21.372767857142858" y1="0" x2="21.372767857142858" y2="178" fill="rgb(0, 0, 0)" stroke="rgb(153, 153, 153)" stroke-width="1.5px"></line></g></g><g><g><g><g><g><path stroke="rgb(255, 112, 67)" stroke-width="2px" d="M21.90708705357143,149.1798551771376L22.013950892857142,149.78700226810244L22.44140625,150.3202232840921L22.548270089285715,149.88947496686885L22.868861607142858,150.18751236341797L22.975725446428573,150.52454409275992L23.296316964285715,150.46402476741915L23.403180803571427,150.32339076447505L23.510044642857142,150.73785619452676L23.9375,150.6778210764415L24.899274553571427,150.43253375859086L25.21986607142857,149.96423001803376L25.647321428571427,150.23385205980898L25.861049107142854,150.5659234047888L26.07477678571429,150.38974219272947L26.181640625,149.76744676307558L26.39536830357143,150.13673115019142L26.609095982142858,150.5350991127779L27.036551339285715,150.4279380254565L27.14341517857143,150.45526100154174L27.250279017857142,150.81980164549682L27.357142857142858,150.89539412740763L27.464006696428573,150.8800463460154L28.105189732142858,149.87657841846394L28.318917410714285,149.75419262479681L28.42578125,150.55262464059595L28.532645089285715,150.36513952031123L28.639508928571427,148.86447698449976L28.96010044642857,149.29481217238657L29.066964285714285,141.1239991530163L29.173828125,143.6119063703803L29.28069196428571,145.49202506350812L29.815011160714285,145.57309025559894L30.349330357142854,68.9302567832981L30.669921874999996,95.76253253213986L30.776785714285715,112.2845263730484L31.41796875,117.162342746106L32.272879464285715,120.5550458376702L32.593470982142854,121.23767526345456L32.70033482142858,120.29659178672468L33.44838169642857,116.40104928006491L33.768973214285715,108.2718189358717L33.982700892857146,106.8068482275551L34.730747767857146,104.3966799403473L34.837611607142854,105.2483332816797L35.158203125,108.47929332790618L35.265066964285715,109.30715743123652L36.013113839285715,110.51552552091637L36.22684151785714,111.09097119634666L36.44056919642857,111.16971874143599L36.547433035714285,95.41287779426433L36.654296875,102.17076880439946L37.40234375,106.5609977274173L37.93666294642857,108.88593226818026L38.150390625,110.69118168892577L38.257254464285715,109.95598352914294L38.36411830357143,111.03385989287663L38.68470982142857,112.06730198580209L39.005301339285715,112.86742722555249L39.21902901785714,113.45157743247238L39.325892857142854,109.90375305941822L39.646484375,107.28305241345036L40.287667410714285,108.32885780169435L40.39453125,105.10589113772232L40.60825892857142,107.57121661826164L40.92885044642857,109.51090252751625L41.142578125,110.11203152708919L41.24944196428571,110.86078172482013L41.46316964285714,111.64836142991163L41.67689732142857,111.88584896379548L41.78376116071429,111.50448206165404L42.53180803571429,111.70553645921464L43.38671875,111.73180698295064L43.493582589285715,112.08787708392187L43.60044642857143,111.99046638978454L44.027901785714285,111.34065880454672L45.09654017857143,112.26948993808287L45.203404017857146,111.93749932173642L45.41713169642857,112.26700802267511L45.630859375,112.3943566114295L45.84458705357143,112.66632844100593L46.16517857142857,113.1022179901678L46.272042410714285,113.543345445929L46.37890625,111.23977776519737L46.699497767857146,111.969099626919L47.768136160714285,112.30041314190119L47.981863839285715,113.22774329054977L48.623046875,113.63166906596398L48.94363839285714,114.35187985754713L49.050502232142854,114.60468119482886L49.15736607142857,114.3760631792454L49.264229910714285,111.10938104109216L49.477957589285715,111.38875181055481L49.90541294642857,112.57950217140235L50.119140625,113.58710627788481L50.33286830357142,113.80861311840191L50.546595982142854,114.12880495600209L51.08091517857142,112.45706156857196L51.72209821428571,113.27439436098365L52.470145089285715,113.3950592002762L52.57700892857143,107.85024298544349L53.111328125,110.48855055268645L53.218191964285715,111.77272726222168L53.53878348214286,113.14793787778655L53.64564732142858,113.70560130902872L53.752511160714285,114.15748657548342L54.179966517857146,113.76388057647495L54.28683035714286,114.28751337396113L54.500558035714285,114.60054023398497L54.82114955357143,114.84459548235061L55.248604910714285,114.23042646869098L55.35546875,110.44443847127535L55.462332589285715,109.09948990907272L55.56919642857143,111.6562624811424L55.782924107142854,112.67965611268176L56.103515625,113.2821791961735L56.210379464285715,113.45712657898339L56.31724330357143,113.52653568927913L56.63783482142857,114.0102161184286L56.958426339285715,114.3183081514174L57.599609375,114.51606015058893L57.81333705357143,114.81870811861943L58.13392857142857,114.87691816272981L58.240792410714285,113.17339544855476L58.454520089285715,113.96402095918278L58.56138392857142,114.5276310542423L59.095703125,115.02479401543926L59.202566964285715,114.1319028781763L59.63002232142857,114.68257436104749L59.84375,114.69853696010725L60.16434151785714,114.29642705006064L60.59179687500001,114.80180873112147L61.01925223214286,115.10709440411884L61.23297991071429,115.30392761211648L61.660435267857146,114.65810423097973L61.76729910714286,114.44140387973368L61.87416294642858,115.30796656490075L62.087890625,115.47236379446346L62.62220982142858,115.50045990265463L62.729073660714285,115.4660986276822L63.156529017857146,115.63011992422216L63.26339285714286,115.70461624571168L63.37025669642858,115.98581685978594L64.43889508928571,115.93833095313829L64.97321428571428,115.82073740584022L65.72126116071429,116.2398152699744L65.828125,104.89868394822597L66.36244419642857,109.65425750163956L66.46930803571429,112.44576288178887L66.68303571428572,114.01016604545245L66.89676339285714,115.18987224418768L67.32421875,115.28294042618384L68.28599330357143,116.14380775004082L68.49972098214286,116.52610778370504L68.60658482142857,116.85697204326989L68.92717633928571,116.5269022065392L69.568359375,116.7912657508712L70.42327008928571,116.81213866873019L70.53013392857143,117.02935559910594L70.63699776785714,116.924314629673L70.85072544642857,115.57256424167097L70.95758928571429,116.3556703165141L71.27818080357143,116.94648031151762L71.38504464285714,116.8509612053025L71.91936383928571,117.39967313160163L72.02622767857143,116.59460537906948L73.20172991071428,116.76885986982991L73.52232142857143,117.11213350477014L73.62918526785714,117.12728208650465L73.84291294642857,117.20990868061374L74.056640625,117.48258217125885L74.37723214285715,117.3229217833597L75.552734375,117.51791042882115L75.98018973214286,117.54125974945306L76.08705357142857,117.68308582607158L76.30078125,117.73849941434413L76.62137276785714,117.43790854075057L76.83510044642857,117.5253066682329L77.36941964285714,117.71828075522576L77.47628348214286,117.76549966922703L78.11746651785714,117.84559015255618L78.33119419642857,117.54806145508623L78.43805803571428,117.66386905214245L78.544921875,117.86586285042065L78.65178571428571,117.91756258465563L78.75864955357143,117.93939005594746L78.86551339285714,117.74577743566807L79.07924107142857,117.62500915210181L79.29296875,117.56546910413543L79.82728794642857,117.78717969992158L79.93415178571428,117.8527525966999L80.041015625,117.14438189791795L80.25474330357143,117.13651378230546L80.68219866071428,116.883288104724L80.89592633928571,117.15322239150734L81.10965401785714,117.2882652559222L81.537109375,117.08350214603921L81.64397321428571,117.19085035853283L81.75083705357142,117.2025917784335L82.17829241071428,116.9668385753609L82.60574776785714,117.31748773790859L82.71261160714285,117.31885796867289L83.03320312500001,117.00518398625472L83.24693080357142,117.32692673357684L83.35379464285714,117.2567404687214L83.46065848214285,117.54607458179709L83.56752232142858,117.71404374267632L83.67438616071428,117.28888651850077L83.78125000000001,116.94928938315992L83.99497767857142,117.23567661994043L84.10184151785715,117.57040040081083L84.63616071428572,117.66897635159762L84.74302455357142,117.93144801595533L85.06361607142858,117.30355230837961L85.17047991071429,117.79909558112692L85.49107142857143,117.96319707442485L85.70479910714286,114.11196458729272L86.13225446428572,116.00055196201106L86.34598214285715,117.17952741201567L86.55970982142858,117.3229264251011L86.7734375,117.71099220013987L87.09402901785715,118.17872597261754L87.521484375,117.89365075148504L87.62834821428572,118.16942387306443L87.84207589285715,118.22654091712748L88.16266741071429,118.31360087406122L88.59012276785715,118.14998667935751L89.12444196428572,118.18773153669437L89.87248883928572,117.8371564899691L89.97935267857143,118.35226020596605L90.19308035714286,118.81779943548285L90.29994419642857,118.9419511931365L90.40680803571429,113.13967095663168L90.513671875,115.10983951042107L90.72739955357143,116.62024191561679L91.04799107142857,117.74099963816673L91.47544642857143,118.29848024554653L91.58231026785714,118.28713815885678L92.009765625,118.16197285367451L92.33035714285714,118.41060139273316L92.7578125,118.45568383707761L93.07840401785714,118.92429597322638L93.18526785714286,118.77632959809597L93.29213169642857,119.21243526428293L93.39899553571429,118.78703545530914L93.505859375,118.8735851207061L93.71958705357143,119.09146947587962L93.82645089285714,118.4067545492973L93.93331473214286,118.37615650968905L94.14704241071429,119.00542062090132L94.25390625,119.21616444461654L94.36077008928571,119.23143316723107L94.46763392857143,118.84124691748274L94.68136160714286,119.03268512829997L94.89508928571428,119.29277602109893L95.001953125,118.1650147913974L95.75,118.63298758713229L96.07059151785714,118.48682554856302L96.17745535714286,119.07390586923114L96.28431919642857,119.48662270990673L96.498046875,119.63510288145076L96.81863839285714,119.54541358637371L97.03236607142857,119.27057573768035L97.24609375,119.42209604617808L97.67354910714285,119.57950352478801L98.10100446428571,119.39399117737283L98.42159598214285,119.73859933017586L98.52845982142857,119.47451935966151L98.63532366071428,119.63186064669425L98.7421875,119.21805052769213L98.84905133928571,111.00285029206557L99.38337053571428,114.7091734015577L100.02455357142857,116.51208290174733L100.23828125,118.11431859548634L100.34514508928571,119.02152432040485L100.45200892857142,118.94679329165156L100.77260044642857,119.54792382790978L101.09319196428571,119.8044561671343L101.20005580357142,119.2707827294147L101.52064732142857,119.81472475103857L101.62751116071428,119.78023665862011L101.73437500000001,119.86932109266556L101.94810267857142,119.85117176733435L102.16183035714285,117.15537399613737L102.80301339285715,116.80688742258478L103.12360491071429,116.32893074931366L103.23046874999999,116.44493552342718L103.55106026785715,115.76328099585969L103.65792410714286,114.78459074242683L103.76478794642858,113.82134350253074L103.97851562499999,112.74527648251346L104.08537946428572,110.62440133601415L104.7265625,109.01212827244726L105.15401785714286,107.59900846303431L105.26088169642858,106.72034847788571L105.474609375,104.80295602141024L105.68833705357143,104.19256771413735L105.90206473214286,103.32341163746138L106.00892857142857,103.48963456453521L106.11579241071429,103.37454271178429L106.22265625,103.43373412791149L106.32952008928572,103.44504733438579L106.65011160714286,103.26538045141271L106.86383928571429,97.42526895417011L107.07756696428572,99.20562383249013L107.39815848214286,100.69917094391683L107.61188616071429,101.65722849815349L107.71875,102.27979484560974L107.82561383928572,102.56852705045941L108.25306919642857,99.31641526863284L108.466796875,101.04471388353755L108.57366071428572,101.54092914663731L108.78738839285714,-89.78901401809401L109.10797991071429,-12.409395078065595L109.53543526785714,33.91119585585704L109.85602678571429,61.67662063715788L110.17661830357143,76.3159504435469L110.28348214285714,87.05001004138312L110.49720982142857,93.60873795164196L110.7109375,96.8189680687011L110.92466517857143,98.61191788277881L111.458984375,100.39948527353123L111.77957589285714,101.71747947046096L111.88643973214286,102.54224339245452L111.99330357142857,102.9925266012008L112.31389508928571,102.76065766400824L113.16880580357143,102.41051770970594L113.27566964285714,101.20887254259874L113.38253348214286,89.6574879000167L113.59626116071428,95.3018469168492L114.02371651785714,98.01144402996522L114.23744419642857,94.93109703592619L114.34430803571428,-8.07278519207277L114.77176339285714,29.54356083869515L114.98549107142857,-152.380521482894L115.41294642857143,-9.050805781259392L115.62667410714286,19.663534780756105L115.84040178571428,30.188762280129023L116.16099330357143,35.892425153721945L116.37472098214285,41.10605147352657L116.48158482142857,43.45037408208687L116.6953125,23.976941503831124L116.80217633928571,31.29149930713807L117.12276785714285,34.27767037692607L117.443359375,35.64918275865348L117.55022321428571,36.38979041691082L118.29827008928571,35.96144427103409L118.40513392857143,35.49753886486656L118.51199776785714,34.64917517438869L118.61886160714285,34.86266933667533L118.83258928571428,34.642765549216556L118.939453125,34.479923516812924L119.15318080357142,34.12027500581258L119.26004464285714,33.65327709794284L119.36690848214285,33.38631464065589L119.6875,32.546731750430865L119.79436383928571,32.24103441836834L119.90122767857142,32.726839211133864L120.00809151785714,33.172205245159056L120.22181919642857,32.82743518729726L120.86300223214285,32.07557671296429L120.96986607142858,32.38255746712318L121.29045758928571,33.00455740236592L122.03850446428572,33.192702838771986L122.35909598214286,33.162848842206344L123.10714285714286,33.274851842758686L123.21400669642858,33.55024903697033L123.32087053571429,33.907072504321974L123.53459821428572,32.975482312814556L123.64146205357143,32.96257786696392L123.74832589285715,32.71950028598781L124.06891741071429,-53.78511542085522L125.13755580357143,-7.934359663667364L125.24441964285715,8.6773967614784L125.671875,18.13518853160492L125.77873883928572,24.241192735933463L125.88560267857143,25.71310024442467L125.99246651785715,29.05646196685879L126.31305803571429,30.88380119134574L126.419921875,31.201481886682455L126.52678571428572,30.126603446788092L126.84737723214286,30.71833674255205L126.95424107142857,-212.96093426089237L128.45033482142856,-20.25486890620128L128.6640625,1.0990951222080532L128.77092633928572,13.648250679553138L129.09151785714286,21.39814660863249L129.19838169642856,26.289294832312727L129.412109375,29.059812759576438L129.51897321428572,30.88198201609743L129.62583705357142,31.663672513152374L129.73270089285714,32.16835477335366L130.0532924107143,31.976565774710984L130.908203125,32.37764421064906L131.12193080357144,29.929185267708874L131.33565848214286,31.28988993802332L131.5493861607143,32.11437341593897L131.65625,30.733385605552975L131.7631138392857,14.787021245059206L131.97684151785714,21.015519631801144L132.19056919642858,20.81386045800866L132.29743303571428,24.437026195052574L132.404296875,23.156182188385714L132.72488839285714,27.29941277711563L132.93861607142858,30.01474088051633L133.68666294642858,31.8885072751631L133.79352678571428,32.38251944485049L134.11411830357144,33.05859332516764L134.32784598214286,33.74628283971865L134.96902901785714,32.85912692225567L135.07589285714286,21.453057262294372L135.28962053571428,26.536248996319745L135.50334821428572,29.997240391715465L135.93080357142858,31.754993404951136L136.35825892857144,32.93486785557919L136.57198660714286,33.65848836064567L136.78571428571428,34.21499220665432L137.10630580357144,34.627597008562915L137.21316964285714,34.55330926986215L137.32003348214286,34.703891893297495L137.42689732142858,34.32702707798152L138.06808035714286,32.78811654247034L138.17494419642858,33.3377462953824L138.81612723214286,32.88785370306496L139.02985491071428,34.20851188411111L139.24358258928572,31.183016472914588L139.35044642857142,30.08175446382688L139.45731026785714,31.325851723435015L140.41908482142858,30.47676706975979L140.6328125,32.276704400113275L140.95340401785714,19.629583498900423L141.380859375,25.938133196670982L141.59458705357142,29.542913317796415L141.70145089285714,26.633238292869688L142.12890625,29.959230966715733L142.23577008928572,31.789535941954334L142.44949776785714,33.42168210933493L142.55636160714286,32.04133751267126L142.66322544642858,33.334902198357966L142.98381696428572,33.696687270349415L143.09068080357142,34.45607490289977L144.15931919642856,34.70205446729327L144.373046875,34.55534455103566L144.47991071428572,34.803673005306734L144.80050223214286,34.58300767010028L144.90736607142856,33.40620020481622L145.01422991071428,33.96518310167662L145.33482142857142,34.31362202056546L145.44168526785714,34.353565091950834L145.54854910714286,33.843241824810235L147.15150669642856,33.993666584686466L147.47209821428572,33.25389817943602L147.68582589285714,32.267355387153806L147.79268973214286,33.00449360202968L148.00641741071428,32.26602183124818L148.11328125,32.40710689350802L148.43387276785714,32.78425694751972L148.7544642857143,33.59280782383956L148.861328125,33.903026816699565L148.9681919642857,32.53665577100932L149.07505580357142,27.67773144546148L149.28878348214286,30.308082518264282L149.5025111607143,31.63435705897288L149.7162388392857,32.7892579324866L149.92996651785717,33.31044962982617L150.03683035714286,33.19807038282192L150.25055803571428,33.50223364815019L150.46428571428572,33.702548990159634L150.67801339285714,33.42106847694082L150.78487723214283,33.321186313215286L150.89174107142858,33.81552730577856L150.9986049107143,34.29747010389899L151.10546875,33.99424100059893L152.17410714285714,34.567683312924466L152.6015625,34.75000102643739L153.02901785714286,34.754865422991344L153.13588169642858,34.10430800705L153.24274553571428,34.30587944805598L153.45647321428572,34.01141836165044L153.77706473214286,34.51755729547332L154.09765625,34.615411255810464L154.31138392857142,34.61845638212127L154.52511160714286,33.99376585265602L154.63197544642858,33.97728795397642L154.845703125,34.541713043381954L155.27315848214286,34.61513836747882L155.38002232142856,34.51062483635102L155.4868861607143,34.538645341806266L155.70061383928572,34.95947525033116L155.80747767857142,34.34248853561536L156.12806919642858,34.304000404897856L156.23493303571428,34.77408145631763L156.341796875,34.77990935013607L156.44866071428572,34.53063403917234L156.66238839285714,34.86285643668699L157.19670758928572,35.25736626679736L157.51729910714286,35.62737962607234L158.05161830357144,35.84760711049585L158.26534598214286,35.4642466393444L158.69280133928572,35.256185210982935L158.90652901785714,35.31936338895955L159.333984375,35.21923990023774L159.4408482142857,35.605584196219034L159.54771205357144,35.45368329496666L159.65457589285714,33.799170019297705L159.86830357142856,34.770396956511355L160.18889508928572,34.137262723603L160.29575892857142,34.84201838041833L160.50948660714286,35.11050274238945L160.61635044642858,33.79501699102829L160.72321428571428,34.75078186209747L161.36439732142856,35.231037524105275L161.578125,35.71240872865585L161.68498883928572,36.0670175502903L161.89871651785714,35.93016800901532L162.00558035714286,36.195319195979955L162.326171875,35.7712195666331L162.4330357142857,36.137274891835325L162.96735491071428,36.407903705988794L163.07421875,36.89549953424864L163.18108258928572,36.88020923253922L163.50167410714283,36.82104437632908L163.71540178571428,36.85666108353399L163.822265625,36.87600311306526L163.9291294642857,37.03146317561912L164.03599330357144,37.032568057009904L164.14285714285714,36.812897801708125L164.24972098214286,36.91450215623103L164.89090401785714,36.59125632710452L165.4252232142857,37.05745131281002L165.53208705357144,37.097185902703366L165.63895089285714,37.29022841852088L166.17327008928572,36.67935881218023L166.60072544642858,37.186776053909725L166.814453125,37.410773551996435L166.9213169642857,37.333847147148376L167.34877232142856,35.98082973197392L167.77622767857142,36.82774096933843L168.52427455357142,37.05849604915948L168.73800223214286,37.46086606211286L169.05859374999997,37.69878132889099L169.27232142857144,37.22069851196132L169.37918526785714,37.27765429597887L169.6997767857143,36.64798841770234L169.806640625,37.24460417393955L170.02036830357142,37.21467133818536L170.12723214285717,37.31348731897024L170.44782366071428,37.533435137692905L172.26450892857144,37.05902735051938L172.37137276785714,29.098959568948786L172.47823660714286,31.956541777339332L172.58510044642856,33.75184271641445L173.01255580357142,32.69551541988774L173.33314732142858,32.72813261619045L173.44001116071428,24.788378660968625L173.76060267857144,27.354894533278216L173.86746651785714,27.075203836937412L173.97433035714286,29.35140682093416L174.40178571428572,29.69958826031224L174.50864955357142,30.287804578366174L174.61551339285714,30.526780376142966L174.82924107142858,31.005629993263923L175.04296875,31.0130704465877L175.25669642857144,29.65570000178508L175.47042410714286,29.34553622557192L176.11160714285714,29.81477602679282L176.32533482142858,29.701410171739752L176.85965401785714,29.50393095547442L176.96651785714286,28.189167926583234L177.92829241071428,27.141903737178243L178.03515625,26.636516550575188L179.21065848214286,26.81832506435117L179.6381138392857,27.393432511483958L179.74497767857144,27.842461891330494L180.06556919642856,28.03511750209431L180.17243303571428,28.262401474563866L180.49302455357142,27.95366321546749L180.70675223214286,28.248698919406344L180.81361607142858,27.36228453719068L180.92047991071428,25.645392844167706L181.66852678571428,27.117694758692462L181.775390625,28.03922755942554L181.88225446428572,28.481543059635356L181.98911830357142,28.90684819906245L182.30970982142858,28.931823695370625L182.5234375,29.2035374409637L182.6303013392857,28.738744372130284L182.73716517857144,28.040828071303352L182.84402901785714,28.514794355260307L183.37834821428572,28.95998324835585L183.59207589285714,29.05652170085815L184.1263950892857,29.0561761362918L184.23325892857144,28.910671420707388L184.55385044642856,29.37704134797564L185.30189732142858,28.117349686715073L185.515625,28.808370152740846L186.58426339285714,28.91827017920962L186.79799107142858,29.594027021805275L186.9048549107143,29.337473613256783L187.1185825892857,29.351991885510515L187.22544642857142,29.75807514975249L187.43917410714286,-7.2319574817630965L187.54603794642858,7.0509858299525305L188.18722098214283,16.378847655740632L188.29408482142858,22.08934370900428L188.93526785714286,25.577440860819237L189.04213169642858,27.544159083006303L190.00390625,28.872100850736935L190.43136160714286,29.684938977239018L190.64508928571428,29.74448145274968L191.07254464285714,30.268332005872875L191.71372767857142,30.282408573098373L192.03431919642858,30.69271737421926L192.248046875,30.746605291610546L192.56863839285714,30.93584810335172L192.78236607142856,30.623406241568333L192.8892299107143,31.082162268432782L193.31668526785714,30.921991520673373L193.42354910714286,31.13141614450039L193.63727678571428,31.34125684544591L193.744140625,31.417294322653834L193.95786830357144,31.63727003977286L194.27845982142856,31.012294342657135L194.3853236607143,31.03689632673143L194.4921875,30.890661287792323L194.91964285714286,30.933858713864645L195.13337053571428,30.871372289408203L195.240234375,30.64228321251212L195.3470982142857,30.8258021920472L195.56082589285714,30.527683056764758L195.77455357142856,30.768111570169985L195.98828125,20.59028561614714L196.30887276785714,24.751092281689157L196.62946428571428,27.568228814651516L196.736328125,29.40264020355871L196.8431919642857,30.275647639387827L197.16378348214286,30.674175136909607L197.3775111607143,31.361897965446538L197.484375,31.561842690943266L197.80496651785714,31.64778931004122L197.91183035714286,31.447659588628913L198.232421875,31.62206349948812L198.65987723214286,31.78946202411777L198.76674107142856,31.726529862040117L198.87360491071428,31.785344763198452L199.62165178571428,28.764490820592695L199.8353794642857,30.014178162060457L199.94224330357144,30.75745088730789L200.04910714285714,31.051305859533148L200.36969866071428,31.4042203714599L200.4765625,31.869697784128114L200.69029017857142,31.769504759886583L201.11774553571428,27.39145607045017L201.224609375,29.352738734229728L201.3314732142857,30.419872881922384L201.65206473214286,31.263749561944238L202.07952008928572,31.456629660669133L202.18638392857142,31.793997632827274L202.40011160714283,31.975559041122164L202.50697544642858,31.885266522763576L202.61383928571428,32.21072137606048L202.720703125,32.22124456608769L202.93443080357144,32.50239100641694L203.25502232142856,31.907270242956088L203.36188616071428,31.798180505148636L203.46875000000003,31.331968334556194L203.57561383928572,31.723818146729812L204.00306919642858,31.72232562382349L204.10993303571428,32.01898402446769L204.64425223214286,31.91641564254521L204.85797991071428,31.150828457250203L204.96484375000003,30.74455408118607L205.07170758928572,31.300042724319272L205.49916294642858,31.513982984580707L205.8197544642857,32.09155704063989L206.03348214285717,32.45002801507405L206.35407366071428,32.44019028452186L206.46093749999997,31.37383951250998L206.56780133928572,31.971374460815444L206.67466517857144,32.180466617135956L206.78152901785714,32.19955479124513L206.99525669642858,32.33719906805221L207.208984375,32.24470811948801L207.52957589285717,32.40370116021277L207.63643973214286,32.527090555611174L207.85016741071428,30.903499409864096L207.95703124999997,30.746922372697952L208.06389508928572,31.15436466629456L208.38448660714286,30.18028583265432L208.5982142857143,30.999446320556128L208.705078125,31.771656928075867L208.81194196428572,32.24049388557817L208.91880580357142,32.25651502709343L209.66685267857144,32.020809752746956L209.77371651785714,32.41324716349711L210.0943080357143,32.490897211672504L210.62862723214286,32.59078246084684L211.05608258928572,32.32629781852199L211.697265625,31.549466977788544L211.80412946428572,31.519604638713066L212.01785714285714,31.940636447236084L212.4453125,32.39735570460467L212.55217633928572,32.095038382072715L212.65904017857144,32.402590893555704L212.87276785714286,32.84137922960133L212.97963169642856,32.693811268500816L213.0864955357143,32.977884356315315L213.51395089285714,32.703835207701935L213.94140625,32.737539602540004L214.15513392857144,32.689456236296124L214.26199776785714,33.0490818974309L215.11690848214286,32.38918906087607L215.22377232142858,32.154650962296046L215.5443638392857,32.827443728148026L215.86495535714286,33.19497158763752L216.29241071428572,32.29264009776483L216.50613839285714,32.804358981347676L216.93359375,32.3118744898286L217.46791294642856,33.144558504661035L217.57477678571428,32.93705964028577L218.00223214285714,32.51198855788022L218.10909598214286,33.202163498768925L218.4296875,33.44305296172879L218.5365513392857,33.887509565665766L218.64341517857144,33.79106381774148L218.96400669642856,33.41659077138491L219.28459821428572,32.92749203336046L219.39146205357142,31.75483669137045L219.60518973214283,30.984657657183373L219.81891741071428,32.26865978799492L219.92578125,32.84950692829825L220.0326450892857,32.86173927253886L220.78069196428572,33.392093103725145L220.99441964285714,33.730322797456445L221.10128348214283,33.820492635450854L221.74246651785714,29.150039654078654L221.84933035714286,31.146401898458482L221.95619419642856,31.931718465192702L222.06305803571428,32.72957853055877L222.16992187500003,33.16273409750193L222.38364955357142,33.61516321105106L222.70424107142858,33.08935013745964L223.45228794642856,33.67739432998012L223.55915178571428,33.40110487191383L223.66601562500003,33.920880954289785L224.62779017857142,33.910666627315635L224.94838169642858,33.71696058429952L225.05524553571428,33.893999491041974L225.48270089285714,34.05761629483136L225.58956473214283,34.2041745742621L225.69642857142858,34.31260677499345L225.8032924107143,34.09845768750042L226.12388392857142,34.16491828790172L226.23074776785717,34.33949333792116L226.33761160714286,33.964035154770926L226.44447544642858,34.151179542840836L226.87193080357144,34.274312326398956L226.97879464285714,33.94406273085454L227.08565848214286,34.19269350466941L227.40625,34.15925284867841L227.61997767857142,34.2176374500382L227.83370535714286,34.12533307359281L228.04743303571428,34.39302933227418L228.154296875,34.194954562255106L228.26116071428572,33.064031656623925L228.47488839285714,33.71677199419137L228.58175223214286,34.122150429316456L229.11607142857142,34.44697712011156L229.43666294642858,34.534045375799565L229.650390625,34.12121461290379L229.97098214285714,34.37347421045058L230.2915736607143,34.156477307845876L230.3984375,34.181432839243115L230.61216517857142,33.84692712704847L230.82589285714286,34.21377554570609L231.46707589285714,34.31699423638629L231.57393973214286,34.36989604541252L231.7876674107143,34.388144326195L232.00139508928572,34.447400009888014L232.96316964285714,34.62696821095666L233.07003348214286,34.33913546894596L233.17689732142856,34.59313860287365L233.2837611607143,34.68196043223199L234.56612723214286,33.90457841320207L234.7798549107143,34.056648381200304L234.99358258928572,34.32977312702748L235.20731026785714,34.34755690328896L235.634765625,34.487822675502024L235.7416294642857,34.37931056222396L235.84849330357144,34.0162902557914L235.95535714285714,34.08602479773484L236.06222098214286,33.694731706711636L236.16908482142856,33.913040670619864L236.27594866071428,34.21184261797522L236.48967633928572,34.2602064618984L236.59654017857142,34.62481565638168L236.70340401785714,34.44289225569966L236.91713169642858,34.15126093393195L237.45145089285714,34.40400495310005L237.77204241071428,34.26739544419077L237.98577008928572,33.604747230164634L238.09263392857142,33.811150679136105L238.30636160714283,34.01215613963226L238.626953125,34.03065048173943L238.94754464285714,33.463668982348786L239.16127232142856,34.10426001028599L239.48186383928572,34.46158073219157L239.80245535714283,34.44276885354021L239.90931919642858,34.19633391954599L240.2299107142857,34.47096282053186L240.44363839285714,34.485007637523104L240.55050223214286,34.19318567382246L241.40541294642858,34.19588909255301L241.51227678571428,34.36080697441201L241.7260044642857,34.73808791728611L242.26032366071428,34.6207324907688L242.79464285714283,34.895561205344514L242.90150669642858,34.92278716265984L243.0083705357143,34.66271187550389L243.2220982142857,34.456742420712494L243.32896205357142,34.45823249805468L243.54268973214286,34.4975890349656L243.75641741071428,34.574534391574L244.07700892857144,34.559955315120185L244.18387276785714,33.24204971359466L244.611328125,33.964102949630345L245.14564732142858,34.37551282229555L245.35937499999997,32.032748218008415L246.0005580357143,32.98394533108718L246.107421875,33.72366014705727L246.21428571428572,33.83030774188019L246.32114955357142,34.16473181852222L246.42801339285717,34.40564437540153L246.74860491071428,34.44134713549482L246.96233258928572,34.34584825254255L247.28292410714286,34.58976650632153L247.38978794642856,34.97649821623868L247.71037946428572,33.571399214573916L247.92410714285717,33.52215189989237L248.13783482142858,34.21980260776312L248.24469866071428,34.825719997817586L248.3515625,34.58749013806774L248.77901785714286,34.70420194823776L249.20647321428572,34.774500640785114L249.31333705357142,35.02828542000709L249.42020089285714,35.149861741370565L249.84765625,35.05450810927548L249.95452008928572,34.983815196782736L250.16824776785714,34.84715201276366L250.27511160714286,34.90712279131708L250.4888392857143,33.45059766296297L250.595703125,33.95255332027127L250.70256696428572,34.42192956838889L250.91629464285714,34.479386446545476L251.02315848214286,34.477661469978074L251.13002232142858,34.48135545403545L251.23688616071428,34.35355082124939L251.55747767857144,34.53049414021058L251.77120535714286,34.87999536379213L251.87806919642856,35.01414423840331L252.51925223214286,34.984620881420874L252.62611607142858,34.90712628861814L252.73297991071428,34.75232193609406L253.16043526785714,34.75576605933437L253.37416294642856,35.05873022479333L253.587890625,34.59232899587861L254.01534598214286,34.503955713228116L254.76339285714286,34.64981103644382L255.083984375,34.94223922196393L255.29771205357142,34.67566871492749L255.51143973214286,35.07509083127852L255.61830357142858,33.53383874627146L255.83203125,33.832985369887446L256.04575892857144,34.48271161852534L256.25948660714283,34.52788482430529L256.36635044642856,34.70733582079847L256.4732142857143,34.827195512390105L256.79380580357144,34.926884595302994L256.9006696428571,34.921355570007314L257.2212611607143,34.99658975666368L257.328125,34.95060932410455L257.64871651785717,35.158277513950566L257.9693080357143,34.74754815984602L258.3967633928571,35.04858765919973L259.03794642857144,34.93574663035055L259.14481026785717,35.047250963507636L259.4654017857143,34.836110045335495L259.572265625,35.095743412997756L259.78599330357144,35.109268048937956L259.99972098214283,34.44508444996822L260.1065848214286,34.668679800026524L260.3203125,34.90412508921728L260.4271763392857,35.185254492820725L260.64090401785717,35.1334903082684L260.74776785714283,35.37825719630003L260.85463169642856,35.37010549508036L260.9614955357143,34.828794762705776L261.1752232142857,34.99550131101971L261.3889508928571,35.38996473382322L261.49581473214283,34.18778651851659L261.9232700892857,34.63026793975578L262.0301339285714,34.98572190073499L262.2438616071429,35.333004897439665L262.564453125,35.48693269242431L262.77818080357144,34.949765986168565L263.0987723214286,34.79991191239341L263.7399553571429,34.923014367488115L264.38113839285717,35.18525905316431L264.80859375,35.119128081366895L265.12918526785717,34.39692362616386L265.6635044642857,34.998958686874566L265.87723214285717,35.07725030706834L266.1978236607143,35.21275690895889L266.83900669642856,35.1725894142013L266.9458705357143,33.853647439210896L267.1595982142857,34.11216187932516L267.48018973214283,34.71974273848918L267.80078125,34.94215054760739L267.9076450892857,35.03412394672851L268.01450892857144,32.09558931758136L268.97628348214283,33.564814595865656L269.08314732142856,33.061066356260724L269.1900111607143,34.06457445188579L269.296875,34.421801956016445L269.51060267857144,34.88773958018538L269.7243303571429,35.13486027371887L270.044921875,35.06388894933332L270.1517857142857,35.3093055579138L270.57924107142856,35.27335697569881L270.79296875,35.34892334476173L270.8998325892857,35.094319115092695L271.00669642857144,35.43166135430952L271.1135602678571,35.55186048039171L271.96847098214283,35.32744607474762L272.9302455357143,35.55806886826436L273.1439732142857,35.64303264582838L273.46456473214283,35.648661689547836L273.99888392857144,35.56264739892835L274.31947544642856,35.61811513884703L274.4263392857143,34.04372101880083L274.74693080357144,34.386975917758356L274.85379464285717,34.29397466062681L275.1743861607143,34.15624834889342L275.49497767857144,34.66863287299709L275.70870535714283,34.448326228518305L275.9224330357143,34.78376705872559L276.24302455357144,35.240350668991866L276.56361607142856,35.24319837068764L276.6704799107143,35.46520697949808L276.77734375,35.36752855917239L276.99107142857144,35.412593687152714L277.84598214285717,35.26703290364363L278.05970982142856,35.495782961044696L278.2734375,35.28931503894233L278.48716517857144,34.57360987704379L279.021484375,34.53805535764988L279.55580357142856,34.79616644619801L279.98325892857144,35.122664229969224L280.4107142857143,34.907453348908184L280.517578125,35.060836755438686L280.6244419642857,35.434830503784035L281.05189732142856,35.426481154104174L281.1587611607143,35.073139296032366L281.265625,35.107387673756584L281.3724888392857,35.52135561857687L281.69308035714283,35.49721854964003L282.2273995535714,35.342855971092604L282.54799107142856,35.56782784046809L282.76171875,35.30237252622097L283.18917410714283,34.78399034922868L283.29603794642856,35.13765746094779L283.4029017857143,34.92098209728263L283.509765625,35.39336979629276L283.72349330357144,35.50241598856125L283.9372209821429,35.39471873783076L284.2578125,35.397639856793504L284.57840401785717,35.55845431609432L284.68526785714283,34.934654770103656L284.8989955357143,34.75215333569502L285.1127232142857,35.19261629476554L285.8607700892857,34.692632765140566L286.18136160714283,35.17136548672107L286.28822544642856,34.800825612562164L286.501953125,34.765970492320285L286.71568080357144,34.955205362612226L286.9294084821429,35.026728767697534L287.03627232142856,34.56626854995228L287.25,34.74993379164671L287.57059151785717,35.15432798467769L287.78431919642856,35.603611737638204L288.1049107142857,34.94781581238544L288.3186383928571,34.91309415729888L288.4255022321429,35.207324640809446" style="fill: none;" fill="none"></path></g><g><path stroke="rgb(0, 119, 187)" stroke-width="2px" d="M288.53236607142856,30.59453464084202Z" style="fill: none;" fill="none"></path></g></g></g></g><g opacity="0.2"><g><g><g><path stroke="rgb(255, 112, 67)" stroke-width="2px" d="M21.90708705357143,149.1798551771376L22.013950892857142,150.15129052268136L22.44140625,150.83211545944212L22.548270089285715,149.38291494581435L22.868861607142858,150.57662998835247L22.975725446428573,150.99078030586244L23.296316964285715,150.37748116387263L23.403180803571427,150.11834503809612L23.510044642857142,151.3491121980879L23.9375,150.58867592281766L24.899274553571427,150.0668275197347L25.21986607142857,149.2643228954739L25.647321428571427,150.63740475972494L25.861049107142854,151.0633798599243L26.07477678571429,150.12567746904162L26.181640625,148.8344425095452L26.39536830357143,150.6905014620887L26.609095982142858,151.13254991107516L27.036551339285715,150.2672127193875L27.14341517857143,150.49624296824138L27.250279017857142,151.36659261915418L27.357142857142858,151.00878036287097L27.464006696428573,150.85702497694228L28.105189732142858,148.371388414171L28.318917410714285,149.57061480416192L28.42578125,151.75026925934685L28.532645089285715,150.0839123196072L28.639508928571427,146.61348548465304L28.96010044642857,149.94031455781726L29.066964285714285,128.8677841398451L29.173828125,147.3437663714091L29.28069196428571,148.3122027291192L29.815011160714285,145.69468803405763L30.349330357142854,-46.03398793538413L30.669921874999996,136.01094500223795L30.776785714285715,137.06751670837403L31.41796875,124.47906723022462L32.272879464285715,125.64410044352213L32.593470982142854,122.261619398329L32.70033482142858,118.88496657477485L33.44838169642857,110.55773552788628L33.768973214285715,96.07797342936198L33.982700892857146,104.6093921661377L34.730747767857146,100.78142751057943L34.837611607142854,106.52581329345703L35.158203125,113.32573339674208L35.265066964285715,110.54895358615452L36.013113839285715,112.32807765536838L36.22684151785714,111.95413970947266L36.44056919642857,111.28784005906846L36.547433035714285,71.77761637369791L36.654296875,112.30760531955296L37.40234375,113.14634111192491L37.93666294642857,112.37333407931857L38.150390625,113.39905582004123L38.257254464285715,108.85318628946942L38.36411830357143,112.65067443847656L38.68470982142857,113.6174651251899L39.005301339285715,114.06761508517796L39.21902901785714,114.3278027428521L39.325892857142854,104.58201649983725L39.646484375,103.3520014444987L40.287667410714285,109.89756588406031L40.39453125,100.27144114176434L40.60825892857142,111.26920483907064L40.92885044642857,112.42043139139811L41.142578125,111.01372502644857L41.24944196428571,111.98390702141656L41.46316964285714,112.82973098754883L41.67689732142857,112.24208026462132L41.78376116071429,110.93243170844184L42.53180803571429,112.00711805555557L43.38671875,111.77121276855469L43.493582589285715,112.6219822353787L43.60044642857143,111.84435034857856L44.027901785714285,110.36594742669L45.09654017857143,113.66273663838705L45.203404017857146,111.4395133972168L45.41713169642857,112.76127107408311L45.630859375,112.58537949456108L45.84458705357143,113.07428618537055L46.16517857142857,113.75605231391059L46.272042410714285,114.20503662957086L46.37890625,107.78442624409995L46.699497767857146,113.06308241950141L47.768136160714285,112.79738341437447L47.981863839285715,114.61873851352267L48.623046875,114.23755772908527L48.94363839285714,115.43219604492188L49.050502232142854,114.98388320075141L49.15736607142857,114.03313615587022L49.264229910714285,106.2093578338623L49.477957589285715,111.80780796474879L49.90541294642857,114.3656277126736L50.119140625,115.0985124376085L50.33286830357142,114.1408733791775L50.546595982142854,114.60909271240234L51.08091517857142,109.94944648742675L51.72209821428571,114.50039354960126L52.470145089285715,113.57605645921495L52.57700892857143,99.53301866319444L53.111328125,114.4460119035509L53.218191964285715,113.69899232652452L53.53878348214286,115.2107538011339L53.64564732142858,114.54209645589191L53.752511160714285,114.83531447516548L54.179966517857146,113.17347157796225L54.28683035714286,115.07296257019043L54.500558035714285,115.07008052402071L54.82114955357143,115.21067835489909L55.248604910714285,113.30917294820148L55.35546875,104.76545647515191L55.462332589285715,107.08206706576878L55.56919642857143,115.49142133924695L55.782924107142854,114.21474655999077L56.103515625,114.18596382141114L56.210379464285715,113.71954765319825L56.31724330357143,113.63064935472276L56.63783482142857,114.73573676215278L56.958426339285715,114.7804462009006L57.599609375,114.81268814934624L57.81333705357143,115.27268007066515L58.13392857142857,114.96423322889541L58.240792410714285,110.6181113772922L58.454520089285715,115.14995922512479L58.56138392857142,115.3730461968316L59.095703125,115.77053845723471L59.202566964285715,112.7925661722819L59.63002232142857,115.50858158535426L59.84375,114.72248085869683L60.16434151785714,113.69326218499077L60.59179687500001,115.55988125271266L61.01925223214286,115.5650229136149L61.23297991071429,115.59917742411295L61.660435267857146,113.68936915927465L61.76729910714286,114.11635335286456L61.87416294642858,116.60781059265136L62.087890625,115.71895963880752L62.62220982142858,115.5426040649414L62.729073660714285,115.41455671522353L63.156529017857146,115.87615186903213L63.26339285714286,115.81636072794596L63.37025669642858,116.40761778089735L64.43889508928571,115.86710209316676L64.97321428571428,115.64434708489311L65.72126116071429,116.86843206617567L65.828125,87.88698696560328L66.36244419642857,116.78761783175997L66.46930803571429,116.6330209520128L66.68303571428572,116.3567707909478L66.89676339285714,116.95943154229057L67.32421875,115.42254269917807L68.28599330357143,117.43510873582628L68.49972098214286,117.0995578342014L68.60658482142857,117.35326843261718L68.92717633928571,116.03179745144313L69.568359375,117.18781106736924L70.42327008928571,116.84344804551867L70.53013392857143,117.3551809946696L70.63699776785714,116.76675317552355L70.85072544642857,113.54493865966796L70.95758928571429,117.53032942877876L71.27818080357143,117.83269530402289L71.38504464285714,116.70768254597982L71.91936383928571,118.22274102105034L72.02622767857143,115.38700375027128L73.20172991071428,117.03024160597059L73.52232142857143,117.62704395718046L73.62918526785714,117.15000495910644L73.84291294642857,117.33384857177734L74.056640625,117.89159240722657L74.37723214285715,117.08343120151098L75.552734375,117.81039339701334L75.98018973214286,117.57628373040093L76.08705357142857,117.89582494099936L76.30078125,117.82161979675293L76.62137276785714,116.98702223036025L76.83510044642857,117.65640385945636L77.36941964285714,118.00774188571508L77.47628348214286,117.83632804022895L78.11746651785714,117.96572587754991L78.33119419642857,117.1017684088813L78.43805803571428,117.83758044772676L78.544921875,118.168853547838L78.65178571428571,117.99511218600801L78.75864955357143,117.9721312628852L78.86551339285714,117.45535850524902L79.07924107142857,117.44385672675239L79.29296875,117.47615903218588L79.82728794642857,118.1197455936008L79.93415178571428,117.9511119418674L80.041015625,116.081825849745L80.25474330357143,117.12471160888671L80.68219866071428,116.50344958835177L80.89592633928571,117.55812382168241L81.10965401785714,117.49082955254448L81.537109375,116.77635748121475L81.64397321428571,117.35187267727324L81.75083705357142,117.22020390828452L82.17829241071428,116.61320877075195L82.60574776785714,117.84346148173013L82.71261160714285,117.32091331481934L83.03320312500001,116.5346730126275L83.24693080357142,117.80954085456001L83.35379464285714,117.15146107143825L83.46065848214285,117.9800757514106L83.56752232142858,117.96599748399522L83.67438616071428,116.65115068223741L83.78125000000001,116.43989368014867L83.99497767857142,117.66525747511122L84.10184151785715,118.07248607211642L84.63616071428572,117.81684027777779L84.74302455357142,118.32515551249186L85.06361607142858,116.36170874701607L85.17047991071429,118.54241049024793L85.49107142857143,118.20934931437176L85.70479910714286,108.3351158565945L86.13225446428572,118.83343302408854L86.34598214285715,118.94799058702256L86.55970982142858,117.53802494472926L86.7734375,118.29309086269801L87.09402901785715,118.8803266313341L87.521484375,117.46603791978623L87.62834821428572,118.58308355543349L87.84207589285715,118.31221648322212L88.16266741071429,118.44419080946182L88.59012276785715,117.90456538730199L89.12444196428572,118.24434882269965L89.87248883928572,117.31129391988117L89.97935267857143,119.12491577996148L90.19308035714286,119.51610827975801L90.29994419642857,119.12817882961699L90.40680803571429,104.43625060187446L90.513671875,118.06509234110514L90.72739955357143,118.88584552341037L91.04799107142857,119.42213622199165L91.47544642857143,119.13470115661622L91.58231026785714,118.27012502882215L92.009765625,117.97422489590116L92.33035714285714,118.78354420132108L92.7578125,118.5233075035943L93.07840401785714,119.62721417744955L93.18526785714286,118.55438003540038L93.29213169642857,119.86659376356337L93.39899553571429,118.1489357418484L93.505859375,119.00340961880156L93.71958705357143,119.41829600863986L93.82645089285714,117.37968215942382L93.93331473214286,118.3302594502767L94.14704241071429,119.94931678771972L94.25390625,119.53228018018935L94.36077008928571,119.25433625115288L94.46763392857143,118.25596754286025L94.68136160714286,119.31984244452583L94.89508928571428,119.68291236029731L95.001953125,116.47337294684516L95.75,119.33494678073458L96.07059151785714,118.26758249070909L96.17745535714286,119.9545263502333L96.28431919642857,120.10569797092013L96.498046875,119.8578231387668L96.81863839285714,119.41087964375815L97.03236607142857,118.85831896464032L97.24609375,119.64937650892469L97.67354910714285,119.81561474270289L98.10100446428571,119.11572265625L98.42159598214285,120.25551155938042L98.52845982142857,119.07839940388997L98.63532366071428,119.86787257724338L98.7421875,118.59733534918891L98.84905133928571,98.68004993862574L99.38337053571428,120.2686580657959L100.02455357142857,119.21644715203179L100.23828125,120.51767213609483L100.34514508928571,120.38233290778267L100.45200892857142,118.8346967485216L100.77260044642857,120.44961963229709L101.09319196428571,120.18925467597114L101.20005580357142,118.4702725728353L101.52064732142857,120.6306377834744L101.62751116071428,119.7285045199924L101.73437500000001,120.00294774373373L101.94810267857142,119.82394777933756L102.16183035714285,113.1116773393419L102.80301339285715,116.28415756225586L103.12360491071429,115.61199573940699L103.23046874999999,116.61894268459743L103.55106026785715,114.74079920450846L103.65792410714286,113.31655536227755L103.76478794642858,112.37647264268662L103.97851562499999,111.13117595248754L104.08537946428572,107.44308861626519L104.7265625,106.59371867709689L105.15401785714286,105.47932874891492L105.26088169642858,105.40235850016275L105.474609375,101.92686733669706L105.68833705357143,103.27698525322808L105.90206473214286,102.01967752244738L106.00892857142857,103.73896895514595L106.11579241071429,103.2019049326579L106.22265625,103.52252125210234L106.32952008928572,103.46201714409722L106.65011160714286,102.99588012695312L106.86383928571429,88.66510170830621L107.07756696428572,101.87615614997016L107.39815848214286,102.93949161105685L107.61188616071429,103.09431482950846L107.71875,103.21364436679416L107.82561383928572,103.00162535773383L108.25306919642857,94.43824759589302L108.466796875,103.63716180589464L108.57366071428572,102.28525204128688L108.78738839285714,-376.783928765191L109.10797991071429,103.660033331977L109.53543526785714,103.39208225674098L109.85602678571429,103.32475780910917L110.17661830357143,98.27494515313042L110.28348214285714,103.15109943813749L110.49720982142857,103.44682981703016L110.7109375,101.63431324428983L110.92466517857143,101.30134260389539L111.458984375,103.08083635965983L111.77957589285714,103.69447076585558L111.88643973214286,103.77938927544487L111.99330357142857,103.66795141432021L112.31389508928571,102.4128542582194L113.16880580357143,101.8853077782525L113.27566964285714,99.40640479193793L113.38253348214286,72.33041093614366L113.59626116071428,103.768385442098L114.02371651785714,102.07583969963922L114.23744419642857,90.31057654486763L114.34430803571428,-162.57860853407118L114.77176339285714,85.96807988484701L114.98549107142857,-425.26664496527775L115.09235491071428,78.49492662217881L115.41294642857143,67.41849890814888L115.62667410714286,62.7350456237793L115.84040178571428,45.97660352918836L116.16099330357143,44.44791946411132L116.37472098214285,48.9264909532335L116.48158482142857,46.966857994927295L116.6953125,-5.233207363552537L116.80217633928571,42.263336012098534L117.12276785714285,38.75692698160808L117.443359375,37.70645133124458L117.55022321428571,37.500701904296875L118.29827008928571,35.318925052218965L118.40513392857143,34.80168075561524L118.51199776785714,33.37662963867187L118.61886160714285,35.18291058010525L118.83258928571428,34.312909868028434L118.939453125,34.23566046820747L119.15318080357142,33.580802239312064L119.26004464285714,32.95278023613824L119.36690848214285,32.985870954725485L119.6875,31.28735741509331L119.79436383928571,31.78248842027452L119.90122767857142,33.45554640028211L120.00809151785714,33.84025429619683L120.22181919642857,32.31028010050456L120.86300223214285,30.94778900146484L120.96986607142858,32.84302859836155L121.29045758928571,33.93755730523003L122.03850446428572,33.47492099338108L122.35909598214286,33.118067847357864L123.10714285714286,33.44285634358723L123.21400669642858,33.96334482828777L123.32087053571429,34.442307705349386L123.53459821428572,31.57809702555338L123.64146205357143,32.94322119818794L123.74832589285715,32.35488391452366L124.06891741071429,-183.54203898111982L124.17578125,-111.92524380154079L124.38950892857143,33.373989020453564L124.60323660714286,-50.71064351399739L124.71010044642857,-29.652030097113723L125.13755580357143,33.963706970214844L125.24441964285715,33.59503139919705L125.671875,32.321876186794704L125.77873883928572,33.40019904242622L125.88560267857143,27.92096150716146L125.99246651785715,34.07150455050998L126.31305803571429,33.62481002807617L126.419921875,31.67800292968749L126.52678571428572,28.51428578694661L126.84737723214286,31.60593668619791L126.95424107142857,-578.479840766059L127.80915178571429,33.286931610107416L128.23660714285714,32.30156606038411L128.45033482142856,32.99749721950955L128.6640625,33.13004116482205L128.77092633928572,32.471984015570754L129.09151785714286,33.02299050225152L129.19838169642856,33.62601716783311L129.412109375,33.215589650472005L129.51897321428572,33.6152359008789L129.62583705357142,32.836208258734814L129.73270089285714,32.92537816365561L130.0532924107143,31.688882276746963L130.908203125,32.97926186455621L131.12193080357144,26.256496853298607L131.33565848214286,33.330946943495L131.5493861607143,33.351098632812494L131.65625,28.66190388997395L131.7631138392857,-9.132525295681427L131.97684151785714,30.35826721191407L132.19056919642858,20.511371697319873L132.29743303571428,29.871774800618493L132.404296875,21.234916178385426L132.72488839285714,33.5142586602105L132.93861607142858,34.08773303561741L133.68666294642858,34.699156867133254L133.79352678571428,33.1235376993815L134.11411830357144,34.072704145643456L134.32784598214286,34.77781711154514L134.96902901785714,31.528393046061204L135.07589285714286,4.343952772352436L135.28962053571428,34.161036597357864L135.50334821428572,35.188727484809036L135.93080357142858,34.39162292480469L136.35825892857144,34.70467953152127L136.57198660714286,34.74391911824544L136.78571428571428,35.04974797566731L137.10630580357144,35.24650421142579L137.21316964285714,34.44187766181098L137.32003348214286,34.92976582845052L137.42689732142858,33.761729855007594L138.06808035714286,30.479750739203567L138.17494419642858,34.16219092475043L138.81612723214286,32.21301481458875L139.02985491071428,36.189499155680345L139.24358258928572,26.64477335611979L139.35044642857142,28.42986145019532L139.45731026785714,33.19199761284722L140.41908482142858,29.203140089246972L140.6328125,34.97661039564344L140.95340401785714,0.6589021470811693L141.380859375,35.40095774332681L141.59458705357142,34.9500834994846L141.70145089285714,22.268725755479593L142.12890625,34.94821997748481L142.23577008928572,34.534993404812276L142.44949776785714,35.86990136040582L142.55636160714286,29.970820617675784L142.66322544642858,35.275249226888015L142.98381696428572,34.239364878336595L143.09068080357142,35.59515635172525L144.15931919642856,35.071023813883464L144.373046875,34.3352796766493L144.47991071428572,35.17616568671333L144.80050223214286,34.25200966729058L144.90736607142856,31.640989006890198L145.01422991071428,34.803657446967236L145.33482142857142,34.83628039889866L145.44168526785714,34.413479699028855L145.54854910714286,33.0777569240994L147.15150669642856,34.219303724500875L147.47209821428572,32.144245571560326L147.68582589285714,30.787541198730466L147.79268973214286,34.11020092434354L148.00641741071428,31.15831417507595L148.11328125,32.618734486897786L148.43387276785714,33.34998202853733L148.7544642857143,34.805634138319235L148.861328125,34.368355305989574L148.9681919642857,30.48709920247395L149.07505580357142,20.38934495713976L149.28878348214286,34.25360912746853L149.5025111607143,33.62376887003581L149.7162388392857,34.52160924275716L149.92996651785717,34.09223717583551L150.03683035714286,33.029501512315534L150.25055803571428,33.95847854614257L150.46428571428572,34.003022003173825L150.67801339285714,32.998847707112624L150.78487723214283,33.171363067626956L150.89174107142858,34.55703879462348L150.9986049107143,35.020384301079645L151.10546875,33.53939734564888L152.17410714285714,35.42784678141276L152.6015625,35.02347759670682L153.02901785714286,34.76216201782226L153.13588169642858,33.12847188313801L153.24274553571428,34.608236609564884L153.45647321428572,33.569726732042106L153.77706473214286,35.27676569620768L154.09765625,34.762192196316185L154.31138392857142,34.62302407158745L154.52511160714286,33.05673005845812L154.63197544642858,33.952571105957034L154.845703125,35.38835067749024L155.27315848214286,34.725276353624125L155.38002232142856,34.35385453965928L155.4868861607143,34.58067609998914L155.70061383928572,35.590720113118486L155.80747767857142,33.41700846354167L156.12806919642858,34.24626820882161L156.23493303571428,35.47920303344726L156.341796875,34.78865119086372L156.44866071428572,34.156721072726775L156.66238839285714,35.36119003295899L157.19670758928572,35.849131011962896L157.51729910714286,36.182399664984814L158.05161830357144,36.17794833713108L158.26534598214286,34.88920593261719L158.69280133928572,34.944093068440765L158.90652901785714,35.41413065592449L159.333984375,35.06905466715495L159.4408482142857,36.18510064019097L159.54771205357144,35.2258319430881L159.65457589285714,31.317400105794274L159.86830357142856,36.22723736233181L160.18889508928572,33.18756137424045L160.29575892857142,35.89915186564128L160.50948660714286,35.51322928534614L160.61635044642858,31.82178836398655L160.72321428571428,36.18442916870117L161.36439732142856,35.951421017116964L161.578125,36.43446553548177L161.68498883928572,36.59893078274197L161.89871651785714,35.724893697102864L162.00558035714286,36.59304597642687L162.326171875,35.135070122612845L162.4330357142857,36.68635787963868L162.96735491071428,36.81384692721897L163.07421875,37.62689327663845L163.18108258928572,36.857273779975046L163.50167410714283,36.73229709201389L163.71540178571428,36.91008614434136L163.822265625,36.90501615736219L163.9291294642857,37.26465326944987L164.03599330357144,37.03422537909614L164.14285714285714,36.48339241875543L164.24972098214286,37.06690868801541L164.89090401785714,36.10638758341472L165.4252232142857,37.756743791368265L165.53208705357144,37.15678778754341L165.63895089285714,37.57979219224717L166.17327008928572,35.76305440266926L166.60072544642858,37.94790191650391L166.814453125,37.74676979912651L166.9213169642857,37.21845753987631L167.34877232142856,33.95130360921224L167.77622767857142,38.0981078253852L168.52427455357142,37.404628668891064L168.73800223214286,38.064421081542974L169.05859374999997,38.05565422905816L169.27232142857144,36.503574286566845L169.37918526785714,37.36308797200522L169.6997767857143,35.70348960028754L169.806640625,38.139527808295355L170.02036830357142,37.16977208455403L170.12723214285717,37.46171129014756L170.44782366071428,37.86335686577691L172.26450892857144,36.34741566975911L172.37137276785714,17.15885789659288L172.47823660714286,36.24291508992513L172.58510044642856,36.44479412502712L173.01255580357142,31.111024475097647L173.33314732142858,32.77705841064453L173.44001116071428,12.878747728135853L173.76060267857144,31.204668341742615L173.86746651785714,26.65566779242621L173.97433035714286,32.765711296929254L174.40178571428572,30.221860419379336L174.50864955357142,31.170129055447042L174.61551339285714,30.885244072808167L174.82924107142858,31.72390441894531L175.04296875,31.02423112657334L175.25669642857144,27.619644334581153L175.47042410714286,28.880290561252174L176.11160714285714,30.518635728624137L176.32533482142858,29.531361389160153L176.85965401785714,29.20771213107638L176.96651785714286,26.217023383246524L177.92829241071428,25.57100745307075L178.03515625,25.878435770670567L179.21065848214286,27.091037835015186L179.6381138392857,28.256093682183167L179.74497767857144,28.51600596110027L180.06556919642856,28.324100918240013L180.17243303571428,28.603327433268223L180.49302455357142,27.490555826822916L180.70675223214286,28.691252475314677L180.81361607142858,26.03266296386718L180.92047991071428,23.07005530463324L181.66852678571428,29.3261476304796L181.775390625,29.421526760525175L181.88225446428572,29.145016309950094L181.98911830357142,29.544805908203134L182.30970982142858,28.969286939832894L182.5234375,29.611108059353292L182.6303013392857,28.041554768880214L182.73716517857144,26.99395362006294L182.84402901785714,29.225743781195742L183.37834821428572,29.627766587999137L183.59207589285714,29.201329379611543L184.1263950892857,29.055657789442275L184.23325892857144,28.69241434733073L184.55385044642856,30.076596238878043L185.30189732142858,26.227812194824228L185.515625,29.84490085177952L186.58426339285714,29.083120218912757L186.79799107142858,30.60766228569878L186.9048549107143,28.952643500434036L187.1185825892857,29.373769293891055L187.22544642857142,30.36720004611545L187.43917410714286,-62.71700642903645L187.54603794642858,28.47540079752604L188.18722098214283,30.37064039442275L188.29408482142858,30.655087788899746L188.93526785714286,30.809586588541666L189.04213169642858,30.49423641628689L190.00390625,30.86401350233291L190.43136160714286,30.904196166992197L190.64508928571428,29.833795166015616L191.07254464285714,31.054107835557716L191.71372767857142,30.303523423936625L192.03431919642858,31.308180575900614L192.248046875,30.82743716769749L192.56863839285714,31.21971232096354L192.78236607142856,30.154743448893235L192.8892299107143,31.77029630872938L193.31668526785714,30.68173539903428L193.42354910714286,31.44555308024089L193.63727678571428,31.656017896864157L193.744140625,31.531350538465713L193.95786830357144,31.96723361545138L194.27845982142856,30.07483079698351L194.3853236607143,31.073799302842872L194.4921875,30.67130872938368L194.91964285714286,30.998654852973086L195.13337053571428,30.777642652723525L195.240234375,30.298649597167966L195.3470982142857,31.101080661349833L195.56082589285714,30.080504353841146L195.77455357142856,31.12875434027778L195.98828125,5.323546685112847L196.30887276785714,30.99230228000217L196.62946428571428,31.793933614095046L196.736328125,32.15425728691949L196.8431919642857,31.58515879313152L197.16378348214286,31.271966383192275L197.3775111607143,32.39348220825195L197.484375,31.861759779188375L197.80496651785714,31.776709238688145L197.91183035714286,31.147465006510423L198.232421875,31.883669365776914L198.65987723214286,32.04055981106229L198.76674107142856,31.63213161892362L198.87360491071428,31.873567114935977L199.62165178571428,24.23320990668402L199.8353794642857,31.88870917426216L199.94224330357144,31.87235997517903L200.04910714285714,31.492088317871094L200.36969866071428,31.933592139350036L200.4765625,32.56791390313042L200.69029017857142,31.619215223524304L201.11774553571428,20.82438303629558L201.224609375,32.294662729899095L201.3314732142857,32.02057410346137L201.65206473214286,32.529564581977L202.07952008928572,31.74594980875651L202.18638392857142,32.30004959106445L202.40011160714283,32.247901153564456L202.50697544642858,31.749827745225687L202.61383928571428,32.698903656005854L202.720703125,32.23702935112847L202.93443080357144,32.92411066691081L203.25502232142856,31.01458909776476L203.36188616071428,31.63454589843749L203.46875000000003,30.63265007866754L203.57561383928572,32.31159286499023L204.00306919642858,31.720086839463978L204.10993303571428,32.46397162543403L204.64425223214286,31.762563069661464L204.85797991071428,30.002447679307725L204.96484375000003,30.135142517089847L205.07170758928572,32.1332756890191L205.49916294642858,31.83489337497287L205.8197544642857,32.95791812472873L206.03348214285717,32.98773447672525L206.35407366071428,32.42543368869358L206.46093749999997,29.774313354492197L206.56780133928572,32.86767688327365L206.67466517857144,32.494104851616754L206.78152901785714,32.22818705240886L206.99525669642858,32.5436654832628L207.208984375,32.1059716966417L207.52957589285717,32.64219072129992L207.63643973214286,32.71217464870876L207.85016741071428,28.468112691243483L207.95703124999997,30.51205681694879L208.06389508928572,31.765528106689462L208.38448660714286,28.719167582194007L208.5982142857143,32.22818705240886L208.705078125,32.92997283935547L208.81194196428572,32.94374932183159L208.91880580357142,32.280546739366315L209.66685267857144,31.66725184122722L209.77371651785714,33.00190327962239L210.0943080357143,32.60737228393555L210.62862723214286,32.740610334608284L211.05608258928572,31.92957085503473L211.697265625,30.384220716688375L211.80412946428572,31.47481113009983L212.01785714285714,32.57218416002061L212.4453125,33.08243459065755L212.55217633928572,31.64156239827474L212.65904017857144,32.86391966078017L212.87276785714286,33.4995617336697L212.97963169642856,32.47245932685004L213.0864955357143,33.403993988037115L213.51395089285714,32.29276148478189L213.94140625,32.7880961947971L214.15513392857144,32.61733118693033L214.26199776785714,33.58852038913303L215.11690848214286,31.399349806043844L215.22377232142858,31.802843814426005L215.5443638392857,33.836632876926L215.86495535714286,33.746263376871745L216.29241071428572,30.939142862955723L216.50613839285714,33.571937306722L216.93359375,31.573147752549918L217.46791294642856,34.39358452690972L217.57477678571428,32.62581134372288L218.00223214285714,31.874381934271923L218.10909598214286,34.237425910102004L218.4296875,33.80438715616862L218.5365513392857,34.55419447157117L218.64341517857144,33.646395195855035L218.96400669642856,32.85488120185005L219.28459821428572,32.19384392632378L219.39146205357142,29.995853678385423L219.60518973214283,29.829389105902774L219.81891741071428,34.194662984212236L219.92578125,33.720777638753255L220.0326450892857,32.880087788899736L220.78069196428572,34.18762385050456L220.99441964285714,34.23766733805339L221.10128348214283,33.9557473924425L221.74246651785714,22.144360182020407L221.84933035714286,34.14094526502822L221.95619419642856,33.10969331529406L222.06305803571428,33.92636862860786L222.16992187500003,33.81246744791667L222.38364955357142,34.293806881374785L222.70424107142858,32.30063052707248L223.45228794642856,34.55946061876086L223.55915178571428,32.986670684814456L223.66601562500003,34.70054507785374L224.62779017857142,33.89534513685439L224.94838169642858,33.426401519775396L225.05524553571428,34.15955785115559L225.48270089285714,34.30304150051541L225.58956473214283,34.4240119934082L225.69642857142858,34.4752550760905L225.8032924107143,33.77723405626086L226.12388392857142,34.26460918850369L226.23074776785717,34.6013559129503L226.33761160714286,33.40084788004558L226.44447544642858,34.43189612494575L226.87193080357144,34.45901150173611L226.97879464285714,33.44868833753799L227.08565848214286,34.5656396653917L227.40625,34.10909186469185L227.61997767857142,34.305214352077904L227.83370535714286,33.98687650892469L228.04743303571428,34.79457372029622L228.154296875,33.89784240722656L228.26116071428572,31.367647298177086L228.47488839285714,34.69588250054254L228.58175223214286,34.73021808200412L229.11607142857142,34.93421715630426L229.43666294642858,34.6646477593316L229.650390625,33.50196846856011L229.97098214285714,34.75186360677083L230.2915736607143,33.830981953938796L230.3984375,34.21886613633898L230.61216517857142,33.34516855875652L230.82589285714286,34.76404817369249L231.46707589285714,34.47182227240668L231.57393973214286,34.44924875895183L231.7876674107143,34.4155167473687L232.00139508928572,34.53628353542752L232.96316964285714,34.89632051255967L233.07003348214286,33.90738635592991L233.17689732142856,34.97414330376519L233.2837611607143,34.81519317626953L234.56612723214286,32.73850538465711L234.7798549107143,34.2847533331977L234.99358258928572,34.739460245768235L235.20731026785714,34.374232567681204L235.634765625,34.698221333821614L235.7416294642857,34.216542392306856L235.84849330357144,33.47175979614258L235.95535714285714,34.19062661064996L236.06222098214286,33.107792070176856L236.16908482142856,34.24050411648221L236.27594866071428,34.66004553900825L236.48967633928572,34.3327522277832L236.59654017857142,35.17172944810655L236.70340401785714,34.170007154676654L236.91713169642858,33.71381395128037L237.45145089285714,34.783120981852214L237.77204241071428,34.06248118082683L237.98577008928572,32.61077490912544L238.09263392857142,34.12075585259332L238.30636160714283,34.31366433037651L238.626953125,34.05839199490017L238.94754464285714,32.6131967332628L239.16127232142856,35.06514655219185L239.48186383928572,34.997561815049906L239.80245535714283,34.41455103556316L239.90931919642858,33.82668151855469L240.2299107142857,34.88290617201063L240.44363839285714,34.50607486300998L240.55050223214286,33.75545272827148L241.40541294642858,34.199944220648874L241.51227678571428,34.60818379720052L241.7260044642857,35.304009331597214L242.26032366071428,34.44469935099284L242.79464285714283,35.307804277208106L242.90150669642858,34.963626098632815L243.0083705357143,34.27259894476997L243.2220982142857,34.14778823852539L243.32896205357142,34.46046761406792L243.54268973214286,34.55662384033204L243.75641741071428,34.68995242648655L244.07700892857144,34.53808670043945L244.18387276785714,31.265191311306417L244.611328125,35.04718280368382L245.14564732142858,34.9926276312934L245.35937499999997,28.518601311577683L246.0005580357143,34.41074100070529L246.107421875,34.83323237101238L246.21428571428572,33.99027913411458L246.32114955357142,34.66636793348525L246.42801339285717,34.767013210720485L246.74860491071428,34.49490127563476L246.96233258928572,34.202599928114154L247.28292410714286,34.95564388699001L247.38978794642856,35.556595781114375L247.71037946428572,31.46375071207682L247.92410714285717,33.448280927870016L248.13783482142858,35.26627866956923L248.24469866071428,35.734596082899316L248.3515625,34.23014534844292L248.77901785714286,34.87926966349284L249.20647321428572,34.87994867960612L249.31333705357142,35.40896258884006L249.42020089285714,35.332226223415795L249.84765625,34.91147766113281L249.95452008928572,34.87777582804361L250.16824776785714,34.64215723673502L250.27511160714286,34.99707895914714L250.4888392857143,31.26580997043185L250.595703125,34.705486806233715L250.70256696428572,35.125993940565316L250.91629464285714,34.56557176378039L251.02315848214286,34.475074005126956L251.13002232142858,34.48689643012153L251.23688616071428,34.16184387207031L251.55747767857144,34.79590911865235L251.77120535714286,35.4042471991645L251.87806919642856,35.21536755032009L252.51925223214286,34.94033584594726L252.62611607142858,34.79088439941407L252.73297991071428,34.520115407307934L253.16043526785714,34.760932244194876L253.37416294642856,35.51317647298176L253.587890625,33.89272715250652L254.01534598214286,34.37139578925239L254.76339285714286,34.86859402126736L255.083984375,35.38088150024414L255.29771205357142,34.27581295437283L255.51143973214286,35.67422400580513L255.61830357142858,31.22196061876085L255.83203125,34.28170530531142L256.04575892857144,35.45730099148221L256.25948660714283,34.59564463297525L256.36635044642856,34.97651231553819L256.4732142857143,35.00698504977756L256.79380580357144,35.076418219672306L256.9006696428571,34.9130620320638L257.2212611607143,35.109441036648214L257.328125,34.88163867526584L257.64871651785717,35.46977979871963L257.9693080357143,34.131454128689235L258.3967633928571,35.500146908230256L259.03794642857144,34.76648508707682L259.14481026785717,35.214507463243265L259.4654017857143,34.519398668077265L259.572265625,35.4851934644911L259.78599330357144,35.12955500284831L259.99972098214283,33.44880905151368L260.1065848214286,35.00407282511392L260.3203125,35.25729302300347L260.4271763392857,35.606948598225905L260.64090401785717,35.05584403143989L260.74776785714283,35.745407528347435L260.85463169642856,35.35787794325086L260.9614955357143,34.01682866414388L261.1752232142857,35.24556113349067L261.3889508928571,35.98165986802844L261.49581473214283,32.384519195556635L261.9232700892857,35.29399007161458L262.0301339285714,35.51890284220378L262.2438616071429,35.853929392496745L262.564453125,35.71782438490126L262.77818080357144,34.14401592678494L263.0987723214286,34.57513080173069L263.7399553571429,35.10766805013021L264.38113839285717,35.57862608167861L264.80859375,35.0199316236708L265.12918526785717,33.31361694335938L265.6635044642857,35.90201127794053L265.87723214285717,35.19468773735893L266.1978236607143,35.4160168117947L266.83900669642856,35.112338172064895L266.9458705357143,31.875234476725257L267.1595982142857,34.499933539496524L267.48018973214283,35.631114027235235L267.80078125,35.275762261284726L267.9076450892857,35.17208404541016L268.01450892857144,27.687787373860683L268.97628348214283,35.768652513292096L269.08314732142856,32.30544399685329L269.1900111607143,35.56983659532336L269.296875,34.95764321221246L269.51060267857144,35.5866460164388L269.7243303571429,35.5055413140191L270.044921875,34.95743196275498L270.1517857142857,35.677430470784515L270.57924107142856,35.21943410237631L270.79296875,35.462272898356126L270.8998325892857,34.71241277058919L271.00669642857144,35.93767471313477L271.1135602678571,35.732159169514965L271.96847098214283,34.990824466281474L272.9302455357143,35.9040030585395L273.1439732142857,35.77047831217448L273.46456473214283,35.65710525512695L273.99888392857144,35.43362596299914L274.31947544642856,35.70131674872505L274.4263392857143,31.68212983873156L274.74693080357144,34.90185826619466L274.85379464285717,34.15447277492947L275.1743861607143,33.9496588812934L275.49497767857144,35.437209659152565L275.70870535714283,34.117866261800124L275.9224330357143,35.28692830403646L276.24302455357144,35.92522608439128L276.56361607142856,35.24746992323133L276.6704799107143,35.79821989271375L276.77734375,35.22101092868382L276.99107142857144,35.48019137912326L277.84598214285717,35.04869172838L278.05970982142856,35.83890804714627L278.2734375,34.97961315578885L278.48716517857144,33.500052134195954L279.021484375,34.48472357855903L279.55580357142856,35.18333307902017L279.98325892857144,35.61241090562608L280.4107142857143,34.584637027316624L280.517578125,35.29091186523438L280.6244419642857,35.99582112630208L281.05189732142856,35.41395712958442L281.1587611607143,34.5431265089247L281.265625,35.15876024034287L281.3724888392857,36.1423075358073L281.69308035714283,35.46101294623482L282.2273995535714,35.11131210327149L282.54799107142856,35.90528564453125L282.76171875,34.90418955485027L283.18917410714283,34.00641708374023L283.29603794642856,35.66815812852647L283.4029017857143,34.59596905178494L283.509765625,36.10195134480794L283.72349330357144,35.665985276963966L283.9372209821429,35.233172861735035L284.2578125,35.40202153523763L284.57840401785717,35.799676005045576L284.68526785714283,33.998955451117624L284.8989955357143,34.47840118408203L285.1127232142857,35.85331073337131L285.8607700892857,33.942657470703125L286.18136160714283,35.8894645690918L286.28822544642856,34.24501580132379L286.501953125,34.71368781195747L286.71568080357144,35.23905766805013L286.9294084821429,35.134013875325515L287.03627232142856,33.875578223334415L287.25,35.02543165418836L287.57059151785717,35.76091927422418L287.78431919642856,36.277537367078985L288.1049107142857,33.9641219245063L288.3186383928571,34.861011674669044L288.4255022321429,35.648670366075294" style="fill: none;" fill="none"></path></g><g><path stroke="rgb(0, 119, 187)" stroke-width="2px" d="M288.53236607142856,30.59453464084202Z" style="fill: none;" fill="none"></path></g></g></g></g></g></g><g transform="translate(30, 178)" clip-path="url(#clip_1)"><clipPath id="clip_1"><rect width="299" height="22"></rect></clipPath><g><g><line x1="0" y1="0" x2="0" y2="5" style="visibility: inherit;" fill="rgb(0, 0, 0)" stroke="rgb(204, 204, 204)" stroke-width="1px"></line><line x1="21.372767857142858" y1="0" x2="21.372767857142858" y2="5" style="visibility: inherit;" fill="rgb(0, 0, 0)" stroke="rgb(204, 204, 204)" stroke-width="1px"></line><line x1="42.745535714285715" y1="0" x2="42.745535714285715" y2="5" style="visibility: inherit;" fill="rgb(0, 0, 0)" stroke="rgb(204, 204, 204)" stroke-width="1px"></line><line x1="64.11830357142857" y1="0" x2="64.11830357142857" y2="5" style="visibility: inherit;" fill="rgb(0, 0, 0)" stroke="rgb(204, 204, 204)" stroke-width="1px"></line><line x1="85.49107142857143" y1="0" x2="85.49107142857143" y2="5" style="visibility: inherit;" fill="rgb(0, 0, 0)" stroke="rgb(204, 204, 204)" stroke-width="1px"></line><line x1="106.86383928571429" y1="0" x2="106.86383928571429" y2="5" style="visibility: inherit;" fill="rgb(0, 0, 0)" stroke="rgb(204, 204, 204)" stroke-width="1px"></line><line x1="128.23660714285714" y1="0" x2="128.23660714285714" y2="5" style="visibility: inherit;" fill="rgb(0, 0, 0)" stroke="rgb(204, 204, 204)" stroke-width="1px"></line><line x1="149.609375" y1="0" x2="149.609375" y2="5" style="visibility: inherit;" fill="rgb(0, 0, 0)" stroke="rgb(204, 204, 204)" stroke-width="1px"></line><line x1="170.98214285714286" y1="0" x2="170.98214285714286" y2="5" style="visibility: inherit;" fill="rgb(0, 0, 0)" stroke="rgb(204, 204, 204)" stroke-width="1px"></line><line x1="192.35491071428572" y1="0" x2="192.35491071428572" y2="5" style="visibility: inherit;" fill="rgb(0, 0, 0)" stroke="rgb(204, 204, 204)" stroke-width="1px"></line><line x1="213.72767857142858" y1="0" x2="213.72767857142858" y2="5" style="visibility: inherit;" fill="rgb(0, 0, 0)" stroke="rgb(204, 204, 204)" stroke-width="1px"></line><line x1="235.10044642857142" y1="0" x2="235.10044642857142" y2="5" style="visibility: inherit;" fill="rgb(0, 0, 0)" stroke="rgb(204, 204, 204)" stroke-width="1px"></line><line x1="256.4732142857143" y1="0" x2="256.4732142857143" y2="5" style="visibility: inherit;" fill="rgb(0, 0, 0)" stroke="rgb(204, 204, 204)" stroke-width="1px"></line><line x1="277.84598214285717" y1="0" x2="277.84598214285717" y2="5" style="visibility: inherit;" fill="rgb(0, 0, 0)" stroke="rgb(204, 204, 204)" stroke-width="1px"></line><line x1="299.21875" y1="0" x2="299.21875" y2="5" style="visibility: inherit;" fill="rgb(0, 0, 0)" stroke="rgb(204, 204, 204)" stroke-width="1px"></line></g><g transform="translate(0, 8)"><text x="0" y="0" dx="0em" dy="0.95em" style="text-anchor: middle; visibility: hidden; font-family: Roboto, sans-serif; font-size: 12px; font-weight: 200;" fill="rgb(50, 49, 63)" stroke="none" stroke-width="1px">-200</text><text x="21.372767857142858" y="0" dx="0em" dy="0.95em" style="text-anchor: middle; visibility: inherit; font-family: Roboto, sans-serif; font-size: 12px; font-weight: 200;" fill="rgb(50, 49, 63)" stroke="none" stroke-width="1px">0</text><text x="42.745535714285715" y="0" dx="0em" dy="0.95em" style="text-anchor: middle; visibility: hidden; font-family: Roboto, sans-serif; font-size: 12px; font-weight: 200;" fill="rgb(50, 49, 63)" stroke="none" stroke-width="1px">200</text><text x="64.11830357142857" y="0" dx="0em" dy="0.95em" style="text-anchor: middle; visibility: inherit; font-family: Roboto, sans-serif; font-size: 12px; font-weight: 200;" fill="rgb(50, 49, 63)" stroke="none" stroke-width="1px">400</text><text x="85.49107142857143" y="0" dx="0em" dy="0.95em" style="text-anchor: middle; visibility: hidden; font-family: Roboto, sans-serif; font-size: 12px; font-weight: 200;" fill="rgb(50, 49, 63)" stroke="none" stroke-width="1px">600</text><text x="106.86383928571429" y="0" dx="0em" dy="0.95em" style="text-anchor: middle; visibility: inherit; font-family: Roboto, sans-serif; font-size: 12px; font-weight: 200;" fill="rgb(50, 49, 63)" stroke="none" stroke-width="1px">800</text><text x="128.23660714285714" y="0" dx="0em" dy="0.95em" style="text-anchor: middle; visibility: hidden; font-family: Roboto, sans-serif; font-size: 12px; font-weight: 200;" fill="rgb(50, 49, 63)" stroke="none" stroke-width="1px">1k</text><text x="149.609375" y="0" dx="0em" dy="0.95em" style="text-anchor: middle; visibility: inherit; font-family: Roboto, sans-serif; font-size: 12px; font-weight: 200;" fill="rgb(50, 49, 63)" stroke="none" stroke-width="1px">1.2k</text><text x="170.98214285714286" y="0" dx="0em" dy="0.95em" style="text-anchor: middle; visibility: hidden; font-family: Roboto, sans-serif; font-size: 12px; font-weight: 200;" fill="rgb(50, 49, 63)" stroke="none" stroke-width="1px">1.4k</text><text x="192.35491071428572" y="0" dx="0em" dy="0.95em" style="text-anchor: middle; visibility: inherit; font-family: Roboto, sans-serif; font-size: 12px; font-weight: 200;" fill="rgb(50, 49, 63)" stroke="none" stroke-width="1px">1.6k</text><text x="213.72767857142858" y="0" dx="0em" dy="0.95em" style="text-anchor: middle; visibility: hidden; font-family: Roboto, sans-serif; font-size: 12px; font-weight: 200;" fill="rgb(50, 49, 63)" stroke="none" stroke-width="1px">1.8k</text><text x="235.10044642857142" y="0" dx="0em" dy="0.95em" style="text-anchor: middle; visibility: inherit; font-family: Roboto, sans-serif; font-size: 12px; font-weight: 200;" fill="rgb(50, 49, 63)" stroke="none" stroke-width="1px">2k</text><text x="256.4732142857143" y="0" dx="0em" dy="0.95em" style="text-anchor: middle; visibility: hidden; font-family: Roboto, sans-serif; font-size: 12px; font-weight: 200;" fill="rgb(50, 49, 63)" stroke="none" stroke-width="1px">2.2k</text><text x="277.84598214285717" y="0" dx="0em" dy="0.95em" style="text-anchor: middle; visibility: inherit; font-family: Roboto, sans-serif; font-size: 12px; font-weight: 200;" fill="rgb(50, 49, 63)" stroke="none" stroke-width="1px">2.4k</text><text x="299.21875" y="0" dx="0em" dy="0.95em" style="text-anchor: middle; visibility: hidden; font-family: Roboto, sans-serif; font-size: 12px; font-weight: 200;" fill="rgb(50, 49, 63)" stroke="none" stroke-width="1px">2.6k</text></g><line x1="0" y1="0" x2="299.21875" y2="0" fill="rgb(0, 0, 0)" stroke="rgb(204, 204, 204)" stroke-width="1px"></line></g></g></g></g></svg>